M48
; DRILL file {KiCad 7.0.9} date Friday, March 01, 2024 at 10:25:49 PM
; FORMAT={-:-/ absolute / inch / decimal}
; #@! TF.CreationDate,2024-03-01T22:25:49+00:00
; #@! TF.GenerationSoftware,Kicad,Pcbnew,7.0.9
; #@! TF.FileFunction,Plated,1,2,PTH
FMAT,2
INCH
; #@! TA.AperFunction,Plated,PTH,ViaDrill
T1C0.0157
; #@! TA.AperFunction,Plated,PTH,ComponentDrill
T2C0.0236
; #@! TA.AperFunction,Plated,PTH,ComponentDrill
T3C0.0354
; #@! TA.AperFunction,Plated,PTH,ComponentDrill
T4C0.0394
; #@! TA.AperFunction,Plated,PTH,ComponentDrill
T5C0.0591
; #@! TA.AperFunction,Plated,PTH,ComponentDrill
T6C0.0910
%
G90
G05
T1
X2.7283Y-5.4173
X2.73Y-5.07
X2.8189Y-3.9134
X2.8274Y-3.5453
X2.8839Y-3.7051
X2.9449Y-5.3622
X2.9915Y-3.5453
X2.9961Y-3.7028
X3.0354Y-3.5039
X3.0945Y-3.7638
X3.1614Y-4.3189
X3.189Y-4.2913
X3.2205Y-4.2638
X3.3563Y-3.6378
X3.4114Y-3.5866
X3.4803Y-3.8425
X3.5512Y-5.2638
X3.7283Y-3.3976
X3.7283Y-3.502
X3.752Y-5.2638
X3.7697Y-3.8425
X3.8033Y-3.9475
X3.8209Y-3.9843
X3.8443Y-3.4108
X3.8563Y-4.5748
X3.9476Y-4.5047
X3.9803Y-4.4843
X4.0807Y-4.4409
X4.1417Y-5.2638
X4.2402Y-5.2638
X4.3894Y-3.6085
X4.8181Y-3.4965
X4.8189Y-5.2677
X4.8508Y-3.6437
X4.8941Y-3.6437
X5.0069Y-3.4743
X5.0251Y-3.3397
X5.061Y-3.3782
X5.0615Y-4.6275
X5.0682Y-4.1161
X5.1366Y-4.2402
X5.1379Y-3.5608
X5.1398Y-4.7972
X5.16Y-4.02
X5.1723Y-3.7026
X5.1735Y-3.4877
X5.1841Y-3.9199
X5.1989Y-3.5962
X5.2244Y-5.3622
X5.23Y-3.7026
X5.25Y-4.2736
X5.2956Y-3.9456
X5.3189Y-5.2677
X5.3228Y-5.3622
X5.34Y-3.7402
X5.35Y-6.638
X5.3729Y-4.0284
X5.3734Y-3.9004
X5.4154Y-3.8671
X5.43Y-3.7985
X5.4415Y-3.6238
X5.4469Y-3.9626
X5.4521Y-3.8876
X5.4685Y-4.5744
X5.4843Y-5.138
X5.4847Y-3.6309
X5.4906Y-4.0149
X5.543Y-3.7186
X5.568Y-3.8376
X5.5807Y-4.5548
X5.6153Y-3.77
X5.6335Y-3.8384
X5.6359Y-4.2941
X5.6608Y-4.0863
X5.6798Y-4.2198
X5.687Y-4.7717
X5.69Y-4.1813
X5.79Y-3.7
X5.7986Y-3.537
X5.83Y-3.7727
X5.8878Y-4.372
X5.89Y-5.888
X5.9291Y-4.7756
X6.088Y-4.2953
X6.1124Y-4.1537
X6.1248Y-4.1172
X6.1358Y-4.2953
X6.1831Y-4.2953
X6.2303Y-4.2953
X6.24Y-5.07
X6.315Y-4.1654
X6.36Y-5.07
X6.3996Y-4.7756
X6.4291Y-5.3661
X6.4667Y-4.1908
X6.4843Y-5.4134
X6.7115Y-4.1183
X6.7165Y-4.6221
X6.81Y-4.4081
X6.8839Y-4.7224
X7.0Y-3.83
X7.0669Y-5.4128
X7.0866Y-5.3661
X7.3Y-4.52
X7.3858Y-4.4547
X7.46Y-3.67
X7.5Y-3.67
X7.5394Y-4.9331
X7.54Y-3.67
X7.5656Y-4.6478
X7.58Y-3.67
X7.6398Y-4.4429
X7.835Y-4.795
X7.91Y-3.56
X7.9705Y-4.2146
X8.0059Y-4.2146
X8.0413Y-4.2146
X8.0827Y-5.3622
X8.122Y-5.3622
X8.5Y-3.5263
X8.5748Y-3.5323
X8.5748Y-4.7736
X8.7Y-3.9337
X8.74Y-3.92
X8.7728Y-3.8982
X8.786Y-4.4291
X8.8112Y-3.8897
X8.8487Y-3.8779
X8.8661Y-5.3189
X8.9685Y-5.3189
X9.1898Y-4.0669
X9.4744Y-4.1752
X9.7559Y-5.315
X9.8543Y-5.315
X9.89Y-4.83
X9.9239Y-4.4783
X9.96Y-5.07
X10.0294Y-5.2573
X10.1064Y-3.3887
X10.1827Y-3.5143
X10.2341Y-4.0734
X10.2441Y-5.2677
X10.248Y-3.937
X10.3425Y-5.2677
X10.3454Y-3.9686
X10.38Y-3.92
X10.42Y-4.19
X10.4328Y-4.11
X10.44Y-3.9124
X10.447Y-3.9743
X10.46Y-4.41
X10.4641Y-5.0491
X10.47Y-3.8257
X10.4713Y-3.6799
X10.49Y-4.45
X10.4958Y-5.9794
X10.5131Y-3.8617
X10.5216Y-4.5861
X10.5531Y-3.7931
X10.6176Y-3.8799
X10.6211Y-3.9193
X10.6406Y-3.849
X10.6595Y-3.9654
X10.73Y-4.11
X10.7547Y-4.3742
X10.7704Y-5.1818
X10.7968Y-3.7578
X10.8191Y-3.9832
X10.8223Y-4.4294
X10.83Y-3.4
X10.8315Y-4.1667
X10.8424Y-5.217
X10.8583Y-3.4646
X10.86Y-3.8
X10.8688Y-3.5951
X10.9173Y-3.5748
X10.9283Y-4.1556
X10.9498Y-4.0136
X10.96Y-3.97
X10.9995Y-3.7654
X11.0267Y-3.9355
X11.0276Y-5.2677
X11.0318Y-3.7443
X11.0524Y-4.1598
X11.0591Y-3.7165
X11.06Y-3.84
X11.07Y-3.52
X11.1215Y-3.9523
X11.122Y-3.9961
X11.1267Y-5.06
X11.1378Y-4.8031
X11.1748Y-5.0624
X11.27Y-3.8429
X11.2787Y-6.7554
X11.2913Y-3.9409
X11.3228Y-3.4409
X11.3307Y-5.2677
X11.3657Y-4.1339
X11.3976Y-3.4409
X11.4803Y-4.3898
X11.49Y-3.94
X11.5394Y-3.9606
X11.5827Y-3.5866
X11.6614Y-3.6614
X11.7244Y-5.2638
X11.7421Y-3.9783
X11.7461Y-4.3917
X11.876Y-3.5217
X12.02Y-4.2265
X12.063Y-3.9424
X12.1142Y-4.0945
X12.1181Y-5.2638
X12.1476Y-4.3898
X12.1594Y-4.0945
X12.18Y-3.98
X12.2028Y-4.0945
X12.23Y-3.9785
X12.32Y-3.9391
X12.5635Y-3.7602
X12.7626Y-5.3583
X12.7633Y-5.0433
X12.7717Y-3.7874
X12.7953Y-5.0827
X12.7953Y-5.4016
X12.815Y-3.8189
X13.001Y-3.9582
T3
X3.1063Y-3.5318
X3.13Y-3.9328
X3.1563Y-3.5318
X3.2063Y-3.5318
X3.23Y-3.9328
X3.2563Y-3.5318
X3.577Y-6.1198
X3.677Y-6.1198
T4
X3.6799Y-3.72
X3.7799Y-3.72
X3.8799Y-3.72
X3.9799Y-3.72
X4.0799Y-3.72
X4.1799Y-3.72
X5.91Y-3.72
X6.01Y-3.72
X6.11Y-3.72
X6.21Y-3.72
X6.31Y-3.72
X6.41Y-3.72
X6.6124Y-3.5459
X6.6124Y-3.6459
X6.6124Y-3.7459
X6.7124Y-3.5459
X6.7124Y-3.6459
X6.7124Y-3.7459
X7.2402Y-4.3022
X7.3402Y-4.3022
X7.4402Y-4.3022
X7.5402Y-4.3022
X8.0803Y-3.6835
X8.0803Y-3.7835
X8.1803Y-3.6835
X8.1803Y-3.7835
X8.2803Y-3.6835
X8.2803Y-3.7835
X8.3803Y-3.6835
X8.3803Y-3.7835
X8.4803Y-3.6835
X8.4803Y-3.7835
X8.5803Y-3.6835
X8.5803Y-3.7835
X8.6803Y-3.6835
X8.6803Y-3.7835
X8.7803Y-3.6835
X8.7803Y-3.7835
X9.0059Y-3.7835
X9.1043Y-3.7835
X9.3382Y-3.9681
X9.3382Y-4.0681
X9.4382Y-3.9681
X9.4382Y-4.0681
X9.4646Y-3.6575
X9.4646Y-3.7559
X9.5382Y-3.9681
X9.5382Y-4.0681
X9.5669Y-3.6575
X9.6382Y-3.9681
X9.6382Y-4.0681
X9.6693Y-3.6575
X9.7382Y-3.9681
X9.7382Y-4.0681
X9.7717Y-3.6575
X9.7717Y-3.7559
X9.8382Y-3.9681
X9.8382Y-4.0681
X9.9382Y-3.9681
X9.9382Y-4.0681
X10.0382Y-3.9681
X10.0382Y-4.0681
X12.45Y-3.96
X12.45Y-4.06
X12.45Y-4.16
X12.55Y-3.96
X12.55Y-4.06
X12.55Y-4.16
T5
X2.7721Y-4.823
X2.8658Y-7.073
X2.8658Y-7.823
X2.9596Y-5.573
X3.0221Y-4.723
X3.0533Y-6.323
X3.1158Y-6.973
X3.1158Y-7.723
X3.2096Y-5.473
X3.3033Y-6.223
X3.5221Y-4.823
X3.7096Y-7.073
X3.7721Y-4.723
X3.8033Y-7.823
X3.8971Y-5.573
X3.9596Y-6.973
X4.0533Y-7.723
X4.0846Y-6.323
X4.1471Y-5.473
X4.2721Y-4.823
X4.3346Y-6.223
X4.4596Y-7.073
X4.5221Y-4.723
X4.6471Y-5.573
X4.7096Y-6.973
X4.7408Y-7.823
X4.8346Y-6.323
X4.8971Y-5.473
X4.9908Y-7.723
X5.0221Y-4.823
X5.0846Y-6.223
X5.2096Y-7.073
X5.2721Y-4.723
X5.3971Y-5.573
X5.4596Y-6.973
X5.5846Y-6.323
X5.6471Y-5.473
X5.7721Y-4.823
X5.8346Y-6.223
X5.9596Y-7.073
X6.0221Y-4.723
X6.1471Y-5.573
X6.2096Y-6.973
X6.3346Y-6.323
X6.3971Y-5.473
X6.5221Y-4.823
X6.5846Y-6.223
X6.7096Y-7.073
X6.7721Y-4.723
X6.8971Y-5.573
X6.9596Y-6.973
X7.0846Y-6.323
X7.1471Y-5.473
X7.2721Y-4.823
X7.3346Y-6.223
X7.4596Y-7.073
X7.5221Y-4.723
X7.5533Y-7.823
X7.6471Y-5.573
X7.7096Y-6.973
X7.8033Y-7.723
X7.8346Y-6.323
X7.8971Y-5.473
X8.0221Y-4.823
X8.0846Y-6.223
X8.2096Y-7.073
X8.2721Y-4.723
X8.3971Y-5.573
X8.4596Y-6.973
X8.5846Y-6.323
X8.6471Y-5.473
X8.7721Y-4.823
X8.8346Y-6.223
X8.9596Y-7.073
X9.0221Y-4.723
X9.1471Y-5.573
X9.2096Y-6.973
X9.3346Y-6.323
X9.3971Y-5.473
X9.5221Y-4.823
X9.5846Y-6.223
X9.7096Y-7.073
X9.7721Y-4.723
X9.8971Y-5.573
X9.9596Y-6.973
X10.0846Y-6.323
X10.1471Y-5.473
X10.2721Y-4.823
X10.3346Y-6.223
X10.3658Y-7.823
X10.4596Y-7.073
X10.5221Y-4.723
X10.6158Y-7.723
X10.6471Y-5.573
X10.7096Y-6.973
X10.8346Y-6.323
X10.8971Y-5.473
X11.0221Y-4.823
X11.0846Y-6.223
X11.2096Y-7.073
X11.2721Y-4.723
X11.2958Y-7.823
X11.3971Y-5.573
X11.4596Y-6.973
X11.5458Y-7.723
X11.5846Y-6.323
X11.6471Y-5.473
X11.7721Y-4.823
X11.8346Y-6.223
X12.0221Y-4.723
X12.1471Y-5.573
X12.2408Y-7.823
X12.3971Y-5.473
X12.4908Y-7.723
X12.6158Y-7.073
X12.8033Y-6.323
X12.8658Y-6.973
X12.8971Y-4.823
X13.0533Y-6.223
X13.0846Y-5.573
X13.1471Y-4.723
X13.1708Y-7.823
X13.3346Y-5.473
X13.4208Y-7.723
X14.0221Y-4.823
X14.0221Y-5.573
X14.0221Y-6.323
X14.0221Y-7.073
X14.0221Y-7.823
X14.2721Y-4.723
X14.2721Y-5.473
X14.2721Y-6.223
X14.2721Y-6.973
X14.2721Y-7.723
T6
X9.3524Y-3.5394
X9.6181Y-3.5079
X9.8839Y-3.5394
T2
G00X11.2827Y-3.3287
M15
G01X11.2827Y-3.3602
M16
G05
G00X11.2827Y-3.487
M15
G01X11.2827Y-3.5303
M16
G05
G00X11.6228Y-3.3287
M15
G01X11.6228Y-3.3602
M16
G05
G00X11.6228Y-3.487
M15
G01X11.6228Y-3.5303
M16
G05
T0
M30
