%TF.GenerationSoftware,KiCad,Pcbnew,7.0.9*%
%TF.CreationDate,2024-01-23T21:35:22+00:00*%
%TF.ProjectId,rosco_m68k_keyboard-2,726f7363-6f5f-46d3-9638-6b5f6b657962,2*%
%TF.SameCoordinates,Original*%
%TF.FileFunction,Soldermask,Top*%
%TF.FilePolarity,Negative*%
%FSLAX46Y46*%
G04 Gerber Fmt 4.6, Leading zero omitted, Abs format (unit mm)*
G04 Created by KiCad (PCBNEW 7.0.9) date 2024-01-23 21:35:22*
%MOMM*%
%LPD*%
G01*
G04 APERTURE LIST*
G04 Aperture macros list*
%AMRoundRect*
0 Rectangle with rounded corners*
0 $1 Rounding radius*
0 $2 $3 $4 $5 $6 $7 $8 $9 X,Y pos of 4 corners*
0 Add a 4 corners polygon primitive as box body*
4,1,4,$2,$3,$4,$5,$6,$7,$8,$9,$2,$3,0*
0 Add four circle primitives for the rounded corners*
1,1,$1+$1,$2,$3*
1,1,$1+$1,$4,$5*
1,1,$1+$1,$6,$7*
1,1,$1+$1,$8,$9*
0 Add four rect primitives between the rounded corners*
20,1,$1+$1,$2,$3,$4,$5,0*
20,1,$1+$1,$4,$5,$6,$7,0*
20,1,$1+$1,$6,$7,$8,$9,0*
20,1,$1+$1,$8,$9,$2,$3,0*%
G04 Aperture macros list end*
%ADD10O,2.000000X1.600200*%
%ADD11O,4.000000X3.200000*%
%ADD12C,3.200000*%
%ADD13R,1.700000X1.700000*%
%ADD14O,1.700000X1.700000*%
%ADD15C,1.700000*%
%ADD16C,4.000000*%
%ADD17C,2.200000*%
%ADD18C,3.050000*%
%ADD19RoundRect,0.250000X-0.600000X-0.750000X0.600000X-0.750000X0.600000X0.750000X-0.600000X0.750000X0*%
%ADD20O,1.700000X2.000000*%
%ADD21R,1.070000X1.800000*%
%ADD22O,1.070000X1.800000*%
%ADD23R,1.800000X1.800000*%
%ADD24C,1.800000*%
%ADD25C,0.800000*%
%ADD26C,2.000000*%
G04 APERTURE END LIST*
D10*
%TO.C,J9*%
X240400000Y-95399992D03*
X248200000Y-95399992D03*
X240400000Y-92899992D03*
D11*
X237550001Y-89899998D03*
X244300000Y-89100000D03*
D10*
X248200000Y-92899992D03*
D11*
X251049999Y-89899998D03*
D10*
X243000000Y-92899992D03*
X245600000Y-92899992D03*
%TD*%
D12*
%TO.C,H2*%
X367878700Y-86878700D03*
%TD*%
%TO.C,H3*%
X367878700Y-212878700D03*
%TD*%
%TO.C,H4*%
X65878700Y-212878700D03*
%TD*%
%TO.C,H1*%
X65878700Y-86878700D03*
%TD*%
D13*
%TO.C,J2*%
X170495600Y-95145800D03*
D14*
X167955600Y-95145800D03*
X170495600Y-92605800D03*
X167955600Y-92605800D03*
X170495600Y-90065800D03*
X167955600Y-90065800D03*
%TD*%
D15*
%TO.C,K20*%
X173916300Y-144094000D03*
D16*
X178996300Y-144094000D03*
D15*
X184076300Y-144094000D03*
D17*
X181536300Y-139014000D03*
X175186300Y-141554000D03*
%TD*%
D15*
%TO.C,K6*%
X183441300Y-125044000D03*
D16*
X188521300Y-125044000D03*
D15*
X193601300Y-125044000D03*
D17*
X191061300Y-119964000D03*
X184711300Y-122504000D03*
%TD*%
D15*
%TO.C,K26*%
X288216300Y-144094000D03*
D16*
X293296300Y-144094000D03*
D15*
X298376300Y-144094000D03*
D17*
X295836300Y-139014000D03*
X289486300Y-141554000D03*
%TD*%
D15*
%TO.C,K46*%
X112003800Y-182194000D03*
D16*
X117083800Y-182194000D03*
D15*
X122163800Y-182194000D03*
D17*
X119623800Y-177114000D03*
X113273800Y-179654000D03*
%TD*%
D15*
%TO.C,K53*%
X245353800Y-182194000D03*
D16*
X250433800Y-182194000D03*
D15*
X255513800Y-182194000D03*
D17*
X252973800Y-177114000D03*
X246623800Y-179654000D03*
%TD*%
D15*
%TO.C,K24*%
X250116300Y-144094000D03*
D16*
X255196300Y-144094000D03*
D15*
X260276300Y-144094000D03*
D17*
X257736300Y-139014000D03*
X251386300Y-141554000D03*
%TD*%
D15*
%TO.C,K16*%
X97716300Y-144094000D03*
D16*
X102796300Y-144094000D03*
D15*
X107876300Y-144094000D03*
D17*
X105336300Y-139014000D03*
X98986300Y-141554000D03*
%TD*%
D15*
%TO.C,K52*%
X226303800Y-182194000D03*
D16*
X231383800Y-182194000D03*
D15*
X236463800Y-182194000D03*
D17*
X233923800Y-177114000D03*
X227573800Y-179654000D03*
%TD*%
D15*
%TO.C,K50*%
X188203800Y-182194000D03*
D16*
X193283800Y-182194000D03*
D15*
X198363800Y-182194000D03*
D17*
X195823800Y-177114000D03*
X189473800Y-179654000D03*
%TD*%
D15*
%TO.C,K31*%
X102478800Y-163144000D03*
D16*
X107558800Y-163144000D03*
D15*
X112638800Y-163144000D03*
D17*
X110098800Y-158064000D03*
X103748800Y-160604000D03*
%TD*%
D18*
%TO.C,K56*%
X312352500Y-175194000D03*
D16*
X312352500Y-190434000D03*
D15*
X319172500Y-182194000D03*
D16*
X324252500Y-182194000D03*
D15*
X329332500Y-182194000D03*
D18*
X336152500Y-175194000D03*
D16*
X336152500Y-190434000D03*
D17*
X326792500Y-177114000D03*
X320442500Y-179654000D03*
%TD*%
D15*
%TO.C,K44*%
X71522500Y-182194000D03*
D16*
X76602500Y-182194000D03*
D15*
X81682500Y-182194000D03*
D17*
X79142500Y-177114000D03*
X72792500Y-179654000D03*
%TD*%
D15*
%TO.C,K66*%
X354891300Y-201244000D03*
D16*
X359971300Y-201244000D03*
D15*
X365051300Y-201244000D03*
D17*
X362511300Y-196164000D03*
X356161300Y-198704000D03*
%TD*%
D15*
%TO.C,K34*%
X159628800Y-163144000D03*
D16*
X164708800Y-163144000D03*
D15*
X169788800Y-163144000D03*
D17*
X167248800Y-158064000D03*
X160898800Y-160604000D03*
%TD*%
D15*
%TO.C,K10*%
X259641300Y-125044000D03*
D16*
X264721300Y-125044000D03*
D15*
X269801300Y-125044000D03*
D17*
X267261300Y-119964000D03*
X260911300Y-122504000D03*
%TD*%
D13*
%TO.C,D70*%
X183900000Y-109275000D03*
D14*
X186440000Y-109275000D03*
X188980000Y-109275000D03*
X191520000Y-109275000D03*
%TD*%
D18*
%TO.C,K42*%
X317115000Y-156144000D03*
D16*
X317115000Y-171384000D03*
D15*
X323935000Y-163144000D03*
D16*
X329015000Y-163144000D03*
D15*
X334095000Y-163144000D03*
D18*
X340915000Y-156144000D03*
D16*
X340915000Y-171384000D03*
D17*
X331555000Y-158064000D03*
X325205000Y-160604000D03*
%TD*%
D15*
%TO.C,K28*%
X331078800Y-144094000D03*
D16*
X336158800Y-144094000D03*
D15*
X341238800Y-144094000D03*
D17*
X338698800Y-139014000D03*
X332348800Y-141554000D03*
%TD*%
D15*
%TO.C,K35*%
X178678800Y-163144000D03*
D16*
X183758800Y-163144000D03*
D15*
X188838800Y-163144000D03*
D17*
X186298800Y-158064000D03*
X179948800Y-160604000D03*
%TD*%
D15*
%TO.C,K29*%
X354891300Y-144094000D03*
D16*
X359971300Y-144094000D03*
D15*
X365051300Y-144094000D03*
D17*
X362511300Y-139014000D03*
X356161300Y-141554000D03*
%TD*%
D15*
%TO.C,K33*%
X140578800Y-163144000D03*
D16*
X145658800Y-163144000D03*
D15*
X150738800Y-163144000D03*
D17*
X148198800Y-158064000D03*
X141848800Y-160604000D03*
%TD*%
D15*
%TO.C,K5*%
X164391300Y-125044000D03*
D16*
X169471300Y-125044000D03*
D15*
X174551300Y-125044000D03*
D17*
X172011300Y-119964000D03*
X165661300Y-122504000D03*
%TD*%
D15*
%TO.C,K18*%
X135816300Y-144094000D03*
D16*
X140896300Y-144094000D03*
D15*
X145976300Y-144094000D03*
D17*
X143436300Y-139014000D03*
X137086300Y-141554000D03*
%TD*%
D15*
%TO.C,K19*%
X154866300Y-144094000D03*
D16*
X159946300Y-144094000D03*
D15*
X165026300Y-144094000D03*
D17*
X162486300Y-139014000D03*
X156136300Y-141554000D03*
%TD*%
D13*
%TO.C,J6*%
X150114000Y-94488000D03*
D14*
X152654000Y-94488000D03*
X155194000Y-94488000D03*
X157734000Y-94488000D03*
X160274000Y-94488000D03*
X162814000Y-94488000D03*
%TD*%
D15*
%TO.C,K45*%
X92953800Y-182194000D03*
D16*
X98033800Y-182194000D03*
D15*
X103113800Y-182194000D03*
D17*
X100573800Y-177114000D03*
X94223800Y-179654000D03*
%TD*%
D19*
%TO.C,J5*%
X228750000Y-99000000D03*
D20*
X231250000Y-99000000D03*
%TD*%
D18*
%TO.C,K13*%
X319496300Y-118044000D03*
D16*
X319496300Y-133284000D03*
D15*
X326316300Y-125044000D03*
D16*
X331396300Y-125044000D03*
D15*
X336476300Y-125044000D03*
D18*
X343296300Y-118044000D03*
D16*
X343296300Y-133284000D03*
D17*
X333936300Y-119964000D03*
X327586300Y-122504000D03*
%TD*%
D15*
%TO.C,K39*%
X254878800Y-163144000D03*
D16*
X259958800Y-163144000D03*
D15*
X265038800Y-163144000D03*
D17*
X262498800Y-158064000D03*
X256148800Y-160604000D03*
%TD*%
D15*
%TO.C,K60*%
X119147500Y-201244000D03*
D16*
X124227500Y-201244000D03*
D15*
X129307500Y-201244000D03*
D17*
X126767500Y-196164000D03*
X120417500Y-198704000D03*
%TD*%
D15*
%TO.C,K22*%
X212016300Y-144094000D03*
D16*
X217096300Y-144094000D03*
D15*
X222176300Y-144094000D03*
D17*
X219636300Y-139014000D03*
X213286300Y-141554000D03*
%TD*%
D15*
%TO.C,K15*%
X73903800Y-144094000D03*
D16*
X78983800Y-144094000D03*
D15*
X84063800Y-144094000D03*
D17*
X81523800Y-139014000D03*
X75173800Y-141554000D03*
%TD*%
D15*
%TO.C,K36*%
X197728800Y-163144000D03*
D16*
X202808800Y-163144000D03*
D15*
X207888800Y-163144000D03*
D17*
X205348800Y-158064000D03*
X198998800Y-160604000D03*
%TD*%
D15*
%TO.C,K12*%
X297741300Y-125044000D03*
D16*
X302821300Y-125044000D03*
D15*
X307901300Y-125044000D03*
D17*
X305361300Y-119964000D03*
X299011300Y-122504000D03*
%TD*%
D15*
%TO.C,K11*%
X278691300Y-125044000D03*
D16*
X283771300Y-125044000D03*
D15*
X288851300Y-125044000D03*
D17*
X286311300Y-119964000D03*
X279961300Y-122504000D03*
%TD*%
D15*
%TO.C,K51*%
X207253800Y-182194000D03*
D16*
X212333800Y-182194000D03*
D15*
X217413800Y-182194000D03*
D17*
X214873800Y-177114000D03*
X208523800Y-179654000D03*
%TD*%
D15*
%TO.C,K47*%
X131053800Y-182194000D03*
D16*
X136133800Y-182194000D03*
D15*
X141213800Y-182194000D03*
D17*
X138673800Y-177114000D03*
X132323800Y-179654000D03*
%TD*%
D21*
%TO.C,D69*%
X78901200Y-89708100D03*
D22*
X80171200Y-89708100D03*
X81441200Y-89708100D03*
X82711200Y-89708100D03*
%TD*%
D15*
%TO.C,K0*%
X69141300Y-125044000D03*
D16*
X74221300Y-125044000D03*
D15*
X79301300Y-125044000D03*
D17*
X76761300Y-119964000D03*
X70411300Y-122504000D03*
%TD*%
D15*
%TO.C,K40*%
X273928800Y-163144000D03*
D16*
X279008800Y-163144000D03*
D15*
X284088800Y-163144000D03*
D17*
X281548800Y-158064000D03*
X275198800Y-160604000D03*
%TD*%
D15*
%TO.C,K30*%
X76285000Y-163144000D03*
D16*
X81365000Y-163144000D03*
D15*
X86445000Y-163144000D03*
D17*
X83905000Y-158064000D03*
X77555000Y-160604000D03*
%TD*%
D15*
%TO.C,K57*%
X354891300Y-182194000D03*
D16*
X359971300Y-182194000D03*
D15*
X365051300Y-182194000D03*
D17*
X362511300Y-177114000D03*
X356161300Y-179654000D03*
%TD*%
D13*
%TO.C,J1*%
X93470000Y-94488000D03*
D14*
X96010000Y-94488000D03*
X98550000Y-94488000D03*
X101090000Y-94488000D03*
X103630000Y-94488000D03*
X106170000Y-94488000D03*
%TD*%
D15*
%TO.C,K65*%
X333269500Y-201244000D03*
D16*
X338349500Y-201244000D03*
D15*
X343429500Y-201244000D03*
D17*
X340889500Y-196164000D03*
X334539500Y-198704000D03*
%TD*%
D15*
%TO.C,K38*%
X235828800Y-163144000D03*
D16*
X240908800Y-163144000D03*
D15*
X245988800Y-163144000D03*
D17*
X243448800Y-158064000D03*
X237098800Y-160604000D03*
%TD*%
D15*
%TO.C,K27*%
X307266300Y-144094000D03*
D16*
X312346300Y-144094000D03*
D15*
X317426300Y-144094000D03*
D17*
X314886300Y-139014000D03*
X308536300Y-141554000D03*
%TD*%
D15*
%TO.C,K17*%
X116766300Y-144094000D03*
D16*
X121846300Y-144094000D03*
D15*
X126926300Y-144094000D03*
D17*
X124386300Y-139014000D03*
X118036300Y-141554000D03*
%TD*%
D15*
%TO.C,K48*%
X150103800Y-182194000D03*
D16*
X155183800Y-182194000D03*
D15*
X160263800Y-182194000D03*
D17*
X157723800Y-177114000D03*
X151373800Y-179654000D03*
%TD*%
D15*
%TO.C,K55*%
X283453800Y-182194000D03*
D16*
X288533800Y-182194000D03*
D15*
X293613800Y-182194000D03*
D17*
X291073800Y-177114000D03*
X284723800Y-179654000D03*
%TD*%
D15*
%TO.C,K58*%
X71522500Y-201244000D03*
D16*
X76602500Y-201244000D03*
D15*
X81682500Y-201244000D03*
D17*
X79142500Y-196164000D03*
X72792500Y-198704000D03*
%TD*%
D15*
%TO.C,K32*%
X121528800Y-163144000D03*
D16*
X126608800Y-163144000D03*
D15*
X131688800Y-163144000D03*
D17*
X129148800Y-158064000D03*
X122798800Y-160604000D03*
%TD*%
D15*
%TO.C,K3*%
X126291300Y-125044000D03*
D16*
X131371300Y-125044000D03*
D15*
X136451300Y-125044000D03*
D17*
X133911300Y-119964000D03*
X127561300Y-122504000D03*
%TD*%
D23*
%TO.C,D68*%
X79501200Y-99893500D03*
D24*
X82041200Y-99893500D03*
%TD*%
D15*
%TO.C,K7*%
X202491300Y-125044000D03*
D16*
X207571300Y-125044000D03*
D15*
X212651300Y-125044000D03*
D17*
X210111300Y-119964000D03*
X203761300Y-122504000D03*
%TD*%
D15*
%TO.C,K43*%
X354891300Y-163144000D03*
D16*
X359971300Y-163144000D03*
D15*
X365051300Y-163144000D03*
D17*
X362511300Y-158064000D03*
X356161300Y-160604000D03*
%TD*%
D15*
%TO.C,K49*%
X169153800Y-182194000D03*
D16*
X174233800Y-182194000D03*
D15*
X179313800Y-182194000D03*
D17*
X176773800Y-177114000D03*
X170423800Y-179654000D03*
%TD*%
D15*
%TO.C,K62*%
X262022500Y-201244000D03*
D16*
X267102500Y-201244000D03*
D15*
X272182500Y-201244000D03*
D17*
X269642500Y-196164000D03*
X263292500Y-198704000D03*
%TD*%
D18*
%TO.C,K61*%
X145665000Y-194244000D03*
D16*
X145665000Y-209484000D03*
D15*
X190585000Y-201244000D03*
D16*
X195665000Y-201244000D03*
D15*
X200745000Y-201244000D03*
D18*
X245665000Y-194244000D03*
D16*
X245665000Y-209484000D03*
D17*
X198205000Y-196164000D03*
X191855000Y-198704000D03*
%TD*%
D15*
%TO.C,K63*%
X285644500Y-201244000D03*
D16*
X290724500Y-201244000D03*
D15*
X295804500Y-201244000D03*
D17*
X293264500Y-196164000D03*
X286914500Y-198704000D03*
%TD*%
D15*
%TO.C,K25*%
X269166300Y-144094000D03*
D16*
X274246300Y-144094000D03*
D15*
X279326300Y-144094000D03*
D17*
X276786300Y-139014000D03*
X270436300Y-141554000D03*
%TD*%
D15*
%TO.C,K21*%
X192966300Y-144094000D03*
D16*
X198046300Y-144094000D03*
D15*
X203126300Y-144094000D03*
D17*
X200586300Y-139014000D03*
X194236300Y-141554000D03*
%TD*%
D15*
%TO.C,K1*%
X88191300Y-125044000D03*
D16*
X93271300Y-125044000D03*
D15*
X98351300Y-125044000D03*
D17*
X95811300Y-119964000D03*
X89461300Y-122504000D03*
%TD*%
D15*
%TO.C,K2*%
X107241300Y-125044000D03*
D16*
X112321300Y-125044000D03*
D15*
X117401300Y-125044000D03*
D17*
X114861300Y-119964000D03*
X108511300Y-122504000D03*
%TD*%
D15*
%TO.C,K59*%
X95335000Y-201244000D03*
D16*
X100415000Y-201244000D03*
D15*
X105495000Y-201244000D03*
D17*
X102955000Y-196164000D03*
X96605000Y-198704000D03*
%TD*%
D15*
%TO.C,K64*%
X309647500Y-201244000D03*
D16*
X314727500Y-201244000D03*
D15*
X319807500Y-201244000D03*
D17*
X317267500Y-196164000D03*
X310917500Y-198704000D03*
%TD*%
D15*
%TO.C,K23*%
X231066300Y-144094000D03*
D16*
X236146300Y-144094000D03*
D15*
X241226300Y-144094000D03*
D17*
X238686300Y-139014000D03*
X232336300Y-141554000D03*
%TD*%
D15*
%TO.C,K41*%
X292978800Y-163144000D03*
D16*
X298058800Y-163144000D03*
D15*
X303138800Y-163144000D03*
D17*
X300598800Y-158064000D03*
X294248800Y-160604000D03*
%TD*%
D15*
%TO.C,K8*%
X221541250Y-125044000D03*
D16*
X226621250Y-125044000D03*
D15*
X231701250Y-125044000D03*
D17*
X229161250Y-119964000D03*
X222811250Y-122504000D03*
%TD*%
D23*
%TO.C,D67*%
X90855000Y-155443300D03*
D24*
X93395000Y-155443300D03*
%TD*%
D13*
%TO.C,J3*%
X223020000Y-93560000D03*
D14*
X223020000Y-96100000D03*
X220480000Y-93560000D03*
X220480000Y-96100000D03*
X217940000Y-93560000D03*
X217940000Y-96100000D03*
X215400000Y-93560000D03*
X215400000Y-96100000D03*
X212860000Y-93560000D03*
X212860000Y-96100000D03*
X210320000Y-93560000D03*
X210320000Y-96100000D03*
X207780000Y-93560000D03*
X207780000Y-96100000D03*
X205240000Y-93560000D03*
X205240000Y-96100000D03*
%TD*%
D15*
%TO.C,K37*%
X216778750Y-163144000D03*
D16*
X221858750Y-163144000D03*
D15*
X226938750Y-163144000D03*
D17*
X224398750Y-158064000D03*
X218048750Y-160604000D03*
%TD*%
D15*
%TO.C,K4*%
X145341250Y-125044000D03*
D16*
X150421250Y-125044000D03*
D15*
X155501250Y-125044000D03*
D17*
X152961250Y-119964000D03*
X146611250Y-122504000D03*
%TD*%
D15*
%TO.C,K9*%
X240591250Y-125044000D03*
D16*
X245671250Y-125044000D03*
D15*
X250751250Y-125044000D03*
D17*
X248211250Y-119964000D03*
X241861250Y-122504000D03*
%TD*%
D13*
%TO.C,J4*%
X254970000Y-100790000D03*
D14*
X254970000Y-103330000D03*
X252430000Y-100790000D03*
X252430000Y-103330000D03*
X249890000Y-100790000D03*
X249890000Y-103330000D03*
X247350000Y-100790000D03*
X247350000Y-103330000D03*
X244810000Y-100790000D03*
X244810000Y-103330000D03*
X242270000Y-100790000D03*
X242270000Y-103330000D03*
X239730000Y-100790000D03*
X239730000Y-103330000D03*
X237190000Y-100790000D03*
X237190000Y-103330000D03*
%TD*%
D15*
%TO.C,K54*%
X264403750Y-182194000D03*
D16*
X269483750Y-182194000D03*
D15*
X274563750Y-182194000D03*
D17*
X272023750Y-177114000D03*
X265673750Y-179654000D03*
%TD*%
D15*
%TO.C,K14*%
X354891250Y-125044000D03*
D16*
X359971250Y-125044000D03*
D15*
X365051250Y-125044000D03*
D17*
X362511250Y-119964000D03*
X356161250Y-122504000D03*
%TD*%
D25*
%TO.C,J7*%
X288808000Y-87550000D03*
X293808000Y-87550000D03*
D24*
X287433000Y-84800000D03*
D26*
X287583000Y-88600000D03*
X295033000Y-88600000D03*
D24*
X295183000Y-84800000D03*
%TD*%
D13*
%TO.C,J8*%
X316230000Y-105664000D03*
D14*
X318770000Y-105664000D03*
X316230000Y-103124000D03*
X318770000Y-103124000D03*
X316230000Y-100584000D03*
X318770000Y-100584000D03*
%TD*%
M02*
