%TF.GenerationSoftware,KiCad,Pcbnew,7.0.9*%
%TF.CreationDate,2023-12-16T12:25:38+00:00*%
%TF.ProjectId,rosco_m68k_keyboard-2,726f7363-6f5f-46d3-9638-6b5f6b657962,1*%
%TF.SameCoordinates,Original*%
%TF.FileFunction,Legend,Bot*%
%TF.FilePolarity,Positive*%
%FSLAX46Y46*%
G04 Gerber Fmt 4.6, Leading zero omitted, Abs format (unit mm)*
G04 Created by KiCad (PCBNEW 7.0.9) date 2023-12-16 12:25:38*
%MOMM*%
%LPD*%
G01*
G04 APERTURE LIST*
G04 Aperture macros list*
%AMRoundRect*
0 Rectangle with rounded corners*
0 $1 Rounding radius*
0 $2 $3 $4 $5 $6 $7 $8 $9 X,Y pos of 4 corners*
0 Add a 4 corners polygon primitive as box body*
4,1,4,$2,$3,$4,$5,$6,$7,$8,$9,$2,$3,0*
0 Add four circle primitives for the rounded corners*
1,1,$1+$1,$2,$3*
1,1,$1+$1,$4,$5*
1,1,$1+$1,$6,$7*
1,1,$1+$1,$8,$9*
0 Add four rect primitives between the rounded corners*
20,1,$1+$1,$2,$3,$4,$5,0*
20,1,$1+$1,$4,$5,$6,$7,0*
20,1,$1+$1,$6,$7,$8,$9,0*
20,1,$1+$1,$8,$9,$2,$3,0*%
G04 Aperture macros list end*
%ADD10C,0.150000*%
%ADD11C,0.120000*%
%ADD12C,1.700000*%
%ADD13C,4.000000*%
%ADD14C,2.200000*%
%ADD15C,3.200000*%
%ADD16R,1.700000X1.700000*%
%ADD17O,1.700000X1.700000*%
%ADD18RoundRect,0.250000X-0.600000X-0.750000X0.600000X-0.750000X0.600000X0.750000X-0.600000X0.750000X0*%
%ADD19O,1.700000X2.000000*%
%ADD20R,1.070000X1.800000*%
%ADD21O,1.070000X1.800000*%
%ADD22C,3.050000*%
%ADD23R,1.800000X1.800000*%
%ADD24C,1.800000*%
%ADD25RoundRect,0.225000X0.375000X-0.225000X0.375000X0.225000X-0.375000X0.225000X-0.375000X-0.225000X0*%
%ADD26RoundRect,0.250000X0.325000X0.450000X-0.325000X0.450000X-0.325000X-0.450000X0.325000X-0.450000X0*%
%ADD27RoundRect,0.250000X-0.325000X-0.450000X0.325000X-0.450000X0.325000X0.450000X-0.325000X0.450000X0*%
%ADD28RoundRect,0.250000X0.450000X-0.325000X0.450000X0.325000X-0.450000X0.325000X-0.450000X-0.325000X0*%
%ADD29R,1.550000X1.300000*%
%ADD30R,3.500000X2.400000*%
%ADD31R,1.500000X0.550000*%
%ADD32R,0.550000X1.500000*%
%ADD33RoundRect,0.250000X0.350000X0.450000X-0.350000X0.450000X-0.350000X-0.450000X0.350000X-0.450000X0*%
G04 APERTURE END LIST*
D10*
X171186897Y-111375819D02*
X171520230Y-110899628D01*
X171758325Y-111375819D02*
X171758325Y-110375819D01*
X171758325Y-110375819D02*
X171377373Y-110375819D01*
X171377373Y-110375819D02*
X171282135Y-110423438D01*
X171282135Y-110423438D02*
X171234516Y-110471057D01*
X171234516Y-110471057D02*
X171186897Y-110566295D01*
X171186897Y-110566295D02*
X171186897Y-110709152D01*
X171186897Y-110709152D02*
X171234516Y-110804390D01*
X171234516Y-110804390D02*
X171282135Y-110852009D01*
X171282135Y-110852009D02*
X171377373Y-110899628D01*
X171377373Y-110899628D02*
X171758325Y-110899628D01*
X170758325Y-110852009D02*
X170424992Y-110852009D01*
X170282135Y-111375819D02*
X170758325Y-111375819D01*
X170758325Y-111375819D02*
X170758325Y-110375819D01*
X170758325Y-110375819D02*
X170282135Y-110375819D01*
X169901182Y-111328200D02*
X169758325Y-111375819D01*
X169758325Y-111375819D02*
X169520230Y-111375819D01*
X169520230Y-111375819D02*
X169424992Y-111328200D01*
X169424992Y-111328200D02*
X169377373Y-111280580D01*
X169377373Y-111280580D02*
X169329754Y-111185342D01*
X169329754Y-111185342D02*
X169329754Y-111090104D01*
X169329754Y-111090104D02*
X169377373Y-110994866D01*
X169377373Y-110994866D02*
X169424992Y-110947247D01*
X169424992Y-110947247D02*
X169520230Y-110899628D01*
X169520230Y-110899628D02*
X169710706Y-110852009D01*
X169710706Y-110852009D02*
X169805944Y-110804390D01*
X169805944Y-110804390D02*
X169853563Y-110756771D01*
X169853563Y-110756771D02*
X169901182Y-110661533D01*
X169901182Y-110661533D02*
X169901182Y-110566295D01*
X169901182Y-110566295D02*
X169853563Y-110471057D01*
X169853563Y-110471057D02*
X169805944Y-110423438D01*
X169805944Y-110423438D02*
X169710706Y-110375819D01*
X169710706Y-110375819D02*
X169472611Y-110375819D01*
X169472611Y-110375819D02*
X169329754Y-110423438D01*
X168901182Y-110852009D02*
X168567849Y-110852009D01*
X168424992Y-111375819D02*
X168901182Y-111375819D01*
X168901182Y-111375819D02*
X168901182Y-110375819D01*
X168901182Y-110375819D02*
X168424992Y-110375819D01*
X168139277Y-110375819D02*
X167567849Y-110375819D01*
X167853563Y-111375819D02*
X167853563Y-110375819D01*
X144935411Y-90293819D02*
X145506839Y-90293819D01*
X145221125Y-90293819D02*
X145221125Y-89293819D01*
X145221125Y-89293819D02*
X145316363Y-89436676D01*
X145316363Y-89436676D02*
X145411601Y-89531914D01*
X145411601Y-89531914D02*
X145506839Y-89579533D01*
X75606019Y-125850605D02*
X74606019Y-125850605D01*
X74606019Y-125850605D02*
X74606019Y-126088700D01*
X74606019Y-126088700D02*
X74653638Y-126231557D01*
X74653638Y-126231557D02*
X74748876Y-126326795D01*
X74748876Y-126326795D02*
X74844114Y-126374414D01*
X74844114Y-126374414D02*
X75034590Y-126422033D01*
X75034590Y-126422033D02*
X75177447Y-126422033D01*
X75177447Y-126422033D02*
X75367923Y-126374414D01*
X75367923Y-126374414D02*
X75463161Y-126326795D01*
X75463161Y-126326795D02*
X75558400Y-126231557D01*
X75558400Y-126231557D02*
X75606019Y-126088700D01*
X75606019Y-126088700D02*
X75606019Y-125850605D01*
X74606019Y-127041081D02*
X74606019Y-127136319D01*
X74606019Y-127136319D02*
X74653638Y-127231557D01*
X74653638Y-127231557D02*
X74701257Y-127279176D01*
X74701257Y-127279176D02*
X74796495Y-127326795D01*
X74796495Y-127326795D02*
X74986971Y-127374414D01*
X74986971Y-127374414D02*
X75225066Y-127374414D01*
X75225066Y-127374414D02*
X75415542Y-127326795D01*
X75415542Y-127326795D02*
X75510780Y-127279176D01*
X75510780Y-127279176D02*
X75558400Y-127231557D01*
X75558400Y-127231557D02*
X75606019Y-127136319D01*
X75606019Y-127136319D02*
X75606019Y-127041081D01*
X75606019Y-127041081D02*
X75558400Y-126945843D01*
X75558400Y-126945843D02*
X75510780Y-126898224D01*
X75510780Y-126898224D02*
X75415542Y-126850605D01*
X75415542Y-126850605D02*
X75225066Y-126802986D01*
X75225066Y-126802986D02*
X74986971Y-126802986D01*
X74986971Y-126802986D02*
X74796495Y-126850605D01*
X74796495Y-126850605D02*
X74701257Y-126898224D01*
X74701257Y-126898224D02*
X74653638Y-126945843D01*
X74653638Y-126945843D02*
X74606019Y-127041081D01*
X230166666Y-103459580D02*
X230214285Y-103507200D01*
X230214285Y-103507200D02*
X230357142Y-103554819D01*
X230357142Y-103554819D02*
X230452380Y-103554819D01*
X230452380Y-103554819D02*
X230595237Y-103507200D01*
X230595237Y-103507200D02*
X230690475Y-103411961D01*
X230690475Y-103411961D02*
X230738094Y-103316723D01*
X230738094Y-103316723D02*
X230785713Y-103126247D01*
X230785713Y-103126247D02*
X230785713Y-102983390D01*
X230785713Y-102983390D02*
X230738094Y-102792914D01*
X230738094Y-102792914D02*
X230690475Y-102697676D01*
X230690475Y-102697676D02*
X230595237Y-102602438D01*
X230595237Y-102602438D02*
X230452380Y-102554819D01*
X230452380Y-102554819D02*
X230357142Y-102554819D01*
X230357142Y-102554819D02*
X230214285Y-102602438D01*
X230214285Y-102602438D02*
X230166666Y-102650057D01*
X229214285Y-103554819D02*
X229785713Y-103554819D01*
X229499999Y-103554819D02*
X229499999Y-102554819D01*
X229499999Y-102554819D02*
X229595237Y-102697676D01*
X229595237Y-102697676D02*
X229690475Y-102792914D01*
X229690475Y-102792914D02*
X229785713Y-102840533D01*
X212166666Y-100359580D02*
X212214285Y-100407200D01*
X212214285Y-100407200D02*
X212357142Y-100454819D01*
X212357142Y-100454819D02*
X212452380Y-100454819D01*
X212452380Y-100454819D02*
X212595237Y-100407200D01*
X212595237Y-100407200D02*
X212690475Y-100311961D01*
X212690475Y-100311961D02*
X212738094Y-100216723D01*
X212738094Y-100216723D02*
X212785713Y-100026247D01*
X212785713Y-100026247D02*
X212785713Y-99883390D01*
X212785713Y-99883390D02*
X212738094Y-99692914D01*
X212738094Y-99692914D02*
X212690475Y-99597676D01*
X212690475Y-99597676D02*
X212595237Y-99502438D01*
X212595237Y-99502438D02*
X212452380Y-99454819D01*
X212452380Y-99454819D02*
X212357142Y-99454819D01*
X212357142Y-99454819D02*
X212214285Y-99502438D01*
X212214285Y-99502438D02*
X212166666Y-99550057D01*
X211785713Y-99550057D02*
X211738094Y-99502438D01*
X211738094Y-99502438D02*
X211642856Y-99454819D01*
X211642856Y-99454819D02*
X211404761Y-99454819D01*
X211404761Y-99454819D02*
X211309523Y-99502438D01*
X211309523Y-99502438D02*
X211261904Y-99550057D01*
X211261904Y-99550057D02*
X211214285Y-99645295D01*
X211214285Y-99645295D02*
X211214285Y-99740533D01*
X211214285Y-99740533D02*
X211261904Y-99883390D01*
X211261904Y-99883390D02*
X211833332Y-100454819D01*
X211833332Y-100454819D02*
X211214285Y-100454819D01*
X218666666Y-100359580D02*
X218714285Y-100407200D01*
X218714285Y-100407200D02*
X218857142Y-100454819D01*
X218857142Y-100454819D02*
X218952380Y-100454819D01*
X218952380Y-100454819D02*
X219095237Y-100407200D01*
X219095237Y-100407200D02*
X219190475Y-100311961D01*
X219190475Y-100311961D02*
X219238094Y-100216723D01*
X219238094Y-100216723D02*
X219285713Y-100026247D01*
X219285713Y-100026247D02*
X219285713Y-99883390D01*
X219285713Y-99883390D02*
X219238094Y-99692914D01*
X219238094Y-99692914D02*
X219190475Y-99597676D01*
X219190475Y-99597676D02*
X219095237Y-99502438D01*
X219095237Y-99502438D02*
X218952380Y-99454819D01*
X218952380Y-99454819D02*
X218857142Y-99454819D01*
X218857142Y-99454819D02*
X218714285Y-99502438D01*
X218714285Y-99502438D02*
X218666666Y-99550057D01*
X218333332Y-99454819D02*
X217714285Y-99454819D01*
X217714285Y-99454819D02*
X218047618Y-99835771D01*
X218047618Y-99835771D02*
X217904761Y-99835771D01*
X217904761Y-99835771D02*
X217809523Y-99883390D01*
X217809523Y-99883390D02*
X217761904Y-99931009D01*
X217761904Y-99931009D02*
X217714285Y-100026247D01*
X217714285Y-100026247D02*
X217714285Y-100264342D01*
X217714285Y-100264342D02*
X217761904Y-100359580D01*
X217761904Y-100359580D02*
X217809523Y-100407200D01*
X217809523Y-100407200D02*
X217904761Y-100454819D01*
X217904761Y-100454819D02*
X218190475Y-100454819D01*
X218190475Y-100454819D02*
X218285713Y-100407200D01*
X218285713Y-100407200D02*
X218333332Y-100359580D01*
X125826066Y-89896080D02*
X125873685Y-89943700D01*
X125873685Y-89943700D02*
X126016542Y-89991319D01*
X126016542Y-89991319D02*
X126111780Y-89991319D01*
X126111780Y-89991319D02*
X126254637Y-89943700D01*
X126254637Y-89943700D02*
X126349875Y-89848461D01*
X126349875Y-89848461D02*
X126397494Y-89753223D01*
X126397494Y-89753223D02*
X126445113Y-89562747D01*
X126445113Y-89562747D02*
X126445113Y-89419890D01*
X126445113Y-89419890D02*
X126397494Y-89229414D01*
X126397494Y-89229414D02*
X126349875Y-89134176D01*
X126349875Y-89134176D02*
X126254637Y-89038938D01*
X126254637Y-89038938D02*
X126111780Y-88991319D01*
X126111780Y-88991319D02*
X126016542Y-88991319D01*
X126016542Y-88991319D02*
X125873685Y-89038938D01*
X125873685Y-89038938D02*
X125826066Y-89086557D01*
X124968923Y-89324652D02*
X124968923Y-89991319D01*
X125207018Y-88943700D02*
X125445113Y-89657985D01*
X125445113Y-89657985D02*
X124826066Y-89657985D01*
X134421466Y-84943280D02*
X134469085Y-84990900D01*
X134469085Y-84990900D02*
X134611942Y-85038519D01*
X134611942Y-85038519D02*
X134707180Y-85038519D01*
X134707180Y-85038519D02*
X134850037Y-84990900D01*
X134850037Y-84990900D02*
X134945275Y-84895661D01*
X134945275Y-84895661D02*
X134992894Y-84800423D01*
X134992894Y-84800423D02*
X135040513Y-84609947D01*
X135040513Y-84609947D02*
X135040513Y-84467090D01*
X135040513Y-84467090D02*
X134992894Y-84276614D01*
X134992894Y-84276614D02*
X134945275Y-84181376D01*
X134945275Y-84181376D02*
X134850037Y-84086138D01*
X134850037Y-84086138D02*
X134707180Y-84038519D01*
X134707180Y-84038519D02*
X134611942Y-84038519D01*
X134611942Y-84038519D02*
X134469085Y-84086138D01*
X134469085Y-84086138D02*
X134421466Y-84133757D01*
X133516704Y-84038519D02*
X133992894Y-84038519D01*
X133992894Y-84038519D02*
X134040513Y-84514709D01*
X134040513Y-84514709D02*
X133992894Y-84467090D01*
X133992894Y-84467090D02*
X133897656Y-84419471D01*
X133897656Y-84419471D02*
X133659561Y-84419471D01*
X133659561Y-84419471D02*
X133564323Y-84467090D01*
X133564323Y-84467090D02*
X133516704Y-84514709D01*
X133516704Y-84514709D02*
X133469085Y-84609947D01*
X133469085Y-84609947D02*
X133469085Y-84848042D01*
X133469085Y-84848042D02*
X133516704Y-84943280D01*
X133516704Y-84943280D02*
X133564323Y-84990900D01*
X133564323Y-84990900D02*
X133659561Y-85038519D01*
X133659561Y-85038519D02*
X133897656Y-85038519D01*
X133897656Y-85038519D02*
X133992894Y-84990900D01*
X133992894Y-84990900D02*
X134040513Y-84943280D01*
X129558066Y-111784680D02*
X129605685Y-111832300D01*
X129605685Y-111832300D02*
X129748542Y-111879919D01*
X129748542Y-111879919D02*
X129843780Y-111879919D01*
X129843780Y-111879919D02*
X129986637Y-111832300D01*
X129986637Y-111832300D02*
X130081875Y-111737061D01*
X130081875Y-111737061D02*
X130129494Y-111641823D01*
X130129494Y-111641823D02*
X130177113Y-111451347D01*
X130177113Y-111451347D02*
X130177113Y-111308490D01*
X130177113Y-111308490D02*
X130129494Y-111118014D01*
X130129494Y-111118014D02*
X130081875Y-111022776D01*
X130081875Y-111022776D02*
X129986637Y-110927538D01*
X129986637Y-110927538D02*
X129843780Y-110879919D01*
X129843780Y-110879919D02*
X129748542Y-110879919D01*
X129748542Y-110879919D02*
X129605685Y-110927538D01*
X129605685Y-110927538D02*
X129558066Y-110975157D01*
X128700923Y-110879919D02*
X128891399Y-110879919D01*
X128891399Y-110879919D02*
X128986637Y-110927538D01*
X128986637Y-110927538D02*
X129034256Y-110975157D01*
X129034256Y-110975157D02*
X129129494Y-111118014D01*
X129129494Y-111118014D02*
X129177113Y-111308490D01*
X129177113Y-111308490D02*
X129177113Y-111689442D01*
X129177113Y-111689442D02*
X129129494Y-111784680D01*
X129129494Y-111784680D02*
X129081875Y-111832300D01*
X129081875Y-111832300D02*
X128986637Y-111879919D01*
X128986637Y-111879919D02*
X128796161Y-111879919D01*
X128796161Y-111879919D02*
X128700923Y-111832300D01*
X128700923Y-111832300D02*
X128653304Y-111784680D01*
X128653304Y-111784680D02*
X128605685Y-111689442D01*
X128605685Y-111689442D02*
X128605685Y-111451347D01*
X128605685Y-111451347D02*
X128653304Y-111356109D01*
X128653304Y-111356109D02*
X128700923Y-111308490D01*
X128700923Y-111308490D02*
X128796161Y-111260871D01*
X128796161Y-111260871D02*
X128986637Y-111260871D01*
X128986637Y-111260871D02*
X129081875Y-111308490D01*
X129081875Y-111308490D02*
X129129494Y-111356109D01*
X129129494Y-111356109D02*
X129177113Y-111451347D01*
X146721466Y-111743280D02*
X146769085Y-111790900D01*
X146769085Y-111790900D02*
X146911942Y-111838519D01*
X146911942Y-111838519D02*
X147007180Y-111838519D01*
X147007180Y-111838519D02*
X147150037Y-111790900D01*
X147150037Y-111790900D02*
X147245275Y-111695661D01*
X147245275Y-111695661D02*
X147292894Y-111600423D01*
X147292894Y-111600423D02*
X147340513Y-111409947D01*
X147340513Y-111409947D02*
X147340513Y-111267090D01*
X147340513Y-111267090D02*
X147292894Y-111076614D01*
X147292894Y-111076614D02*
X147245275Y-110981376D01*
X147245275Y-110981376D02*
X147150037Y-110886138D01*
X147150037Y-110886138D02*
X147007180Y-110838519D01*
X147007180Y-110838519D02*
X146911942Y-110838519D01*
X146911942Y-110838519D02*
X146769085Y-110886138D01*
X146769085Y-110886138D02*
X146721466Y-110933757D01*
X146388132Y-110838519D02*
X145721466Y-110838519D01*
X145721466Y-110838519D02*
X146150037Y-111838519D01*
X178441666Y-92054819D02*
X178774999Y-91578628D01*
X179013094Y-92054819D02*
X179013094Y-91054819D01*
X179013094Y-91054819D02*
X178632142Y-91054819D01*
X178632142Y-91054819D02*
X178536904Y-91102438D01*
X178536904Y-91102438D02*
X178489285Y-91150057D01*
X178489285Y-91150057D02*
X178441666Y-91245295D01*
X178441666Y-91245295D02*
X178441666Y-91388152D01*
X178441666Y-91388152D02*
X178489285Y-91483390D01*
X178489285Y-91483390D02*
X178536904Y-91531009D01*
X178536904Y-91531009D02*
X178632142Y-91578628D01*
X178632142Y-91578628D02*
X179013094Y-91578628D01*
X177489285Y-92054819D02*
X178060713Y-92054819D01*
X177774999Y-92054819D02*
X177774999Y-91054819D01*
X177774999Y-91054819D02*
X177870237Y-91197676D01*
X177870237Y-91197676D02*
X177965475Y-91292914D01*
X177965475Y-91292914D02*
X178060713Y-91340533D01*
X178416666Y-95354819D02*
X178749999Y-94878628D01*
X178988094Y-95354819D02*
X178988094Y-94354819D01*
X178988094Y-94354819D02*
X178607142Y-94354819D01*
X178607142Y-94354819D02*
X178511904Y-94402438D01*
X178511904Y-94402438D02*
X178464285Y-94450057D01*
X178464285Y-94450057D02*
X178416666Y-94545295D01*
X178416666Y-94545295D02*
X178416666Y-94688152D01*
X178416666Y-94688152D02*
X178464285Y-94783390D01*
X178464285Y-94783390D02*
X178511904Y-94831009D01*
X178511904Y-94831009D02*
X178607142Y-94878628D01*
X178607142Y-94878628D02*
X178988094Y-94878628D01*
X178035713Y-94450057D02*
X177988094Y-94402438D01*
X177988094Y-94402438D02*
X177892856Y-94354819D01*
X177892856Y-94354819D02*
X177654761Y-94354819D01*
X177654761Y-94354819D02*
X177559523Y-94402438D01*
X177559523Y-94402438D02*
X177511904Y-94450057D01*
X177511904Y-94450057D02*
X177464285Y-94545295D01*
X177464285Y-94545295D02*
X177464285Y-94640533D01*
X177464285Y-94640533D02*
X177511904Y-94783390D01*
X177511904Y-94783390D02*
X178083332Y-95354819D01*
X178083332Y-95354819D02*
X177464285Y-95354819D01*
X171041532Y-103009200D02*
X170898675Y-103056819D01*
X170898675Y-103056819D02*
X170660580Y-103056819D01*
X170660580Y-103056819D02*
X170565342Y-103009200D01*
X170565342Y-103009200D02*
X170517723Y-102961580D01*
X170517723Y-102961580D02*
X170470104Y-102866342D01*
X170470104Y-102866342D02*
X170470104Y-102771104D01*
X170470104Y-102771104D02*
X170517723Y-102675866D01*
X170517723Y-102675866D02*
X170565342Y-102628247D01*
X170565342Y-102628247D02*
X170660580Y-102580628D01*
X170660580Y-102580628D02*
X170851056Y-102533009D01*
X170851056Y-102533009D02*
X170946294Y-102485390D01*
X170946294Y-102485390D02*
X170993913Y-102437771D01*
X170993913Y-102437771D02*
X171041532Y-102342533D01*
X171041532Y-102342533D02*
X171041532Y-102247295D01*
X171041532Y-102247295D02*
X170993913Y-102152057D01*
X170993913Y-102152057D02*
X170946294Y-102104438D01*
X170946294Y-102104438D02*
X170851056Y-102056819D01*
X170851056Y-102056819D02*
X170612961Y-102056819D01*
X170612961Y-102056819D02*
X170470104Y-102104438D01*
X170136770Y-102056819D02*
X169898675Y-103056819D01*
X169898675Y-103056819D02*
X169708199Y-102342533D01*
X169708199Y-102342533D02*
X169517723Y-103056819D01*
X169517723Y-103056819D02*
X169279628Y-102056819D01*
X168374866Y-103056819D02*
X168946294Y-103056819D01*
X168660580Y-103056819D02*
X168660580Y-102056819D01*
X168660580Y-102056819D02*
X168755818Y-102199676D01*
X168755818Y-102199676D02*
X168851056Y-102294914D01*
X168851056Y-102294914D02*
X168946294Y-102342533D01*
X138267590Y-114203728D02*
X138267590Y-114679919D01*
X138600923Y-113679919D02*
X138267590Y-114203728D01*
X138267590Y-114203728D02*
X137934257Y-113679919D01*
X137077114Y-114679919D02*
X137648542Y-114679919D01*
X137362828Y-114679919D02*
X137362828Y-113679919D01*
X137362828Y-113679919D02*
X137458066Y-113822776D01*
X137458066Y-113822776D02*
X137553304Y-113918014D01*
X137553304Y-113918014D02*
X137648542Y-113965633D01*
X138200904Y-87659319D02*
X138200904Y-88468842D01*
X138200904Y-88468842D02*
X138153285Y-88564080D01*
X138153285Y-88564080D02*
X138105666Y-88611700D01*
X138105666Y-88611700D02*
X138010428Y-88659319D01*
X138010428Y-88659319D02*
X137819952Y-88659319D01*
X137819952Y-88659319D02*
X137724714Y-88611700D01*
X137724714Y-88611700D02*
X137677095Y-88564080D01*
X137677095Y-88564080D02*
X137629476Y-88468842D01*
X137629476Y-88468842D02*
X137629476Y-87659319D01*
X136629476Y-88659319D02*
X137200904Y-88659319D01*
X136915190Y-88659319D02*
X136915190Y-87659319D01*
X136915190Y-87659319D02*
X137010428Y-87802176D01*
X137010428Y-87802176D02*
X137105666Y-87897414D01*
X137105666Y-87897414D02*
X137200904Y-87945033D01*
X356593519Y-163474414D02*
X355593519Y-163474414D01*
X355593519Y-163474414D02*
X355593519Y-163712509D01*
X355593519Y-163712509D02*
X355641138Y-163855366D01*
X355641138Y-163855366D02*
X355736376Y-163950604D01*
X355736376Y-163950604D02*
X355831614Y-163998223D01*
X355831614Y-163998223D02*
X356022090Y-164045842D01*
X356022090Y-164045842D02*
X356164947Y-164045842D01*
X356164947Y-164045842D02*
X356355423Y-163998223D01*
X356355423Y-163998223D02*
X356450661Y-163950604D01*
X356450661Y-163950604D02*
X356545900Y-163855366D01*
X356545900Y-163855366D02*
X356593519Y-163712509D01*
X356593519Y-163712509D02*
X356593519Y-163474414D01*
X355926852Y-164902985D02*
X356593519Y-164902985D01*
X355545900Y-164664890D02*
X356260185Y-164426795D01*
X356260185Y-164426795D02*
X356260185Y-165045842D01*
X355593519Y-165331557D02*
X355593519Y-165950604D01*
X355593519Y-165950604D02*
X355974471Y-165617271D01*
X355974471Y-165617271D02*
X355974471Y-165760128D01*
X355974471Y-165760128D02*
X356022090Y-165855366D01*
X356022090Y-165855366D02*
X356069709Y-165902985D01*
X356069709Y-165902985D02*
X356164947Y-165950604D01*
X356164947Y-165950604D02*
X356403042Y-165950604D01*
X356403042Y-165950604D02*
X356498280Y-165902985D01*
X356498280Y-165902985D02*
X356545900Y-165855366D01*
X356545900Y-165855366D02*
X356593519Y-165760128D01*
X356593519Y-165760128D02*
X356593519Y-165474414D01*
X356593519Y-165474414D02*
X356545900Y-165379176D01*
X356545900Y-165379176D02*
X356498280Y-165331557D01*
X294681019Y-163474414D02*
X293681019Y-163474414D01*
X293681019Y-163474414D02*
X293681019Y-163712509D01*
X293681019Y-163712509D02*
X293728638Y-163855366D01*
X293728638Y-163855366D02*
X293823876Y-163950604D01*
X293823876Y-163950604D02*
X293919114Y-163998223D01*
X293919114Y-163998223D02*
X294109590Y-164045842D01*
X294109590Y-164045842D02*
X294252447Y-164045842D01*
X294252447Y-164045842D02*
X294442923Y-163998223D01*
X294442923Y-163998223D02*
X294538161Y-163950604D01*
X294538161Y-163950604D02*
X294633400Y-163855366D01*
X294633400Y-163855366D02*
X294681019Y-163712509D01*
X294681019Y-163712509D02*
X294681019Y-163474414D01*
X294014352Y-164902985D02*
X294681019Y-164902985D01*
X293633400Y-164664890D02*
X294347685Y-164426795D01*
X294347685Y-164426795D02*
X294347685Y-165045842D01*
X294681019Y-165950604D02*
X294681019Y-165379176D01*
X294681019Y-165664890D02*
X293681019Y-165664890D01*
X293681019Y-165664890D02*
X293823876Y-165569652D01*
X293823876Y-165569652D02*
X293919114Y-165474414D01*
X293919114Y-165474414D02*
X293966733Y-165379176D01*
X125612219Y-201574414D02*
X124612219Y-201574414D01*
X124612219Y-201574414D02*
X124612219Y-201812509D01*
X124612219Y-201812509D02*
X124659838Y-201955366D01*
X124659838Y-201955366D02*
X124755076Y-202050604D01*
X124755076Y-202050604D02*
X124850314Y-202098223D01*
X124850314Y-202098223D02*
X125040790Y-202145842D01*
X125040790Y-202145842D02*
X125183647Y-202145842D01*
X125183647Y-202145842D02*
X125374123Y-202098223D01*
X125374123Y-202098223D02*
X125469361Y-202050604D01*
X125469361Y-202050604D02*
X125564600Y-201955366D01*
X125564600Y-201955366D02*
X125612219Y-201812509D01*
X125612219Y-201812509D02*
X125612219Y-201574414D01*
X124612219Y-203002985D02*
X124612219Y-202812509D01*
X124612219Y-202812509D02*
X124659838Y-202717271D01*
X124659838Y-202717271D02*
X124707457Y-202669652D01*
X124707457Y-202669652D02*
X124850314Y-202574414D01*
X124850314Y-202574414D02*
X125040790Y-202526795D01*
X125040790Y-202526795D02*
X125421742Y-202526795D01*
X125421742Y-202526795D02*
X125516980Y-202574414D01*
X125516980Y-202574414D02*
X125564600Y-202622033D01*
X125564600Y-202622033D02*
X125612219Y-202717271D01*
X125612219Y-202717271D02*
X125612219Y-202907747D01*
X125612219Y-202907747D02*
X125564600Y-203002985D01*
X125564600Y-203002985D02*
X125516980Y-203050604D01*
X125516980Y-203050604D02*
X125421742Y-203098223D01*
X125421742Y-203098223D02*
X125183647Y-203098223D01*
X125183647Y-203098223D02*
X125088409Y-203050604D01*
X125088409Y-203050604D02*
X125040790Y-203002985D01*
X125040790Y-203002985D02*
X124993171Y-202907747D01*
X124993171Y-202907747D02*
X124993171Y-202717271D01*
X124993171Y-202717271D02*
X125040790Y-202622033D01*
X125040790Y-202622033D02*
X125088409Y-202574414D01*
X125088409Y-202574414D02*
X125183647Y-202526795D01*
X124612219Y-203717271D02*
X124612219Y-203812509D01*
X124612219Y-203812509D02*
X124659838Y-203907747D01*
X124659838Y-203907747D02*
X124707457Y-203955366D01*
X124707457Y-203955366D02*
X124802695Y-204002985D01*
X124802695Y-204002985D02*
X124993171Y-204050604D01*
X124993171Y-204050604D02*
X125231266Y-204050604D01*
X125231266Y-204050604D02*
X125421742Y-204002985D01*
X125421742Y-204002985D02*
X125516980Y-203955366D01*
X125516980Y-203955366D02*
X125564600Y-203907747D01*
X125564600Y-203907747D02*
X125612219Y-203812509D01*
X125612219Y-203812509D02*
X125612219Y-203717271D01*
X125612219Y-203717271D02*
X125564600Y-203622033D01*
X125564600Y-203622033D02*
X125516980Y-203574414D01*
X125516980Y-203574414D02*
X125421742Y-203526795D01*
X125421742Y-203526795D02*
X125231266Y-203479176D01*
X125231266Y-203479176D02*
X124993171Y-203479176D01*
X124993171Y-203479176D02*
X124802695Y-203526795D01*
X124802695Y-203526795D02*
X124707457Y-203574414D01*
X124707457Y-203574414D02*
X124659838Y-203622033D01*
X124659838Y-203622033D02*
X124612219Y-203717271D01*
X77987219Y-182524414D02*
X76987219Y-182524414D01*
X76987219Y-182524414D02*
X76987219Y-182762509D01*
X76987219Y-182762509D02*
X77034838Y-182905366D01*
X77034838Y-182905366D02*
X77130076Y-183000604D01*
X77130076Y-183000604D02*
X77225314Y-183048223D01*
X77225314Y-183048223D02*
X77415790Y-183095842D01*
X77415790Y-183095842D02*
X77558647Y-183095842D01*
X77558647Y-183095842D02*
X77749123Y-183048223D01*
X77749123Y-183048223D02*
X77844361Y-183000604D01*
X77844361Y-183000604D02*
X77939600Y-182905366D01*
X77939600Y-182905366D02*
X77987219Y-182762509D01*
X77987219Y-182762509D02*
X77987219Y-182524414D01*
X77320552Y-183952985D02*
X77987219Y-183952985D01*
X76939600Y-183714890D02*
X77653885Y-183476795D01*
X77653885Y-183476795D02*
X77653885Y-184095842D01*
X77320552Y-184905366D02*
X77987219Y-184905366D01*
X76939600Y-184667271D02*
X77653885Y-184429176D01*
X77653885Y-184429176D02*
X77653885Y-185048223D01*
X180381019Y-163474414D02*
X179381019Y-163474414D01*
X179381019Y-163474414D02*
X179381019Y-163712509D01*
X179381019Y-163712509D02*
X179428638Y-163855366D01*
X179428638Y-163855366D02*
X179523876Y-163950604D01*
X179523876Y-163950604D02*
X179619114Y-163998223D01*
X179619114Y-163998223D02*
X179809590Y-164045842D01*
X179809590Y-164045842D02*
X179952447Y-164045842D01*
X179952447Y-164045842D02*
X180142923Y-163998223D01*
X180142923Y-163998223D02*
X180238161Y-163950604D01*
X180238161Y-163950604D02*
X180333400Y-163855366D01*
X180333400Y-163855366D02*
X180381019Y-163712509D01*
X180381019Y-163712509D02*
X180381019Y-163474414D01*
X179381019Y-164379176D02*
X179381019Y-164998223D01*
X179381019Y-164998223D02*
X179761971Y-164664890D01*
X179761971Y-164664890D02*
X179761971Y-164807747D01*
X179761971Y-164807747D02*
X179809590Y-164902985D01*
X179809590Y-164902985D02*
X179857209Y-164950604D01*
X179857209Y-164950604D02*
X179952447Y-164998223D01*
X179952447Y-164998223D02*
X180190542Y-164998223D01*
X180190542Y-164998223D02*
X180285780Y-164950604D01*
X180285780Y-164950604D02*
X180333400Y-164902985D01*
X180333400Y-164902985D02*
X180381019Y-164807747D01*
X180381019Y-164807747D02*
X180381019Y-164522033D01*
X180381019Y-164522033D02*
X180333400Y-164426795D01*
X180333400Y-164426795D02*
X180285780Y-164379176D01*
X179381019Y-165902985D02*
X179381019Y-165426795D01*
X179381019Y-165426795D02*
X179857209Y-165379176D01*
X179857209Y-165379176D02*
X179809590Y-165426795D01*
X179809590Y-165426795D02*
X179761971Y-165522033D01*
X179761971Y-165522033D02*
X179761971Y-165760128D01*
X179761971Y-165760128D02*
X179809590Y-165855366D01*
X179809590Y-165855366D02*
X179857209Y-165902985D01*
X179857209Y-165902985D02*
X179952447Y-165950604D01*
X179952447Y-165950604D02*
X180190542Y-165950604D01*
X180190542Y-165950604D02*
X180285780Y-165902985D01*
X180285780Y-165902985D02*
X180333400Y-165855366D01*
X180333400Y-165855366D02*
X180381019Y-165760128D01*
X180381019Y-165760128D02*
X180381019Y-165522033D01*
X180381019Y-165522033D02*
X180333400Y-165426795D01*
X180333400Y-165426795D02*
X180285780Y-165379176D01*
X213718519Y-182524414D02*
X212718519Y-182524414D01*
X212718519Y-182524414D02*
X212718519Y-182762509D01*
X212718519Y-182762509D02*
X212766138Y-182905366D01*
X212766138Y-182905366D02*
X212861376Y-183000604D01*
X212861376Y-183000604D02*
X212956614Y-183048223D01*
X212956614Y-183048223D02*
X213147090Y-183095842D01*
X213147090Y-183095842D02*
X213289947Y-183095842D01*
X213289947Y-183095842D02*
X213480423Y-183048223D01*
X213480423Y-183048223D02*
X213575661Y-183000604D01*
X213575661Y-183000604D02*
X213670900Y-182905366D01*
X213670900Y-182905366D02*
X213718519Y-182762509D01*
X213718519Y-182762509D02*
X213718519Y-182524414D01*
X212718519Y-184000604D02*
X212718519Y-183524414D01*
X212718519Y-183524414D02*
X213194709Y-183476795D01*
X213194709Y-183476795D02*
X213147090Y-183524414D01*
X213147090Y-183524414D02*
X213099471Y-183619652D01*
X213099471Y-183619652D02*
X213099471Y-183857747D01*
X213099471Y-183857747D02*
X213147090Y-183952985D01*
X213147090Y-183952985D02*
X213194709Y-184000604D01*
X213194709Y-184000604D02*
X213289947Y-184048223D01*
X213289947Y-184048223D02*
X213528042Y-184048223D01*
X213528042Y-184048223D02*
X213623280Y-184000604D01*
X213623280Y-184000604D02*
X213670900Y-183952985D01*
X213670900Y-183952985D02*
X213718519Y-183857747D01*
X213718519Y-183857747D02*
X213718519Y-183619652D01*
X213718519Y-183619652D02*
X213670900Y-183524414D01*
X213670900Y-183524414D02*
X213623280Y-183476795D01*
X213718519Y-185000604D02*
X213718519Y-184429176D01*
X213718519Y-184714890D02*
X212718519Y-184714890D01*
X212718519Y-184714890D02*
X212861376Y-184619652D01*
X212861376Y-184619652D02*
X212956614Y-184524414D01*
X212956614Y-184524414D02*
X213004233Y-184429176D01*
X323256019Y-182524414D02*
X322256019Y-182524414D01*
X322256019Y-182524414D02*
X322256019Y-182762509D01*
X322256019Y-182762509D02*
X322303638Y-182905366D01*
X322303638Y-182905366D02*
X322398876Y-183000604D01*
X322398876Y-183000604D02*
X322494114Y-183048223D01*
X322494114Y-183048223D02*
X322684590Y-183095842D01*
X322684590Y-183095842D02*
X322827447Y-183095842D01*
X322827447Y-183095842D02*
X323017923Y-183048223D01*
X323017923Y-183048223D02*
X323113161Y-183000604D01*
X323113161Y-183000604D02*
X323208400Y-182905366D01*
X323208400Y-182905366D02*
X323256019Y-182762509D01*
X323256019Y-182762509D02*
X323256019Y-182524414D01*
X322256019Y-184000604D02*
X322256019Y-183524414D01*
X322256019Y-183524414D02*
X322732209Y-183476795D01*
X322732209Y-183476795D02*
X322684590Y-183524414D01*
X322684590Y-183524414D02*
X322636971Y-183619652D01*
X322636971Y-183619652D02*
X322636971Y-183857747D01*
X322636971Y-183857747D02*
X322684590Y-183952985D01*
X322684590Y-183952985D02*
X322732209Y-184000604D01*
X322732209Y-184000604D02*
X322827447Y-184048223D01*
X322827447Y-184048223D02*
X323065542Y-184048223D01*
X323065542Y-184048223D02*
X323160780Y-184000604D01*
X323160780Y-184000604D02*
X323208400Y-183952985D01*
X323208400Y-183952985D02*
X323256019Y-183857747D01*
X323256019Y-183857747D02*
X323256019Y-183619652D01*
X323256019Y-183619652D02*
X323208400Y-183524414D01*
X323208400Y-183524414D02*
X323160780Y-183476795D01*
X322256019Y-184905366D02*
X322256019Y-184714890D01*
X322256019Y-184714890D02*
X322303638Y-184619652D01*
X322303638Y-184619652D02*
X322351257Y-184572033D01*
X322351257Y-184572033D02*
X322494114Y-184476795D01*
X322494114Y-184476795D02*
X322684590Y-184429176D01*
X322684590Y-184429176D02*
X323065542Y-184429176D01*
X323065542Y-184429176D02*
X323160780Y-184476795D01*
X323160780Y-184476795D02*
X323208400Y-184524414D01*
X323208400Y-184524414D02*
X323256019Y-184619652D01*
X323256019Y-184619652D02*
X323256019Y-184810128D01*
X323256019Y-184810128D02*
X323208400Y-184905366D01*
X323208400Y-184905366D02*
X323160780Y-184952985D01*
X323160780Y-184952985D02*
X323065542Y-185000604D01*
X323065542Y-185000604D02*
X322827447Y-185000604D01*
X322827447Y-185000604D02*
X322732209Y-184952985D01*
X322732209Y-184952985D02*
X322684590Y-184905366D01*
X322684590Y-184905366D02*
X322636971Y-184810128D01*
X322636971Y-184810128D02*
X322636971Y-184619652D01*
X322636971Y-184619652D02*
X322684590Y-184524414D01*
X322684590Y-184524414D02*
X322732209Y-184476795D01*
X322732209Y-184476795D02*
X322827447Y-184429176D01*
X270868519Y-182524414D02*
X269868519Y-182524414D01*
X269868519Y-182524414D02*
X269868519Y-182762509D01*
X269868519Y-182762509D02*
X269916138Y-182905366D01*
X269916138Y-182905366D02*
X270011376Y-183000604D01*
X270011376Y-183000604D02*
X270106614Y-183048223D01*
X270106614Y-183048223D02*
X270297090Y-183095842D01*
X270297090Y-183095842D02*
X270439947Y-183095842D01*
X270439947Y-183095842D02*
X270630423Y-183048223D01*
X270630423Y-183048223D02*
X270725661Y-183000604D01*
X270725661Y-183000604D02*
X270820900Y-182905366D01*
X270820900Y-182905366D02*
X270868519Y-182762509D01*
X270868519Y-182762509D02*
X270868519Y-182524414D01*
X269868519Y-184000604D02*
X269868519Y-183524414D01*
X269868519Y-183524414D02*
X270344709Y-183476795D01*
X270344709Y-183476795D02*
X270297090Y-183524414D01*
X270297090Y-183524414D02*
X270249471Y-183619652D01*
X270249471Y-183619652D02*
X270249471Y-183857747D01*
X270249471Y-183857747D02*
X270297090Y-183952985D01*
X270297090Y-183952985D02*
X270344709Y-184000604D01*
X270344709Y-184000604D02*
X270439947Y-184048223D01*
X270439947Y-184048223D02*
X270678042Y-184048223D01*
X270678042Y-184048223D02*
X270773280Y-184000604D01*
X270773280Y-184000604D02*
X270820900Y-183952985D01*
X270820900Y-183952985D02*
X270868519Y-183857747D01*
X270868519Y-183857747D02*
X270868519Y-183619652D01*
X270868519Y-183619652D02*
X270820900Y-183524414D01*
X270820900Y-183524414D02*
X270773280Y-183476795D01*
X270201852Y-184905366D02*
X270868519Y-184905366D01*
X269820900Y-184667271D02*
X270535185Y-184429176D01*
X270535185Y-184429176D02*
X270535185Y-185048223D01*
X137518519Y-182524414D02*
X136518519Y-182524414D01*
X136518519Y-182524414D02*
X136518519Y-182762509D01*
X136518519Y-182762509D02*
X136566138Y-182905366D01*
X136566138Y-182905366D02*
X136661376Y-183000604D01*
X136661376Y-183000604D02*
X136756614Y-183048223D01*
X136756614Y-183048223D02*
X136947090Y-183095842D01*
X136947090Y-183095842D02*
X137089947Y-183095842D01*
X137089947Y-183095842D02*
X137280423Y-183048223D01*
X137280423Y-183048223D02*
X137375661Y-183000604D01*
X137375661Y-183000604D02*
X137470900Y-182905366D01*
X137470900Y-182905366D02*
X137518519Y-182762509D01*
X137518519Y-182762509D02*
X137518519Y-182524414D01*
X136851852Y-183952985D02*
X137518519Y-183952985D01*
X136470900Y-183714890D02*
X137185185Y-183476795D01*
X137185185Y-183476795D02*
X137185185Y-184095842D01*
X136518519Y-184381557D02*
X136518519Y-185048223D01*
X136518519Y-185048223D02*
X137518519Y-184619652D01*
X335162219Y-153949414D02*
X334162219Y-153949414D01*
X334162219Y-153949414D02*
X334162219Y-154187509D01*
X334162219Y-154187509D02*
X334209838Y-154330366D01*
X334209838Y-154330366D02*
X334305076Y-154425604D01*
X334305076Y-154425604D02*
X334400314Y-154473223D01*
X334400314Y-154473223D02*
X334590790Y-154520842D01*
X334590790Y-154520842D02*
X334733647Y-154520842D01*
X334733647Y-154520842D02*
X334924123Y-154473223D01*
X334924123Y-154473223D02*
X335019361Y-154425604D01*
X335019361Y-154425604D02*
X335114600Y-154330366D01*
X335114600Y-154330366D02*
X335162219Y-154187509D01*
X335162219Y-154187509D02*
X335162219Y-153949414D01*
X334257457Y-154901795D02*
X334209838Y-154949414D01*
X334209838Y-154949414D02*
X334162219Y-155044652D01*
X334162219Y-155044652D02*
X334162219Y-155282747D01*
X334162219Y-155282747D02*
X334209838Y-155377985D01*
X334209838Y-155377985D02*
X334257457Y-155425604D01*
X334257457Y-155425604D02*
X334352695Y-155473223D01*
X334352695Y-155473223D02*
X334447933Y-155473223D01*
X334447933Y-155473223D02*
X334590790Y-155425604D01*
X334590790Y-155425604D02*
X335162219Y-154854176D01*
X335162219Y-154854176D02*
X335162219Y-155473223D01*
X334590790Y-156044652D02*
X334543171Y-155949414D01*
X334543171Y-155949414D02*
X334495552Y-155901795D01*
X334495552Y-155901795D02*
X334400314Y-155854176D01*
X334400314Y-155854176D02*
X334352695Y-155854176D01*
X334352695Y-155854176D02*
X334257457Y-155901795D01*
X334257457Y-155901795D02*
X334209838Y-155949414D01*
X334209838Y-155949414D02*
X334162219Y-156044652D01*
X334162219Y-156044652D02*
X334162219Y-156235128D01*
X334162219Y-156235128D02*
X334209838Y-156330366D01*
X334209838Y-156330366D02*
X334257457Y-156377985D01*
X334257457Y-156377985D02*
X334352695Y-156425604D01*
X334352695Y-156425604D02*
X334400314Y-156425604D01*
X334400314Y-156425604D02*
X334495552Y-156377985D01*
X334495552Y-156377985D02*
X334543171Y-156330366D01*
X334543171Y-156330366D02*
X334590790Y-156235128D01*
X334590790Y-156235128D02*
X334590790Y-156044652D01*
X334590790Y-156044652D02*
X334638409Y-155949414D01*
X334638409Y-155949414D02*
X334686028Y-155901795D01*
X334686028Y-155901795D02*
X334781266Y-155854176D01*
X334781266Y-155854176D02*
X334971742Y-155854176D01*
X334971742Y-155854176D02*
X335066980Y-155901795D01*
X335066980Y-155901795D02*
X335114600Y-155949414D01*
X335114600Y-155949414D02*
X335162219Y-156044652D01*
X335162219Y-156044652D02*
X335162219Y-156235128D01*
X335162219Y-156235128D02*
X335114600Y-156330366D01*
X335114600Y-156330366D02*
X335066980Y-156377985D01*
X335066980Y-156377985D02*
X334971742Y-156425604D01*
X334971742Y-156425604D02*
X334781266Y-156425604D01*
X334781266Y-156425604D02*
X334686028Y-156377985D01*
X334686028Y-156377985D02*
X334638409Y-156330366D01*
X334638409Y-156330366D02*
X334590790Y-156235128D01*
X311349719Y-201574414D02*
X310349719Y-201574414D01*
X310349719Y-201574414D02*
X310349719Y-201812509D01*
X310349719Y-201812509D02*
X310397338Y-201955366D01*
X310397338Y-201955366D02*
X310492576Y-202050604D01*
X310492576Y-202050604D02*
X310587814Y-202098223D01*
X310587814Y-202098223D02*
X310778290Y-202145842D01*
X310778290Y-202145842D02*
X310921147Y-202145842D01*
X310921147Y-202145842D02*
X311111623Y-202098223D01*
X311111623Y-202098223D02*
X311206861Y-202050604D01*
X311206861Y-202050604D02*
X311302100Y-201955366D01*
X311302100Y-201955366D02*
X311349719Y-201812509D01*
X311349719Y-201812509D02*
X311349719Y-201574414D01*
X310349719Y-203002985D02*
X310349719Y-202812509D01*
X310349719Y-202812509D02*
X310397338Y-202717271D01*
X310397338Y-202717271D02*
X310444957Y-202669652D01*
X310444957Y-202669652D02*
X310587814Y-202574414D01*
X310587814Y-202574414D02*
X310778290Y-202526795D01*
X310778290Y-202526795D02*
X311159242Y-202526795D01*
X311159242Y-202526795D02*
X311254480Y-202574414D01*
X311254480Y-202574414D02*
X311302100Y-202622033D01*
X311302100Y-202622033D02*
X311349719Y-202717271D01*
X311349719Y-202717271D02*
X311349719Y-202907747D01*
X311349719Y-202907747D02*
X311302100Y-203002985D01*
X311302100Y-203002985D02*
X311254480Y-203050604D01*
X311254480Y-203050604D02*
X311159242Y-203098223D01*
X311159242Y-203098223D02*
X310921147Y-203098223D01*
X310921147Y-203098223D02*
X310825909Y-203050604D01*
X310825909Y-203050604D02*
X310778290Y-203002985D01*
X310778290Y-203002985D02*
X310730671Y-202907747D01*
X310730671Y-202907747D02*
X310730671Y-202717271D01*
X310730671Y-202717271D02*
X310778290Y-202622033D01*
X310778290Y-202622033D02*
X310825909Y-202574414D01*
X310825909Y-202574414D02*
X310921147Y-202526795D01*
X310683052Y-203955366D02*
X311349719Y-203955366D01*
X310302100Y-203717271D02*
X311016385Y-203479176D01*
X311016385Y-203479176D02*
X311016385Y-204098223D01*
X189906019Y-125850605D02*
X188906019Y-125850605D01*
X188906019Y-125850605D02*
X188906019Y-126088700D01*
X188906019Y-126088700D02*
X188953638Y-126231557D01*
X188953638Y-126231557D02*
X189048876Y-126326795D01*
X189048876Y-126326795D02*
X189144114Y-126374414D01*
X189144114Y-126374414D02*
X189334590Y-126422033D01*
X189334590Y-126422033D02*
X189477447Y-126422033D01*
X189477447Y-126422033D02*
X189667923Y-126374414D01*
X189667923Y-126374414D02*
X189763161Y-126326795D01*
X189763161Y-126326795D02*
X189858400Y-126231557D01*
X189858400Y-126231557D02*
X189906019Y-126088700D01*
X189906019Y-126088700D02*
X189906019Y-125850605D01*
X188906019Y-127279176D02*
X188906019Y-127088700D01*
X188906019Y-127088700D02*
X188953638Y-126993462D01*
X188953638Y-126993462D02*
X189001257Y-126945843D01*
X189001257Y-126945843D02*
X189144114Y-126850605D01*
X189144114Y-126850605D02*
X189334590Y-126802986D01*
X189334590Y-126802986D02*
X189715542Y-126802986D01*
X189715542Y-126802986D02*
X189810780Y-126850605D01*
X189810780Y-126850605D02*
X189858400Y-126898224D01*
X189858400Y-126898224D02*
X189906019Y-126993462D01*
X189906019Y-126993462D02*
X189906019Y-127183938D01*
X189906019Y-127183938D02*
X189858400Y-127279176D01*
X189858400Y-127279176D02*
X189810780Y-127326795D01*
X189810780Y-127326795D02*
X189715542Y-127374414D01*
X189715542Y-127374414D02*
X189477447Y-127374414D01*
X189477447Y-127374414D02*
X189382209Y-127326795D01*
X189382209Y-127326795D02*
X189334590Y-127279176D01*
X189334590Y-127279176D02*
X189286971Y-127183938D01*
X189286971Y-127183938D02*
X189286971Y-126993462D01*
X189286971Y-126993462D02*
X189334590Y-126898224D01*
X189334590Y-126898224D02*
X189382209Y-126850605D01*
X189382209Y-126850605D02*
X189477447Y-126802986D01*
X99418519Y-144424414D02*
X98418519Y-144424414D01*
X98418519Y-144424414D02*
X98418519Y-144662509D01*
X98418519Y-144662509D02*
X98466138Y-144805366D01*
X98466138Y-144805366D02*
X98561376Y-144900604D01*
X98561376Y-144900604D02*
X98656614Y-144948223D01*
X98656614Y-144948223D02*
X98847090Y-144995842D01*
X98847090Y-144995842D02*
X98989947Y-144995842D01*
X98989947Y-144995842D02*
X99180423Y-144948223D01*
X99180423Y-144948223D02*
X99275661Y-144900604D01*
X99275661Y-144900604D02*
X99370900Y-144805366D01*
X99370900Y-144805366D02*
X99418519Y-144662509D01*
X99418519Y-144662509D02*
X99418519Y-144424414D01*
X99418519Y-145948223D02*
X99418519Y-145376795D01*
X99418519Y-145662509D02*
X98418519Y-145662509D01*
X98418519Y-145662509D02*
X98561376Y-145567271D01*
X98561376Y-145567271D02*
X98656614Y-145472033D01*
X98656614Y-145472033D02*
X98704233Y-145376795D01*
X98418519Y-146805366D02*
X98418519Y-146614890D01*
X98418519Y-146614890D02*
X98466138Y-146519652D01*
X98466138Y-146519652D02*
X98513757Y-146472033D01*
X98513757Y-146472033D02*
X98656614Y-146376795D01*
X98656614Y-146376795D02*
X98847090Y-146329176D01*
X98847090Y-146329176D02*
X99228042Y-146329176D01*
X99228042Y-146329176D02*
X99323280Y-146376795D01*
X99323280Y-146376795D02*
X99370900Y-146424414D01*
X99370900Y-146424414D02*
X99418519Y-146519652D01*
X99418519Y-146519652D02*
X99418519Y-146710128D01*
X99418519Y-146710128D02*
X99370900Y-146805366D01*
X99370900Y-146805366D02*
X99323280Y-146852985D01*
X99323280Y-146852985D02*
X99228042Y-146900604D01*
X99228042Y-146900604D02*
X98989947Y-146900604D01*
X98989947Y-146900604D02*
X98894709Y-146852985D01*
X98894709Y-146852985D02*
X98847090Y-146805366D01*
X98847090Y-146805366D02*
X98799471Y-146710128D01*
X98799471Y-146710128D02*
X98799471Y-146519652D01*
X98799471Y-146519652D02*
X98847090Y-146424414D01*
X98847090Y-146424414D02*
X98894709Y-146376795D01*
X98894709Y-146376795D02*
X98989947Y-146329176D01*
X289918519Y-182524414D02*
X288918519Y-182524414D01*
X288918519Y-182524414D02*
X288918519Y-182762509D01*
X288918519Y-182762509D02*
X288966138Y-182905366D01*
X288966138Y-182905366D02*
X289061376Y-183000604D01*
X289061376Y-183000604D02*
X289156614Y-183048223D01*
X289156614Y-183048223D02*
X289347090Y-183095842D01*
X289347090Y-183095842D02*
X289489947Y-183095842D01*
X289489947Y-183095842D02*
X289680423Y-183048223D01*
X289680423Y-183048223D02*
X289775661Y-183000604D01*
X289775661Y-183000604D02*
X289870900Y-182905366D01*
X289870900Y-182905366D02*
X289918519Y-182762509D01*
X289918519Y-182762509D02*
X289918519Y-182524414D01*
X288918519Y-184000604D02*
X288918519Y-183524414D01*
X288918519Y-183524414D02*
X289394709Y-183476795D01*
X289394709Y-183476795D02*
X289347090Y-183524414D01*
X289347090Y-183524414D02*
X289299471Y-183619652D01*
X289299471Y-183619652D02*
X289299471Y-183857747D01*
X289299471Y-183857747D02*
X289347090Y-183952985D01*
X289347090Y-183952985D02*
X289394709Y-184000604D01*
X289394709Y-184000604D02*
X289489947Y-184048223D01*
X289489947Y-184048223D02*
X289728042Y-184048223D01*
X289728042Y-184048223D02*
X289823280Y-184000604D01*
X289823280Y-184000604D02*
X289870900Y-183952985D01*
X289870900Y-183952985D02*
X289918519Y-183857747D01*
X289918519Y-183857747D02*
X289918519Y-183619652D01*
X289918519Y-183619652D02*
X289870900Y-183524414D01*
X289870900Y-183524414D02*
X289823280Y-183476795D01*
X288918519Y-184952985D02*
X288918519Y-184476795D01*
X288918519Y-184476795D02*
X289394709Y-184429176D01*
X289394709Y-184429176D02*
X289347090Y-184476795D01*
X289347090Y-184476795D02*
X289299471Y-184572033D01*
X289299471Y-184572033D02*
X289299471Y-184810128D01*
X289299471Y-184810128D02*
X289347090Y-184905366D01*
X289347090Y-184905366D02*
X289394709Y-184952985D01*
X289394709Y-184952985D02*
X289489947Y-185000604D01*
X289489947Y-185000604D02*
X289728042Y-185000604D01*
X289728042Y-185000604D02*
X289823280Y-184952985D01*
X289823280Y-184952985D02*
X289870900Y-184905366D01*
X289870900Y-184905366D02*
X289918519Y-184810128D01*
X289918519Y-184810128D02*
X289918519Y-184572033D01*
X289918519Y-184572033D02*
X289870900Y-184476795D01*
X289870900Y-184476795D02*
X289823280Y-184429176D01*
X92536266Y-161614119D02*
X92869599Y-161137928D01*
X93107694Y-161614119D02*
X93107694Y-160614119D01*
X93107694Y-160614119D02*
X92726742Y-160614119D01*
X92726742Y-160614119D02*
X92631504Y-160661738D01*
X92631504Y-160661738D02*
X92583885Y-160709357D01*
X92583885Y-160709357D02*
X92536266Y-160804595D01*
X92536266Y-160804595D02*
X92536266Y-160947452D01*
X92536266Y-160947452D02*
X92583885Y-161042690D01*
X92583885Y-161042690D02*
X92631504Y-161090309D01*
X92631504Y-161090309D02*
X92726742Y-161137928D01*
X92726742Y-161137928D02*
X93107694Y-161137928D01*
X92202932Y-160614119D02*
X91583885Y-160614119D01*
X91583885Y-160614119D02*
X91917218Y-160995071D01*
X91917218Y-160995071D02*
X91774361Y-160995071D01*
X91774361Y-160995071D02*
X91679123Y-161042690D01*
X91679123Y-161042690D02*
X91631504Y-161090309D01*
X91631504Y-161090309D02*
X91583885Y-161185547D01*
X91583885Y-161185547D02*
X91583885Y-161423642D01*
X91583885Y-161423642D02*
X91631504Y-161518880D01*
X91631504Y-161518880D02*
X91679123Y-161566500D01*
X91679123Y-161566500D02*
X91774361Y-161614119D01*
X91774361Y-161614119D02*
X92060075Y-161614119D01*
X92060075Y-161614119D02*
X92155313Y-161566500D01*
X92155313Y-161566500D02*
X92202932Y-161518880D01*
X73749666Y-86099919D02*
X74082999Y-85623728D01*
X74321094Y-86099919D02*
X74321094Y-85099919D01*
X74321094Y-85099919D02*
X73940142Y-85099919D01*
X73940142Y-85099919D02*
X73844904Y-85147538D01*
X73844904Y-85147538D02*
X73797285Y-85195157D01*
X73797285Y-85195157D02*
X73749666Y-85290395D01*
X73749666Y-85290395D02*
X73749666Y-85433252D01*
X73749666Y-85433252D02*
X73797285Y-85528490D01*
X73797285Y-85528490D02*
X73844904Y-85576109D01*
X73844904Y-85576109D02*
X73940142Y-85623728D01*
X73940142Y-85623728D02*
X74321094Y-85623728D01*
X72844904Y-85099919D02*
X73321094Y-85099919D01*
X73321094Y-85099919D02*
X73368713Y-85576109D01*
X73368713Y-85576109D02*
X73321094Y-85528490D01*
X73321094Y-85528490D02*
X73225856Y-85480871D01*
X73225856Y-85480871D02*
X72987761Y-85480871D01*
X72987761Y-85480871D02*
X72892523Y-85528490D01*
X72892523Y-85528490D02*
X72844904Y-85576109D01*
X72844904Y-85576109D02*
X72797285Y-85671347D01*
X72797285Y-85671347D02*
X72797285Y-85909442D01*
X72797285Y-85909442D02*
X72844904Y-86004680D01*
X72844904Y-86004680D02*
X72892523Y-86052300D01*
X72892523Y-86052300D02*
X72987761Y-86099919D01*
X72987761Y-86099919D02*
X73225856Y-86099919D01*
X73225856Y-86099919D02*
X73321094Y-86052300D01*
X73321094Y-86052300D02*
X73368713Y-86004680D01*
X289918519Y-144424414D02*
X288918519Y-144424414D01*
X288918519Y-144424414D02*
X288918519Y-144662509D01*
X288918519Y-144662509D02*
X288966138Y-144805366D01*
X288966138Y-144805366D02*
X289061376Y-144900604D01*
X289061376Y-144900604D02*
X289156614Y-144948223D01*
X289156614Y-144948223D02*
X289347090Y-144995842D01*
X289347090Y-144995842D02*
X289489947Y-144995842D01*
X289489947Y-144995842D02*
X289680423Y-144948223D01*
X289680423Y-144948223D02*
X289775661Y-144900604D01*
X289775661Y-144900604D02*
X289870900Y-144805366D01*
X289870900Y-144805366D02*
X289918519Y-144662509D01*
X289918519Y-144662509D02*
X289918519Y-144424414D01*
X289013757Y-145376795D02*
X288966138Y-145424414D01*
X288966138Y-145424414D02*
X288918519Y-145519652D01*
X288918519Y-145519652D02*
X288918519Y-145757747D01*
X288918519Y-145757747D02*
X288966138Y-145852985D01*
X288966138Y-145852985D02*
X289013757Y-145900604D01*
X289013757Y-145900604D02*
X289108995Y-145948223D01*
X289108995Y-145948223D02*
X289204233Y-145948223D01*
X289204233Y-145948223D02*
X289347090Y-145900604D01*
X289347090Y-145900604D02*
X289918519Y-145329176D01*
X289918519Y-145329176D02*
X289918519Y-145948223D01*
X288918519Y-146805366D02*
X288918519Y-146614890D01*
X288918519Y-146614890D02*
X288966138Y-146519652D01*
X288966138Y-146519652D02*
X289013757Y-146472033D01*
X289013757Y-146472033D02*
X289156614Y-146376795D01*
X289156614Y-146376795D02*
X289347090Y-146329176D01*
X289347090Y-146329176D02*
X289728042Y-146329176D01*
X289728042Y-146329176D02*
X289823280Y-146376795D01*
X289823280Y-146376795D02*
X289870900Y-146424414D01*
X289870900Y-146424414D02*
X289918519Y-146519652D01*
X289918519Y-146519652D02*
X289918519Y-146710128D01*
X289918519Y-146710128D02*
X289870900Y-146805366D01*
X289870900Y-146805366D02*
X289823280Y-146852985D01*
X289823280Y-146852985D02*
X289728042Y-146900604D01*
X289728042Y-146900604D02*
X289489947Y-146900604D01*
X289489947Y-146900604D02*
X289394709Y-146852985D01*
X289394709Y-146852985D02*
X289347090Y-146805366D01*
X289347090Y-146805366D02*
X289299471Y-146710128D01*
X289299471Y-146710128D02*
X289299471Y-146519652D01*
X289299471Y-146519652D02*
X289347090Y-146424414D01*
X289347090Y-146424414D02*
X289394709Y-146376795D01*
X289394709Y-146376795D02*
X289489947Y-146329176D01*
X77987219Y-201574414D02*
X76987219Y-201574414D01*
X76987219Y-201574414D02*
X76987219Y-201812509D01*
X76987219Y-201812509D02*
X77034838Y-201955366D01*
X77034838Y-201955366D02*
X77130076Y-202050604D01*
X77130076Y-202050604D02*
X77225314Y-202098223D01*
X77225314Y-202098223D02*
X77415790Y-202145842D01*
X77415790Y-202145842D02*
X77558647Y-202145842D01*
X77558647Y-202145842D02*
X77749123Y-202098223D01*
X77749123Y-202098223D02*
X77844361Y-202050604D01*
X77844361Y-202050604D02*
X77939600Y-201955366D01*
X77939600Y-201955366D02*
X77987219Y-201812509D01*
X77987219Y-201812509D02*
X77987219Y-201574414D01*
X76987219Y-203050604D02*
X76987219Y-202574414D01*
X76987219Y-202574414D02*
X77463409Y-202526795D01*
X77463409Y-202526795D02*
X77415790Y-202574414D01*
X77415790Y-202574414D02*
X77368171Y-202669652D01*
X77368171Y-202669652D02*
X77368171Y-202907747D01*
X77368171Y-202907747D02*
X77415790Y-203002985D01*
X77415790Y-203002985D02*
X77463409Y-203050604D01*
X77463409Y-203050604D02*
X77558647Y-203098223D01*
X77558647Y-203098223D02*
X77796742Y-203098223D01*
X77796742Y-203098223D02*
X77891980Y-203050604D01*
X77891980Y-203050604D02*
X77939600Y-203002985D01*
X77939600Y-203002985D02*
X77987219Y-202907747D01*
X77987219Y-202907747D02*
X77987219Y-202669652D01*
X77987219Y-202669652D02*
X77939600Y-202574414D01*
X77939600Y-202574414D02*
X77891980Y-202526795D01*
X77415790Y-203669652D02*
X77368171Y-203574414D01*
X77368171Y-203574414D02*
X77320552Y-203526795D01*
X77320552Y-203526795D02*
X77225314Y-203479176D01*
X77225314Y-203479176D02*
X77177695Y-203479176D01*
X77177695Y-203479176D02*
X77082457Y-203526795D01*
X77082457Y-203526795D02*
X77034838Y-203574414D01*
X77034838Y-203574414D02*
X76987219Y-203669652D01*
X76987219Y-203669652D02*
X76987219Y-203860128D01*
X76987219Y-203860128D02*
X77034838Y-203955366D01*
X77034838Y-203955366D02*
X77082457Y-204002985D01*
X77082457Y-204002985D02*
X77177695Y-204050604D01*
X77177695Y-204050604D02*
X77225314Y-204050604D01*
X77225314Y-204050604D02*
X77320552Y-204002985D01*
X77320552Y-204002985D02*
X77368171Y-203955366D01*
X77368171Y-203955366D02*
X77415790Y-203860128D01*
X77415790Y-203860128D02*
X77415790Y-203669652D01*
X77415790Y-203669652D02*
X77463409Y-203574414D01*
X77463409Y-203574414D02*
X77511028Y-203526795D01*
X77511028Y-203526795D02*
X77606266Y-203479176D01*
X77606266Y-203479176D02*
X77796742Y-203479176D01*
X77796742Y-203479176D02*
X77891980Y-203526795D01*
X77891980Y-203526795D02*
X77939600Y-203574414D01*
X77939600Y-203574414D02*
X77987219Y-203669652D01*
X77987219Y-203669652D02*
X77987219Y-203860128D01*
X77987219Y-203860128D02*
X77939600Y-203955366D01*
X77939600Y-203955366D02*
X77891980Y-204002985D01*
X77891980Y-204002985D02*
X77796742Y-204050604D01*
X77796742Y-204050604D02*
X77606266Y-204050604D01*
X77606266Y-204050604D02*
X77511028Y-204002985D01*
X77511028Y-204002985D02*
X77463409Y-203955366D01*
X77463409Y-203955366D02*
X77415790Y-203860128D01*
X73749666Y-100998319D02*
X74082999Y-100522128D01*
X74321094Y-100998319D02*
X74321094Y-99998319D01*
X74321094Y-99998319D02*
X73940142Y-99998319D01*
X73940142Y-99998319D02*
X73844904Y-100045938D01*
X73844904Y-100045938D02*
X73797285Y-100093557D01*
X73797285Y-100093557D02*
X73749666Y-100188795D01*
X73749666Y-100188795D02*
X73749666Y-100331652D01*
X73749666Y-100331652D02*
X73797285Y-100426890D01*
X73797285Y-100426890D02*
X73844904Y-100474509D01*
X73844904Y-100474509D02*
X73940142Y-100522128D01*
X73940142Y-100522128D02*
X74321094Y-100522128D01*
X72892523Y-100331652D02*
X72892523Y-100998319D01*
X73130618Y-99950700D02*
X73368713Y-100664985D01*
X73368713Y-100664985D02*
X72749666Y-100664985D01*
X356593519Y-125374414D02*
X355593519Y-125374414D01*
X355593519Y-125374414D02*
X355593519Y-125612509D01*
X355593519Y-125612509D02*
X355641138Y-125755366D01*
X355641138Y-125755366D02*
X355736376Y-125850604D01*
X355736376Y-125850604D02*
X355831614Y-125898223D01*
X355831614Y-125898223D02*
X356022090Y-125945842D01*
X356022090Y-125945842D02*
X356164947Y-125945842D01*
X356164947Y-125945842D02*
X356355423Y-125898223D01*
X356355423Y-125898223D02*
X356450661Y-125850604D01*
X356450661Y-125850604D02*
X356545900Y-125755366D01*
X356545900Y-125755366D02*
X356593519Y-125612509D01*
X356593519Y-125612509D02*
X356593519Y-125374414D01*
X356593519Y-126898223D02*
X356593519Y-126326795D01*
X356593519Y-126612509D02*
X355593519Y-126612509D01*
X355593519Y-126612509D02*
X355736376Y-126517271D01*
X355736376Y-126517271D02*
X355831614Y-126422033D01*
X355831614Y-126422033D02*
X355879233Y-126326795D01*
X355926852Y-127755366D02*
X356593519Y-127755366D01*
X355545900Y-127517271D02*
X356260185Y-127279176D01*
X356260185Y-127279176D02*
X356260185Y-127898223D01*
X170856019Y-125850605D02*
X169856019Y-125850605D01*
X169856019Y-125850605D02*
X169856019Y-126088700D01*
X169856019Y-126088700D02*
X169903638Y-126231557D01*
X169903638Y-126231557D02*
X169998876Y-126326795D01*
X169998876Y-126326795D02*
X170094114Y-126374414D01*
X170094114Y-126374414D02*
X170284590Y-126422033D01*
X170284590Y-126422033D02*
X170427447Y-126422033D01*
X170427447Y-126422033D02*
X170617923Y-126374414D01*
X170617923Y-126374414D02*
X170713161Y-126326795D01*
X170713161Y-126326795D02*
X170808400Y-126231557D01*
X170808400Y-126231557D02*
X170856019Y-126088700D01*
X170856019Y-126088700D02*
X170856019Y-125850605D01*
X169856019Y-127326795D02*
X169856019Y-126850605D01*
X169856019Y-126850605D02*
X170332209Y-126802986D01*
X170332209Y-126802986D02*
X170284590Y-126850605D01*
X170284590Y-126850605D02*
X170236971Y-126945843D01*
X170236971Y-126945843D02*
X170236971Y-127183938D01*
X170236971Y-127183938D02*
X170284590Y-127279176D01*
X170284590Y-127279176D02*
X170332209Y-127326795D01*
X170332209Y-127326795D02*
X170427447Y-127374414D01*
X170427447Y-127374414D02*
X170665542Y-127374414D01*
X170665542Y-127374414D02*
X170760780Y-127326795D01*
X170760780Y-127326795D02*
X170808400Y-127279176D01*
X170808400Y-127279176D02*
X170856019Y-127183938D01*
X170856019Y-127183938D02*
X170856019Y-126945843D01*
X170856019Y-126945843D02*
X170808400Y-126850605D01*
X170808400Y-126850605D02*
X170760780Y-126802986D01*
X175618519Y-182524414D02*
X174618519Y-182524414D01*
X174618519Y-182524414D02*
X174618519Y-182762509D01*
X174618519Y-182762509D02*
X174666138Y-182905366D01*
X174666138Y-182905366D02*
X174761376Y-183000604D01*
X174761376Y-183000604D02*
X174856614Y-183048223D01*
X174856614Y-183048223D02*
X175047090Y-183095842D01*
X175047090Y-183095842D02*
X175189947Y-183095842D01*
X175189947Y-183095842D02*
X175380423Y-183048223D01*
X175380423Y-183048223D02*
X175475661Y-183000604D01*
X175475661Y-183000604D02*
X175570900Y-182905366D01*
X175570900Y-182905366D02*
X175618519Y-182762509D01*
X175618519Y-182762509D02*
X175618519Y-182524414D01*
X174951852Y-183952985D02*
X175618519Y-183952985D01*
X174570900Y-183714890D02*
X175285185Y-183476795D01*
X175285185Y-183476795D02*
X175285185Y-184095842D01*
X175618519Y-184524414D02*
X175618519Y-184714890D01*
X175618519Y-184714890D02*
X175570900Y-184810128D01*
X175570900Y-184810128D02*
X175523280Y-184857747D01*
X175523280Y-184857747D02*
X175380423Y-184952985D01*
X175380423Y-184952985D02*
X175189947Y-185000604D01*
X175189947Y-185000604D02*
X174808995Y-185000604D01*
X174808995Y-185000604D02*
X174713757Y-184952985D01*
X174713757Y-184952985D02*
X174666138Y-184905366D01*
X174666138Y-184905366D02*
X174618519Y-184810128D01*
X174618519Y-184810128D02*
X174618519Y-184619652D01*
X174618519Y-184619652D02*
X174666138Y-184524414D01*
X174666138Y-184524414D02*
X174713757Y-184476795D01*
X174713757Y-184476795D02*
X174808995Y-184429176D01*
X174808995Y-184429176D02*
X175047090Y-184429176D01*
X175047090Y-184429176D02*
X175142328Y-184476795D01*
X175142328Y-184476795D02*
X175189947Y-184524414D01*
X175189947Y-184524414D02*
X175237566Y-184619652D01*
X175237566Y-184619652D02*
X175237566Y-184810128D01*
X175237566Y-184810128D02*
X175189947Y-184905366D01*
X175189947Y-184905366D02*
X175142328Y-184952985D01*
X175142328Y-184952985D02*
X175047090Y-185000604D01*
X99418519Y-182524414D02*
X98418519Y-182524414D01*
X98418519Y-182524414D02*
X98418519Y-182762509D01*
X98418519Y-182762509D02*
X98466138Y-182905366D01*
X98466138Y-182905366D02*
X98561376Y-183000604D01*
X98561376Y-183000604D02*
X98656614Y-183048223D01*
X98656614Y-183048223D02*
X98847090Y-183095842D01*
X98847090Y-183095842D02*
X98989947Y-183095842D01*
X98989947Y-183095842D02*
X99180423Y-183048223D01*
X99180423Y-183048223D02*
X99275661Y-183000604D01*
X99275661Y-183000604D02*
X99370900Y-182905366D01*
X99370900Y-182905366D02*
X99418519Y-182762509D01*
X99418519Y-182762509D02*
X99418519Y-182524414D01*
X98751852Y-183952985D02*
X99418519Y-183952985D01*
X98370900Y-183714890D02*
X99085185Y-183476795D01*
X99085185Y-183476795D02*
X99085185Y-184095842D01*
X98418519Y-184952985D02*
X98418519Y-184476795D01*
X98418519Y-184476795D02*
X98894709Y-184429176D01*
X98894709Y-184429176D02*
X98847090Y-184476795D01*
X98847090Y-184476795D02*
X98799471Y-184572033D01*
X98799471Y-184572033D02*
X98799471Y-184810128D01*
X98799471Y-184810128D02*
X98847090Y-184905366D01*
X98847090Y-184905366D02*
X98894709Y-184952985D01*
X98894709Y-184952985D02*
X98989947Y-185000604D01*
X98989947Y-185000604D02*
X99228042Y-185000604D01*
X99228042Y-185000604D02*
X99323280Y-184952985D01*
X99323280Y-184952985D02*
X99370900Y-184905366D01*
X99370900Y-184905366D02*
X99418519Y-184810128D01*
X99418519Y-184810128D02*
X99418519Y-184572033D01*
X99418519Y-184572033D02*
X99370900Y-184476795D01*
X99370900Y-184476795D02*
X99323280Y-184429176D01*
X178504066Y-108026219D02*
X178837399Y-107550028D01*
X179075494Y-108026219D02*
X179075494Y-107026219D01*
X179075494Y-107026219D02*
X178694542Y-107026219D01*
X178694542Y-107026219D02*
X178599304Y-107073838D01*
X178599304Y-107073838D02*
X178551685Y-107121457D01*
X178551685Y-107121457D02*
X178504066Y-107216695D01*
X178504066Y-107216695D02*
X178504066Y-107359552D01*
X178504066Y-107359552D02*
X178551685Y-107454790D01*
X178551685Y-107454790D02*
X178599304Y-107502409D01*
X178599304Y-107502409D02*
X178694542Y-107550028D01*
X178694542Y-107550028D02*
X179075494Y-107550028D01*
X178027875Y-108026219D02*
X177837399Y-108026219D01*
X177837399Y-108026219D02*
X177742161Y-107978600D01*
X177742161Y-107978600D02*
X177694542Y-107930980D01*
X177694542Y-107930980D02*
X177599304Y-107788123D01*
X177599304Y-107788123D02*
X177551685Y-107597647D01*
X177551685Y-107597647D02*
X177551685Y-107216695D01*
X177551685Y-107216695D02*
X177599304Y-107121457D01*
X177599304Y-107121457D02*
X177646923Y-107073838D01*
X177646923Y-107073838D02*
X177742161Y-107026219D01*
X177742161Y-107026219D02*
X177932637Y-107026219D01*
X177932637Y-107026219D02*
X178027875Y-107073838D01*
X178027875Y-107073838D02*
X178075494Y-107121457D01*
X178075494Y-107121457D02*
X178123113Y-107216695D01*
X178123113Y-107216695D02*
X178123113Y-107454790D01*
X178123113Y-107454790D02*
X178075494Y-107550028D01*
X178075494Y-107550028D02*
X178027875Y-107597647D01*
X178027875Y-107597647D02*
X177932637Y-107645266D01*
X177932637Y-107645266D02*
X177742161Y-107645266D01*
X177742161Y-107645266D02*
X177646923Y-107597647D01*
X177646923Y-107597647D02*
X177599304Y-107550028D01*
X177599304Y-107550028D02*
X177551685Y-107454790D01*
X73749666Y-91066019D02*
X74082999Y-90589828D01*
X74321094Y-91066019D02*
X74321094Y-90066019D01*
X74321094Y-90066019D02*
X73940142Y-90066019D01*
X73940142Y-90066019D02*
X73844904Y-90113638D01*
X73844904Y-90113638D02*
X73797285Y-90161257D01*
X73797285Y-90161257D02*
X73749666Y-90256495D01*
X73749666Y-90256495D02*
X73749666Y-90399352D01*
X73749666Y-90399352D02*
X73797285Y-90494590D01*
X73797285Y-90494590D02*
X73844904Y-90542209D01*
X73844904Y-90542209D02*
X73940142Y-90589828D01*
X73940142Y-90589828D02*
X74321094Y-90589828D01*
X72892523Y-90066019D02*
X73082999Y-90066019D01*
X73082999Y-90066019D02*
X73178237Y-90113638D01*
X73178237Y-90113638D02*
X73225856Y-90161257D01*
X73225856Y-90161257D02*
X73321094Y-90304114D01*
X73321094Y-90304114D02*
X73368713Y-90494590D01*
X73368713Y-90494590D02*
X73368713Y-90875542D01*
X73368713Y-90875542D02*
X73321094Y-90970780D01*
X73321094Y-90970780D02*
X73273475Y-91018400D01*
X73273475Y-91018400D02*
X73178237Y-91066019D01*
X73178237Y-91066019D02*
X72987761Y-91066019D01*
X72987761Y-91066019D02*
X72892523Y-91018400D01*
X72892523Y-91018400D02*
X72844904Y-90970780D01*
X72844904Y-90970780D02*
X72797285Y-90875542D01*
X72797285Y-90875542D02*
X72797285Y-90637447D01*
X72797285Y-90637447D02*
X72844904Y-90542209D01*
X72844904Y-90542209D02*
X72892523Y-90494590D01*
X72892523Y-90494590D02*
X72987761Y-90446971D01*
X72987761Y-90446971D02*
X73178237Y-90446971D01*
X73178237Y-90446971D02*
X73273475Y-90494590D01*
X73273475Y-90494590D02*
X73321094Y-90542209D01*
X73321094Y-90542209D02*
X73368713Y-90637447D01*
X308968519Y-144424414D02*
X307968519Y-144424414D01*
X307968519Y-144424414D02*
X307968519Y-144662509D01*
X307968519Y-144662509D02*
X308016138Y-144805366D01*
X308016138Y-144805366D02*
X308111376Y-144900604D01*
X308111376Y-144900604D02*
X308206614Y-144948223D01*
X308206614Y-144948223D02*
X308397090Y-144995842D01*
X308397090Y-144995842D02*
X308539947Y-144995842D01*
X308539947Y-144995842D02*
X308730423Y-144948223D01*
X308730423Y-144948223D02*
X308825661Y-144900604D01*
X308825661Y-144900604D02*
X308920900Y-144805366D01*
X308920900Y-144805366D02*
X308968519Y-144662509D01*
X308968519Y-144662509D02*
X308968519Y-144424414D01*
X308063757Y-145376795D02*
X308016138Y-145424414D01*
X308016138Y-145424414D02*
X307968519Y-145519652D01*
X307968519Y-145519652D02*
X307968519Y-145757747D01*
X307968519Y-145757747D02*
X308016138Y-145852985D01*
X308016138Y-145852985D02*
X308063757Y-145900604D01*
X308063757Y-145900604D02*
X308158995Y-145948223D01*
X308158995Y-145948223D02*
X308254233Y-145948223D01*
X308254233Y-145948223D02*
X308397090Y-145900604D01*
X308397090Y-145900604D02*
X308968519Y-145329176D01*
X308968519Y-145329176D02*
X308968519Y-145948223D01*
X307968519Y-146281557D02*
X307968519Y-146948223D01*
X307968519Y-146948223D02*
X308968519Y-146519652D01*
X356593519Y-201574414D02*
X355593519Y-201574414D01*
X355593519Y-201574414D02*
X355593519Y-201812509D01*
X355593519Y-201812509D02*
X355641138Y-201955366D01*
X355641138Y-201955366D02*
X355736376Y-202050604D01*
X355736376Y-202050604D02*
X355831614Y-202098223D01*
X355831614Y-202098223D02*
X356022090Y-202145842D01*
X356022090Y-202145842D02*
X356164947Y-202145842D01*
X356164947Y-202145842D02*
X356355423Y-202098223D01*
X356355423Y-202098223D02*
X356450661Y-202050604D01*
X356450661Y-202050604D02*
X356545900Y-201955366D01*
X356545900Y-201955366D02*
X356593519Y-201812509D01*
X356593519Y-201812509D02*
X356593519Y-201574414D01*
X355593519Y-203002985D02*
X355593519Y-202812509D01*
X355593519Y-202812509D02*
X355641138Y-202717271D01*
X355641138Y-202717271D02*
X355688757Y-202669652D01*
X355688757Y-202669652D02*
X355831614Y-202574414D01*
X355831614Y-202574414D02*
X356022090Y-202526795D01*
X356022090Y-202526795D02*
X356403042Y-202526795D01*
X356403042Y-202526795D02*
X356498280Y-202574414D01*
X356498280Y-202574414D02*
X356545900Y-202622033D01*
X356545900Y-202622033D02*
X356593519Y-202717271D01*
X356593519Y-202717271D02*
X356593519Y-202907747D01*
X356593519Y-202907747D02*
X356545900Y-203002985D01*
X356545900Y-203002985D02*
X356498280Y-203050604D01*
X356498280Y-203050604D02*
X356403042Y-203098223D01*
X356403042Y-203098223D02*
X356164947Y-203098223D01*
X356164947Y-203098223D02*
X356069709Y-203050604D01*
X356069709Y-203050604D02*
X356022090Y-203002985D01*
X356022090Y-203002985D02*
X355974471Y-202907747D01*
X355974471Y-202907747D02*
X355974471Y-202717271D01*
X355974471Y-202717271D02*
X356022090Y-202622033D01*
X356022090Y-202622033D02*
X356069709Y-202574414D01*
X356069709Y-202574414D02*
X356164947Y-202526795D01*
X355593519Y-203955366D02*
X355593519Y-203764890D01*
X355593519Y-203764890D02*
X355641138Y-203669652D01*
X355641138Y-203669652D02*
X355688757Y-203622033D01*
X355688757Y-203622033D02*
X355831614Y-203526795D01*
X355831614Y-203526795D02*
X356022090Y-203479176D01*
X356022090Y-203479176D02*
X356403042Y-203479176D01*
X356403042Y-203479176D02*
X356498280Y-203526795D01*
X356498280Y-203526795D02*
X356545900Y-203574414D01*
X356545900Y-203574414D02*
X356593519Y-203669652D01*
X356593519Y-203669652D02*
X356593519Y-203860128D01*
X356593519Y-203860128D02*
X356545900Y-203955366D01*
X356545900Y-203955366D02*
X356498280Y-204002985D01*
X356498280Y-204002985D02*
X356403042Y-204050604D01*
X356403042Y-204050604D02*
X356164947Y-204050604D01*
X356164947Y-204050604D02*
X356069709Y-204002985D01*
X356069709Y-204002985D02*
X356022090Y-203955366D01*
X356022090Y-203955366D02*
X355974471Y-203860128D01*
X355974471Y-203860128D02*
X355974471Y-203669652D01*
X355974471Y-203669652D02*
X356022090Y-203574414D01*
X356022090Y-203574414D02*
X356069709Y-203526795D01*
X356069709Y-203526795D02*
X356164947Y-203479176D01*
X73749666Y-96032119D02*
X74082999Y-95555928D01*
X74321094Y-96032119D02*
X74321094Y-95032119D01*
X74321094Y-95032119D02*
X73940142Y-95032119D01*
X73940142Y-95032119D02*
X73844904Y-95079738D01*
X73844904Y-95079738D02*
X73797285Y-95127357D01*
X73797285Y-95127357D02*
X73749666Y-95222595D01*
X73749666Y-95222595D02*
X73749666Y-95365452D01*
X73749666Y-95365452D02*
X73797285Y-95460690D01*
X73797285Y-95460690D02*
X73844904Y-95508309D01*
X73844904Y-95508309D02*
X73940142Y-95555928D01*
X73940142Y-95555928D02*
X74321094Y-95555928D01*
X73416332Y-95032119D02*
X72749666Y-95032119D01*
X72749666Y-95032119D02*
X73178237Y-96032119D01*
X313731019Y-163474414D02*
X312731019Y-163474414D01*
X312731019Y-163474414D02*
X312731019Y-163712509D01*
X312731019Y-163712509D02*
X312778638Y-163855366D01*
X312778638Y-163855366D02*
X312873876Y-163950604D01*
X312873876Y-163950604D02*
X312969114Y-163998223D01*
X312969114Y-163998223D02*
X313159590Y-164045842D01*
X313159590Y-164045842D02*
X313302447Y-164045842D01*
X313302447Y-164045842D02*
X313492923Y-163998223D01*
X313492923Y-163998223D02*
X313588161Y-163950604D01*
X313588161Y-163950604D02*
X313683400Y-163855366D01*
X313683400Y-163855366D02*
X313731019Y-163712509D01*
X313731019Y-163712509D02*
X313731019Y-163474414D01*
X313064352Y-164902985D02*
X313731019Y-164902985D01*
X312683400Y-164664890D02*
X313397685Y-164426795D01*
X313397685Y-164426795D02*
X313397685Y-165045842D01*
X312826257Y-165379176D02*
X312778638Y-165426795D01*
X312778638Y-165426795D02*
X312731019Y-165522033D01*
X312731019Y-165522033D02*
X312731019Y-165760128D01*
X312731019Y-165760128D02*
X312778638Y-165855366D01*
X312778638Y-165855366D02*
X312826257Y-165902985D01*
X312826257Y-165902985D02*
X312921495Y-165950604D01*
X312921495Y-165950604D02*
X313016733Y-165950604D01*
X313016733Y-165950604D02*
X313159590Y-165902985D01*
X313159590Y-165902985D02*
X313731019Y-165331557D01*
X313731019Y-165331557D02*
X313731019Y-165950604D01*
X118468519Y-144424414D02*
X117468519Y-144424414D01*
X117468519Y-144424414D02*
X117468519Y-144662509D01*
X117468519Y-144662509D02*
X117516138Y-144805366D01*
X117516138Y-144805366D02*
X117611376Y-144900604D01*
X117611376Y-144900604D02*
X117706614Y-144948223D01*
X117706614Y-144948223D02*
X117897090Y-144995842D01*
X117897090Y-144995842D02*
X118039947Y-144995842D01*
X118039947Y-144995842D02*
X118230423Y-144948223D01*
X118230423Y-144948223D02*
X118325661Y-144900604D01*
X118325661Y-144900604D02*
X118420900Y-144805366D01*
X118420900Y-144805366D02*
X118468519Y-144662509D01*
X118468519Y-144662509D02*
X118468519Y-144424414D01*
X118468519Y-145948223D02*
X118468519Y-145376795D01*
X118468519Y-145662509D02*
X117468519Y-145662509D01*
X117468519Y-145662509D02*
X117611376Y-145567271D01*
X117611376Y-145567271D02*
X117706614Y-145472033D01*
X117706614Y-145472033D02*
X117754233Y-145376795D01*
X117468519Y-146281557D02*
X117468519Y-146948223D01*
X117468519Y-146948223D02*
X118468519Y-146519652D01*
X232768519Y-144424414D02*
X231768519Y-144424414D01*
X231768519Y-144424414D02*
X231768519Y-144662509D01*
X231768519Y-144662509D02*
X231816138Y-144805366D01*
X231816138Y-144805366D02*
X231911376Y-144900604D01*
X231911376Y-144900604D02*
X232006614Y-144948223D01*
X232006614Y-144948223D02*
X232197090Y-144995842D01*
X232197090Y-144995842D02*
X232339947Y-144995842D01*
X232339947Y-144995842D02*
X232530423Y-144948223D01*
X232530423Y-144948223D02*
X232625661Y-144900604D01*
X232625661Y-144900604D02*
X232720900Y-144805366D01*
X232720900Y-144805366D02*
X232768519Y-144662509D01*
X232768519Y-144662509D02*
X232768519Y-144424414D01*
X231863757Y-145376795D02*
X231816138Y-145424414D01*
X231816138Y-145424414D02*
X231768519Y-145519652D01*
X231768519Y-145519652D02*
X231768519Y-145757747D01*
X231768519Y-145757747D02*
X231816138Y-145852985D01*
X231816138Y-145852985D02*
X231863757Y-145900604D01*
X231863757Y-145900604D02*
X231958995Y-145948223D01*
X231958995Y-145948223D02*
X232054233Y-145948223D01*
X232054233Y-145948223D02*
X232197090Y-145900604D01*
X232197090Y-145900604D02*
X232768519Y-145329176D01*
X232768519Y-145329176D02*
X232768519Y-145948223D01*
X231768519Y-146281557D02*
X231768519Y-146900604D01*
X231768519Y-146900604D02*
X232149471Y-146567271D01*
X232149471Y-146567271D02*
X232149471Y-146710128D01*
X232149471Y-146710128D02*
X232197090Y-146805366D01*
X232197090Y-146805366D02*
X232244709Y-146852985D01*
X232244709Y-146852985D02*
X232339947Y-146900604D01*
X232339947Y-146900604D02*
X232578042Y-146900604D01*
X232578042Y-146900604D02*
X232673280Y-146852985D01*
X232673280Y-146852985D02*
X232720900Y-146805366D01*
X232720900Y-146805366D02*
X232768519Y-146710128D01*
X232768519Y-146710128D02*
X232768519Y-146424414D01*
X232768519Y-146424414D02*
X232720900Y-146329176D01*
X232720900Y-146329176D02*
X232673280Y-146281557D01*
X194668519Y-144424414D02*
X193668519Y-144424414D01*
X193668519Y-144424414D02*
X193668519Y-144662509D01*
X193668519Y-144662509D02*
X193716138Y-144805366D01*
X193716138Y-144805366D02*
X193811376Y-144900604D01*
X193811376Y-144900604D02*
X193906614Y-144948223D01*
X193906614Y-144948223D02*
X194097090Y-144995842D01*
X194097090Y-144995842D02*
X194239947Y-144995842D01*
X194239947Y-144995842D02*
X194430423Y-144948223D01*
X194430423Y-144948223D02*
X194525661Y-144900604D01*
X194525661Y-144900604D02*
X194620900Y-144805366D01*
X194620900Y-144805366D02*
X194668519Y-144662509D01*
X194668519Y-144662509D02*
X194668519Y-144424414D01*
X193763757Y-145376795D02*
X193716138Y-145424414D01*
X193716138Y-145424414D02*
X193668519Y-145519652D01*
X193668519Y-145519652D02*
X193668519Y-145757747D01*
X193668519Y-145757747D02*
X193716138Y-145852985D01*
X193716138Y-145852985D02*
X193763757Y-145900604D01*
X193763757Y-145900604D02*
X193858995Y-145948223D01*
X193858995Y-145948223D02*
X193954233Y-145948223D01*
X193954233Y-145948223D02*
X194097090Y-145900604D01*
X194097090Y-145900604D02*
X194668519Y-145329176D01*
X194668519Y-145329176D02*
X194668519Y-145948223D01*
X194668519Y-146900604D02*
X194668519Y-146329176D01*
X194668519Y-146614890D02*
X193668519Y-146614890D01*
X193668519Y-146614890D02*
X193811376Y-146519652D01*
X193811376Y-146519652D02*
X193906614Y-146424414D01*
X193906614Y-146424414D02*
X193954233Y-146329176D01*
X213718519Y-144424414D02*
X212718519Y-144424414D01*
X212718519Y-144424414D02*
X212718519Y-144662509D01*
X212718519Y-144662509D02*
X212766138Y-144805366D01*
X212766138Y-144805366D02*
X212861376Y-144900604D01*
X212861376Y-144900604D02*
X212956614Y-144948223D01*
X212956614Y-144948223D02*
X213147090Y-144995842D01*
X213147090Y-144995842D02*
X213289947Y-144995842D01*
X213289947Y-144995842D02*
X213480423Y-144948223D01*
X213480423Y-144948223D02*
X213575661Y-144900604D01*
X213575661Y-144900604D02*
X213670900Y-144805366D01*
X213670900Y-144805366D02*
X213718519Y-144662509D01*
X213718519Y-144662509D02*
X213718519Y-144424414D01*
X212813757Y-145376795D02*
X212766138Y-145424414D01*
X212766138Y-145424414D02*
X212718519Y-145519652D01*
X212718519Y-145519652D02*
X212718519Y-145757747D01*
X212718519Y-145757747D02*
X212766138Y-145852985D01*
X212766138Y-145852985D02*
X212813757Y-145900604D01*
X212813757Y-145900604D02*
X212908995Y-145948223D01*
X212908995Y-145948223D02*
X213004233Y-145948223D01*
X213004233Y-145948223D02*
X213147090Y-145900604D01*
X213147090Y-145900604D02*
X213718519Y-145329176D01*
X213718519Y-145329176D02*
X213718519Y-145948223D01*
X212813757Y-146329176D02*
X212766138Y-146376795D01*
X212766138Y-146376795D02*
X212718519Y-146472033D01*
X212718519Y-146472033D02*
X212718519Y-146710128D01*
X212718519Y-146710128D02*
X212766138Y-146805366D01*
X212766138Y-146805366D02*
X212813757Y-146852985D01*
X212813757Y-146852985D02*
X212908995Y-146900604D01*
X212908995Y-146900604D02*
X213004233Y-146900604D01*
X213004233Y-146900604D02*
X213147090Y-146852985D01*
X213147090Y-146852985D02*
X213718519Y-146281557D01*
X213718519Y-146281557D02*
X213718519Y-146900604D01*
X156568519Y-144424414D02*
X155568519Y-144424414D01*
X155568519Y-144424414D02*
X155568519Y-144662509D01*
X155568519Y-144662509D02*
X155616138Y-144805366D01*
X155616138Y-144805366D02*
X155711376Y-144900604D01*
X155711376Y-144900604D02*
X155806614Y-144948223D01*
X155806614Y-144948223D02*
X155997090Y-144995842D01*
X155997090Y-144995842D02*
X156139947Y-144995842D01*
X156139947Y-144995842D02*
X156330423Y-144948223D01*
X156330423Y-144948223D02*
X156425661Y-144900604D01*
X156425661Y-144900604D02*
X156520900Y-144805366D01*
X156520900Y-144805366D02*
X156568519Y-144662509D01*
X156568519Y-144662509D02*
X156568519Y-144424414D01*
X156568519Y-145948223D02*
X156568519Y-145376795D01*
X156568519Y-145662509D02*
X155568519Y-145662509D01*
X155568519Y-145662509D02*
X155711376Y-145567271D01*
X155711376Y-145567271D02*
X155806614Y-145472033D01*
X155806614Y-145472033D02*
X155854233Y-145376795D01*
X156568519Y-146424414D02*
X156568519Y-146614890D01*
X156568519Y-146614890D02*
X156520900Y-146710128D01*
X156520900Y-146710128D02*
X156473280Y-146757747D01*
X156473280Y-146757747D02*
X156330423Y-146852985D01*
X156330423Y-146852985D02*
X156139947Y-146900604D01*
X156139947Y-146900604D02*
X155758995Y-146900604D01*
X155758995Y-146900604D02*
X155663757Y-146852985D01*
X155663757Y-146852985D02*
X155616138Y-146805366D01*
X155616138Y-146805366D02*
X155568519Y-146710128D01*
X155568519Y-146710128D02*
X155568519Y-146519652D01*
X155568519Y-146519652D02*
X155616138Y-146424414D01*
X155616138Y-146424414D02*
X155663757Y-146376795D01*
X155663757Y-146376795D02*
X155758995Y-146329176D01*
X155758995Y-146329176D02*
X155997090Y-146329176D01*
X155997090Y-146329176D02*
X156092328Y-146376795D01*
X156092328Y-146376795D02*
X156139947Y-146424414D01*
X156139947Y-146424414D02*
X156187566Y-146519652D01*
X156187566Y-146519652D02*
X156187566Y-146710128D01*
X156187566Y-146710128D02*
X156139947Y-146805366D01*
X156139947Y-146805366D02*
X156092328Y-146852985D01*
X156092328Y-146852985D02*
X155997090Y-146900604D01*
X123231019Y-163474414D02*
X122231019Y-163474414D01*
X122231019Y-163474414D02*
X122231019Y-163712509D01*
X122231019Y-163712509D02*
X122278638Y-163855366D01*
X122278638Y-163855366D02*
X122373876Y-163950604D01*
X122373876Y-163950604D02*
X122469114Y-163998223D01*
X122469114Y-163998223D02*
X122659590Y-164045842D01*
X122659590Y-164045842D02*
X122802447Y-164045842D01*
X122802447Y-164045842D02*
X122992923Y-163998223D01*
X122992923Y-163998223D02*
X123088161Y-163950604D01*
X123088161Y-163950604D02*
X123183400Y-163855366D01*
X123183400Y-163855366D02*
X123231019Y-163712509D01*
X123231019Y-163712509D02*
X123231019Y-163474414D01*
X122231019Y-164379176D02*
X122231019Y-164998223D01*
X122231019Y-164998223D02*
X122611971Y-164664890D01*
X122611971Y-164664890D02*
X122611971Y-164807747D01*
X122611971Y-164807747D02*
X122659590Y-164902985D01*
X122659590Y-164902985D02*
X122707209Y-164950604D01*
X122707209Y-164950604D02*
X122802447Y-164998223D01*
X122802447Y-164998223D02*
X123040542Y-164998223D01*
X123040542Y-164998223D02*
X123135780Y-164950604D01*
X123135780Y-164950604D02*
X123183400Y-164902985D01*
X123183400Y-164902985D02*
X123231019Y-164807747D01*
X123231019Y-164807747D02*
X123231019Y-164522033D01*
X123231019Y-164522033D02*
X123183400Y-164426795D01*
X123183400Y-164426795D02*
X123135780Y-164379176D01*
X122326257Y-165379176D02*
X122278638Y-165426795D01*
X122278638Y-165426795D02*
X122231019Y-165522033D01*
X122231019Y-165522033D02*
X122231019Y-165760128D01*
X122231019Y-165760128D02*
X122278638Y-165855366D01*
X122278638Y-165855366D02*
X122326257Y-165902985D01*
X122326257Y-165902985D02*
X122421495Y-165950604D01*
X122421495Y-165950604D02*
X122516733Y-165950604D01*
X122516733Y-165950604D02*
X122659590Y-165902985D01*
X122659590Y-165902985D02*
X123231019Y-165331557D01*
X123231019Y-165331557D02*
X123231019Y-165950604D01*
X335162219Y-201574414D02*
X334162219Y-201574414D01*
X334162219Y-201574414D02*
X334162219Y-201812509D01*
X334162219Y-201812509D02*
X334209838Y-201955366D01*
X334209838Y-201955366D02*
X334305076Y-202050604D01*
X334305076Y-202050604D02*
X334400314Y-202098223D01*
X334400314Y-202098223D02*
X334590790Y-202145842D01*
X334590790Y-202145842D02*
X334733647Y-202145842D01*
X334733647Y-202145842D02*
X334924123Y-202098223D01*
X334924123Y-202098223D02*
X335019361Y-202050604D01*
X335019361Y-202050604D02*
X335114600Y-201955366D01*
X335114600Y-201955366D02*
X335162219Y-201812509D01*
X335162219Y-201812509D02*
X335162219Y-201574414D01*
X334162219Y-203002985D02*
X334162219Y-202812509D01*
X334162219Y-202812509D02*
X334209838Y-202717271D01*
X334209838Y-202717271D02*
X334257457Y-202669652D01*
X334257457Y-202669652D02*
X334400314Y-202574414D01*
X334400314Y-202574414D02*
X334590790Y-202526795D01*
X334590790Y-202526795D02*
X334971742Y-202526795D01*
X334971742Y-202526795D02*
X335066980Y-202574414D01*
X335066980Y-202574414D02*
X335114600Y-202622033D01*
X335114600Y-202622033D02*
X335162219Y-202717271D01*
X335162219Y-202717271D02*
X335162219Y-202907747D01*
X335162219Y-202907747D02*
X335114600Y-203002985D01*
X335114600Y-203002985D02*
X335066980Y-203050604D01*
X335066980Y-203050604D02*
X334971742Y-203098223D01*
X334971742Y-203098223D02*
X334733647Y-203098223D01*
X334733647Y-203098223D02*
X334638409Y-203050604D01*
X334638409Y-203050604D02*
X334590790Y-203002985D01*
X334590790Y-203002985D02*
X334543171Y-202907747D01*
X334543171Y-202907747D02*
X334543171Y-202717271D01*
X334543171Y-202717271D02*
X334590790Y-202622033D01*
X334590790Y-202622033D02*
X334638409Y-202574414D01*
X334638409Y-202574414D02*
X334733647Y-202526795D01*
X334162219Y-204002985D02*
X334162219Y-203526795D01*
X334162219Y-203526795D02*
X334638409Y-203479176D01*
X334638409Y-203479176D02*
X334590790Y-203526795D01*
X334590790Y-203526795D02*
X334543171Y-203622033D01*
X334543171Y-203622033D02*
X334543171Y-203860128D01*
X334543171Y-203860128D02*
X334590790Y-203955366D01*
X334590790Y-203955366D02*
X334638409Y-204002985D01*
X334638409Y-204002985D02*
X334733647Y-204050604D01*
X334733647Y-204050604D02*
X334971742Y-204050604D01*
X334971742Y-204050604D02*
X335066980Y-204002985D01*
X335066980Y-204002985D02*
X335114600Y-203955366D01*
X335114600Y-203955366D02*
X335162219Y-203860128D01*
X335162219Y-203860128D02*
X335162219Y-203622033D01*
X335162219Y-203622033D02*
X335114600Y-203526795D01*
X335114600Y-203526795D02*
X335066980Y-203479176D01*
X77987219Y-144424414D02*
X76987219Y-144424414D01*
X76987219Y-144424414D02*
X76987219Y-144662509D01*
X76987219Y-144662509D02*
X77034838Y-144805366D01*
X77034838Y-144805366D02*
X77130076Y-144900604D01*
X77130076Y-144900604D02*
X77225314Y-144948223D01*
X77225314Y-144948223D02*
X77415790Y-144995842D01*
X77415790Y-144995842D02*
X77558647Y-144995842D01*
X77558647Y-144995842D02*
X77749123Y-144948223D01*
X77749123Y-144948223D02*
X77844361Y-144900604D01*
X77844361Y-144900604D02*
X77939600Y-144805366D01*
X77939600Y-144805366D02*
X77987219Y-144662509D01*
X77987219Y-144662509D02*
X77987219Y-144424414D01*
X77987219Y-145948223D02*
X77987219Y-145376795D01*
X77987219Y-145662509D02*
X76987219Y-145662509D01*
X76987219Y-145662509D02*
X77130076Y-145567271D01*
X77130076Y-145567271D02*
X77225314Y-145472033D01*
X77225314Y-145472033D02*
X77272933Y-145376795D01*
X76987219Y-146852985D02*
X76987219Y-146376795D01*
X76987219Y-146376795D02*
X77463409Y-146329176D01*
X77463409Y-146329176D02*
X77415790Y-146376795D01*
X77415790Y-146376795D02*
X77368171Y-146472033D01*
X77368171Y-146472033D02*
X77368171Y-146710128D01*
X77368171Y-146710128D02*
X77415790Y-146805366D01*
X77415790Y-146805366D02*
X77463409Y-146852985D01*
X77463409Y-146852985D02*
X77558647Y-146900604D01*
X77558647Y-146900604D02*
X77796742Y-146900604D01*
X77796742Y-146900604D02*
X77891980Y-146852985D01*
X77891980Y-146852985D02*
X77939600Y-146805366D01*
X77939600Y-146805366D02*
X77987219Y-146710128D01*
X77987219Y-146710128D02*
X77987219Y-146472033D01*
X77987219Y-146472033D02*
X77939600Y-146376795D01*
X77939600Y-146376795D02*
X77891980Y-146329176D01*
X247056019Y-125850605D02*
X246056019Y-125850605D01*
X246056019Y-125850605D02*
X246056019Y-126088700D01*
X246056019Y-126088700D02*
X246103638Y-126231557D01*
X246103638Y-126231557D02*
X246198876Y-126326795D01*
X246198876Y-126326795D02*
X246294114Y-126374414D01*
X246294114Y-126374414D02*
X246484590Y-126422033D01*
X246484590Y-126422033D02*
X246627447Y-126422033D01*
X246627447Y-126422033D02*
X246817923Y-126374414D01*
X246817923Y-126374414D02*
X246913161Y-126326795D01*
X246913161Y-126326795D02*
X247008400Y-126231557D01*
X247008400Y-126231557D02*
X247056019Y-126088700D01*
X247056019Y-126088700D02*
X247056019Y-125850605D01*
X247056019Y-126898224D02*
X247056019Y-127088700D01*
X247056019Y-127088700D02*
X247008400Y-127183938D01*
X247008400Y-127183938D02*
X246960780Y-127231557D01*
X246960780Y-127231557D02*
X246817923Y-127326795D01*
X246817923Y-127326795D02*
X246627447Y-127374414D01*
X246627447Y-127374414D02*
X246246495Y-127374414D01*
X246246495Y-127374414D02*
X246151257Y-127326795D01*
X246151257Y-127326795D02*
X246103638Y-127279176D01*
X246103638Y-127279176D02*
X246056019Y-127183938D01*
X246056019Y-127183938D02*
X246056019Y-126993462D01*
X246056019Y-126993462D02*
X246103638Y-126898224D01*
X246103638Y-126898224D02*
X246151257Y-126850605D01*
X246151257Y-126850605D02*
X246246495Y-126802986D01*
X246246495Y-126802986D02*
X246484590Y-126802986D01*
X246484590Y-126802986D02*
X246579828Y-126850605D01*
X246579828Y-126850605D02*
X246627447Y-126898224D01*
X246627447Y-126898224D02*
X246675066Y-126993462D01*
X246675066Y-126993462D02*
X246675066Y-127183938D01*
X246675066Y-127183938D02*
X246627447Y-127279176D01*
X246627447Y-127279176D02*
X246579828Y-127326795D01*
X246579828Y-127326795D02*
X246484590Y-127374414D01*
X266106019Y-125374414D02*
X265106019Y-125374414D01*
X265106019Y-125374414D02*
X265106019Y-125612509D01*
X265106019Y-125612509D02*
X265153638Y-125755366D01*
X265153638Y-125755366D02*
X265248876Y-125850604D01*
X265248876Y-125850604D02*
X265344114Y-125898223D01*
X265344114Y-125898223D02*
X265534590Y-125945842D01*
X265534590Y-125945842D02*
X265677447Y-125945842D01*
X265677447Y-125945842D02*
X265867923Y-125898223D01*
X265867923Y-125898223D02*
X265963161Y-125850604D01*
X265963161Y-125850604D02*
X266058400Y-125755366D01*
X266058400Y-125755366D02*
X266106019Y-125612509D01*
X266106019Y-125612509D02*
X266106019Y-125374414D01*
X266106019Y-126898223D02*
X266106019Y-126326795D01*
X266106019Y-126612509D02*
X265106019Y-126612509D01*
X265106019Y-126612509D02*
X265248876Y-126517271D01*
X265248876Y-126517271D02*
X265344114Y-126422033D01*
X265344114Y-126422033D02*
X265391733Y-126326795D01*
X265106019Y-127517271D02*
X265106019Y-127612509D01*
X265106019Y-127612509D02*
X265153638Y-127707747D01*
X265153638Y-127707747D02*
X265201257Y-127755366D01*
X265201257Y-127755366D02*
X265296495Y-127802985D01*
X265296495Y-127802985D02*
X265486971Y-127850604D01*
X265486971Y-127850604D02*
X265725066Y-127850604D01*
X265725066Y-127850604D02*
X265915542Y-127802985D01*
X265915542Y-127802985D02*
X266010780Y-127755366D01*
X266010780Y-127755366D02*
X266058400Y-127707747D01*
X266058400Y-127707747D02*
X266106019Y-127612509D01*
X266106019Y-127612509D02*
X266106019Y-127517271D01*
X266106019Y-127517271D02*
X266058400Y-127422033D01*
X266058400Y-127422033D02*
X266010780Y-127374414D01*
X266010780Y-127374414D02*
X265915542Y-127326795D01*
X265915542Y-127326795D02*
X265725066Y-127279176D01*
X265725066Y-127279176D02*
X265486971Y-127279176D01*
X265486971Y-127279176D02*
X265296495Y-127326795D01*
X265296495Y-127326795D02*
X265201257Y-127374414D01*
X265201257Y-127374414D02*
X265153638Y-127422033D01*
X265153638Y-127422033D02*
X265106019Y-127517271D01*
X80368519Y-163474414D02*
X79368519Y-163474414D01*
X79368519Y-163474414D02*
X79368519Y-163712509D01*
X79368519Y-163712509D02*
X79416138Y-163855366D01*
X79416138Y-163855366D02*
X79511376Y-163950604D01*
X79511376Y-163950604D02*
X79606614Y-163998223D01*
X79606614Y-163998223D02*
X79797090Y-164045842D01*
X79797090Y-164045842D02*
X79939947Y-164045842D01*
X79939947Y-164045842D02*
X80130423Y-163998223D01*
X80130423Y-163998223D02*
X80225661Y-163950604D01*
X80225661Y-163950604D02*
X80320900Y-163855366D01*
X80320900Y-163855366D02*
X80368519Y-163712509D01*
X80368519Y-163712509D02*
X80368519Y-163474414D01*
X79368519Y-164379176D02*
X79368519Y-164998223D01*
X79368519Y-164998223D02*
X79749471Y-164664890D01*
X79749471Y-164664890D02*
X79749471Y-164807747D01*
X79749471Y-164807747D02*
X79797090Y-164902985D01*
X79797090Y-164902985D02*
X79844709Y-164950604D01*
X79844709Y-164950604D02*
X79939947Y-164998223D01*
X79939947Y-164998223D02*
X80178042Y-164998223D01*
X80178042Y-164998223D02*
X80273280Y-164950604D01*
X80273280Y-164950604D02*
X80320900Y-164902985D01*
X80320900Y-164902985D02*
X80368519Y-164807747D01*
X80368519Y-164807747D02*
X80368519Y-164522033D01*
X80368519Y-164522033D02*
X80320900Y-164426795D01*
X80320900Y-164426795D02*
X80273280Y-164379176D01*
X79368519Y-165617271D02*
X79368519Y-165712509D01*
X79368519Y-165712509D02*
X79416138Y-165807747D01*
X79416138Y-165807747D02*
X79463757Y-165855366D01*
X79463757Y-165855366D02*
X79558995Y-165902985D01*
X79558995Y-165902985D02*
X79749471Y-165950604D01*
X79749471Y-165950604D02*
X79987566Y-165950604D01*
X79987566Y-165950604D02*
X80178042Y-165902985D01*
X80178042Y-165902985D02*
X80273280Y-165855366D01*
X80273280Y-165855366D02*
X80320900Y-165807747D01*
X80320900Y-165807747D02*
X80368519Y-165712509D01*
X80368519Y-165712509D02*
X80368519Y-165617271D01*
X80368519Y-165617271D02*
X80320900Y-165522033D01*
X80320900Y-165522033D02*
X80273280Y-165474414D01*
X80273280Y-165474414D02*
X80178042Y-165426795D01*
X80178042Y-165426795D02*
X79987566Y-165379176D01*
X79987566Y-165379176D02*
X79749471Y-165379176D01*
X79749471Y-165379176D02*
X79558995Y-165426795D01*
X79558995Y-165426795D02*
X79463757Y-165474414D01*
X79463757Y-165474414D02*
X79416138Y-165522033D01*
X79416138Y-165522033D02*
X79368519Y-165617271D01*
X194668519Y-201574414D02*
X193668519Y-201574414D01*
X193668519Y-201574414D02*
X193668519Y-201812509D01*
X193668519Y-201812509D02*
X193716138Y-201955366D01*
X193716138Y-201955366D02*
X193811376Y-202050604D01*
X193811376Y-202050604D02*
X193906614Y-202098223D01*
X193906614Y-202098223D02*
X194097090Y-202145842D01*
X194097090Y-202145842D02*
X194239947Y-202145842D01*
X194239947Y-202145842D02*
X194430423Y-202098223D01*
X194430423Y-202098223D02*
X194525661Y-202050604D01*
X194525661Y-202050604D02*
X194620900Y-201955366D01*
X194620900Y-201955366D02*
X194668519Y-201812509D01*
X194668519Y-201812509D02*
X194668519Y-201574414D01*
X193668519Y-203002985D02*
X193668519Y-202812509D01*
X193668519Y-202812509D02*
X193716138Y-202717271D01*
X193716138Y-202717271D02*
X193763757Y-202669652D01*
X193763757Y-202669652D02*
X193906614Y-202574414D01*
X193906614Y-202574414D02*
X194097090Y-202526795D01*
X194097090Y-202526795D02*
X194478042Y-202526795D01*
X194478042Y-202526795D02*
X194573280Y-202574414D01*
X194573280Y-202574414D02*
X194620900Y-202622033D01*
X194620900Y-202622033D02*
X194668519Y-202717271D01*
X194668519Y-202717271D02*
X194668519Y-202907747D01*
X194668519Y-202907747D02*
X194620900Y-203002985D01*
X194620900Y-203002985D02*
X194573280Y-203050604D01*
X194573280Y-203050604D02*
X194478042Y-203098223D01*
X194478042Y-203098223D02*
X194239947Y-203098223D01*
X194239947Y-203098223D02*
X194144709Y-203050604D01*
X194144709Y-203050604D02*
X194097090Y-203002985D01*
X194097090Y-203002985D02*
X194049471Y-202907747D01*
X194049471Y-202907747D02*
X194049471Y-202717271D01*
X194049471Y-202717271D02*
X194097090Y-202622033D01*
X194097090Y-202622033D02*
X194144709Y-202574414D01*
X194144709Y-202574414D02*
X194239947Y-202526795D01*
X194668519Y-204050604D02*
X194668519Y-203479176D01*
X194668519Y-203764890D02*
X193668519Y-203764890D01*
X193668519Y-203764890D02*
X193811376Y-203669652D01*
X193811376Y-203669652D02*
X193906614Y-203574414D01*
X193906614Y-203574414D02*
X193954233Y-203479176D01*
X208956019Y-125850605D02*
X207956019Y-125850605D01*
X207956019Y-125850605D02*
X207956019Y-126088700D01*
X207956019Y-126088700D02*
X208003638Y-126231557D01*
X208003638Y-126231557D02*
X208098876Y-126326795D01*
X208098876Y-126326795D02*
X208194114Y-126374414D01*
X208194114Y-126374414D02*
X208384590Y-126422033D01*
X208384590Y-126422033D02*
X208527447Y-126422033D01*
X208527447Y-126422033D02*
X208717923Y-126374414D01*
X208717923Y-126374414D02*
X208813161Y-126326795D01*
X208813161Y-126326795D02*
X208908400Y-126231557D01*
X208908400Y-126231557D02*
X208956019Y-126088700D01*
X208956019Y-126088700D02*
X208956019Y-125850605D01*
X207956019Y-126755367D02*
X207956019Y-127422033D01*
X207956019Y-127422033D02*
X208956019Y-126993462D01*
X356593519Y-144424414D02*
X355593519Y-144424414D01*
X355593519Y-144424414D02*
X355593519Y-144662509D01*
X355593519Y-144662509D02*
X355641138Y-144805366D01*
X355641138Y-144805366D02*
X355736376Y-144900604D01*
X355736376Y-144900604D02*
X355831614Y-144948223D01*
X355831614Y-144948223D02*
X356022090Y-144995842D01*
X356022090Y-144995842D02*
X356164947Y-144995842D01*
X356164947Y-144995842D02*
X356355423Y-144948223D01*
X356355423Y-144948223D02*
X356450661Y-144900604D01*
X356450661Y-144900604D02*
X356545900Y-144805366D01*
X356545900Y-144805366D02*
X356593519Y-144662509D01*
X356593519Y-144662509D02*
X356593519Y-144424414D01*
X355688757Y-145376795D02*
X355641138Y-145424414D01*
X355641138Y-145424414D02*
X355593519Y-145519652D01*
X355593519Y-145519652D02*
X355593519Y-145757747D01*
X355593519Y-145757747D02*
X355641138Y-145852985D01*
X355641138Y-145852985D02*
X355688757Y-145900604D01*
X355688757Y-145900604D02*
X355783995Y-145948223D01*
X355783995Y-145948223D02*
X355879233Y-145948223D01*
X355879233Y-145948223D02*
X356022090Y-145900604D01*
X356022090Y-145900604D02*
X356593519Y-145329176D01*
X356593519Y-145329176D02*
X356593519Y-145948223D01*
X356593519Y-146424414D02*
X356593519Y-146614890D01*
X356593519Y-146614890D02*
X356545900Y-146710128D01*
X356545900Y-146710128D02*
X356498280Y-146757747D01*
X356498280Y-146757747D02*
X356355423Y-146852985D01*
X356355423Y-146852985D02*
X356164947Y-146900604D01*
X356164947Y-146900604D02*
X355783995Y-146900604D01*
X355783995Y-146900604D02*
X355688757Y-146852985D01*
X355688757Y-146852985D02*
X355641138Y-146805366D01*
X355641138Y-146805366D02*
X355593519Y-146710128D01*
X355593519Y-146710128D02*
X355593519Y-146519652D01*
X355593519Y-146519652D02*
X355641138Y-146424414D01*
X355641138Y-146424414D02*
X355688757Y-146376795D01*
X355688757Y-146376795D02*
X355783995Y-146329176D01*
X355783995Y-146329176D02*
X356022090Y-146329176D01*
X356022090Y-146329176D02*
X356117328Y-146376795D01*
X356117328Y-146376795D02*
X356164947Y-146424414D01*
X356164947Y-146424414D02*
X356212566Y-146519652D01*
X356212566Y-146519652D02*
X356212566Y-146710128D01*
X356212566Y-146710128D02*
X356164947Y-146805366D01*
X356164947Y-146805366D02*
X356117328Y-146852985D01*
X356117328Y-146852985D02*
X356022090Y-146900604D01*
X256581019Y-163474414D02*
X255581019Y-163474414D01*
X255581019Y-163474414D02*
X255581019Y-163712509D01*
X255581019Y-163712509D02*
X255628638Y-163855366D01*
X255628638Y-163855366D02*
X255723876Y-163950604D01*
X255723876Y-163950604D02*
X255819114Y-163998223D01*
X255819114Y-163998223D02*
X256009590Y-164045842D01*
X256009590Y-164045842D02*
X256152447Y-164045842D01*
X256152447Y-164045842D02*
X256342923Y-163998223D01*
X256342923Y-163998223D02*
X256438161Y-163950604D01*
X256438161Y-163950604D02*
X256533400Y-163855366D01*
X256533400Y-163855366D02*
X256581019Y-163712509D01*
X256581019Y-163712509D02*
X256581019Y-163474414D01*
X255581019Y-164379176D02*
X255581019Y-164998223D01*
X255581019Y-164998223D02*
X255961971Y-164664890D01*
X255961971Y-164664890D02*
X255961971Y-164807747D01*
X255961971Y-164807747D02*
X256009590Y-164902985D01*
X256009590Y-164902985D02*
X256057209Y-164950604D01*
X256057209Y-164950604D02*
X256152447Y-164998223D01*
X256152447Y-164998223D02*
X256390542Y-164998223D01*
X256390542Y-164998223D02*
X256485780Y-164950604D01*
X256485780Y-164950604D02*
X256533400Y-164902985D01*
X256533400Y-164902985D02*
X256581019Y-164807747D01*
X256581019Y-164807747D02*
X256581019Y-164522033D01*
X256581019Y-164522033D02*
X256533400Y-164426795D01*
X256533400Y-164426795D02*
X256485780Y-164379176D01*
X256581019Y-165474414D02*
X256581019Y-165664890D01*
X256581019Y-165664890D02*
X256533400Y-165760128D01*
X256533400Y-165760128D02*
X256485780Y-165807747D01*
X256485780Y-165807747D02*
X256342923Y-165902985D01*
X256342923Y-165902985D02*
X256152447Y-165950604D01*
X256152447Y-165950604D02*
X255771495Y-165950604D01*
X255771495Y-165950604D02*
X255676257Y-165902985D01*
X255676257Y-165902985D02*
X255628638Y-165855366D01*
X255628638Y-165855366D02*
X255581019Y-165760128D01*
X255581019Y-165760128D02*
X255581019Y-165569652D01*
X255581019Y-165569652D02*
X255628638Y-165474414D01*
X255628638Y-165474414D02*
X255676257Y-165426795D01*
X255676257Y-165426795D02*
X255771495Y-165379176D01*
X255771495Y-165379176D02*
X256009590Y-165379176D01*
X256009590Y-165379176D02*
X256104828Y-165426795D01*
X256104828Y-165426795D02*
X256152447Y-165474414D01*
X256152447Y-165474414D02*
X256200066Y-165569652D01*
X256200066Y-165569652D02*
X256200066Y-165760128D01*
X256200066Y-165760128D02*
X256152447Y-165855366D01*
X256152447Y-165855366D02*
X256104828Y-165902985D01*
X256104828Y-165902985D02*
X256009590Y-165950604D01*
X330399719Y-125374414D02*
X329399719Y-125374414D01*
X329399719Y-125374414D02*
X329399719Y-125612509D01*
X329399719Y-125612509D02*
X329447338Y-125755366D01*
X329447338Y-125755366D02*
X329542576Y-125850604D01*
X329542576Y-125850604D02*
X329637814Y-125898223D01*
X329637814Y-125898223D02*
X329828290Y-125945842D01*
X329828290Y-125945842D02*
X329971147Y-125945842D01*
X329971147Y-125945842D02*
X330161623Y-125898223D01*
X330161623Y-125898223D02*
X330256861Y-125850604D01*
X330256861Y-125850604D02*
X330352100Y-125755366D01*
X330352100Y-125755366D02*
X330399719Y-125612509D01*
X330399719Y-125612509D02*
X330399719Y-125374414D01*
X330399719Y-126898223D02*
X330399719Y-126326795D01*
X330399719Y-126612509D02*
X329399719Y-126612509D01*
X329399719Y-126612509D02*
X329542576Y-126517271D01*
X329542576Y-126517271D02*
X329637814Y-126422033D01*
X329637814Y-126422033D02*
X329685433Y-126326795D01*
X329399719Y-127231557D02*
X329399719Y-127850604D01*
X329399719Y-127850604D02*
X329780671Y-127517271D01*
X329780671Y-127517271D02*
X329780671Y-127660128D01*
X329780671Y-127660128D02*
X329828290Y-127755366D01*
X329828290Y-127755366D02*
X329875909Y-127802985D01*
X329875909Y-127802985D02*
X329971147Y-127850604D01*
X329971147Y-127850604D02*
X330209242Y-127850604D01*
X330209242Y-127850604D02*
X330304480Y-127802985D01*
X330304480Y-127802985D02*
X330352100Y-127755366D01*
X330352100Y-127755366D02*
X330399719Y-127660128D01*
X330399719Y-127660128D02*
X330399719Y-127374414D01*
X330399719Y-127374414D02*
X330352100Y-127279176D01*
X330352100Y-127279176D02*
X330304480Y-127231557D01*
X251818519Y-182524414D02*
X250818519Y-182524414D01*
X250818519Y-182524414D02*
X250818519Y-182762509D01*
X250818519Y-182762509D02*
X250866138Y-182905366D01*
X250866138Y-182905366D02*
X250961376Y-183000604D01*
X250961376Y-183000604D02*
X251056614Y-183048223D01*
X251056614Y-183048223D02*
X251247090Y-183095842D01*
X251247090Y-183095842D02*
X251389947Y-183095842D01*
X251389947Y-183095842D02*
X251580423Y-183048223D01*
X251580423Y-183048223D02*
X251675661Y-183000604D01*
X251675661Y-183000604D02*
X251770900Y-182905366D01*
X251770900Y-182905366D02*
X251818519Y-182762509D01*
X251818519Y-182762509D02*
X251818519Y-182524414D01*
X250818519Y-184000604D02*
X250818519Y-183524414D01*
X250818519Y-183524414D02*
X251294709Y-183476795D01*
X251294709Y-183476795D02*
X251247090Y-183524414D01*
X251247090Y-183524414D02*
X251199471Y-183619652D01*
X251199471Y-183619652D02*
X251199471Y-183857747D01*
X251199471Y-183857747D02*
X251247090Y-183952985D01*
X251247090Y-183952985D02*
X251294709Y-184000604D01*
X251294709Y-184000604D02*
X251389947Y-184048223D01*
X251389947Y-184048223D02*
X251628042Y-184048223D01*
X251628042Y-184048223D02*
X251723280Y-184000604D01*
X251723280Y-184000604D02*
X251770900Y-183952985D01*
X251770900Y-183952985D02*
X251818519Y-183857747D01*
X251818519Y-183857747D02*
X251818519Y-183619652D01*
X251818519Y-183619652D02*
X251770900Y-183524414D01*
X251770900Y-183524414D02*
X251723280Y-183476795D01*
X250818519Y-184381557D02*
X250818519Y-185000604D01*
X250818519Y-185000604D02*
X251199471Y-184667271D01*
X251199471Y-184667271D02*
X251199471Y-184810128D01*
X251199471Y-184810128D02*
X251247090Y-184905366D01*
X251247090Y-184905366D02*
X251294709Y-184952985D01*
X251294709Y-184952985D02*
X251389947Y-185000604D01*
X251389947Y-185000604D02*
X251628042Y-185000604D01*
X251628042Y-185000604D02*
X251723280Y-184952985D01*
X251723280Y-184952985D02*
X251770900Y-184905366D01*
X251770900Y-184905366D02*
X251818519Y-184810128D01*
X251818519Y-184810128D02*
X251818519Y-184524414D01*
X251818519Y-184524414D02*
X251770900Y-184429176D01*
X251770900Y-184429176D02*
X251723280Y-184381557D01*
X194668519Y-182524414D02*
X193668519Y-182524414D01*
X193668519Y-182524414D02*
X193668519Y-182762509D01*
X193668519Y-182762509D02*
X193716138Y-182905366D01*
X193716138Y-182905366D02*
X193811376Y-183000604D01*
X193811376Y-183000604D02*
X193906614Y-183048223D01*
X193906614Y-183048223D02*
X194097090Y-183095842D01*
X194097090Y-183095842D02*
X194239947Y-183095842D01*
X194239947Y-183095842D02*
X194430423Y-183048223D01*
X194430423Y-183048223D02*
X194525661Y-183000604D01*
X194525661Y-183000604D02*
X194620900Y-182905366D01*
X194620900Y-182905366D02*
X194668519Y-182762509D01*
X194668519Y-182762509D02*
X194668519Y-182524414D01*
X193668519Y-184000604D02*
X193668519Y-183524414D01*
X193668519Y-183524414D02*
X194144709Y-183476795D01*
X194144709Y-183476795D02*
X194097090Y-183524414D01*
X194097090Y-183524414D02*
X194049471Y-183619652D01*
X194049471Y-183619652D02*
X194049471Y-183857747D01*
X194049471Y-183857747D02*
X194097090Y-183952985D01*
X194097090Y-183952985D02*
X194144709Y-184000604D01*
X194144709Y-184000604D02*
X194239947Y-184048223D01*
X194239947Y-184048223D02*
X194478042Y-184048223D01*
X194478042Y-184048223D02*
X194573280Y-184000604D01*
X194573280Y-184000604D02*
X194620900Y-183952985D01*
X194620900Y-183952985D02*
X194668519Y-183857747D01*
X194668519Y-183857747D02*
X194668519Y-183619652D01*
X194668519Y-183619652D02*
X194620900Y-183524414D01*
X194620900Y-183524414D02*
X194573280Y-183476795D01*
X193668519Y-184667271D02*
X193668519Y-184762509D01*
X193668519Y-184762509D02*
X193716138Y-184857747D01*
X193716138Y-184857747D02*
X193763757Y-184905366D01*
X193763757Y-184905366D02*
X193858995Y-184952985D01*
X193858995Y-184952985D02*
X194049471Y-185000604D01*
X194049471Y-185000604D02*
X194287566Y-185000604D01*
X194287566Y-185000604D02*
X194478042Y-184952985D01*
X194478042Y-184952985D02*
X194573280Y-184905366D01*
X194573280Y-184905366D02*
X194620900Y-184857747D01*
X194620900Y-184857747D02*
X194668519Y-184762509D01*
X194668519Y-184762509D02*
X194668519Y-184667271D01*
X194668519Y-184667271D02*
X194620900Y-184572033D01*
X194620900Y-184572033D02*
X194573280Y-184524414D01*
X194573280Y-184524414D02*
X194478042Y-184476795D01*
X194478042Y-184476795D02*
X194287566Y-184429176D01*
X194287566Y-184429176D02*
X194049471Y-184429176D01*
X194049471Y-184429176D02*
X193858995Y-184476795D01*
X193858995Y-184476795D02*
X193763757Y-184524414D01*
X193763757Y-184524414D02*
X193716138Y-184572033D01*
X193716138Y-184572033D02*
X193668519Y-184667271D01*
X285156019Y-125374414D02*
X284156019Y-125374414D01*
X284156019Y-125374414D02*
X284156019Y-125612509D01*
X284156019Y-125612509D02*
X284203638Y-125755366D01*
X284203638Y-125755366D02*
X284298876Y-125850604D01*
X284298876Y-125850604D02*
X284394114Y-125898223D01*
X284394114Y-125898223D02*
X284584590Y-125945842D01*
X284584590Y-125945842D02*
X284727447Y-125945842D01*
X284727447Y-125945842D02*
X284917923Y-125898223D01*
X284917923Y-125898223D02*
X285013161Y-125850604D01*
X285013161Y-125850604D02*
X285108400Y-125755366D01*
X285108400Y-125755366D02*
X285156019Y-125612509D01*
X285156019Y-125612509D02*
X285156019Y-125374414D01*
X285156019Y-126898223D02*
X285156019Y-126326795D01*
X285156019Y-126612509D02*
X284156019Y-126612509D01*
X284156019Y-126612509D02*
X284298876Y-126517271D01*
X284298876Y-126517271D02*
X284394114Y-126422033D01*
X284394114Y-126422033D02*
X284441733Y-126326795D01*
X285156019Y-127850604D02*
X285156019Y-127279176D01*
X285156019Y-127564890D02*
X284156019Y-127564890D01*
X284156019Y-127564890D02*
X284298876Y-127469652D01*
X284298876Y-127469652D02*
X284394114Y-127374414D01*
X284394114Y-127374414D02*
X284441733Y-127279176D01*
X104181019Y-163474414D02*
X103181019Y-163474414D01*
X103181019Y-163474414D02*
X103181019Y-163712509D01*
X103181019Y-163712509D02*
X103228638Y-163855366D01*
X103228638Y-163855366D02*
X103323876Y-163950604D01*
X103323876Y-163950604D02*
X103419114Y-163998223D01*
X103419114Y-163998223D02*
X103609590Y-164045842D01*
X103609590Y-164045842D02*
X103752447Y-164045842D01*
X103752447Y-164045842D02*
X103942923Y-163998223D01*
X103942923Y-163998223D02*
X104038161Y-163950604D01*
X104038161Y-163950604D02*
X104133400Y-163855366D01*
X104133400Y-163855366D02*
X104181019Y-163712509D01*
X104181019Y-163712509D02*
X104181019Y-163474414D01*
X103181019Y-164379176D02*
X103181019Y-164998223D01*
X103181019Y-164998223D02*
X103561971Y-164664890D01*
X103561971Y-164664890D02*
X103561971Y-164807747D01*
X103561971Y-164807747D02*
X103609590Y-164902985D01*
X103609590Y-164902985D02*
X103657209Y-164950604D01*
X103657209Y-164950604D02*
X103752447Y-164998223D01*
X103752447Y-164998223D02*
X103990542Y-164998223D01*
X103990542Y-164998223D02*
X104085780Y-164950604D01*
X104085780Y-164950604D02*
X104133400Y-164902985D01*
X104133400Y-164902985D02*
X104181019Y-164807747D01*
X104181019Y-164807747D02*
X104181019Y-164522033D01*
X104181019Y-164522033D02*
X104133400Y-164426795D01*
X104133400Y-164426795D02*
X104085780Y-164379176D01*
X104181019Y-165950604D02*
X104181019Y-165379176D01*
X104181019Y-165664890D02*
X103181019Y-165664890D01*
X103181019Y-165664890D02*
X103323876Y-165569652D01*
X103323876Y-165569652D02*
X103419114Y-165474414D01*
X103419114Y-165474414D02*
X103466733Y-165379176D01*
X270868519Y-144424414D02*
X269868519Y-144424414D01*
X269868519Y-144424414D02*
X269868519Y-144662509D01*
X269868519Y-144662509D02*
X269916138Y-144805366D01*
X269916138Y-144805366D02*
X270011376Y-144900604D01*
X270011376Y-144900604D02*
X270106614Y-144948223D01*
X270106614Y-144948223D02*
X270297090Y-144995842D01*
X270297090Y-144995842D02*
X270439947Y-144995842D01*
X270439947Y-144995842D02*
X270630423Y-144948223D01*
X270630423Y-144948223D02*
X270725661Y-144900604D01*
X270725661Y-144900604D02*
X270820900Y-144805366D01*
X270820900Y-144805366D02*
X270868519Y-144662509D01*
X270868519Y-144662509D02*
X270868519Y-144424414D01*
X269963757Y-145376795D02*
X269916138Y-145424414D01*
X269916138Y-145424414D02*
X269868519Y-145519652D01*
X269868519Y-145519652D02*
X269868519Y-145757747D01*
X269868519Y-145757747D02*
X269916138Y-145852985D01*
X269916138Y-145852985D02*
X269963757Y-145900604D01*
X269963757Y-145900604D02*
X270058995Y-145948223D01*
X270058995Y-145948223D02*
X270154233Y-145948223D01*
X270154233Y-145948223D02*
X270297090Y-145900604D01*
X270297090Y-145900604D02*
X270868519Y-145329176D01*
X270868519Y-145329176D02*
X270868519Y-145948223D01*
X269868519Y-146852985D02*
X269868519Y-146376795D01*
X269868519Y-146376795D02*
X270344709Y-146329176D01*
X270344709Y-146329176D02*
X270297090Y-146376795D01*
X270297090Y-146376795D02*
X270249471Y-146472033D01*
X270249471Y-146472033D02*
X270249471Y-146710128D01*
X270249471Y-146710128D02*
X270297090Y-146805366D01*
X270297090Y-146805366D02*
X270344709Y-146852985D01*
X270344709Y-146852985D02*
X270439947Y-146900604D01*
X270439947Y-146900604D02*
X270678042Y-146900604D01*
X270678042Y-146900604D02*
X270773280Y-146852985D01*
X270773280Y-146852985D02*
X270820900Y-146805366D01*
X270820900Y-146805366D02*
X270868519Y-146710128D01*
X270868519Y-146710128D02*
X270868519Y-146472033D01*
X270868519Y-146472033D02*
X270820900Y-146376795D01*
X270820900Y-146376795D02*
X270773280Y-146329176D01*
X275631019Y-163474414D02*
X274631019Y-163474414D01*
X274631019Y-163474414D02*
X274631019Y-163712509D01*
X274631019Y-163712509D02*
X274678638Y-163855366D01*
X274678638Y-163855366D02*
X274773876Y-163950604D01*
X274773876Y-163950604D02*
X274869114Y-163998223D01*
X274869114Y-163998223D02*
X275059590Y-164045842D01*
X275059590Y-164045842D02*
X275202447Y-164045842D01*
X275202447Y-164045842D02*
X275392923Y-163998223D01*
X275392923Y-163998223D02*
X275488161Y-163950604D01*
X275488161Y-163950604D02*
X275583400Y-163855366D01*
X275583400Y-163855366D02*
X275631019Y-163712509D01*
X275631019Y-163712509D02*
X275631019Y-163474414D01*
X274964352Y-164902985D02*
X275631019Y-164902985D01*
X274583400Y-164664890D02*
X275297685Y-164426795D01*
X275297685Y-164426795D02*
X275297685Y-165045842D01*
X274631019Y-165617271D02*
X274631019Y-165712509D01*
X274631019Y-165712509D02*
X274678638Y-165807747D01*
X274678638Y-165807747D02*
X274726257Y-165855366D01*
X274726257Y-165855366D02*
X274821495Y-165902985D01*
X274821495Y-165902985D02*
X275011971Y-165950604D01*
X275011971Y-165950604D02*
X275250066Y-165950604D01*
X275250066Y-165950604D02*
X275440542Y-165902985D01*
X275440542Y-165902985D02*
X275535780Y-165855366D01*
X275535780Y-165855366D02*
X275583400Y-165807747D01*
X275583400Y-165807747D02*
X275631019Y-165712509D01*
X275631019Y-165712509D02*
X275631019Y-165617271D01*
X275631019Y-165617271D02*
X275583400Y-165522033D01*
X275583400Y-165522033D02*
X275535780Y-165474414D01*
X275535780Y-165474414D02*
X275440542Y-165426795D01*
X275440542Y-165426795D02*
X275250066Y-165379176D01*
X275250066Y-165379176D02*
X275011971Y-165379176D01*
X275011971Y-165379176D02*
X274821495Y-165426795D01*
X274821495Y-165426795D02*
X274726257Y-165474414D01*
X274726257Y-165474414D02*
X274678638Y-165522033D01*
X274678638Y-165522033D02*
X274631019Y-165617271D01*
X287537219Y-201574414D02*
X286537219Y-201574414D01*
X286537219Y-201574414D02*
X286537219Y-201812509D01*
X286537219Y-201812509D02*
X286584838Y-201955366D01*
X286584838Y-201955366D02*
X286680076Y-202050604D01*
X286680076Y-202050604D02*
X286775314Y-202098223D01*
X286775314Y-202098223D02*
X286965790Y-202145842D01*
X286965790Y-202145842D02*
X287108647Y-202145842D01*
X287108647Y-202145842D02*
X287299123Y-202098223D01*
X287299123Y-202098223D02*
X287394361Y-202050604D01*
X287394361Y-202050604D02*
X287489600Y-201955366D01*
X287489600Y-201955366D02*
X287537219Y-201812509D01*
X287537219Y-201812509D02*
X287537219Y-201574414D01*
X286537219Y-203002985D02*
X286537219Y-202812509D01*
X286537219Y-202812509D02*
X286584838Y-202717271D01*
X286584838Y-202717271D02*
X286632457Y-202669652D01*
X286632457Y-202669652D02*
X286775314Y-202574414D01*
X286775314Y-202574414D02*
X286965790Y-202526795D01*
X286965790Y-202526795D02*
X287346742Y-202526795D01*
X287346742Y-202526795D02*
X287441980Y-202574414D01*
X287441980Y-202574414D02*
X287489600Y-202622033D01*
X287489600Y-202622033D02*
X287537219Y-202717271D01*
X287537219Y-202717271D02*
X287537219Y-202907747D01*
X287537219Y-202907747D02*
X287489600Y-203002985D01*
X287489600Y-203002985D02*
X287441980Y-203050604D01*
X287441980Y-203050604D02*
X287346742Y-203098223D01*
X287346742Y-203098223D02*
X287108647Y-203098223D01*
X287108647Y-203098223D02*
X287013409Y-203050604D01*
X287013409Y-203050604D02*
X286965790Y-203002985D01*
X286965790Y-203002985D02*
X286918171Y-202907747D01*
X286918171Y-202907747D02*
X286918171Y-202717271D01*
X286918171Y-202717271D02*
X286965790Y-202622033D01*
X286965790Y-202622033D02*
X287013409Y-202574414D01*
X287013409Y-202574414D02*
X287108647Y-202526795D01*
X286537219Y-203431557D02*
X286537219Y-204050604D01*
X286537219Y-204050604D02*
X286918171Y-203717271D01*
X286918171Y-203717271D02*
X286918171Y-203860128D01*
X286918171Y-203860128D02*
X286965790Y-203955366D01*
X286965790Y-203955366D02*
X287013409Y-204002985D01*
X287013409Y-204002985D02*
X287108647Y-204050604D01*
X287108647Y-204050604D02*
X287346742Y-204050604D01*
X287346742Y-204050604D02*
X287441980Y-204002985D01*
X287441980Y-204002985D02*
X287489600Y-203955366D01*
X287489600Y-203955366D02*
X287537219Y-203860128D01*
X287537219Y-203860128D02*
X287537219Y-203574414D01*
X287537219Y-203574414D02*
X287489600Y-203479176D01*
X287489600Y-203479176D02*
X287441980Y-203431557D01*
X178427866Y-103533219D02*
X178761199Y-103057028D01*
X178999294Y-103533219D02*
X178999294Y-102533219D01*
X178999294Y-102533219D02*
X178618342Y-102533219D01*
X178618342Y-102533219D02*
X178523104Y-102580838D01*
X178523104Y-102580838D02*
X178475485Y-102628457D01*
X178475485Y-102628457D02*
X178427866Y-102723695D01*
X178427866Y-102723695D02*
X178427866Y-102866552D01*
X178427866Y-102866552D02*
X178475485Y-102961790D01*
X178475485Y-102961790D02*
X178523104Y-103009409D01*
X178523104Y-103009409D02*
X178618342Y-103057028D01*
X178618342Y-103057028D02*
X178999294Y-103057028D01*
X177856437Y-102961790D02*
X177951675Y-102914171D01*
X177951675Y-102914171D02*
X177999294Y-102866552D01*
X177999294Y-102866552D02*
X178046913Y-102771314D01*
X178046913Y-102771314D02*
X178046913Y-102723695D01*
X178046913Y-102723695D02*
X177999294Y-102628457D01*
X177999294Y-102628457D02*
X177951675Y-102580838D01*
X177951675Y-102580838D02*
X177856437Y-102533219D01*
X177856437Y-102533219D02*
X177665961Y-102533219D01*
X177665961Y-102533219D02*
X177570723Y-102580838D01*
X177570723Y-102580838D02*
X177523104Y-102628457D01*
X177523104Y-102628457D02*
X177475485Y-102723695D01*
X177475485Y-102723695D02*
X177475485Y-102771314D01*
X177475485Y-102771314D02*
X177523104Y-102866552D01*
X177523104Y-102866552D02*
X177570723Y-102914171D01*
X177570723Y-102914171D02*
X177665961Y-102961790D01*
X177665961Y-102961790D02*
X177856437Y-102961790D01*
X177856437Y-102961790D02*
X177951675Y-103009409D01*
X177951675Y-103009409D02*
X177999294Y-103057028D01*
X177999294Y-103057028D02*
X178046913Y-103152266D01*
X178046913Y-103152266D02*
X178046913Y-103342742D01*
X178046913Y-103342742D02*
X177999294Y-103437980D01*
X177999294Y-103437980D02*
X177951675Y-103485600D01*
X177951675Y-103485600D02*
X177856437Y-103533219D01*
X177856437Y-103533219D02*
X177665961Y-103533219D01*
X177665961Y-103533219D02*
X177570723Y-103485600D01*
X177570723Y-103485600D02*
X177523104Y-103437980D01*
X177523104Y-103437980D02*
X177475485Y-103342742D01*
X177475485Y-103342742D02*
X177475485Y-103152266D01*
X177475485Y-103152266D02*
X177523104Y-103057028D01*
X177523104Y-103057028D02*
X177570723Y-103009409D01*
X177570723Y-103009409D02*
X177665961Y-102961790D01*
X218481019Y-163474414D02*
X217481019Y-163474414D01*
X217481019Y-163474414D02*
X217481019Y-163712509D01*
X217481019Y-163712509D02*
X217528638Y-163855366D01*
X217528638Y-163855366D02*
X217623876Y-163950604D01*
X217623876Y-163950604D02*
X217719114Y-163998223D01*
X217719114Y-163998223D02*
X217909590Y-164045842D01*
X217909590Y-164045842D02*
X218052447Y-164045842D01*
X218052447Y-164045842D02*
X218242923Y-163998223D01*
X218242923Y-163998223D02*
X218338161Y-163950604D01*
X218338161Y-163950604D02*
X218433400Y-163855366D01*
X218433400Y-163855366D02*
X218481019Y-163712509D01*
X218481019Y-163712509D02*
X218481019Y-163474414D01*
X217481019Y-164379176D02*
X217481019Y-164998223D01*
X217481019Y-164998223D02*
X217861971Y-164664890D01*
X217861971Y-164664890D02*
X217861971Y-164807747D01*
X217861971Y-164807747D02*
X217909590Y-164902985D01*
X217909590Y-164902985D02*
X217957209Y-164950604D01*
X217957209Y-164950604D02*
X218052447Y-164998223D01*
X218052447Y-164998223D02*
X218290542Y-164998223D01*
X218290542Y-164998223D02*
X218385780Y-164950604D01*
X218385780Y-164950604D02*
X218433400Y-164902985D01*
X218433400Y-164902985D02*
X218481019Y-164807747D01*
X218481019Y-164807747D02*
X218481019Y-164522033D01*
X218481019Y-164522033D02*
X218433400Y-164426795D01*
X218433400Y-164426795D02*
X218385780Y-164379176D01*
X217481019Y-165331557D02*
X217481019Y-165998223D01*
X217481019Y-165998223D02*
X218481019Y-165569652D01*
X263724719Y-201574414D02*
X262724719Y-201574414D01*
X262724719Y-201574414D02*
X262724719Y-201812509D01*
X262724719Y-201812509D02*
X262772338Y-201955366D01*
X262772338Y-201955366D02*
X262867576Y-202050604D01*
X262867576Y-202050604D02*
X262962814Y-202098223D01*
X262962814Y-202098223D02*
X263153290Y-202145842D01*
X263153290Y-202145842D02*
X263296147Y-202145842D01*
X263296147Y-202145842D02*
X263486623Y-202098223D01*
X263486623Y-202098223D02*
X263581861Y-202050604D01*
X263581861Y-202050604D02*
X263677100Y-201955366D01*
X263677100Y-201955366D02*
X263724719Y-201812509D01*
X263724719Y-201812509D02*
X263724719Y-201574414D01*
X262724719Y-203002985D02*
X262724719Y-202812509D01*
X262724719Y-202812509D02*
X262772338Y-202717271D01*
X262772338Y-202717271D02*
X262819957Y-202669652D01*
X262819957Y-202669652D02*
X262962814Y-202574414D01*
X262962814Y-202574414D02*
X263153290Y-202526795D01*
X263153290Y-202526795D02*
X263534242Y-202526795D01*
X263534242Y-202526795D02*
X263629480Y-202574414D01*
X263629480Y-202574414D02*
X263677100Y-202622033D01*
X263677100Y-202622033D02*
X263724719Y-202717271D01*
X263724719Y-202717271D02*
X263724719Y-202907747D01*
X263724719Y-202907747D02*
X263677100Y-203002985D01*
X263677100Y-203002985D02*
X263629480Y-203050604D01*
X263629480Y-203050604D02*
X263534242Y-203098223D01*
X263534242Y-203098223D02*
X263296147Y-203098223D01*
X263296147Y-203098223D02*
X263200909Y-203050604D01*
X263200909Y-203050604D02*
X263153290Y-203002985D01*
X263153290Y-203002985D02*
X263105671Y-202907747D01*
X263105671Y-202907747D02*
X263105671Y-202717271D01*
X263105671Y-202717271D02*
X263153290Y-202622033D01*
X263153290Y-202622033D02*
X263200909Y-202574414D01*
X263200909Y-202574414D02*
X263296147Y-202526795D01*
X262819957Y-203479176D02*
X262772338Y-203526795D01*
X262772338Y-203526795D02*
X262724719Y-203622033D01*
X262724719Y-203622033D02*
X262724719Y-203860128D01*
X262724719Y-203860128D02*
X262772338Y-203955366D01*
X262772338Y-203955366D02*
X262819957Y-204002985D01*
X262819957Y-204002985D02*
X262915195Y-204050604D01*
X262915195Y-204050604D02*
X263010433Y-204050604D01*
X263010433Y-204050604D02*
X263153290Y-204002985D01*
X263153290Y-204002985D02*
X263724719Y-203431557D01*
X263724719Y-203431557D02*
X263724719Y-204050604D01*
X101799719Y-201574414D02*
X100799719Y-201574414D01*
X100799719Y-201574414D02*
X100799719Y-201812509D01*
X100799719Y-201812509D02*
X100847338Y-201955366D01*
X100847338Y-201955366D02*
X100942576Y-202050604D01*
X100942576Y-202050604D02*
X101037814Y-202098223D01*
X101037814Y-202098223D02*
X101228290Y-202145842D01*
X101228290Y-202145842D02*
X101371147Y-202145842D01*
X101371147Y-202145842D02*
X101561623Y-202098223D01*
X101561623Y-202098223D02*
X101656861Y-202050604D01*
X101656861Y-202050604D02*
X101752100Y-201955366D01*
X101752100Y-201955366D02*
X101799719Y-201812509D01*
X101799719Y-201812509D02*
X101799719Y-201574414D01*
X100799719Y-203050604D02*
X100799719Y-202574414D01*
X100799719Y-202574414D02*
X101275909Y-202526795D01*
X101275909Y-202526795D02*
X101228290Y-202574414D01*
X101228290Y-202574414D02*
X101180671Y-202669652D01*
X101180671Y-202669652D02*
X101180671Y-202907747D01*
X101180671Y-202907747D02*
X101228290Y-203002985D01*
X101228290Y-203002985D02*
X101275909Y-203050604D01*
X101275909Y-203050604D02*
X101371147Y-203098223D01*
X101371147Y-203098223D02*
X101609242Y-203098223D01*
X101609242Y-203098223D02*
X101704480Y-203050604D01*
X101704480Y-203050604D02*
X101752100Y-203002985D01*
X101752100Y-203002985D02*
X101799719Y-202907747D01*
X101799719Y-202907747D02*
X101799719Y-202669652D01*
X101799719Y-202669652D02*
X101752100Y-202574414D01*
X101752100Y-202574414D02*
X101704480Y-202526795D01*
X101799719Y-203574414D02*
X101799719Y-203764890D01*
X101799719Y-203764890D02*
X101752100Y-203860128D01*
X101752100Y-203860128D02*
X101704480Y-203907747D01*
X101704480Y-203907747D02*
X101561623Y-204002985D01*
X101561623Y-204002985D02*
X101371147Y-204050604D01*
X101371147Y-204050604D02*
X100990195Y-204050604D01*
X100990195Y-204050604D02*
X100894957Y-204002985D01*
X100894957Y-204002985D02*
X100847338Y-203955366D01*
X100847338Y-203955366D02*
X100799719Y-203860128D01*
X100799719Y-203860128D02*
X100799719Y-203669652D01*
X100799719Y-203669652D02*
X100847338Y-203574414D01*
X100847338Y-203574414D02*
X100894957Y-203526795D01*
X100894957Y-203526795D02*
X100990195Y-203479176D01*
X100990195Y-203479176D02*
X101228290Y-203479176D01*
X101228290Y-203479176D02*
X101323528Y-203526795D01*
X101323528Y-203526795D02*
X101371147Y-203574414D01*
X101371147Y-203574414D02*
X101418766Y-203669652D01*
X101418766Y-203669652D02*
X101418766Y-203860128D01*
X101418766Y-203860128D02*
X101371147Y-203955366D01*
X101371147Y-203955366D02*
X101323528Y-204002985D01*
X101323528Y-204002985D02*
X101228290Y-204050604D01*
X356593519Y-182524414D02*
X355593519Y-182524414D01*
X355593519Y-182524414D02*
X355593519Y-182762509D01*
X355593519Y-182762509D02*
X355641138Y-182905366D01*
X355641138Y-182905366D02*
X355736376Y-183000604D01*
X355736376Y-183000604D02*
X355831614Y-183048223D01*
X355831614Y-183048223D02*
X356022090Y-183095842D01*
X356022090Y-183095842D02*
X356164947Y-183095842D01*
X356164947Y-183095842D02*
X356355423Y-183048223D01*
X356355423Y-183048223D02*
X356450661Y-183000604D01*
X356450661Y-183000604D02*
X356545900Y-182905366D01*
X356545900Y-182905366D02*
X356593519Y-182762509D01*
X356593519Y-182762509D02*
X356593519Y-182524414D01*
X355593519Y-184000604D02*
X355593519Y-183524414D01*
X355593519Y-183524414D02*
X356069709Y-183476795D01*
X356069709Y-183476795D02*
X356022090Y-183524414D01*
X356022090Y-183524414D02*
X355974471Y-183619652D01*
X355974471Y-183619652D02*
X355974471Y-183857747D01*
X355974471Y-183857747D02*
X356022090Y-183952985D01*
X356022090Y-183952985D02*
X356069709Y-184000604D01*
X356069709Y-184000604D02*
X356164947Y-184048223D01*
X356164947Y-184048223D02*
X356403042Y-184048223D01*
X356403042Y-184048223D02*
X356498280Y-184000604D01*
X356498280Y-184000604D02*
X356545900Y-183952985D01*
X356545900Y-183952985D02*
X356593519Y-183857747D01*
X356593519Y-183857747D02*
X356593519Y-183619652D01*
X356593519Y-183619652D02*
X356545900Y-183524414D01*
X356545900Y-183524414D02*
X356498280Y-183476795D01*
X355593519Y-184381557D02*
X355593519Y-185048223D01*
X355593519Y-185048223D02*
X356593519Y-184619652D01*
X94656019Y-125850605D02*
X93656019Y-125850605D01*
X93656019Y-125850605D02*
X93656019Y-126088700D01*
X93656019Y-126088700D02*
X93703638Y-126231557D01*
X93703638Y-126231557D02*
X93798876Y-126326795D01*
X93798876Y-126326795D02*
X93894114Y-126374414D01*
X93894114Y-126374414D02*
X94084590Y-126422033D01*
X94084590Y-126422033D02*
X94227447Y-126422033D01*
X94227447Y-126422033D02*
X94417923Y-126374414D01*
X94417923Y-126374414D02*
X94513161Y-126326795D01*
X94513161Y-126326795D02*
X94608400Y-126231557D01*
X94608400Y-126231557D02*
X94656019Y-126088700D01*
X94656019Y-126088700D02*
X94656019Y-125850605D01*
X94656019Y-127374414D02*
X94656019Y-126802986D01*
X94656019Y-127088700D02*
X93656019Y-127088700D01*
X93656019Y-127088700D02*
X93798876Y-126993462D01*
X93798876Y-126993462D02*
X93894114Y-126898224D01*
X93894114Y-126898224D02*
X93941733Y-126802986D01*
X199431019Y-163474414D02*
X198431019Y-163474414D01*
X198431019Y-163474414D02*
X198431019Y-163712509D01*
X198431019Y-163712509D02*
X198478638Y-163855366D01*
X198478638Y-163855366D02*
X198573876Y-163950604D01*
X198573876Y-163950604D02*
X198669114Y-163998223D01*
X198669114Y-163998223D02*
X198859590Y-164045842D01*
X198859590Y-164045842D02*
X199002447Y-164045842D01*
X199002447Y-164045842D02*
X199192923Y-163998223D01*
X199192923Y-163998223D02*
X199288161Y-163950604D01*
X199288161Y-163950604D02*
X199383400Y-163855366D01*
X199383400Y-163855366D02*
X199431019Y-163712509D01*
X199431019Y-163712509D02*
X199431019Y-163474414D01*
X198431019Y-164379176D02*
X198431019Y-164998223D01*
X198431019Y-164998223D02*
X198811971Y-164664890D01*
X198811971Y-164664890D02*
X198811971Y-164807747D01*
X198811971Y-164807747D02*
X198859590Y-164902985D01*
X198859590Y-164902985D02*
X198907209Y-164950604D01*
X198907209Y-164950604D02*
X199002447Y-164998223D01*
X199002447Y-164998223D02*
X199240542Y-164998223D01*
X199240542Y-164998223D02*
X199335780Y-164950604D01*
X199335780Y-164950604D02*
X199383400Y-164902985D01*
X199383400Y-164902985D02*
X199431019Y-164807747D01*
X199431019Y-164807747D02*
X199431019Y-164522033D01*
X199431019Y-164522033D02*
X199383400Y-164426795D01*
X199383400Y-164426795D02*
X199335780Y-164379176D01*
X198431019Y-165855366D02*
X198431019Y-165664890D01*
X198431019Y-165664890D02*
X198478638Y-165569652D01*
X198478638Y-165569652D02*
X198526257Y-165522033D01*
X198526257Y-165522033D02*
X198669114Y-165426795D01*
X198669114Y-165426795D02*
X198859590Y-165379176D01*
X198859590Y-165379176D02*
X199240542Y-165379176D01*
X199240542Y-165379176D02*
X199335780Y-165426795D01*
X199335780Y-165426795D02*
X199383400Y-165474414D01*
X199383400Y-165474414D02*
X199431019Y-165569652D01*
X199431019Y-165569652D02*
X199431019Y-165760128D01*
X199431019Y-165760128D02*
X199383400Y-165855366D01*
X199383400Y-165855366D02*
X199335780Y-165902985D01*
X199335780Y-165902985D02*
X199240542Y-165950604D01*
X199240542Y-165950604D02*
X199002447Y-165950604D01*
X199002447Y-165950604D02*
X198907209Y-165902985D01*
X198907209Y-165902985D02*
X198859590Y-165855366D01*
X198859590Y-165855366D02*
X198811971Y-165760128D01*
X198811971Y-165760128D02*
X198811971Y-165569652D01*
X198811971Y-165569652D02*
X198859590Y-165474414D01*
X198859590Y-165474414D02*
X198907209Y-165426795D01*
X198907209Y-165426795D02*
X199002447Y-165379176D01*
X137518519Y-144424414D02*
X136518519Y-144424414D01*
X136518519Y-144424414D02*
X136518519Y-144662509D01*
X136518519Y-144662509D02*
X136566138Y-144805366D01*
X136566138Y-144805366D02*
X136661376Y-144900604D01*
X136661376Y-144900604D02*
X136756614Y-144948223D01*
X136756614Y-144948223D02*
X136947090Y-144995842D01*
X136947090Y-144995842D02*
X137089947Y-144995842D01*
X137089947Y-144995842D02*
X137280423Y-144948223D01*
X137280423Y-144948223D02*
X137375661Y-144900604D01*
X137375661Y-144900604D02*
X137470900Y-144805366D01*
X137470900Y-144805366D02*
X137518519Y-144662509D01*
X137518519Y-144662509D02*
X137518519Y-144424414D01*
X137518519Y-145948223D02*
X137518519Y-145376795D01*
X137518519Y-145662509D02*
X136518519Y-145662509D01*
X136518519Y-145662509D02*
X136661376Y-145567271D01*
X136661376Y-145567271D02*
X136756614Y-145472033D01*
X136756614Y-145472033D02*
X136804233Y-145376795D01*
X136947090Y-146519652D02*
X136899471Y-146424414D01*
X136899471Y-146424414D02*
X136851852Y-146376795D01*
X136851852Y-146376795D02*
X136756614Y-146329176D01*
X136756614Y-146329176D02*
X136708995Y-146329176D01*
X136708995Y-146329176D02*
X136613757Y-146376795D01*
X136613757Y-146376795D02*
X136566138Y-146424414D01*
X136566138Y-146424414D02*
X136518519Y-146519652D01*
X136518519Y-146519652D02*
X136518519Y-146710128D01*
X136518519Y-146710128D02*
X136566138Y-146805366D01*
X136566138Y-146805366D02*
X136613757Y-146852985D01*
X136613757Y-146852985D02*
X136708995Y-146900604D01*
X136708995Y-146900604D02*
X136756614Y-146900604D01*
X136756614Y-146900604D02*
X136851852Y-146852985D01*
X136851852Y-146852985D02*
X136899471Y-146805366D01*
X136899471Y-146805366D02*
X136947090Y-146710128D01*
X136947090Y-146710128D02*
X136947090Y-146519652D01*
X136947090Y-146519652D02*
X136994709Y-146424414D01*
X136994709Y-146424414D02*
X137042328Y-146376795D01*
X137042328Y-146376795D02*
X137137566Y-146329176D01*
X137137566Y-146329176D02*
X137328042Y-146329176D01*
X137328042Y-146329176D02*
X137423280Y-146376795D01*
X137423280Y-146376795D02*
X137470900Y-146424414D01*
X137470900Y-146424414D02*
X137518519Y-146519652D01*
X137518519Y-146519652D02*
X137518519Y-146710128D01*
X137518519Y-146710128D02*
X137470900Y-146805366D01*
X137470900Y-146805366D02*
X137423280Y-146852985D01*
X137423280Y-146852985D02*
X137328042Y-146900604D01*
X137328042Y-146900604D02*
X137137566Y-146900604D01*
X137137566Y-146900604D02*
X137042328Y-146852985D01*
X137042328Y-146852985D02*
X136994709Y-146805366D01*
X136994709Y-146805366D02*
X136947090Y-146710128D01*
X197775057Y-108026219D02*
X198108390Y-107550028D01*
X198346485Y-108026219D02*
X198346485Y-107026219D01*
X198346485Y-107026219D02*
X197965533Y-107026219D01*
X197965533Y-107026219D02*
X197870295Y-107073838D01*
X197870295Y-107073838D02*
X197822676Y-107121457D01*
X197822676Y-107121457D02*
X197775057Y-107216695D01*
X197775057Y-107216695D02*
X197775057Y-107359552D01*
X197775057Y-107359552D02*
X197822676Y-107454790D01*
X197822676Y-107454790D02*
X197870295Y-107502409D01*
X197870295Y-107502409D02*
X197965533Y-107550028D01*
X197965533Y-107550028D02*
X198346485Y-107550028D01*
X196822676Y-108026219D02*
X197394104Y-108026219D01*
X197108390Y-108026219D02*
X197108390Y-107026219D01*
X197108390Y-107026219D02*
X197203628Y-107169076D01*
X197203628Y-107169076D02*
X197298866Y-107264314D01*
X197298866Y-107264314D02*
X197394104Y-107311933D01*
X196203628Y-107026219D02*
X196108390Y-107026219D01*
X196108390Y-107026219D02*
X196013152Y-107073838D01*
X196013152Y-107073838D02*
X195965533Y-107121457D01*
X195965533Y-107121457D02*
X195917914Y-107216695D01*
X195917914Y-107216695D02*
X195870295Y-107407171D01*
X195870295Y-107407171D02*
X195870295Y-107645266D01*
X195870295Y-107645266D02*
X195917914Y-107835742D01*
X195917914Y-107835742D02*
X195965533Y-107930980D01*
X195965533Y-107930980D02*
X196013152Y-107978600D01*
X196013152Y-107978600D02*
X196108390Y-108026219D01*
X196108390Y-108026219D02*
X196203628Y-108026219D01*
X196203628Y-108026219D02*
X196298866Y-107978600D01*
X196298866Y-107978600D02*
X196346485Y-107930980D01*
X196346485Y-107930980D02*
X196394104Y-107835742D01*
X196394104Y-107835742D02*
X196441723Y-107645266D01*
X196441723Y-107645266D02*
X196441723Y-107407171D01*
X196441723Y-107407171D02*
X196394104Y-107216695D01*
X196394104Y-107216695D02*
X196346485Y-107121457D01*
X196346485Y-107121457D02*
X196298866Y-107073838D01*
X196298866Y-107073838D02*
X196203628Y-107026219D01*
X151806019Y-125850605D02*
X150806019Y-125850605D01*
X150806019Y-125850605D02*
X150806019Y-126088700D01*
X150806019Y-126088700D02*
X150853638Y-126231557D01*
X150853638Y-126231557D02*
X150948876Y-126326795D01*
X150948876Y-126326795D02*
X151044114Y-126374414D01*
X151044114Y-126374414D02*
X151234590Y-126422033D01*
X151234590Y-126422033D02*
X151377447Y-126422033D01*
X151377447Y-126422033D02*
X151567923Y-126374414D01*
X151567923Y-126374414D02*
X151663161Y-126326795D01*
X151663161Y-126326795D02*
X151758400Y-126231557D01*
X151758400Y-126231557D02*
X151806019Y-126088700D01*
X151806019Y-126088700D02*
X151806019Y-125850605D01*
X151139352Y-127279176D02*
X151806019Y-127279176D01*
X150758400Y-127041081D02*
X151472685Y-126802986D01*
X151472685Y-126802986D02*
X151472685Y-127422033D01*
X142281019Y-163474414D02*
X141281019Y-163474414D01*
X141281019Y-163474414D02*
X141281019Y-163712509D01*
X141281019Y-163712509D02*
X141328638Y-163855366D01*
X141328638Y-163855366D02*
X141423876Y-163950604D01*
X141423876Y-163950604D02*
X141519114Y-163998223D01*
X141519114Y-163998223D02*
X141709590Y-164045842D01*
X141709590Y-164045842D02*
X141852447Y-164045842D01*
X141852447Y-164045842D02*
X142042923Y-163998223D01*
X142042923Y-163998223D02*
X142138161Y-163950604D01*
X142138161Y-163950604D02*
X142233400Y-163855366D01*
X142233400Y-163855366D02*
X142281019Y-163712509D01*
X142281019Y-163712509D02*
X142281019Y-163474414D01*
X141281019Y-164379176D02*
X141281019Y-164998223D01*
X141281019Y-164998223D02*
X141661971Y-164664890D01*
X141661971Y-164664890D02*
X141661971Y-164807747D01*
X141661971Y-164807747D02*
X141709590Y-164902985D01*
X141709590Y-164902985D02*
X141757209Y-164950604D01*
X141757209Y-164950604D02*
X141852447Y-164998223D01*
X141852447Y-164998223D02*
X142090542Y-164998223D01*
X142090542Y-164998223D02*
X142185780Y-164950604D01*
X142185780Y-164950604D02*
X142233400Y-164902985D01*
X142233400Y-164902985D02*
X142281019Y-164807747D01*
X142281019Y-164807747D02*
X142281019Y-164522033D01*
X142281019Y-164522033D02*
X142233400Y-164426795D01*
X142233400Y-164426795D02*
X142185780Y-164379176D01*
X141281019Y-165331557D02*
X141281019Y-165950604D01*
X141281019Y-165950604D02*
X141661971Y-165617271D01*
X141661971Y-165617271D02*
X141661971Y-165760128D01*
X141661971Y-165760128D02*
X141709590Y-165855366D01*
X141709590Y-165855366D02*
X141757209Y-165902985D01*
X141757209Y-165902985D02*
X141852447Y-165950604D01*
X141852447Y-165950604D02*
X142090542Y-165950604D01*
X142090542Y-165950604D02*
X142185780Y-165902985D01*
X142185780Y-165902985D02*
X142233400Y-165855366D01*
X142233400Y-165855366D02*
X142281019Y-165760128D01*
X142281019Y-165760128D02*
X142281019Y-165474414D01*
X142281019Y-165474414D02*
X142233400Y-165379176D01*
X142233400Y-165379176D02*
X142185780Y-165331557D01*
X118468519Y-182524414D02*
X117468519Y-182524414D01*
X117468519Y-182524414D02*
X117468519Y-182762509D01*
X117468519Y-182762509D02*
X117516138Y-182905366D01*
X117516138Y-182905366D02*
X117611376Y-183000604D01*
X117611376Y-183000604D02*
X117706614Y-183048223D01*
X117706614Y-183048223D02*
X117897090Y-183095842D01*
X117897090Y-183095842D02*
X118039947Y-183095842D01*
X118039947Y-183095842D02*
X118230423Y-183048223D01*
X118230423Y-183048223D02*
X118325661Y-183000604D01*
X118325661Y-183000604D02*
X118420900Y-182905366D01*
X118420900Y-182905366D02*
X118468519Y-182762509D01*
X118468519Y-182762509D02*
X118468519Y-182524414D01*
X117801852Y-183952985D02*
X118468519Y-183952985D01*
X117420900Y-183714890D02*
X118135185Y-183476795D01*
X118135185Y-183476795D02*
X118135185Y-184095842D01*
X117468519Y-184905366D02*
X117468519Y-184714890D01*
X117468519Y-184714890D02*
X117516138Y-184619652D01*
X117516138Y-184619652D02*
X117563757Y-184572033D01*
X117563757Y-184572033D02*
X117706614Y-184476795D01*
X117706614Y-184476795D02*
X117897090Y-184429176D01*
X117897090Y-184429176D02*
X118278042Y-184429176D01*
X118278042Y-184429176D02*
X118373280Y-184476795D01*
X118373280Y-184476795D02*
X118420900Y-184524414D01*
X118420900Y-184524414D02*
X118468519Y-184619652D01*
X118468519Y-184619652D02*
X118468519Y-184810128D01*
X118468519Y-184810128D02*
X118420900Y-184905366D01*
X118420900Y-184905366D02*
X118373280Y-184952985D01*
X118373280Y-184952985D02*
X118278042Y-185000604D01*
X118278042Y-185000604D02*
X118039947Y-185000604D01*
X118039947Y-185000604D02*
X117944709Y-184952985D01*
X117944709Y-184952985D02*
X117897090Y-184905366D01*
X117897090Y-184905366D02*
X117849471Y-184810128D01*
X117849471Y-184810128D02*
X117849471Y-184619652D01*
X117849471Y-184619652D02*
X117897090Y-184524414D01*
X117897090Y-184524414D02*
X117944709Y-184476795D01*
X117944709Y-184476795D02*
X118039947Y-184429176D01*
X161331019Y-163474414D02*
X160331019Y-163474414D01*
X160331019Y-163474414D02*
X160331019Y-163712509D01*
X160331019Y-163712509D02*
X160378638Y-163855366D01*
X160378638Y-163855366D02*
X160473876Y-163950604D01*
X160473876Y-163950604D02*
X160569114Y-163998223D01*
X160569114Y-163998223D02*
X160759590Y-164045842D01*
X160759590Y-164045842D02*
X160902447Y-164045842D01*
X160902447Y-164045842D02*
X161092923Y-163998223D01*
X161092923Y-163998223D02*
X161188161Y-163950604D01*
X161188161Y-163950604D02*
X161283400Y-163855366D01*
X161283400Y-163855366D02*
X161331019Y-163712509D01*
X161331019Y-163712509D02*
X161331019Y-163474414D01*
X160331019Y-164379176D02*
X160331019Y-164998223D01*
X160331019Y-164998223D02*
X160711971Y-164664890D01*
X160711971Y-164664890D02*
X160711971Y-164807747D01*
X160711971Y-164807747D02*
X160759590Y-164902985D01*
X160759590Y-164902985D02*
X160807209Y-164950604D01*
X160807209Y-164950604D02*
X160902447Y-164998223D01*
X160902447Y-164998223D02*
X161140542Y-164998223D01*
X161140542Y-164998223D02*
X161235780Y-164950604D01*
X161235780Y-164950604D02*
X161283400Y-164902985D01*
X161283400Y-164902985D02*
X161331019Y-164807747D01*
X161331019Y-164807747D02*
X161331019Y-164522033D01*
X161331019Y-164522033D02*
X161283400Y-164426795D01*
X161283400Y-164426795D02*
X161235780Y-164379176D01*
X160664352Y-165855366D02*
X161331019Y-165855366D01*
X160283400Y-165617271D02*
X160997685Y-165379176D01*
X160997685Y-165379176D02*
X160997685Y-165998223D01*
X304206019Y-125374414D02*
X303206019Y-125374414D01*
X303206019Y-125374414D02*
X303206019Y-125612509D01*
X303206019Y-125612509D02*
X303253638Y-125755366D01*
X303253638Y-125755366D02*
X303348876Y-125850604D01*
X303348876Y-125850604D02*
X303444114Y-125898223D01*
X303444114Y-125898223D02*
X303634590Y-125945842D01*
X303634590Y-125945842D02*
X303777447Y-125945842D01*
X303777447Y-125945842D02*
X303967923Y-125898223D01*
X303967923Y-125898223D02*
X304063161Y-125850604D01*
X304063161Y-125850604D02*
X304158400Y-125755366D01*
X304158400Y-125755366D02*
X304206019Y-125612509D01*
X304206019Y-125612509D02*
X304206019Y-125374414D01*
X304206019Y-126898223D02*
X304206019Y-126326795D01*
X304206019Y-126612509D02*
X303206019Y-126612509D01*
X303206019Y-126612509D02*
X303348876Y-126517271D01*
X303348876Y-126517271D02*
X303444114Y-126422033D01*
X303444114Y-126422033D02*
X303491733Y-126326795D01*
X303301257Y-127279176D02*
X303253638Y-127326795D01*
X303253638Y-127326795D02*
X303206019Y-127422033D01*
X303206019Y-127422033D02*
X303206019Y-127660128D01*
X303206019Y-127660128D02*
X303253638Y-127755366D01*
X303253638Y-127755366D02*
X303301257Y-127802985D01*
X303301257Y-127802985D02*
X303396495Y-127850604D01*
X303396495Y-127850604D02*
X303491733Y-127850604D01*
X303491733Y-127850604D02*
X303634590Y-127802985D01*
X303634590Y-127802985D02*
X304206019Y-127231557D01*
X304206019Y-127231557D02*
X304206019Y-127850604D01*
X251818519Y-144424414D02*
X250818519Y-144424414D01*
X250818519Y-144424414D02*
X250818519Y-144662509D01*
X250818519Y-144662509D02*
X250866138Y-144805366D01*
X250866138Y-144805366D02*
X250961376Y-144900604D01*
X250961376Y-144900604D02*
X251056614Y-144948223D01*
X251056614Y-144948223D02*
X251247090Y-144995842D01*
X251247090Y-144995842D02*
X251389947Y-144995842D01*
X251389947Y-144995842D02*
X251580423Y-144948223D01*
X251580423Y-144948223D02*
X251675661Y-144900604D01*
X251675661Y-144900604D02*
X251770900Y-144805366D01*
X251770900Y-144805366D02*
X251818519Y-144662509D01*
X251818519Y-144662509D02*
X251818519Y-144424414D01*
X250913757Y-145376795D02*
X250866138Y-145424414D01*
X250866138Y-145424414D02*
X250818519Y-145519652D01*
X250818519Y-145519652D02*
X250818519Y-145757747D01*
X250818519Y-145757747D02*
X250866138Y-145852985D01*
X250866138Y-145852985D02*
X250913757Y-145900604D01*
X250913757Y-145900604D02*
X251008995Y-145948223D01*
X251008995Y-145948223D02*
X251104233Y-145948223D01*
X251104233Y-145948223D02*
X251247090Y-145900604D01*
X251247090Y-145900604D02*
X251818519Y-145329176D01*
X251818519Y-145329176D02*
X251818519Y-145948223D01*
X251151852Y-146805366D02*
X251818519Y-146805366D01*
X250770900Y-146567271D02*
X251485185Y-146329176D01*
X251485185Y-146329176D02*
X251485185Y-146948223D01*
X156568519Y-182524414D02*
X155568519Y-182524414D01*
X155568519Y-182524414D02*
X155568519Y-182762509D01*
X155568519Y-182762509D02*
X155616138Y-182905366D01*
X155616138Y-182905366D02*
X155711376Y-183000604D01*
X155711376Y-183000604D02*
X155806614Y-183048223D01*
X155806614Y-183048223D02*
X155997090Y-183095842D01*
X155997090Y-183095842D02*
X156139947Y-183095842D01*
X156139947Y-183095842D02*
X156330423Y-183048223D01*
X156330423Y-183048223D02*
X156425661Y-183000604D01*
X156425661Y-183000604D02*
X156520900Y-182905366D01*
X156520900Y-182905366D02*
X156568519Y-182762509D01*
X156568519Y-182762509D02*
X156568519Y-182524414D01*
X155901852Y-183952985D02*
X156568519Y-183952985D01*
X155520900Y-183714890D02*
X156235185Y-183476795D01*
X156235185Y-183476795D02*
X156235185Y-184095842D01*
X155997090Y-184619652D02*
X155949471Y-184524414D01*
X155949471Y-184524414D02*
X155901852Y-184476795D01*
X155901852Y-184476795D02*
X155806614Y-184429176D01*
X155806614Y-184429176D02*
X155758995Y-184429176D01*
X155758995Y-184429176D02*
X155663757Y-184476795D01*
X155663757Y-184476795D02*
X155616138Y-184524414D01*
X155616138Y-184524414D02*
X155568519Y-184619652D01*
X155568519Y-184619652D02*
X155568519Y-184810128D01*
X155568519Y-184810128D02*
X155616138Y-184905366D01*
X155616138Y-184905366D02*
X155663757Y-184952985D01*
X155663757Y-184952985D02*
X155758995Y-185000604D01*
X155758995Y-185000604D02*
X155806614Y-185000604D01*
X155806614Y-185000604D02*
X155901852Y-184952985D01*
X155901852Y-184952985D02*
X155949471Y-184905366D01*
X155949471Y-184905366D02*
X155997090Y-184810128D01*
X155997090Y-184810128D02*
X155997090Y-184619652D01*
X155997090Y-184619652D02*
X156044709Y-184524414D01*
X156044709Y-184524414D02*
X156092328Y-184476795D01*
X156092328Y-184476795D02*
X156187566Y-184429176D01*
X156187566Y-184429176D02*
X156378042Y-184429176D01*
X156378042Y-184429176D02*
X156473280Y-184476795D01*
X156473280Y-184476795D02*
X156520900Y-184524414D01*
X156520900Y-184524414D02*
X156568519Y-184619652D01*
X156568519Y-184619652D02*
X156568519Y-184810128D01*
X156568519Y-184810128D02*
X156520900Y-184905366D01*
X156520900Y-184905366D02*
X156473280Y-184952985D01*
X156473280Y-184952985D02*
X156378042Y-185000604D01*
X156378042Y-185000604D02*
X156187566Y-185000604D01*
X156187566Y-185000604D02*
X156092328Y-184952985D01*
X156092328Y-184952985D02*
X156044709Y-184905366D01*
X156044709Y-184905366D02*
X155997090Y-184810128D01*
X237531019Y-163474414D02*
X236531019Y-163474414D01*
X236531019Y-163474414D02*
X236531019Y-163712509D01*
X236531019Y-163712509D02*
X236578638Y-163855366D01*
X236578638Y-163855366D02*
X236673876Y-163950604D01*
X236673876Y-163950604D02*
X236769114Y-163998223D01*
X236769114Y-163998223D02*
X236959590Y-164045842D01*
X236959590Y-164045842D02*
X237102447Y-164045842D01*
X237102447Y-164045842D02*
X237292923Y-163998223D01*
X237292923Y-163998223D02*
X237388161Y-163950604D01*
X237388161Y-163950604D02*
X237483400Y-163855366D01*
X237483400Y-163855366D02*
X237531019Y-163712509D01*
X237531019Y-163712509D02*
X237531019Y-163474414D01*
X236531019Y-164379176D02*
X236531019Y-164998223D01*
X236531019Y-164998223D02*
X236911971Y-164664890D01*
X236911971Y-164664890D02*
X236911971Y-164807747D01*
X236911971Y-164807747D02*
X236959590Y-164902985D01*
X236959590Y-164902985D02*
X237007209Y-164950604D01*
X237007209Y-164950604D02*
X237102447Y-164998223D01*
X237102447Y-164998223D02*
X237340542Y-164998223D01*
X237340542Y-164998223D02*
X237435780Y-164950604D01*
X237435780Y-164950604D02*
X237483400Y-164902985D01*
X237483400Y-164902985D02*
X237531019Y-164807747D01*
X237531019Y-164807747D02*
X237531019Y-164522033D01*
X237531019Y-164522033D02*
X237483400Y-164426795D01*
X237483400Y-164426795D02*
X237435780Y-164379176D01*
X236959590Y-165569652D02*
X236911971Y-165474414D01*
X236911971Y-165474414D02*
X236864352Y-165426795D01*
X236864352Y-165426795D02*
X236769114Y-165379176D01*
X236769114Y-165379176D02*
X236721495Y-165379176D01*
X236721495Y-165379176D02*
X236626257Y-165426795D01*
X236626257Y-165426795D02*
X236578638Y-165474414D01*
X236578638Y-165474414D02*
X236531019Y-165569652D01*
X236531019Y-165569652D02*
X236531019Y-165760128D01*
X236531019Y-165760128D02*
X236578638Y-165855366D01*
X236578638Y-165855366D02*
X236626257Y-165902985D01*
X236626257Y-165902985D02*
X236721495Y-165950604D01*
X236721495Y-165950604D02*
X236769114Y-165950604D01*
X236769114Y-165950604D02*
X236864352Y-165902985D01*
X236864352Y-165902985D02*
X236911971Y-165855366D01*
X236911971Y-165855366D02*
X236959590Y-165760128D01*
X236959590Y-165760128D02*
X236959590Y-165569652D01*
X236959590Y-165569652D02*
X237007209Y-165474414D01*
X237007209Y-165474414D02*
X237054828Y-165426795D01*
X237054828Y-165426795D02*
X237150066Y-165379176D01*
X237150066Y-165379176D02*
X237340542Y-165379176D01*
X237340542Y-165379176D02*
X237435780Y-165426795D01*
X237435780Y-165426795D02*
X237483400Y-165474414D01*
X237483400Y-165474414D02*
X237531019Y-165569652D01*
X237531019Y-165569652D02*
X237531019Y-165760128D01*
X237531019Y-165760128D02*
X237483400Y-165855366D01*
X237483400Y-165855366D02*
X237435780Y-165902985D01*
X237435780Y-165902985D02*
X237340542Y-165950604D01*
X237340542Y-165950604D02*
X237150066Y-165950604D01*
X237150066Y-165950604D02*
X237054828Y-165902985D01*
X237054828Y-165902985D02*
X237007209Y-165855366D01*
X237007209Y-165855366D02*
X236959590Y-165760128D01*
X232768519Y-182524414D02*
X231768519Y-182524414D01*
X231768519Y-182524414D02*
X231768519Y-182762509D01*
X231768519Y-182762509D02*
X231816138Y-182905366D01*
X231816138Y-182905366D02*
X231911376Y-183000604D01*
X231911376Y-183000604D02*
X232006614Y-183048223D01*
X232006614Y-183048223D02*
X232197090Y-183095842D01*
X232197090Y-183095842D02*
X232339947Y-183095842D01*
X232339947Y-183095842D02*
X232530423Y-183048223D01*
X232530423Y-183048223D02*
X232625661Y-183000604D01*
X232625661Y-183000604D02*
X232720900Y-182905366D01*
X232720900Y-182905366D02*
X232768519Y-182762509D01*
X232768519Y-182762509D02*
X232768519Y-182524414D01*
X231768519Y-184000604D02*
X231768519Y-183524414D01*
X231768519Y-183524414D02*
X232244709Y-183476795D01*
X232244709Y-183476795D02*
X232197090Y-183524414D01*
X232197090Y-183524414D02*
X232149471Y-183619652D01*
X232149471Y-183619652D02*
X232149471Y-183857747D01*
X232149471Y-183857747D02*
X232197090Y-183952985D01*
X232197090Y-183952985D02*
X232244709Y-184000604D01*
X232244709Y-184000604D02*
X232339947Y-184048223D01*
X232339947Y-184048223D02*
X232578042Y-184048223D01*
X232578042Y-184048223D02*
X232673280Y-184000604D01*
X232673280Y-184000604D02*
X232720900Y-183952985D01*
X232720900Y-183952985D02*
X232768519Y-183857747D01*
X232768519Y-183857747D02*
X232768519Y-183619652D01*
X232768519Y-183619652D02*
X232720900Y-183524414D01*
X232720900Y-183524414D02*
X232673280Y-183476795D01*
X231863757Y-184429176D02*
X231816138Y-184476795D01*
X231816138Y-184476795D02*
X231768519Y-184572033D01*
X231768519Y-184572033D02*
X231768519Y-184810128D01*
X231768519Y-184810128D02*
X231816138Y-184905366D01*
X231816138Y-184905366D02*
X231863757Y-184952985D01*
X231863757Y-184952985D02*
X231958995Y-185000604D01*
X231958995Y-185000604D02*
X232054233Y-185000604D01*
X232054233Y-185000604D02*
X232197090Y-184952985D01*
X232197090Y-184952985D02*
X232768519Y-184381557D01*
X232768519Y-184381557D02*
X232768519Y-185000604D01*
X113706019Y-125850605D02*
X112706019Y-125850605D01*
X112706019Y-125850605D02*
X112706019Y-126088700D01*
X112706019Y-126088700D02*
X112753638Y-126231557D01*
X112753638Y-126231557D02*
X112848876Y-126326795D01*
X112848876Y-126326795D02*
X112944114Y-126374414D01*
X112944114Y-126374414D02*
X113134590Y-126422033D01*
X113134590Y-126422033D02*
X113277447Y-126422033D01*
X113277447Y-126422033D02*
X113467923Y-126374414D01*
X113467923Y-126374414D02*
X113563161Y-126326795D01*
X113563161Y-126326795D02*
X113658400Y-126231557D01*
X113658400Y-126231557D02*
X113706019Y-126088700D01*
X113706019Y-126088700D02*
X113706019Y-125850605D01*
X112801257Y-126802986D02*
X112753638Y-126850605D01*
X112753638Y-126850605D02*
X112706019Y-126945843D01*
X112706019Y-126945843D02*
X112706019Y-127183938D01*
X112706019Y-127183938D02*
X112753638Y-127279176D01*
X112753638Y-127279176D02*
X112801257Y-127326795D01*
X112801257Y-127326795D02*
X112896495Y-127374414D01*
X112896495Y-127374414D02*
X112991733Y-127374414D01*
X112991733Y-127374414D02*
X113134590Y-127326795D01*
X113134590Y-127326795D02*
X113706019Y-126755367D01*
X113706019Y-126755367D02*
X113706019Y-127374414D01*
X175618519Y-144424414D02*
X174618519Y-144424414D01*
X174618519Y-144424414D02*
X174618519Y-144662509D01*
X174618519Y-144662509D02*
X174666138Y-144805366D01*
X174666138Y-144805366D02*
X174761376Y-144900604D01*
X174761376Y-144900604D02*
X174856614Y-144948223D01*
X174856614Y-144948223D02*
X175047090Y-144995842D01*
X175047090Y-144995842D02*
X175189947Y-144995842D01*
X175189947Y-144995842D02*
X175380423Y-144948223D01*
X175380423Y-144948223D02*
X175475661Y-144900604D01*
X175475661Y-144900604D02*
X175570900Y-144805366D01*
X175570900Y-144805366D02*
X175618519Y-144662509D01*
X175618519Y-144662509D02*
X175618519Y-144424414D01*
X174713757Y-145376795D02*
X174666138Y-145424414D01*
X174666138Y-145424414D02*
X174618519Y-145519652D01*
X174618519Y-145519652D02*
X174618519Y-145757747D01*
X174618519Y-145757747D02*
X174666138Y-145852985D01*
X174666138Y-145852985D02*
X174713757Y-145900604D01*
X174713757Y-145900604D02*
X174808995Y-145948223D01*
X174808995Y-145948223D02*
X174904233Y-145948223D01*
X174904233Y-145948223D02*
X175047090Y-145900604D01*
X175047090Y-145900604D02*
X175618519Y-145329176D01*
X175618519Y-145329176D02*
X175618519Y-145948223D01*
X174618519Y-146567271D02*
X174618519Y-146662509D01*
X174618519Y-146662509D02*
X174666138Y-146757747D01*
X174666138Y-146757747D02*
X174713757Y-146805366D01*
X174713757Y-146805366D02*
X174808995Y-146852985D01*
X174808995Y-146852985D02*
X174999471Y-146900604D01*
X174999471Y-146900604D02*
X175237566Y-146900604D01*
X175237566Y-146900604D02*
X175428042Y-146852985D01*
X175428042Y-146852985D02*
X175523280Y-146805366D01*
X175523280Y-146805366D02*
X175570900Y-146757747D01*
X175570900Y-146757747D02*
X175618519Y-146662509D01*
X175618519Y-146662509D02*
X175618519Y-146567271D01*
X175618519Y-146567271D02*
X175570900Y-146472033D01*
X175570900Y-146472033D02*
X175523280Y-146424414D01*
X175523280Y-146424414D02*
X175428042Y-146376795D01*
X175428042Y-146376795D02*
X175237566Y-146329176D01*
X175237566Y-146329176D02*
X174999471Y-146329176D01*
X174999471Y-146329176D02*
X174808995Y-146376795D01*
X174808995Y-146376795D02*
X174713757Y-146424414D01*
X174713757Y-146424414D02*
X174666138Y-146472033D01*
X174666138Y-146472033D02*
X174618519Y-146567271D01*
X228006019Y-125850605D02*
X227006019Y-125850605D01*
X227006019Y-125850605D02*
X227006019Y-126088700D01*
X227006019Y-126088700D02*
X227053638Y-126231557D01*
X227053638Y-126231557D02*
X227148876Y-126326795D01*
X227148876Y-126326795D02*
X227244114Y-126374414D01*
X227244114Y-126374414D02*
X227434590Y-126422033D01*
X227434590Y-126422033D02*
X227577447Y-126422033D01*
X227577447Y-126422033D02*
X227767923Y-126374414D01*
X227767923Y-126374414D02*
X227863161Y-126326795D01*
X227863161Y-126326795D02*
X227958400Y-126231557D01*
X227958400Y-126231557D02*
X228006019Y-126088700D01*
X228006019Y-126088700D02*
X228006019Y-125850605D01*
X227434590Y-126993462D02*
X227386971Y-126898224D01*
X227386971Y-126898224D02*
X227339352Y-126850605D01*
X227339352Y-126850605D02*
X227244114Y-126802986D01*
X227244114Y-126802986D02*
X227196495Y-126802986D01*
X227196495Y-126802986D02*
X227101257Y-126850605D01*
X227101257Y-126850605D02*
X227053638Y-126898224D01*
X227053638Y-126898224D02*
X227006019Y-126993462D01*
X227006019Y-126993462D02*
X227006019Y-127183938D01*
X227006019Y-127183938D02*
X227053638Y-127279176D01*
X227053638Y-127279176D02*
X227101257Y-127326795D01*
X227101257Y-127326795D02*
X227196495Y-127374414D01*
X227196495Y-127374414D02*
X227244114Y-127374414D01*
X227244114Y-127374414D02*
X227339352Y-127326795D01*
X227339352Y-127326795D02*
X227386971Y-127279176D01*
X227386971Y-127279176D02*
X227434590Y-127183938D01*
X227434590Y-127183938D02*
X227434590Y-126993462D01*
X227434590Y-126993462D02*
X227482209Y-126898224D01*
X227482209Y-126898224D02*
X227529828Y-126850605D01*
X227529828Y-126850605D02*
X227625066Y-126802986D01*
X227625066Y-126802986D02*
X227815542Y-126802986D01*
X227815542Y-126802986D02*
X227910780Y-126850605D01*
X227910780Y-126850605D02*
X227958400Y-126898224D01*
X227958400Y-126898224D02*
X228006019Y-126993462D01*
X228006019Y-126993462D02*
X228006019Y-127183938D01*
X228006019Y-127183938D02*
X227958400Y-127279176D01*
X227958400Y-127279176D02*
X227910780Y-127326795D01*
X227910780Y-127326795D02*
X227815542Y-127374414D01*
X227815542Y-127374414D02*
X227625066Y-127374414D01*
X227625066Y-127374414D02*
X227529828Y-127326795D01*
X227529828Y-127326795D02*
X227482209Y-127279176D01*
X227482209Y-127279176D02*
X227434590Y-127183938D01*
X132756019Y-125850605D02*
X131756019Y-125850605D01*
X131756019Y-125850605D02*
X131756019Y-126088700D01*
X131756019Y-126088700D02*
X131803638Y-126231557D01*
X131803638Y-126231557D02*
X131898876Y-126326795D01*
X131898876Y-126326795D02*
X131994114Y-126374414D01*
X131994114Y-126374414D02*
X132184590Y-126422033D01*
X132184590Y-126422033D02*
X132327447Y-126422033D01*
X132327447Y-126422033D02*
X132517923Y-126374414D01*
X132517923Y-126374414D02*
X132613161Y-126326795D01*
X132613161Y-126326795D02*
X132708400Y-126231557D01*
X132708400Y-126231557D02*
X132756019Y-126088700D01*
X132756019Y-126088700D02*
X132756019Y-125850605D01*
X131756019Y-126755367D02*
X131756019Y-127374414D01*
X131756019Y-127374414D02*
X132136971Y-127041081D01*
X132136971Y-127041081D02*
X132136971Y-127183938D01*
X132136971Y-127183938D02*
X132184590Y-127279176D01*
X132184590Y-127279176D02*
X132232209Y-127326795D01*
X132232209Y-127326795D02*
X132327447Y-127374414D01*
X132327447Y-127374414D02*
X132565542Y-127374414D01*
X132565542Y-127374414D02*
X132660780Y-127326795D01*
X132660780Y-127326795D02*
X132708400Y-127279176D01*
X132708400Y-127279176D02*
X132756019Y-127183938D01*
X132756019Y-127183938D02*
X132756019Y-126898224D01*
X132756019Y-126898224D02*
X132708400Y-126802986D01*
X132708400Y-126802986D02*
X132660780Y-126755367D01*
D11*
%TO.C,D0*%
X72151200Y-128948700D02*
X72151200Y-124938700D01*
X74151200Y-128948700D02*
X72151200Y-128948700D01*
X74151200Y-128948700D02*
X74151200Y-124938700D01*
%TO.C,C1*%
X230261252Y-105810000D02*
X229738748Y-105810000D01*
X230261252Y-104390000D02*
X229738748Y-104390000D01*
%TO.C,C2*%
X212261252Y-102710000D02*
X211738748Y-102710000D01*
X212261252Y-101290000D02*
X211738748Y-101290000D01*
%TO.C,C3*%
X218238748Y-101290000D02*
X218761252Y-101290000D01*
X218238748Y-102710000D02*
X218761252Y-102710000D01*
%TO.C,C4*%
X124949400Y-92797752D02*
X124949400Y-92275248D01*
X126369400Y-92797752D02*
X126369400Y-92275248D01*
%TO.C,C5*%
X133993548Y-85873700D02*
X134516052Y-85873700D01*
X133993548Y-87293700D02*
X134516052Y-87293700D01*
%TO.C,C6*%
X130681400Y-111661352D02*
X130681400Y-111138848D01*
X132101400Y-111661352D02*
X132101400Y-111138848D01*
%TO.C,C7*%
X143681400Y-111661352D02*
X143681400Y-111138848D01*
X145101400Y-111661352D02*
X145101400Y-111138848D01*
%TO.C,R1*%
X175561252Y-92310000D02*
X175038748Y-92310000D01*
X175561252Y-90890000D02*
X175038748Y-90890000D01*
%TO.C,R2*%
X175536252Y-95610000D02*
X175013748Y-95610000D01*
X175536252Y-94190000D02*
X175013748Y-94190000D01*
%TO.C,SW1*%
X172938200Y-109882000D02*
X172938200Y-109852000D01*
X172938200Y-109882000D02*
X166478200Y-109882000D01*
X172938200Y-105352000D02*
X172938200Y-107952000D01*
X172938200Y-103452000D02*
X172938200Y-103422000D01*
X172938200Y-103422000D02*
X166478200Y-103422000D01*
X166478200Y-109882000D02*
X166478200Y-109852000D01*
X166478200Y-105352000D02*
X166478200Y-107952000D01*
X166478200Y-103422000D02*
X166478200Y-103452000D01*
%TO.C,Y1*%
X133241400Y-109625100D02*
X140491400Y-109625100D01*
X133241400Y-113225100D02*
X133241400Y-109625100D01*
X140491400Y-113225100D02*
X133241400Y-113225100D01*
D10*
%TO.C,U1*%
X144614000Y-104829500D02*
X144614000Y-104154500D01*
X144614000Y-104829500D02*
X143939000Y-104829500D01*
X144614000Y-91054500D02*
X145889000Y-91054500D01*
X144614000Y-90479500D02*
X144614000Y-91054500D01*
X144614000Y-90479500D02*
X143939000Y-90479500D01*
X130264000Y-104829500D02*
X130939000Y-104829500D01*
X130264000Y-104829500D02*
X130264000Y-104154500D01*
X130264000Y-90479500D02*
X130939000Y-90479500D01*
X130264000Y-90479500D02*
X130264000Y-91154500D01*
D11*
%TO.C,D43*%
X353138700Y-167048700D02*
X353138700Y-163038700D01*
X355138700Y-167048700D02*
X353138700Y-167048700D01*
X355138700Y-167048700D02*
X355138700Y-163038700D01*
%TO.C,D41*%
X291226200Y-167048700D02*
X291226200Y-163038700D01*
X293226200Y-167048700D02*
X291226200Y-167048700D01*
X293226200Y-167048700D02*
X293226200Y-163038700D01*
%TO.C,D60*%
X122157400Y-205148700D02*
X122157400Y-201138700D01*
X124157400Y-205148700D02*
X122157400Y-205148700D01*
X124157400Y-205148700D02*
X124157400Y-201138700D01*
%TO.C,D44*%
X74532400Y-186098700D02*
X74532400Y-182088700D01*
X76532400Y-186098700D02*
X74532400Y-186098700D01*
X76532400Y-186098700D02*
X76532400Y-182088700D01*
%TO.C,D35*%
X176926200Y-167048700D02*
X176926200Y-163038700D01*
X178926200Y-167048700D02*
X176926200Y-167048700D01*
X178926200Y-167048700D02*
X178926200Y-163038700D01*
%TO.C,D51*%
X210263700Y-186098700D02*
X210263700Y-182088700D01*
X212263700Y-186098700D02*
X210263700Y-186098700D01*
X212263700Y-186098700D02*
X212263700Y-182088700D01*
%TO.C,D56*%
X319801200Y-186098700D02*
X319801200Y-182088700D01*
X321801200Y-186098700D02*
X319801200Y-186098700D01*
X321801200Y-186098700D02*
X321801200Y-182088700D01*
%TO.C,D54*%
X267413700Y-186098700D02*
X267413700Y-182088700D01*
X269413700Y-186098700D02*
X267413700Y-186098700D01*
X269413700Y-186098700D02*
X269413700Y-182088700D01*
%TO.C,D47*%
X134063700Y-186098700D02*
X134063700Y-182088700D01*
X136063700Y-186098700D02*
X134063700Y-186098700D01*
X136063700Y-186098700D02*
X136063700Y-182088700D01*
%TO.C,D28*%
X331707400Y-157523700D02*
X331707400Y-153513700D01*
X333707400Y-157523700D02*
X331707400Y-157523700D01*
X333707400Y-157523700D02*
X333707400Y-153513700D01*
%TO.C,D64*%
X307894900Y-205148700D02*
X307894900Y-201138700D01*
X309894900Y-205148700D02*
X307894900Y-205148700D01*
X309894900Y-205148700D02*
X309894900Y-201138700D01*
%TO.C,D6*%
X186451200Y-128948700D02*
X186451200Y-124938700D01*
X188451200Y-128948700D02*
X186451200Y-128948700D01*
X188451200Y-128948700D02*
X188451200Y-124938700D01*
%TO.C,D16*%
X95963700Y-147998700D02*
X95963700Y-143988700D01*
X97963700Y-147998700D02*
X95963700Y-147998700D01*
X97963700Y-147998700D02*
X97963700Y-143988700D01*
%TO.C,D55*%
X286463700Y-186098700D02*
X286463700Y-182088700D01*
X288463700Y-186098700D02*
X286463700Y-186098700D01*
X288463700Y-186098700D02*
X288463700Y-182088700D01*
%TO.C,R3*%
X92596664Y-163544300D02*
X92142536Y-163544300D01*
X92596664Y-162074300D02*
X92142536Y-162074300D01*
%TO.C,R5*%
X73810064Y-88030100D02*
X73355936Y-88030100D01*
X73810064Y-86560100D02*
X73355936Y-86560100D01*
%TO.C,D26*%
X286463700Y-147998700D02*
X286463700Y-143988700D01*
X288463700Y-147998700D02*
X286463700Y-147998700D01*
X288463700Y-147998700D02*
X288463700Y-143988700D01*
%TO.C,D58*%
X74532400Y-205148700D02*
X74532400Y-201138700D01*
X76532400Y-205148700D02*
X74532400Y-205148700D01*
X76532400Y-205148700D02*
X76532400Y-201138700D01*
%TO.C,R4*%
X73810064Y-102928500D02*
X73355936Y-102928500D01*
X73810064Y-101458500D02*
X73355936Y-101458500D01*
%TO.C,D14*%
X353138700Y-128948700D02*
X353138700Y-124938700D01*
X355138700Y-128948700D02*
X353138700Y-128948700D01*
X355138700Y-128948700D02*
X355138700Y-124938700D01*
%TO.C,D5*%
X167401200Y-128948700D02*
X167401200Y-124938700D01*
X169401200Y-128948700D02*
X167401200Y-128948700D01*
X169401200Y-128948700D02*
X169401200Y-124938700D01*
%TO.C,D49*%
X172163700Y-186098700D02*
X172163700Y-182088700D01*
X174163700Y-186098700D02*
X172163700Y-186098700D01*
X174163700Y-186098700D02*
X174163700Y-182088700D01*
%TO.C,D45*%
X95963700Y-186098700D02*
X95963700Y-182088700D01*
X97963700Y-186098700D02*
X95963700Y-186098700D01*
X97963700Y-186098700D02*
X97963700Y-182088700D01*
%TO.C,R9*%
X178564464Y-109956400D02*
X178110336Y-109956400D01*
X178564464Y-108486400D02*
X178110336Y-108486400D01*
%TO.C,R6*%
X73810064Y-92996200D02*
X73355936Y-92996200D01*
X73810064Y-91526200D02*
X73355936Y-91526200D01*
%TO.C,D27*%
X305513700Y-147998700D02*
X305513700Y-143988700D01*
X307513700Y-147998700D02*
X305513700Y-147998700D01*
X307513700Y-147998700D02*
X307513700Y-143988700D01*
%TO.C,D66*%
X353138700Y-205148700D02*
X353138700Y-201138700D01*
X355138700Y-205148700D02*
X353138700Y-205148700D01*
X355138700Y-205148700D02*
X355138700Y-201138700D01*
%TO.C,R7*%
X73810064Y-97962300D02*
X73355936Y-97962300D01*
X73810064Y-96492300D02*
X73355936Y-96492300D01*
%TO.C,D42*%
X310276200Y-167048700D02*
X310276200Y-163038700D01*
X312276200Y-167048700D02*
X310276200Y-167048700D01*
X312276200Y-167048700D02*
X312276200Y-163038700D01*
%TO.C,D17*%
X115013700Y-147998700D02*
X115013700Y-143988700D01*
X117013700Y-147998700D02*
X115013700Y-147998700D01*
X117013700Y-147998700D02*
X117013700Y-143988700D01*
%TO.C,D23*%
X229313700Y-147998700D02*
X229313700Y-143988700D01*
X231313700Y-147998700D02*
X229313700Y-147998700D01*
X231313700Y-147998700D02*
X231313700Y-143988700D01*
%TO.C,D21*%
X191213700Y-147998700D02*
X191213700Y-143988700D01*
X193213700Y-147998700D02*
X191213700Y-147998700D01*
X193213700Y-147998700D02*
X193213700Y-143988700D01*
%TO.C,D22*%
X210263700Y-147998700D02*
X210263700Y-143988700D01*
X212263700Y-147998700D02*
X210263700Y-147998700D01*
X212263700Y-147998700D02*
X212263700Y-143988700D01*
%TO.C,D19*%
X153113700Y-147998700D02*
X153113700Y-143988700D01*
X155113700Y-147998700D02*
X153113700Y-147998700D01*
X155113700Y-147998700D02*
X155113700Y-143988700D01*
%TO.C,D32*%
X119776200Y-167048700D02*
X119776200Y-163038700D01*
X121776200Y-167048700D02*
X119776200Y-167048700D01*
X121776200Y-167048700D02*
X121776200Y-163038700D01*
%TO.C,D65*%
X331707400Y-205148700D02*
X331707400Y-201138700D01*
X333707400Y-205148700D02*
X331707400Y-205148700D01*
X333707400Y-205148700D02*
X333707400Y-201138700D01*
%TO.C,D15*%
X74532400Y-147998700D02*
X74532400Y-143988700D01*
X76532400Y-147998700D02*
X74532400Y-147998700D01*
X76532400Y-147998700D02*
X76532400Y-143988700D01*
%TO.C,D9*%
X243601200Y-128948700D02*
X243601200Y-124938700D01*
X245601200Y-128948700D02*
X243601200Y-128948700D01*
X245601200Y-128948700D02*
X245601200Y-124938700D01*
%TO.C,D10*%
X262651200Y-128948700D02*
X262651200Y-124938700D01*
X264651200Y-128948700D02*
X262651200Y-128948700D01*
X264651200Y-128948700D02*
X264651200Y-124938700D01*
%TO.C,D30*%
X76913700Y-167048700D02*
X76913700Y-163038700D01*
X78913700Y-167048700D02*
X76913700Y-167048700D01*
X78913700Y-167048700D02*
X78913700Y-163038700D01*
%TO.C,D61*%
X191213700Y-205148700D02*
X191213700Y-201138700D01*
X193213700Y-205148700D02*
X191213700Y-205148700D01*
X193213700Y-205148700D02*
X193213700Y-201138700D01*
%TO.C,D7*%
X205501200Y-128948700D02*
X205501200Y-124938700D01*
X207501200Y-128948700D02*
X205501200Y-128948700D01*
X207501200Y-128948700D02*
X207501200Y-124938700D01*
%TO.C,D29*%
X353138700Y-147998700D02*
X353138700Y-143988700D01*
X355138700Y-147998700D02*
X353138700Y-147998700D01*
X355138700Y-147998700D02*
X355138700Y-143988700D01*
%TO.C,D39*%
X253126200Y-167048700D02*
X253126200Y-163038700D01*
X255126200Y-167048700D02*
X253126200Y-167048700D01*
X255126200Y-167048700D02*
X255126200Y-163038700D01*
%TO.C,D13*%
X326944900Y-128948700D02*
X326944900Y-124938700D01*
X328944900Y-128948700D02*
X326944900Y-128948700D01*
X328944900Y-128948700D02*
X328944900Y-124938700D01*
%TO.C,D53*%
X248363700Y-186098700D02*
X248363700Y-182088700D01*
X250363700Y-186098700D02*
X248363700Y-186098700D01*
X250363700Y-186098700D02*
X250363700Y-182088700D01*
%TO.C,D50*%
X191213700Y-186098700D02*
X191213700Y-182088700D01*
X193213700Y-186098700D02*
X191213700Y-186098700D01*
X193213700Y-186098700D02*
X193213700Y-182088700D01*
%TO.C,D11*%
X281701200Y-128948700D02*
X281701200Y-124938700D01*
X283701200Y-128948700D02*
X281701200Y-128948700D01*
X283701200Y-128948700D02*
X283701200Y-124938700D01*
%TO.C,D31*%
X100726200Y-167048700D02*
X100726200Y-163038700D01*
X102726200Y-167048700D02*
X100726200Y-167048700D01*
X102726200Y-167048700D02*
X102726200Y-163038700D01*
%TO.C,D25*%
X267413700Y-147998700D02*
X267413700Y-143988700D01*
X269413700Y-147998700D02*
X267413700Y-147998700D01*
X269413700Y-147998700D02*
X269413700Y-143988700D01*
%TO.C,D40*%
X272176200Y-167048700D02*
X272176200Y-163038700D01*
X274176200Y-167048700D02*
X272176200Y-167048700D01*
X274176200Y-167048700D02*
X274176200Y-163038700D01*
%TO.C,D63*%
X284082400Y-205148700D02*
X284082400Y-201138700D01*
X286082400Y-205148700D02*
X284082400Y-205148700D01*
X286082400Y-205148700D02*
X286082400Y-201138700D01*
%TO.C,R8*%
X178488264Y-105463400D02*
X178034136Y-105463400D01*
X178488264Y-103993400D02*
X178034136Y-103993400D01*
%TO.C,D37*%
X215026200Y-167048700D02*
X215026200Y-163038700D01*
X217026200Y-167048700D02*
X215026200Y-167048700D01*
X217026200Y-167048700D02*
X217026200Y-163038700D01*
%TO.C,D62*%
X260269900Y-205148700D02*
X260269900Y-201138700D01*
X262269900Y-205148700D02*
X260269900Y-205148700D01*
X262269900Y-205148700D02*
X262269900Y-201138700D01*
%TO.C,D59*%
X98344900Y-205148700D02*
X98344900Y-201138700D01*
X100344900Y-205148700D02*
X98344900Y-205148700D01*
X100344900Y-205148700D02*
X100344900Y-201138700D01*
%TO.C,D57*%
X353138700Y-186098700D02*
X353138700Y-182088700D01*
X355138700Y-186098700D02*
X353138700Y-186098700D01*
X355138700Y-186098700D02*
X355138700Y-182088700D01*
%TO.C,D1*%
X91201200Y-128948700D02*
X91201200Y-124938700D01*
X93201200Y-128948700D02*
X91201200Y-128948700D01*
X93201200Y-128948700D02*
X93201200Y-124938700D01*
%TO.C,D36*%
X195976200Y-167048700D02*
X195976200Y-163038700D01*
X197976200Y-167048700D02*
X195976200Y-167048700D01*
X197976200Y-167048700D02*
X197976200Y-163038700D01*
%TO.C,D18*%
X134063700Y-147998700D02*
X134063700Y-143988700D01*
X136063700Y-147998700D02*
X134063700Y-147998700D01*
X136063700Y-147998700D02*
X136063700Y-143988700D01*
%TO.C,R10*%
X197359264Y-109956400D02*
X196905136Y-109956400D01*
X197359264Y-108486400D02*
X196905136Y-108486400D01*
%TO.C,D4*%
X148351200Y-128948700D02*
X148351200Y-124938700D01*
X150351200Y-128948700D02*
X148351200Y-128948700D01*
X150351200Y-128948700D02*
X150351200Y-124938700D01*
%TO.C,D33*%
X138826200Y-167048700D02*
X138826200Y-163038700D01*
X140826200Y-167048700D02*
X138826200Y-167048700D01*
X140826200Y-167048700D02*
X140826200Y-163038700D01*
%TO.C,D46*%
X115013700Y-186098700D02*
X115013700Y-182088700D01*
X117013700Y-186098700D02*
X115013700Y-186098700D01*
X117013700Y-186098700D02*
X117013700Y-182088700D01*
%TO.C,D34*%
X157876200Y-167048700D02*
X157876200Y-163038700D01*
X159876200Y-167048700D02*
X157876200Y-167048700D01*
X159876200Y-167048700D02*
X159876200Y-163038700D01*
%TO.C,D12*%
X300751200Y-128948700D02*
X300751200Y-124938700D01*
X302751200Y-128948700D02*
X300751200Y-128948700D01*
X302751200Y-128948700D02*
X302751200Y-124938700D01*
%TO.C,D24*%
X248363700Y-147998700D02*
X248363700Y-143988700D01*
X250363700Y-147998700D02*
X248363700Y-147998700D01*
X250363700Y-147998700D02*
X250363700Y-143988700D01*
%TO.C,D48*%
X153113700Y-186098700D02*
X153113700Y-182088700D01*
X155113700Y-186098700D02*
X153113700Y-186098700D01*
X155113700Y-186098700D02*
X155113700Y-182088700D01*
%TO.C,D38*%
X234076200Y-167048700D02*
X234076200Y-163038700D01*
X236076200Y-167048700D02*
X234076200Y-167048700D01*
X236076200Y-167048700D02*
X236076200Y-163038700D01*
%TO.C,D52*%
X229313700Y-186098700D02*
X229313700Y-182088700D01*
X231313700Y-186098700D02*
X229313700Y-186098700D01*
X231313700Y-186098700D02*
X231313700Y-182088700D01*
%TO.C,D2*%
X110251200Y-128948700D02*
X110251200Y-124938700D01*
X112251200Y-128948700D02*
X110251200Y-128948700D01*
X112251200Y-128948700D02*
X112251200Y-124938700D01*
%TO.C,D20*%
X172163700Y-147998700D02*
X172163700Y-143988700D01*
X174163700Y-147998700D02*
X172163700Y-147998700D01*
X174163700Y-147998700D02*
X174163700Y-143988700D01*
%TO.C,D8*%
X224551200Y-128948700D02*
X224551200Y-124938700D01*
X226551200Y-128948700D02*
X224551200Y-128948700D01*
X226551200Y-128948700D02*
X226551200Y-124938700D01*
%TO.C,D3*%
X129301200Y-128948700D02*
X129301200Y-124938700D01*
X131301200Y-128948700D02*
X129301200Y-128948700D01*
X131301200Y-128948700D02*
X131301200Y-124938700D01*
%TD*%
%LPC*%
D12*
%TO.C,K0*%
X71331200Y-122778700D03*
D13*
X76411200Y-122778700D03*
D12*
X81491200Y-122778700D03*
D14*
X78951200Y-117698700D03*
X72601200Y-120238700D03*
%TD*%
D15*
%TO.C,H2*%
X367878700Y-86878700D03*
%TD*%
%TO.C,H3*%
X367878700Y-212878700D03*
%TD*%
%TO.C,H4*%
X65878700Y-212878700D03*
%TD*%
%TO.C,H1*%
X65878700Y-86878700D03*
%TD*%
D16*
%TO.C,J2*%
X170495600Y-95145800D03*
D17*
X167955600Y-95145800D03*
X170495600Y-92605800D03*
X167955600Y-92605800D03*
X170495600Y-90065800D03*
X167955600Y-90065800D03*
%TD*%
D12*
%TO.C,K36*%
X195156200Y-160878700D03*
D13*
X200236200Y-160878700D03*
D12*
X205316200Y-160878700D03*
D14*
X202776200Y-155798700D03*
X196426200Y-158338700D03*
%TD*%
D12*
%TO.C,K60*%
X121337400Y-198978700D03*
D13*
X126417400Y-198978700D03*
D12*
X131497400Y-198978700D03*
D14*
X128957400Y-193898700D03*
X122607400Y-196438700D03*
%TD*%
D12*
%TO.C,K49*%
X171343700Y-179928700D03*
D13*
X176423700Y-179928700D03*
D12*
X181503700Y-179928700D03*
D14*
X178963700Y-174848700D03*
X172613700Y-177388700D03*
%TD*%
D12*
%TO.C,K1*%
X90381200Y-122778700D03*
D13*
X95461200Y-122778700D03*
D12*
X100541200Y-122778700D03*
D14*
X98001200Y-117698700D03*
X91651200Y-120238700D03*
%TD*%
D12*
%TO.C,K62*%
X259449900Y-198978700D03*
D13*
X264529900Y-198978700D03*
D12*
X269609900Y-198978700D03*
D14*
X267069900Y-193898700D03*
X260719900Y-196438700D03*
%TD*%
D12*
%TO.C,K39*%
X252306200Y-160878700D03*
D13*
X257386200Y-160878700D03*
D12*
X262466200Y-160878700D03*
D14*
X259926200Y-155798700D03*
X253576200Y-158338700D03*
%TD*%
D12*
%TO.C,K48*%
X152293700Y-179928700D03*
D13*
X157373700Y-179928700D03*
D12*
X162453700Y-179928700D03*
D14*
X159913700Y-174848700D03*
X153563700Y-177388700D03*
%TD*%
D12*
%TO.C,K53*%
X247543700Y-179928700D03*
D13*
X252623700Y-179928700D03*
D12*
X257703700Y-179928700D03*
D14*
X255163700Y-174848700D03*
X248813700Y-177388700D03*
%TD*%
D12*
%TO.C,K35*%
X176106200Y-160878700D03*
D13*
X181186200Y-160878700D03*
D12*
X186266200Y-160878700D03*
D14*
X183726200Y-155798700D03*
X177376200Y-158338700D03*
%TD*%
D12*
%TO.C,K33*%
X138006200Y-160878700D03*
D13*
X143086200Y-160878700D03*
D12*
X148166200Y-160878700D03*
D14*
X145626200Y-155798700D03*
X139276200Y-158338700D03*
%TD*%
D12*
%TO.C,K25*%
X266593700Y-141828700D03*
D13*
X271673700Y-141828700D03*
D12*
X276753700Y-141828700D03*
D14*
X274213700Y-136748700D03*
X267863700Y-139288700D03*
%TD*%
D12*
%TO.C,K29*%
X352318700Y-141828700D03*
D13*
X357398700Y-141828700D03*
D12*
X362478700Y-141828700D03*
D14*
X359938700Y-136748700D03*
X353588700Y-139288700D03*
%TD*%
D12*
%TO.C,K20*%
X171343700Y-141828700D03*
D13*
X176423700Y-141828700D03*
D12*
X181503700Y-141828700D03*
D14*
X178963700Y-136748700D03*
X172613700Y-139288700D03*
%TD*%
D12*
%TO.C,K11*%
X280881200Y-122778700D03*
D13*
X285961200Y-122778700D03*
D12*
X291041200Y-122778700D03*
D14*
X288501200Y-117698700D03*
X282151200Y-120238700D03*
%TD*%
D12*
%TO.C,K3*%
X128481200Y-122778700D03*
D13*
X133561200Y-122778700D03*
D12*
X138641200Y-122778700D03*
D14*
X136101200Y-117698700D03*
X129751200Y-120238700D03*
%TD*%
D12*
%TO.C,K13*%
X326124900Y-122778700D03*
D13*
X331204900Y-122778700D03*
D12*
X336284900Y-122778700D03*
D14*
X333744900Y-117698700D03*
X327394900Y-120238700D03*
%TD*%
D12*
%TO.C,K7*%
X204681200Y-122778700D03*
D13*
X209761200Y-122778700D03*
D12*
X214841200Y-122778700D03*
D14*
X212301200Y-117698700D03*
X205951200Y-120238700D03*
%TD*%
D12*
%TO.C,K58*%
X73712400Y-198978700D03*
D13*
X78792400Y-198978700D03*
D12*
X83872400Y-198978700D03*
D14*
X81332400Y-193898700D03*
X74982400Y-196438700D03*
%TD*%
D16*
%TO.C,D70*%
X183900000Y-109275000D03*
D17*
X186440000Y-109275000D03*
X188980000Y-109275000D03*
X191520000Y-109275000D03*
%TD*%
D12*
%TO.C,K64*%
X307074900Y-198978700D03*
D13*
X312154900Y-198978700D03*
D12*
X317234900Y-198978700D03*
D14*
X314694900Y-193898700D03*
X308344900Y-196438700D03*
%TD*%
D12*
%TO.C,K51*%
X209443700Y-179928700D03*
D13*
X214523700Y-179928700D03*
D12*
X219603700Y-179928700D03*
D14*
X217063700Y-174848700D03*
X210713700Y-177388700D03*
%TD*%
D12*
%TO.C,K21*%
X190393700Y-141828700D03*
D13*
X195473700Y-141828700D03*
D12*
X200553700Y-141828700D03*
D14*
X198013700Y-136748700D03*
X191663700Y-139288700D03*
%TD*%
D12*
%TO.C,K15*%
X73712400Y-141828700D03*
D13*
X78792400Y-141828700D03*
D12*
X83872400Y-141828700D03*
D14*
X81332400Y-136748700D03*
X74982400Y-139288700D03*
%TD*%
D12*
%TO.C,K30*%
X76093700Y-160878700D03*
D13*
X81173700Y-160878700D03*
D12*
X86253700Y-160878700D03*
D14*
X83713700Y-155798700D03*
X77363700Y-158338700D03*
%TD*%
D16*
%TO.C,J6*%
X150114000Y-94488000D03*
D17*
X152654000Y-94488000D03*
X155194000Y-94488000D03*
X157734000Y-94488000D03*
X160274000Y-94488000D03*
X162814000Y-94488000D03*
%TD*%
D12*
%TO.C,K52*%
X228493700Y-179928700D03*
D13*
X233573700Y-179928700D03*
D12*
X238653700Y-179928700D03*
D14*
X236113700Y-174848700D03*
X229763700Y-177388700D03*
%TD*%
D18*
%TO.C,J5*%
X228750000Y-99000000D03*
D19*
X231250000Y-99000000D03*
%TD*%
D12*
%TO.C,K16*%
X95143700Y-141828700D03*
D13*
X100223700Y-141828700D03*
D12*
X105303700Y-141828700D03*
D14*
X102763700Y-136748700D03*
X96413700Y-139288700D03*
%TD*%
D12*
%TO.C,K46*%
X114193700Y-179928700D03*
D13*
X119273700Y-179928700D03*
D12*
X124353700Y-179928700D03*
D14*
X121813700Y-174848700D03*
X115463700Y-177388700D03*
%TD*%
D12*
%TO.C,K8*%
X223731200Y-122778700D03*
D13*
X228811200Y-122778700D03*
D12*
X233891200Y-122778700D03*
D14*
X231351200Y-117698700D03*
X225001200Y-120238700D03*
%TD*%
D12*
%TO.C,K50*%
X190393700Y-179928700D03*
D13*
X195473700Y-179928700D03*
D12*
X200553700Y-179928700D03*
D14*
X198013700Y-174848700D03*
X191663700Y-177388700D03*
%TD*%
D20*
%TO.C,D69*%
X78901200Y-89708100D03*
D21*
X80171200Y-89708100D03*
X81441200Y-89708100D03*
X82711200Y-89708100D03*
%TD*%
D12*
%TO.C,K5*%
X166581200Y-122778700D03*
D13*
X171661200Y-122778700D03*
D12*
X176741200Y-122778700D03*
D14*
X174201200Y-117698700D03*
X167851200Y-120238700D03*
%TD*%
D12*
%TO.C,K45*%
X95143700Y-179928700D03*
D13*
X100223700Y-179928700D03*
D12*
X105303700Y-179928700D03*
D14*
X102763700Y-174848700D03*
X96413700Y-177388700D03*
%TD*%
D12*
%TO.C,K42*%
X309456200Y-160878700D03*
D13*
X314536200Y-160878700D03*
D12*
X319616200Y-160878700D03*
D14*
X317076200Y-155798700D03*
X310726200Y-158338700D03*
%TD*%
D12*
%TO.C,K2*%
X109431200Y-122778700D03*
D13*
X114511200Y-122778700D03*
D12*
X119591200Y-122778700D03*
D14*
X117051200Y-117698700D03*
X110701200Y-120238700D03*
%TD*%
D22*
%TO.C,K61*%
X183573700Y-191978700D03*
D13*
X183573700Y-207218700D03*
D12*
X190393700Y-198978700D03*
D13*
X195473700Y-198978700D03*
D12*
X200553700Y-198978700D03*
D22*
X207373700Y-191978700D03*
D13*
X207373700Y-207218700D03*
D14*
X198013700Y-193898700D03*
X191663700Y-196438700D03*
%TD*%
D12*
%TO.C,K37*%
X214206200Y-160878700D03*
D13*
X219286200Y-160878700D03*
D12*
X224366200Y-160878700D03*
D14*
X221826200Y-155798700D03*
X215476200Y-158338700D03*
%TD*%
D16*
%TO.C,J1*%
X93470000Y-94488000D03*
D17*
X96010000Y-94488000D03*
X98550000Y-94488000D03*
X101090000Y-94488000D03*
X103630000Y-94488000D03*
X106170000Y-94488000D03*
%TD*%
D12*
%TO.C,K66*%
X352318700Y-198978700D03*
D13*
X357398700Y-198978700D03*
D12*
X362478700Y-198978700D03*
D14*
X359938700Y-193898700D03*
X353588700Y-196438700D03*
%TD*%
D12*
%TO.C,K63*%
X283262400Y-198978700D03*
D13*
X288342400Y-198978700D03*
D12*
X293422400Y-198978700D03*
D14*
X290882400Y-193898700D03*
X284532400Y-196438700D03*
%TD*%
D12*
%TO.C,K43*%
X352318700Y-160878700D03*
D13*
X357398700Y-160878700D03*
D12*
X362478700Y-160878700D03*
D14*
X359938700Y-155798700D03*
X353588700Y-158338700D03*
%TD*%
D12*
%TO.C,K24*%
X247543700Y-141828700D03*
D13*
X252623700Y-141828700D03*
D12*
X257703700Y-141828700D03*
D14*
X255163700Y-136748700D03*
X248813700Y-139288700D03*
%TD*%
D12*
%TO.C,K14*%
X352318700Y-122778700D03*
D13*
X357398700Y-122778700D03*
D12*
X362478700Y-122778700D03*
D14*
X359938700Y-117698700D03*
X353588700Y-120238700D03*
%TD*%
D12*
%TO.C,K55*%
X285643700Y-179928700D03*
D13*
X290723700Y-179928700D03*
D12*
X295803700Y-179928700D03*
D14*
X293263700Y-174848700D03*
X286913700Y-177388700D03*
%TD*%
D12*
%TO.C,K44*%
X73712400Y-179928700D03*
D13*
X78792400Y-179928700D03*
D12*
X83872400Y-179928700D03*
D14*
X81332400Y-174848700D03*
X74982400Y-177388700D03*
%TD*%
D12*
%TO.C,K26*%
X285643700Y-141828700D03*
D13*
X290723700Y-141828700D03*
D12*
X295803700Y-141828700D03*
D14*
X293263700Y-136748700D03*
X286913700Y-139288700D03*
%TD*%
D12*
%TO.C,K41*%
X290406200Y-160878700D03*
D13*
X295486200Y-160878700D03*
D12*
X300566200Y-160878700D03*
D14*
X298026200Y-155798700D03*
X291676200Y-158338700D03*
%TD*%
D12*
%TO.C,K17*%
X114193680Y-141828680D03*
D13*
X119273680Y-141828680D03*
D12*
X124353680Y-141828680D03*
D14*
X121813680Y-136748680D03*
X115463680Y-139288680D03*
%TD*%
D12*
%TO.C,K22*%
X209443680Y-141828680D03*
D13*
X214523680Y-141828680D03*
D12*
X219603680Y-141828680D03*
D14*
X217063680Y-136748680D03*
X210713680Y-139288680D03*
%TD*%
D12*
%TO.C,K47*%
X133243680Y-179928680D03*
D13*
X138323680Y-179928680D03*
D12*
X143403680Y-179928680D03*
D14*
X140863680Y-174848680D03*
X134513680Y-177388680D03*
%TD*%
D12*
%TO.C,K65*%
X330887400Y-198978700D03*
D13*
X335967400Y-198978700D03*
D12*
X341047400Y-198978700D03*
D14*
X338507400Y-193898700D03*
X332157400Y-196438700D03*
%TD*%
D12*
%TO.C,K40*%
X271356180Y-160878680D03*
D13*
X276436180Y-160878680D03*
D12*
X281516180Y-160878680D03*
D14*
X278976180Y-155798680D03*
X272626180Y-158338680D03*
%TD*%
D12*
%TO.C,K31*%
X99906180Y-160878680D03*
D13*
X104986180Y-160878680D03*
D12*
X110066180Y-160878680D03*
D14*
X107526180Y-155798680D03*
X101176180Y-158338680D03*
%TD*%
D12*
%TO.C,K27*%
X304693680Y-141828680D03*
D13*
X309773680Y-141828680D03*
D12*
X314853680Y-141828680D03*
D14*
X312313680Y-136748680D03*
X305963680Y-139288680D03*
%TD*%
D23*
%TO.C,D68*%
X79501200Y-99893500D03*
D24*
X82041200Y-99893500D03*
%TD*%
D12*
%TO.C,K54*%
X266593700Y-179928700D03*
D13*
X271673700Y-179928700D03*
D12*
X276753700Y-179928700D03*
D14*
X274213700Y-174848700D03*
X267863700Y-177388700D03*
%TD*%
D12*
%TO.C,K19*%
X152293700Y-141828700D03*
D13*
X157373700Y-141828700D03*
D12*
X162453700Y-141828700D03*
D14*
X159913700Y-136748700D03*
X153563700Y-139288700D03*
%TD*%
D22*
%TO.C,K56*%
X312161200Y-172928700D03*
D13*
X312161200Y-188168700D03*
D12*
X318981200Y-179928700D03*
D13*
X324061200Y-179928700D03*
D12*
X329141200Y-179928700D03*
D22*
X335961200Y-172928700D03*
D13*
X335961200Y-188168700D03*
D14*
X326601200Y-174848700D03*
X320251200Y-177388700D03*
%TD*%
D23*
%TO.C,D67*%
X90855000Y-155443300D03*
D24*
X93395000Y-155443300D03*
%TD*%
D16*
%TO.C,J3*%
X223020000Y-93560000D03*
D17*
X223020000Y-96100000D03*
X220480000Y-93560000D03*
X220480000Y-96100000D03*
X217940000Y-93560000D03*
X217940000Y-96100000D03*
X215400000Y-93560000D03*
X215400000Y-96100000D03*
X212860000Y-93560000D03*
X212860000Y-96100000D03*
X210320000Y-93560000D03*
X210320000Y-96100000D03*
X207780000Y-93560000D03*
X207780000Y-96100000D03*
X205240000Y-93560000D03*
X205240000Y-96100000D03*
%TD*%
D12*
%TO.C,K23*%
X228493700Y-141828700D03*
D13*
X233573700Y-141828700D03*
D12*
X238653700Y-141828700D03*
D14*
X236113700Y-136748700D03*
X229763700Y-139288700D03*
%TD*%
D12*
%TO.C,K57*%
X352318700Y-179928700D03*
D13*
X357398700Y-179928700D03*
D12*
X362478700Y-179928700D03*
D14*
X359938700Y-174848700D03*
X353588700Y-177388700D03*
%TD*%
D12*
%TO.C,K18*%
X133243700Y-141828700D03*
D13*
X138323700Y-141828700D03*
D12*
X143403700Y-141828700D03*
D14*
X140863700Y-136748700D03*
X134513700Y-139288700D03*
%TD*%
D12*
%TO.C,K10*%
X261831200Y-122778700D03*
D13*
X266911200Y-122778700D03*
D12*
X271991200Y-122778700D03*
D14*
X269451200Y-117698700D03*
X263101200Y-120238700D03*
%TD*%
D12*
%TO.C,K34*%
X157056200Y-160878700D03*
D13*
X162136200Y-160878700D03*
D12*
X167216200Y-160878700D03*
D14*
X164676200Y-155798700D03*
X158326200Y-158338700D03*
%TD*%
D12*
%TO.C,K28*%
X330887400Y-151353700D03*
D13*
X335967400Y-151353700D03*
D12*
X341047400Y-151353700D03*
D14*
X338507400Y-146273700D03*
X332157400Y-148813700D03*
%TD*%
D12*
%TO.C,K4*%
X147531200Y-122778700D03*
D13*
X152611200Y-122778700D03*
D12*
X157691200Y-122778700D03*
D14*
X155151200Y-117698700D03*
X148801200Y-120238700D03*
%TD*%
D12*
%TO.C,K12*%
X299931200Y-122778700D03*
D13*
X305011200Y-122778700D03*
D12*
X310091200Y-122778700D03*
D14*
X307551200Y-117698700D03*
X301201200Y-120238700D03*
%TD*%
D12*
%TO.C,K59*%
X97524900Y-198978700D03*
D13*
X102604900Y-198978700D03*
D12*
X107684900Y-198978700D03*
D14*
X105144900Y-193898700D03*
X98794900Y-196438700D03*
%TD*%
D16*
%TO.C,J4*%
X254762000Y-93472000D03*
D17*
X254762000Y-96012000D03*
X252222000Y-93472000D03*
X252222000Y-96012000D03*
X249682000Y-93472000D03*
X249682000Y-96012000D03*
X247142000Y-93472000D03*
X247142000Y-96012000D03*
X244602000Y-93472000D03*
X244602000Y-96012000D03*
X242062000Y-93472000D03*
X242062000Y-96012000D03*
X239522000Y-93472000D03*
X239522000Y-96012000D03*
X236982000Y-93472000D03*
X236982000Y-96012000D03*
%TD*%
D12*
%TO.C,K38*%
X233256200Y-160878700D03*
D13*
X238336200Y-160878700D03*
D12*
X243416200Y-160878700D03*
D14*
X240876200Y-155798700D03*
X234526200Y-158338700D03*
%TD*%
D12*
%TO.C,K32*%
X118956200Y-160878700D03*
D13*
X124036200Y-160878700D03*
D12*
X129116200Y-160878700D03*
D14*
X126576200Y-155798700D03*
X120226200Y-158338700D03*
%TD*%
D12*
%TO.C,K9*%
X242781200Y-122778700D03*
D13*
X247861200Y-122778700D03*
D12*
X252941200Y-122778700D03*
D14*
X250401200Y-117698700D03*
X244051200Y-120238700D03*
%TD*%
D12*
%TO.C,K6*%
X185631200Y-122778700D03*
D13*
X190711200Y-122778700D03*
D12*
X195791200Y-122778700D03*
D14*
X193251200Y-117698700D03*
X186901200Y-120238700D03*
%TD*%
D25*
%TO.C,D0*%
X73151200Y-128238700D03*
X73151200Y-124938700D03*
%TD*%
D26*
%TO.C,C1*%
X231025000Y-105100000D03*
X228975000Y-105100000D03*
%TD*%
%TO.C,C2*%
X213025000Y-102000000D03*
X210975000Y-102000000D03*
%TD*%
D27*
%TO.C,C3*%
X217475000Y-102000000D03*
X219525000Y-102000000D03*
%TD*%
D28*
%TO.C,C4*%
X125659400Y-93561500D03*
X125659400Y-91511500D03*
%TD*%
D27*
%TO.C,C5*%
X133229800Y-86583700D03*
X135279800Y-86583700D03*
%TD*%
D28*
%TO.C,C6*%
X131391400Y-112425100D03*
X131391400Y-110375100D03*
%TD*%
%TO.C,C7*%
X144391400Y-112425100D03*
X144391400Y-110375100D03*
%TD*%
D26*
%TO.C,R1*%
X176325000Y-91600000D03*
X174275000Y-91600000D03*
%TD*%
%TO.C,R2*%
X176300000Y-94900000D03*
X174250000Y-94900000D03*
%TD*%
D29*
%TO.C,SW1*%
X173683200Y-104402000D03*
X165733200Y-104402000D03*
X173683200Y-108902000D03*
X165733200Y-108902000D03*
%TD*%
D30*
%TO.C,Y1*%
X135191400Y-111425100D03*
X140391400Y-111425100D03*
%TD*%
D31*
%TO.C,U1*%
X145139000Y-91654500D03*
X145139000Y-92454500D03*
X145139000Y-93254500D03*
X145139000Y-94054500D03*
X145139000Y-94854500D03*
X145139000Y-95654500D03*
X145139000Y-96454500D03*
X145139000Y-97254500D03*
X145139000Y-98054500D03*
X145139000Y-98854500D03*
X145139000Y-99654500D03*
X145139000Y-100454500D03*
X145139000Y-101254500D03*
X145139000Y-102054500D03*
X145139000Y-102854500D03*
X145139000Y-103654500D03*
D32*
X143439000Y-105354500D03*
X142639000Y-105354500D03*
X141839000Y-105354500D03*
X141039000Y-105354500D03*
X140239000Y-105354500D03*
X139439000Y-105354500D03*
X138639000Y-105354500D03*
X137839000Y-105354500D03*
X137039000Y-105354500D03*
X136239000Y-105354500D03*
X135439000Y-105354500D03*
X134639000Y-105354500D03*
X133839000Y-105354500D03*
X133039000Y-105354500D03*
X132239000Y-105354500D03*
X131439000Y-105354500D03*
D31*
X129739000Y-103654500D03*
X129739000Y-102854500D03*
X129739000Y-102054500D03*
X129739000Y-101254500D03*
X129739000Y-100454500D03*
X129739000Y-99654500D03*
X129739000Y-98854500D03*
X129739000Y-98054500D03*
X129739000Y-97254500D03*
X129739000Y-96454500D03*
X129739000Y-95654500D03*
X129739000Y-94854500D03*
X129739000Y-94054500D03*
X129739000Y-93254500D03*
X129739000Y-92454500D03*
X129739000Y-91654500D03*
D32*
X131439000Y-89954500D03*
X132239000Y-89954500D03*
X133039000Y-89954500D03*
X133839000Y-89954500D03*
X134639000Y-89954500D03*
X135439000Y-89954500D03*
X136239000Y-89954500D03*
X137039000Y-89954500D03*
X137839000Y-89954500D03*
X138639000Y-89954500D03*
X139439000Y-89954500D03*
X140239000Y-89954500D03*
X141039000Y-89954500D03*
X141839000Y-89954500D03*
X142639000Y-89954500D03*
X143439000Y-89954500D03*
%TD*%
D25*
%TO.C,D43*%
X354138700Y-166338700D03*
X354138700Y-163038700D03*
%TD*%
%TO.C,D41*%
X292226200Y-166338700D03*
X292226200Y-163038700D03*
%TD*%
%TO.C,D60*%
X123157400Y-204438700D03*
X123157400Y-201138700D03*
%TD*%
%TO.C,D44*%
X75532400Y-185388700D03*
X75532400Y-182088700D03*
%TD*%
%TO.C,D35*%
X177926200Y-166338700D03*
X177926200Y-163038700D03*
%TD*%
%TO.C,D51*%
X211263700Y-185388700D03*
X211263700Y-182088700D03*
%TD*%
%TO.C,D56*%
X320801200Y-185388700D03*
X320801200Y-182088700D03*
%TD*%
%TO.C,D54*%
X268413700Y-185388700D03*
X268413700Y-182088700D03*
%TD*%
%TO.C,D47*%
X135063700Y-185388700D03*
X135063700Y-182088700D03*
%TD*%
%TO.C,D28*%
X332707400Y-156813700D03*
X332707400Y-153513700D03*
%TD*%
%TO.C,D64*%
X308894900Y-204438700D03*
X308894900Y-201138700D03*
%TD*%
%TO.C,D6*%
X187451200Y-128238700D03*
X187451200Y-124938700D03*
%TD*%
%TO.C,D16*%
X96963700Y-147288700D03*
X96963700Y-143988700D03*
%TD*%
%TO.C,D55*%
X287463700Y-185388700D03*
X287463700Y-182088700D03*
%TD*%
D33*
%TO.C,R3*%
X93369600Y-162809300D03*
X91369600Y-162809300D03*
%TD*%
%TO.C,R5*%
X74583000Y-87295100D03*
X72583000Y-87295100D03*
%TD*%
D25*
%TO.C,D26*%
X287463700Y-147288700D03*
X287463700Y-143988700D03*
%TD*%
%TO.C,D58*%
X75532400Y-204438700D03*
X75532400Y-201138700D03*
%TD*%
D33*
%TO.C,R4*%
X74583000Y-102193500D03*
X72583000Y-102193500D03*
%TD*%
D25*
%TO.C,D14*%
X354138700Y-128238700D03*
X354138700Y-124938700D03*
%TD*%
%TO.C,D5*%
X168401200Y-128238700D03*
X168401200Y-124938700D03*
%TD*%
%TO.C,D49*%
X173163700Y-185388700D03*
X173163700Y-182088700D03*
%TD*%
%TO.C,D45*%
X96963700Y-185388700D03*
X96963700Y-182088700D03*
%TD*%
D33*
%TO.C,R9*%
X179337400Y-109221400D03*
X177337400Y-109221400D03*
%TD*%
%TO.C,R6*%
X74583000Y-92261200D03*
X72583000Y-92261200D03*
%TD*%
D25*
%TO.C,D27*%
X306513700Y-147288700D03*
X306513700Y-143988700D03*
%TD*%
%TO.C,D66*%
X354138700Y-204438700D03*
X354138700Y-201138700D03*
%TD*%
D33*
%TO.C,R7*%
X74583000Y-97227300D03*
X72583000Y-97227300D03*
%TD*%
D25*
%TO.C,D42*%
X311276200Y-166338700D03*
X311276200Y-163038700D03*
%TD*%
%TO.C,D17*%
X116013700Y-147288700D03*
X116013700Y-143988700D03*
%TD*%
%TO.C,D23*%
X230313700Y-147288700D03*
X230313700Y-143988700D03*
%TD*%
%TO.C,D21*%
X192213700Y-147288700D03*
X192213700Y-143988700D03*
%TD*%
%TO.C,D22*%
X211263700Y-147288700D03*
X211263700Y-143988700D03*
%TD*%
%TO.C,D19*%
X154113700Y-147288700D03*
X154113700Y-143988700D03*
%TD*%
%TO.C,D32*%
X120776200Y-166338700D03*
X120776200Y-163038700D03*
%TD*%
%TO.C,D65*%
X332707400Y-204438700D03*
X332707400Y-201138700D03*
%TD*%
%TO.C,D15*%
X75532400Y-147288700D03*
X75532400Y-143988700D03*
%TD*%
%TO.C,D9*%
X244601200Y-128238700D03*
X244601200Y-124938700D03*
%TD*%
%TO.C,D10*%
X263651200Y-128238700D03*
X263651200Y-124938700D03*
%TD*%
%TO.C,D30*%
X77913700Y-166338700D03*
X77913700Y-163038700D03*
%TD*%
%TO.C,D61*%
X192213700Y-204438700D03*
X192213700Y-201138700D03*
%TD*%
%TO.C,D7*%
X206501200Y-128238700D03*
X206501200Y-124938700D03*
%TD*%
%TO.C,D29*%
X354138700Y-147288700D03*
X354138700Y-143988700D03*
%TD*%
%TO.C,D39*%
X254126200Y-166338700D03*
X254126200Y-163038700D03*
%TD*%
%TO.C,D13*%
X327944900Y-128238700D03*
X327944900Y-124938700D03*
%TD*%
%TO.C,D53*%
X249363700Y-185388700D03*
X249363700Y-182088700D03*
%TD*%
%TO.C,D50*%
X192213700Y-185388700D03*
X192213700Y-182088700D03*
%TD*%
%TO.C,D11*%
X282701200Y-128238700D03*
X282701200Y-124938700D03*
%TD*%
%TO.C,D31*%
X101726200Y-166338700D03*
X101726200Y-163038700D03*
%TD*%
%TO.C,D25*%
X268413700Y-147288700D03*
X268413700Y-143988700D03*
%TD*%
%TO.C,D40*%
X273176200Y-166338700D03*
X273176200Y-163038700D03*
%TD*%
%TO.C,D63*%
X285082400Y-204438700D03*
X285082400Y-201138700D03*
%TD*%
D33*
%TO.C,R8*%
X179261200Y-104728400D03*
X177261200Y-104728400D03*
%TD*%
D25*
%TO.C,D37*%
X216026200Y-166338700D03*
X216026200Y-163038700D03*
%TD*%
%TO.C,D62*%
X261269900Y-204438700D03*
X261269900Y-201138700D03*
%TD*%
%TO.C,D59*%
X99344900Y-204438700D03*
X99344900Y-201138700D03*
%TD*%
%TO.C,D57*%
X354138700Y-185388700D03*
X354138700Y-182088700D03*
%TD*%
%TO.C,D1*%
X92201200Y-128238700D03*
X92201200Y-124938700D03*
%TD*%
%TO.C,D36*%
X196976200Y-166338700D03*
X196976200Y-163038700D03*
%TD*%
%TO.C,D18*%
X135063700Y-147288700D03*
X135063700Y-143988700D03*
%TD*%
D33*
%TO.C,R10*%
X198132200Y-109221400D03*
X196132200Y-109221400D03*
%TD*%
D25*
%TO.C,D4*%
X149351200Y-128238700D03*
X149351200Y-124938700D03*
%TD*%
%TO.C,D33*%
X139826200Y-166338700D03*
X139826200Y-163038700D03*
%TD*%
%TO.C,D46*%
X116013700Y-185388700D03*
X116013700Y-182088700D03*
%TD*%
%TO.C,D34*%
X158876200Y-166338700D03*
X158876200Y-163038700D03*
%TD*%
%TO.C,D12*%
X301751200Y-128238700D03*
X301751200Y-124938700D03*
%TD*%
%TO.C,D24*%
X249363700Y-147288700D03*
X249363700Y-143988700D03*
%TD*%
%TO.C,D48*%
X154113700Y-185388700D03*
X154113700Y-182088700D03*
%TD*%
%TO.C,D38*%
X235076200Y-166338700D03*
X235076200Y-163038700D03*
%TD*%
%TO.C,D52*%
X230313700Y-185388700D03*
X230313700Y-182088700D03*
%TD*%
%TO.C,D2*%
X111251200Y-128238700D03*
X111251200Y-124938700D03*
%TD*%
%TO.C,D20*%
X173163700Y-147288700D03*
X173163700Y-143988700D03*
%TD*%
%TO.C,D8*%
X225551200Y-128238700D03*
X225551200Y-124938700D03*
%TD*%
%TO.C,D3*%
X130301200Y-128238700D03*
X130301200Y-124938700D03*
%TD*%
%LPD*%
M02*
