%TF.GenerationSoftware,KiCad,Pcbnew,7.0.9*%
%TF.CreationDate,2023-12-16T09:03:12+00:00*%
%TF.ProjectId,rosco_m68k_keyboard-2,726f7363-6f5f-46d3-9638-6b5f6b657962,1*%
%TF.SameCoordinates,Original*%
%TF.FileFunction,Paste,Bot*%
%TF.FilePolarity,Positive*%
%FSLAX46Y46*%
G04 Gerber Fmt 4.6, Leading zero omitted, Abs format (unit mm)*
G04 Created by KiCad (PCBNEW 7.0.9) date 2023-12-16 09:03:12*
%MOMM*%
%LPD*%
G01*
G04 APERTURE LIST*
G04 Aperture macros list*
%AMRoundRect*
0 Rectangle with rounded corners*
0 $1 Rounding radius*
0 $2 $3 $4 $5 $6 $7 $8 $9 X,Y pos of 4 corners*
0 Add a 4 corners polygon primitive as box body*
4,1,4,$2,$3,$4,$5,$6,$7,$8,$9,$2,$3,0*
0 Add four circle primitives for the rounded corners*
1,1,$1+$1,$2,$3*
1,1,$1+$1,$4,$5*
1,1,$1+$1,$6,$7*
1,1,$1+$1,$8,$9*
0 Add four rect primitives between the rounded corners*
20,1,$1+$1,$2,$3,$4,$5,0*
20,1,$1+$1,$4,$5,$6,$7,0*
20,1,$1+$1,$6,$7,$8,$9,0*
20,1,$1+$1,$8,$9,$2,$3,0*%
G04 Aperture macros list end*
%ADD10R,1.500000X0.550000*%
%ADD11R,0.550000X1.500000*%
%ADD12RoundRect,0.250000X0.325000X0.450000X-0.325000X0.450000X-0.325000X-0.450000X0.325000X-0.450000X0*%
%ADD13RoundRect,0.225000X0.375000X-0.225000X0.375000X0.225000X-0.375000X0.225000X-0.375000X-0.225000X0*%
%ADD14RoundRect,0.250000X-0.325000X-0.450000X0.325000X-0.450000X0.325000X0.450000X-0.325000X0.450000X0*%
%ADD15RoundRect,0.250000X0.450000X-0.325000X0.450000X0.325000X-0.450000X0.325000X-0.450000X-0.325000X0*%
%ADD16R,1.550000X1.300000*%
%ADD17R,3.500000X2.400000*%
%ADD18RoundRect,0.250000X0.350000X0.450000X-0.350000X0.450000X-0.350000X-0.450000X0.350000X-0.450000X0*%
G04 APERTURE END LIST*
D10*
%TO.C,U1*%
X145139000Y-91654500D03*
X145139000Y-92454500D03*
X145139000Y-93254500D03*
X145139000Y-94054500D03*
X145139000Y-94854500D03*
X145139000Y-95654500D03*
X145139000Y-96454500D03*
X145139000Y-97254500D03*
X145139000Y-98054500D03*
X145139000Y-98854500D03*
X145139000Y-99654500D03*
X145139000Y-100454500D03*
X145139000Y-101254500D03*
X145139000Y-102054500D03*
X145139000Y-102854500D03*
X145139000Y-103654500D03*
D11*
X143439000Y-105354500D03*
X142639000Y-105354500D03*
X141839000Y-105354500D03*
X141039000Y-105354500D03*
X140239000Y-105354500D03*
X139439000Y-105354500D03*
X138639000Y-105354500D03*
X137839000Y-105354500D03*
X137039000Y-105354500D03*
X136239000Y-105354500D03*
X135439000Y-105354500D03*
X134639000Y-105354500D03*
X133839000Y-105354500D03*
X133039000Y-105354500D03*
X132239000Y-105354500D03*
X131439000Y-105354500D03*
D10*
X129739000Y-103654500D03*
X129739000Y-102854500D03*
X129739000Y-102054500D03*
X129739000Y-101254500D03*
X129739000Y-100454500D03*
X129739000Y-99654500D03*
X129739000Y-98854500D03*
X129739000Y-98054500D03*
X129739000Y-97254500D03*
X129739000Y-96454500D03*
X129739000Y-95654500D03*
X129739000Y-94854500D03*
X129739000Y-94054500D03*
X129739000Y-93254500D03*
X129739000Y-92454500D03*
X129739000Y-91654500D03*
D11*
X131439000Y-89954500D03*
X132239000Y-89954500D03*
X133039000Y-89954500D03*
X133839000Y-89954500D03*
X134639000Y-89954500D03*
X135439000Y-89954500D03*
X136239000Y-89954500D03*
X137039000Y-89954500D03*
X137839000Y-89954500D03*
X138639000Y-89954500D03*
X139439000Y-89954500D03*
X140239000Y-89954500D03*
X141039000Y-89954500D03*
X141839000Y-89954500D03*
X142639000Y-89954500D03*
X143439000Y-89954500D03*
%TD*%
D12*
%TO.C,R2*%
X176300000Y-94900000D03*
X174250000Y-94900000D03*
%TD*%
D13*
%TO.C,D0*%
X73151200Y-128238700D03*
X73151200Y-124938700D03*
%TD*%
D12*
%TO.C,C1*%
X231025000Y-105100000D03*
X228975000Y-105100000D03*
%TD*%
%TO.C,C2*%
X213025000Y-102000000D03*
X210975000Y-102000000D03*
%TD*%
D14*
%TO.C,C3*%
X217475000Y-102000000D03*
X219525000Y-102000000D03*
%TD*%
D15*
%TO.C,C4*%
X125659400Y-93561500D03*
X125659400Y-91511500D03*
%TD*%
D14*
%TO.C,C5*%
X133229800Y-86583700D03*
X135279800Y-86583700D03*
%TD*%
D15*
%TO.C,C6*%
X131391400Y-112425100D03*
X131391400Y-110375100D03*
%TD*%
%TO.C,C7*%
X144391400Y-112425100D03*
X144391400Y-110375100D03*
%TD*%
D12*
%TO.C,R1*%
X176325000Y-91600000D03*
X174275000Y-91600000D03*
%TD*%
D16*
%TO.C,SW1*%
X173683200Y-104402000D03*
X165733200Y-104402000D03*
X173683200Y-108902000D03*
X165733200Y-108902000D03*
%TD*%
D17*
%TO.C,Y1*%
X135191400Y-111425100D03*
X140391400Y-111425100D03*
%TD*%
D13*
%TO.C,D43*%
X354138700Y-166338700D03*
X354138700Y-163038700D03*
%TD*%
%TO.C,D41*%
X292226200Y-166338700D03*
X292226200Y-163038700D03*
%TD*%
%TO.C,D60*%
X123157400Y-204438700D03*
X123157400Y-201138700D03*
%TD*%
%TO.C,D44*%
X75532400Y-185388700D03*
X75532400Y-182088700D03*
%TD*%
%TO.C,D35*%
X177926200Y-166338700D03*
X177926200Y-163038700D03*
%TD*%
%TO.C,D51*%
X211263700Y-185388700D03*
X211263700Y-182088700D03*
%TD*%
%TO.C,D56*%
X320801200Y-185388700D03*
X320801200Y-182088700D03*
%TD*%
%TO.C,D54*%
X268413700Y-185388700D03*
X268413700Y-182088700D03*
%TD*%
%TO.C,D47*%
X135063700Y-185388700D03*
X135063700Y-182088700D03*
%TD*%
%TO.C,D28*%
X332707400Y-156813700D03*
X332707400Y-153513700D03*
%TD*%
%TO.C,D64*%
X308894900Y-204438700D03*
X308894900Y-201138700D03*
%TD*%
%TO.C,D6*%
X187451200Y-128238700D03*
X187451200Y-124938700D03*
%TD*%
%TO.C,D16*%
X96963700Y-147288700D03*
X96963700Y-143988700D03*
%TD*%
%TO.C,D55*%
X287463700Y-185388700D03*
X287463700Y-182088700D03*
%TD*%
D18*
%TO.C,R3*%
X93369600Y-162809300D03*
X91369600Y-162809300D03*
%TD*%
%TO.C,R5*%
X74583000Y-87295100D03*
X72583000Y-87295100D03*
%TD*%
D13*
%TO.C,D26*%
X287463700Y-147288700D03*
X287463700Y-143988700D03*
%TD*%
%TO.C,D58*%
X75532400Y-204438700D03*
X75532400Y-201138700D03*
%TD*%
D18*
%TO.C,R4*%
X74583000Y-102193500D03*
X72583000Y-102193500D03*
%TD*%
D13*
%TO.C,D14*%
X354138700Y-128238700D03*
X354138700Y-124938700D03*
%TD*%
%TO.C,D5*%
X168401200Y-128238700D03*
X168401200Y-124938700D03*
%TD*%
%TO.C,D49*%
X173163700Y-185388700D03*
X173163700Y-182088700D03*
%TD*%
%TO.C,D45*%
X96963700Y-185388700D03*
X96963700Y-182088700D03*
%TD*%
D18*
%TO.C,R9*%
X179337400Y-109221400D03*
X177337400Y-109221400D03*
%TD*%
%TO.C,R6*%
X74583000Y-92261200D03*
X72583000Y-92261200D03*
%TD*%
D13*
%TO.C,D27*%
X306513700Y-147288700D03*
X306513700Y-143988700D03*
%TD*%
%TO.C,D66*%
X354138700Y-204438700D03*
X354138700Y-201138700D03*
%TD*%
D18*
%TO.C,R7*%
X74583000Y-97227300D03*
X72583000Y-97227300D03*
%TD*%
D13*
%TO.C,D42*%
X311276200Y-166338700D03*
X311276200Y-163038700D03*
%TD*%
%TO.C,D17*%
X116013700Y-147288700D03*
X116013700Y-143988700D03*
%TD*%
%TO.C,D23*%
X230313700Y-147288700D03*
X230313700Y-143988700D03*
%TD*%
%TO.C,D21*%
X192213700Y-147288700D03*
X192213700Y-143988700D03*
%TD*%
%TO.C,D22*%
X211263700Y-147288700D03*
X211263700Y-143988700D03*
%TD*%
%TO.C,D19*%
X154113700Y-147288700D03*
X154113700Y-143988700D03*
%TD*%
%TO.C,D32*%
X120776200Y-166338700D03*
X120776200Y-163038700D03*
%TD*%
%TO.C,D65*%
X332707400Y-204438700D03*
X332707400Y-201138700D03*
%TD*%
%TO.C,D15*%
X75532400Y-147288700D03*
X75532400Y-143988700D03*
%TD*%
%TO.C,D9*%
X244601200Y-128238700D03*
X244601200Y-124938700D03*
%TD*%
%TO.C,D10*%
X263651200Y-128238700D03*
X263651200Y-124938700D03*
%TD*%
%TO.C,D30*%
X77913700Y-166338700D03*
X77913700Y-163038700D03*
%TD*%
%TO.C,D61*%
X192213700Y-204438700D03*
X192213700Y-201138700D03*
%TD*%
%TO.C,D7*%
X206501200Y-128238700D03*
X206501200Y-124938700D03*
%TD*%
%TO.C,D29*%
X354138700Y-147288700D03*
X354138700Y-143988700D03*
%TD*%
%TO.C,D39*%
X254126200Y-166338700D03*
X254126200Y-163038700D03*
%TD*%
%TO.C,D13*%
X327944900Y-128238700D03*
X327944900Y-124938700D03*
%TD*%
%TO.C,D53*%
X249363700Y-185388700D03*
X249363700Y-182088700D03*
%TD*%
%TO.C,D50*%
X192213700Y-185388700D03*
X192213700Y-182088700D03*
%TD*%
%TO.C,D11*%
X282701200Y-128238700D03*
X282701200Y-124938700D03*
%TD*%
%TO.C,D31*%
X101726200Y-166338700D03*
X101726200Y-163038700D03*
%TD*%
%TO.C,D25*%
X268413700Y-147288700D03*
X268413700Y-143988700D03*
%TD*%
%TO.C,D40*%
X273176200Y-166338700D03*
X273176200Y-163038700D03*
%TD*%
%TO.C,D63*%
X285082400Y-204438700D03*
X285082400Y-201138700D03*
%TD*%
D18*
%TO.C,R8*%
X179261200Y-104728400D03*
X177261200Y-104728400D03*
%TD*%
D13*
%TO.C,D37*%
X216026200Y-166338700D03*
X216026200Y-163038700D03*
%TD*%
%TO.C,D62*%
X261269900Y-204438700D03*
X261269900Y-201138700D03*
%TD*%
%TO.C,D59*%
X99344900Y-204438700D03*
X99344900Y-201138700D03*
%TD*%
%TO.C,D57*%
X354138700Y-185388700D03*
X354138700Y-182088700D03*
%TD*%
%TO.C,D1*%
X92201200Y-128238700D03*
X92201200Y-124938700D03*
%TD*%
%TO.C,D36*%
X196976200Y-166338700D03*
X196976200Y-163038700D03*
%TD*%
%TO.C,D18*%
X135063700Y-147288700D03*
X135063700Y-143988700D03*
%TD*%
D18*
%TO.C,R10*%
X198132200Y-109221400D03*
X196132200Y-109221400D03*
%TD*%
D13*
%TO.C,D4*%
X149351200Y-128238700D03*
X149351200Y-124938700D03*
%TD*%
%TO.C,D33*%
X139826200Y-166338700D03*
X139826200Y-163038700D03*
%TD*%
%TO.C,D46*%
X116013700Y-185388700D03*
X116013700Y-182088700D03*
%TD*%
%TO.C,D34*%
X158876200Y-166338700D03*
X158876200Y-163038700D03*
%TD*%
%TO.C,D12*%
X301751200Y-128238700D03*
X301751200Y-124938700D03*
%TD*%
%TO.C,D24*%
X249363700Y-147288700D03*
X249363700Y-143988700D03*
%TD*%
%TO.C,D48*%
X154113700Y-185388700D03*
X154113700Y-182088700D03*
%TD*%
%TO.C,D38*%
X235076200Y-166338700D03*
X235076200Y-163038700D03*
%TD*%
%TO.C,D52*%
X230313700Y-185388700D03*
X230313700Y-182088700D03*
%TD*%
%TO.C,D2*%
X111251200Y-128238700D03*
X111251200Y-124938700D03*
%TD*%
%TO.C,D20*%
X173163700Y-147288700D03*
X173163700Y-143988700D03*
%TD*%
%TO.C,D8*%
X225551200Y-128238700D03*
X225551200Y-124938700D03*
%TD*%
%TO.C,D3*%
X130301200Y-128238700D03*
X130301200Y-124938700D03*
%TD*%
M02*
