M48
; DRILL file {KiCad 7.0.9} date Sunday, November 26, 2023 at 09:00:59 PM
; FORMAT={-:-/ absolute / inch / decimal}
; #@! TF.CreationDate,2023-11-26T21:00:59+00:00
; #@! TF.GenerationSoftware,Kicad,Pcbnew,7.0.9
; #@! TF.FileFunction,NonPlated,1,2,NPTH
FMAT,2
INCH
; #@! TA.AperFunction,NonPlated,NPTH,ComponentDrill
T1C0.0669
; #@! TA.AperFunction,NonPlated,NPTH,ComponentDrill
T2C0.1201
; #@! TA.AperFunction,NonPlated,NPTH,ComponentDrill
T3C0.1260
; #@! TA.AperFunction,NonPlated,NPTH,ComponentDrill
T4C0.1575
%
G90
G05
T1
X2.8083Y-4.8338
X2.9021Y-5.5838
X2.9021Y-7.0838
X2.9021Y-7.8338
X2.9958Y-6.3338
X3.2083Y-4.8338
X3.3021Y-5.5838
X3.3021Y-7.0838
X3.3021Y-7.8338
X3.3958Y-6.3338
X3.5583Y-4.8338
X3.7458Y-5.5838
X3.7458Y-7.0838
X3.8396Y-7.8338
X3.9333Y-6.3338
X3.9583Y-4.8338
X4.1458Y-5.5838
X4.1458Y-7.0838
X4.2396Y-7.8338
X4.3083Y-4.8338
X4.3333Y-6.3338
X4.4958Y-5.5838
X4.4958Y-7.0838
X4.6833Y-6.3338
X4.7083Y-4.8338
X4.7771Y-7.8338
X4.8958Y-5.5838
X4.8958Y-7.0838
X5.0583Y-4.8338
X5.0833Y-6.3338
X5.1771Y-7.8338
X5.2458Y-7.0838
X5.2458Y-5.5838
X5.4333Y-6.3338
X5.4583Y-4.8338
X5.6458Y-7.0838
X5.6458Y-5.5838
X5.8083Y-4.8338
X5.8333Y-6.3338
X5.9958Y-5.5838
X5.9958Y-7.0838
X6.1833Y-6.3338
X6.2083Y-4.8338
X6.3958Y-5.5838
X6.3958Y-7.0838
X6.5583Y-4.8338
X6.5833Y-6.3338
X6.7458Y-5.5838
X6.7458Y-7.0838
X6.9333Y-6.3338
X6.9583Y-4.8338
X7.1458Y-5.5838
X7.1458Y-7.0838
X7.3083Y-4.8338
X7.3333Y-6.3338
X7.4958Y-5.5838
X7.4958Y-7.0838
X7.4958Y-7.8338
X7.6833Y-6.3338
X7.7083Y-4.8338
X7.8958Y-5.5838
X7.8958Y-7.0838
X7.8958Y-7.8338
X8.0583Y-4.8338
X8.0833Y-6.3338
X8.2458Y-5.5838
X8.2458Y-7.0838
X8.4333Y-6.3338
X8.4583Y-4.8338
X8.6458Y-5.5838
X8.6458Y-7.0838
X8.8083Y-4.8338
X8.8333Y-6.3338
X8.9958Y-5.5838
X8.9958Y-7.0838
X9.1833Y-6.3338
X9.2083Y-4.8338
X9.3958Y-5.5838
X9.3958Y-7.0838
X9.5583Y-4.8338
X9.5833Y-6.3338
X9.7458Y-5.5838
X9.7458Y-7.0838
X9.9333Y-6.3338
X9.9583Y-4.8338
X10.1458Y-5.5838
X10.1458Y-7.0838
X10.2146Y-7.8338
X10.3083Y-4.8338
X10.3333Y-6.3338
X10.4958Y-5.5838
X10.4958Y-7.0838
X10.6146Y-7.8338
X10.6833Y-6.3338
X10.7083Y-4.8338
X10.8958Y-5.5838
X10.8958Y-7.0838
X11.0583Y-4.8338
X11.0833Y-6.3338
X11.1521Y-7.8338
X11.2458Y-5.5838
X11.2458Y-7.0838
X11.4333Y-6.3338
X11.4583Y-4.8338
X11.5521Y-7.8338
X11.6458Y-5.5838
X11.6458Y-7.0838
X11.8083Y-4.8338
X11.8333Y-6.3338
X11.9958Y-5.5838
X12.0896Y-7.8338
X12.1833Y-6.3338
X12.2083Y-4.8338
X12.3958Y-5.5838
X12.4896Y-7.8338
X12.5583Y-7.0838
X12.5833Y-6.3338
X12.8396Y-4.8338
X12.9583Y-7.0838
X13.0271Y-5.9588
X13.0271Y-7.8338
X13.2396Y-4.8338
X13.4271Y-5.9588
X13.4271Y-7.8338
X13.8708Y-4.8338
X13.8708Y-5.5838
X13.8708Y-6.3338
X13.8708Y-7.0838
X13.8708Y-7.8338
X14.2708Y-4.8338
X14.2708Y-5.5838
X14.2708Y-6.3338
X14.2708Y-7.0838
X14.2708Y-7.8338
T2
X7.2273Y-7.5582
X8.1643Y-7.5582
X12.2898Y-6.8082
X13.2268Y-6.8082
T3
X2.5936Y-3.4204
X2.5936Y-8.3811
X14.4834Y-3.4204
X14.4834Y-8.3811
T4
X3.0083Y-4.8338
X3.1021Y-5.5838
X3.1021Y-7.0838
X3.1021Y-7.8338
X3.1958Y-6.3338
X3.7583Y-4.8338
X3.9458Y-5.5838
X3.9458Y-7.0838
X4.0396Y-7.8338
X4.1333Y-6.3338
X4.5083Y-4.8338
X4.6958Y-5.5838
X4.6958Y-7.0838
X4.8833Y-6.3338
X4.9771Y-7.8338
X5.2583Y-4.8338
X5.4458Y-7.0838
X5.4458Y-5.5838
X5.6333Y-6.3338
X6.0083Y-4.8338
X6.1958Y-5.5838
X6.1958Y-7.0838
X6.3833Y-6.3338
X6.7583Y-4.8338
X6.9458Y-5.5838
X6.9458Y-7.0838
X7.1333Y-6.3338
X7.2273Y-8.1582
X7.5083Y-4.8338
X7.6958Y-5.5838
X7.6958Y-7.0838
X7.6958Y-7.8338
X7.8833Y-6.3338
X8.1643Y-8.1582
X8.2583Y-4.8338
X8.4458Y-5.5838
X8.4458Y-7.0838
X8.6333Y-6.3338
X9.0083Y-4.8338
X9.1958Y-5.5838
X9.1958Y-7.0838
X9.3833Y-6.3338
X9.7583Y-4.8338
X9.9458Y-5.5838
X9.9458Y-7.0838
X10.1333Y-6.3338
X10.4146Y-7.8338
X10.5083Y-4.8338
X10.6958Y-5.5838
X10.6958Y-7.0838
X10.8833Y-6.3338
X11.2583Y-4.8338
X11.3521Y-7.8338
X11.4458Y-5.5838
X11.4458Y-7.0838
X11.6333Y-6.3338
X12.0083Y-4.8338
X12.1958Y-5.5838
X12.2896Y-7.8338
X12.2898Y-7.4082
X12.3833Y-6.3338
X12.7583Y-7.0838
X13.0396Y-4.8338
X13.2268Y-7.4082
X13.2271Y-5.9588
X13.2271Y-7.8338
X14.0708Y-4.8338
X14.0708Y-5.5838
X14.0708Y-6.3338
X14.0708Y-7.0838
X14.0708Y-7.8338
T0
M30
