M48
; DRILL file {KiCad 7.0.9} date Wednesday, January 31, 2024 at 09:29:37 PM
; FORMAT={-:-/ absolute / inch / decimal}
; #@! TF.CreationDate,2024-01-31T21:29:37+00:00
; #@! TF.GenerationSoftware,Kicad,Pcbnew,7.0.9
; #@! TF.FileFunction,NonPlated,1,2,NPTH
FMAT,2
INCH
; #@! TA.AperFunction,NonPlated,NPTH,ComponentDrill
T1C0.0236
; #@! TA.AperFunction,NonPlated,NPTH,ComponentDrill
T2C0.0669
; #@! TA.AperFunction,NonPlated,NPTH,ComponentDrill
T3C0.1201
; #@! TA.AperFunction,NonPlated,NPTH,ComponentDrill
T4C0.1260
; #@! TA.AperFunction,NonPlated,NPTH,ComponentDrill
T5C0.1575
%
G90
G05
T1
X11.339Y-3.4898
X11.5665Y-3.4898
T2
X2.7221Y-4.923
X2.8158Y-7.173
X2.8158Y-7.923
X2.9096Y-5.673
X3.0033Y-6.423
X3.1221Y-4.923
X3.2158Y-7.173
X3.2158Y-7.923
X3.3096Y-5.673
X3.4033Y-6.423
X3.4721Y-4.923
X3.6596Y-7.173
X3.7533Y-7.923
X3.8471Y-5.673
X3.8721Y-4.923
X4.0346Y-6.423
X4.0596Y-7.173
X4.1533Y-7.923
X4.2221Y-4.923
X4.2471Y-5.673
X4.4096Y-7.173
X4.4346Y-6.423
X4.5971Y-5.673
X4.6221Y-4.923
X4.6908Y-7.923
X4.7846Y-6.423
X4.8096Y-7.173
X4.9721Y-4.923
X4.9971Y-5.673
X5.0908Y-7.923
X5.1596Y-7.173
X5.1846Y-6.423
X5.3471Y-5.673
X5.3721Y-4.923
X5.5346Y-6.423
X5.5596Y-7.173
X5.7221Y-4.923
X5.7471Y-5.673
X5.9096Y-7.173
X5.9346Y-6.423
X6.0971Y-5.673
X6.1221Y-4.923
X6.2846Y-6.423
X6.3096Y-7.173
X6.4721Y-4.923
X6.4971Y-5.673
X6.6596Y-7.173
X6.6846Y-6.423
X6.8471Y-5.673
X6.8721Y-4.923
X7.0346Y-6.423
X7.0596Y-7.173
X7.2221Y-4.923
X7.2471Y-5.673
X7.4096Y-7.173
X7.4346Y-6.423
X7.5033Y-7.923
X7.5971Y-5.673
X7.6221Y-4.923
X7.7846Y-6.423
X7.8096Y-7.173
X7.9033Y-7.923
X7.9721Y-4.923
X7.9971Y-5.673
X8.1596Y-7.173
X8.1846Y-6.423
X8.3471Y-5.673
X8.3721Y-4.923
X8.5346Y-6.423
X8.5596Y-7.173
X8.7221Y-4.923
X8.7471Y-5.673
X8.9096Y-7.173
X8.9346Y-6.423
X9.0971Y-5.673
X9.1221Y-4.923
X9.2846Y-6.423
X9.3096Y-7.173
X9.4721Y-4.923
X9.4971Y-5.673
X9.6596Y-7.173
X9.6846Y-6.423
X9.8471Y-5.673
X9.8721Y-4.923
X10.0346Y-6.423
X10.0596Y-7.173
X10.2221Y-4.923
X10.2471Y-5.673
X10.3158Y-7.923
X10.4096Y-7.173
X10.4346Y-6.423
X10.5971Y-5.673
X10.6221Y-4.923
X10.7158Y-7.923
X10.7846Y-6.423
X10.8096Y-7.173
X10.9721Y-4.923
X10.9971Y-5.673
X11.1596Y-7.173
X11.1846Y-6.423
X11.2458Y-7.923
X11.3471Y-5.673
X11.3721Y-4.923
X11.5346Y-6.423
X11.5596Y-7.173
X11.6458Y-7.923
X11.7221Y-4.923
X11.7471Y-5.673
X11.9346Y-6.423
X12.0971Y-5.673
X12.1221Y-4.923
X12.1908Y-7.923
X12.4971Y-5.673
X12.5658Y-7.173
X12.5908Y-7.923
X12.7533Y-6.423
X12.8471Y-4.923
X12.9658Y-7.173
X13.0346Y-5.673
X13.1208Y-7.923
X13.1533Y-6.423
X13.2471Y-4.923
X13.4346Y-5.673
X13.5208Y-7.923
X13.9721Y-4.923
X13.9721Y-5.673
X13.9721Y-6.423
X13.9721Y-7.173
X13.9721Y-7.923
X14.3721Y-4.923
X14.3721Y-5.673
X14.3721Y-6.423
X14.3721Y-7.173
X14.3721Y-7.923
T3
X5.7348Y-7.6474
X9.6719Y-7.6474
X12.2973Y-6.8974
X12.4848Y-6.1474
X12.5786Y-4.6474
X13.2344Y-6.8974
X13.4219Y-6.1474
X13.5156Y-4.6474
T4
X2.5936Y-3.4204
X2.5936Y-8.3811
X14.4834Y-3.4204
X14.4834Y-8.3811
T5
X2.9221Y-4.923
X3.0158Y-7.173
X3.0158Y-7.923
X3.1096Y-5.673
X3.2033Y-6.423
X3.6721Y-4.923
X3.8596Y-7.173
X3.9533Y-7.923
X4.0471Y-5.673
X4.2346Y-6.423
X4.4221Y-4.923
X4.6096Y-7.173
X4.7971Y-5.673
X4.8908Y-7.923
X4.9846Y-6.423
X5.1721Y-4.923
X5.3596Y-7.173
X5.5471Y-5.673
X5.7346Y-6.423
X5.7348Y-8.2474
X5.9221Y-4.923
X6.1096Y-7.173
X6.2971Y-5.673
X6.4846Y-6.423
X6.6721Y-4.923
X6.8596Y-7.173
X7.0471Y-5.673
X7.2346Y-6.423
X7.4221Y-4.923
X7.6096Y-7.173
X7.7033Y-7.923
X7.7971Y-5.673
X7.9846Y-6.423
X8.1721Y-4.923
X8.3596Y-7.173
X8.5471Y-5.673
X8.7346Y-6.423
X8.9221Y-4.923
X9.1096Y-7.173
X9.2971Y-5.673
X9.4846Y-6.423
X9.6719Y-8.2474
X9.6721Y-4.923
X9.8596Y-7.173
X10.0471Y-5.673
X10.2346Y-6.423
X10.4221Y-4.923
X10.5158Y-7.923
X10.6096Y-7.173
X10.7971Y-5.673
X10.9846Y-6.423
X11.1721Y-4.923
X11.3596Y-7.173
X11.4458Y-7.923
X11.5471Y-5.673
X11.7346Y-6.423
X11.9221Y-4.923
X12.2971Y-5.673
X12.2973Y-7.4974
X12.3908Y-7.923
X12.4848Y-6.7474
X12.5786Y-5.2474
X12.7658Y-7.173
X12.9533Y-6.423
X13.0471Y-4.923
X13.2344Y-7.4974
X13.2346Y-5.673
X13.3208Y-7.923
X13.4219Y-6.7474
X13.5156Y-5.2474
X14.1721Y-4.923
X14.1721Y-5.673
X14.1721Y-6.423
X14.1721Y-7.173
X14.1721Y-7.923
T0
M30
