%TF.GenerationSoftware,KiCad,Pcbnew,7.0.9*%
%TF.CreationDate,2023-12-16T09:03:12+00:00*%
%TF.ProjectId,rosco_m68k_keyboard-2,726f7363-6f5f-46d3-9638-6b5f6b657962,1*%
%TF.SameCoordinates,Original*%
%TF.FileFunction,Soldermask,Top*%
%TF.FilePolarity,Negative*%
%FSLAX46Y46*%
G04 Gerber Fmt 4.6, Leading zero omitted, Abs format (unit mm)*
G04 Created by KiCad (PCBNEW 7.0.9) date 2023-12-16 09:03:12*
%MOMM*%
%LPD*%
G01*
G04 APERTURE LIST*
G04 Aperture macros list*
%AMRoundRect*
0 Rectangle with rounded corners*
0 $1 Rounding radius*
0 $2 $3 $4 $5 $6 $7 $8 $9 X,Y pos of 4 corners*
0 Add a 4 corners polygon primitive as box body*
4,1,4,$2,$3,$4,$5,$6,$7,$8,$9,$2,$3,0*
0 Add four circle primitives for the rounded corners*
1,1,$1+$1,$2,$3*
1,1,$1+$1,$4,$5*
1,1,$1+$1,$6,$7*
1,1,$1+$1,$8,$9*
0 Add four rect primitives between the rounded corners*
20,1,$1+$1,$2,$3,$4,$5,0*
20,1,$1+$1,$4,$5,$6,$7,0*
20,1,$1+$1,$6,$7,$8,$9,0*
20,1,$1+$1,$8,$9,$2,$3,0*%
G04 Aperture macros list end*
%ADD10R,1.700000X1.700000*%
%ADD11O,1.700000X1.700000*%
%ADD12RoundRect,0.250000X-0.600000X-0.750000X0.600000X-0.750000X0.600000X0.750000X-0.600000X0.750000X0*%
%ADD13O,1.700000X2.000000*%
%ADD14C,2.200000*%
%ADD15C,1.700000*%
%ADD16C,4.000000*%
%ADD17C,3.200000*%
%ADD18R,1.070000X1.800000*%
%ADD19O,1.070000X1.800000*%
%ADD20C,3.050000*%
%ADD21R,1.800000X1.800000*%
%ADD22C,1.800000*%
G04 APERTURE END LIST*
D10*
%TO.C,J4*%
X254762000Y-93472000D03*
D11*
X254762000Y-96012000D03*
X252222000Y-93472000D03*
X252222000Y-96012000D03*
X249682000Y-93472000D03*
X249682000Y-96012000D03*
X247142000Y-93472000D03*
X247142000Y-96012000D03*
X244602000Y-93472000D03*
X244602000Y-96012000D03*
X242062000Y-93472000D03*
X242062000Y-96012000D03*
X239522000Y-93472000D03*
X239522000Y-96012000D03*
X236982000Y-93472000D03*
X236982000Y-96012000D03*
%TD*%
D12*
%TO.C,J5*%
X228750000Y-99000000D03*
D13*
X231250000Y-99000000D03*
%TD*%
D10*
%TO.C,J1*%
X93470000Y-94488000D03*
D11*
X96010000Y-94488000D03*
X98550000Y-94488000D03*
X101090000Y-94488000D03*
X103630000Y-94488000D03*
X106170000Y-94488000D03*
%TD*%
D10*
%TO.C,J6*%
X150114000Y-94488000D03*
D11*
X152654000Y-94488000D03*
X155194000Y-94488000D03*
X157734000Y-94488000D03*
X160274000Y-94488000D03*
X162814000Y-94488000D03*
%TD*%
D14*
%TO.C,K0*%
X72601200Y-120238700D03*
X78951200Y-117698700D03*
D15*
X81491200Y-122778700D03*
D16*
X76411200Y-122778700D03*
D15*
X71331200Y-122778700D03*
%TD*%
D17*
%TO.C,H2*%
X367878700Y-86878700D03*
%TD*%
%TO.C,H3*%
X367878700Y-212878700D03*
%TD*%
%TO.C,H4*%
X65878700Y-212878700D03*
%TD*%
%TO.C,H1*%
X65878700Y-86878700D03*
%TD*%
D10*
%TO.C,J2*%
X170495600Y-95145800D03*
D11*
X167955600Y-95145800D03*
X170495600Y-92605800D03*
X167955600Y-92605800D03*
X170495600Y-90065800D03*
X167955600Y-90065800D03*
%TD*%
D14*
%TO.C,K36*%
X196426200Y-158338700D03*
X202776200Y-155798700D03*
D15*
X205316200Y-160878700D03*
D16*
X200236200Y-160878700D03*
D15*
X195156200Y-160878700D03*
%TD*%
D14*
%TO.C,K60*%
X122607400Y-196438700D03*
X128957400Y-193898700D03*
D15*
X131497400Y-198978700D03*
D16*
X126417400Y-198978700D03*
D15*
X121337400Y-198978700D03*
%TD*%
D14*
%TO.C,K49*%
X172613700Y-177388700D03*
X178963700Y-174848700D03*
D15*
X181503700Y-179928700D03*
D16*
X176423700Y-179928700D03*
D15*
X171343700Y-179928700D03*
%TD*%
D14*
%TO.C,K1*%
X91651200Y-120238700D03*
X98001200Y-117698700D03*
D15*
X100541200Y-122778700D03*
D16*
X95461200Y-122778700D03*
D15*
X90381200Y-122778700D03*
%TD*%
D14*
%TO.C,K62*%
X260719900Y-196438700D03*
X267069900Y-193898700D03*
D15*
X269609900Y-198978700D03*
D16*
X264529900Y-198978700D03*
D15*
X259449900Y-198978700D03*
%TD*%
D14*
%TO.C,K39*%
X253576200Y-158338700D03*
X259926200Y-155798700D03*
D15*
X262466200Y-160878700D03*
D16*
X257386200Y-160878700D03*
D15*
X252306200Y-160878700D03*
%TD*%
D14*
%TO.C,K48*%
X153563700Y-177388700D03*
X159913700Y-174848700D03*
D15*
X162453700Y-179928700D03*
D16*
X157373700Y-179928700D03*
D15*
X152293700Y-179928700D03*
%TD*%
D14*
%TO.C,K53*%
X248813700Y-177388700D03*
X255163700Y-174848700D03*
D15*
X257703700Y-179928700D03*
D16*
X252623700Y-179928700D03*
D15*
X247543700Y-179928700D03*
%TD*%
D14*
%TO.C,K35*%
X177376200Y-158338700D03*
X183726200Y-155798700D03*
D15*
X186266200Y-160878700D03*
D16*
X181186200Y-160878700D03*
D15*
X176106200Y-160878700D03*
%TD*%
D14*
%TO.C,K33*%
X139276200Y-158338700D03*
X145626200Y-155798700D03*
D15*
X148166200Y-160878700D03*
D16*
X143086200Y-160878700D03*
D15*
X138006200Y-160878700D03*
%TD*%
D14*
%TO.C,K25*%
X267863700Y-139288700D03*
X274213700Y-136748700D03*
D15*
X276753700Y-141828700D03*
D16*
X271673700Y-141828700D03*
D15*
X266593700Y-141828700D03*
%TD*%
D14*
%TO.C,K29*%
X353588700Y-139288700D03*
X359938700Y-136748700D03*
D15*
X362478700Y-141828700D03*
D16*
X357398700Y-141828700D03*
D15*
X352318700Y-141828700D03*
%TD*%
D14*
%TO.C,K20*%
X172613700Y-139288700D03*
X178963700Y-136748700D03*
D15*
X181503700Y-141828700D03*
D16*
X176423700Y-141828700D03*
D15*
X171343700Y-141828700D03*
%TD*%
D14*
%TO.C,K11*%
X282151200Y-120238700D03*
X288501200Y-117698700D03*
D15*
X291041200Y-122778700D03*
D16*
X285961200Y-122778700D03*
D15*
X280881200Y-122778700D03*
%TD*%
D14*
%TO.C,K3*%
X129751200Y-120238700D03*
X136101200Y-117698700D03*
D15*
X138641200Y-122778700D03*
D16*
X133561200Y-122778700D03*
D15*
X128481200Y-122778700D03*
%TD*%
D14*
%TO.C,K13*%
X327394900Y-120238700D03*
X333744900Y-117698700D03*
D15*
X336284900Y-122778700D03*
D16*
X331204900Y-122778700D03*
D15*
X326124900Y-122778700D03*
%TD*%
D14*
%TO.C,K7*%
X205951200Y-120238700D03*
X212301200Y-117698700D03*
D15*
X214841200Y-122778700D03*
D16*
X209761200Y-122778700D03*
D15*
X204681200Y-122778700D03*
%TD*%
D14*
%TO.C,K58*%
X74982400Y-196438700D03*
X81332400Y-193898700D03*
D15*
X83872400Y-198978700D03*
D16*
X78792400Y-198978700D03*
D15*
X73712400Y-198978700D03*
%TD*%
D10*
%TO.C,D70*%
X183900000Y-109275000D03*
D11*
X186440000Y-109275000D03*
X188980000Y-109275000D03*
X191520000Y-109275000D03*
%TD*%
D14*
%TO.C,K64*%
X308344900Y-196438700D03*
X314694900Y-193898700D03*
D15*
X317234900Y-198978700D03*
D16*
X312154900Y-198978700D03*
D15*
X307074900Y-198978700D03*
%TD*%
D14*
%TO.C,K51*%
X210713700Y-177388700D03*
X217063700Y-174848700D03*
D15*
X219603700Y-179928700D03*
D16*
X214523700Y-179928700D03*
D15*
X209443700Y-179928700D03*
%TD*%
D14*
%TO.C,K21*%
X191663700Y-139288700D03*
X198013700Y-136748700D03*
D15*
X200553700Y-141828700D03*
D16*
X195473700Y-141828700D03*
D15*
X190393700Y-141828700D03*
%TD*%
D14*
%TO.C,K15*%
X74982400Y-139288700D03*
X81332400Y-136748700D03*
D15*
X83872400Y-141828700D03*
D16*
X78792400Y-141828700D03*
D15*
X73712400Y-141828700D03*
%TD*%
D14*
%TO.C,K30*%
X77363700Y-158338700D03*
X83713700Y-155798700D03*
D15*
X86253700Y-160878700D03*
D16*
X81173700Y-160878700D03*
D15*
X76093700Y-160878700D03*
%TD*%
D14*
%TO.C,K52*%
X229763700Y-177388700D03*
X236113700Y-174848700D03*
D15*
X238653700Y-179928700D03*
D16*
X233573700Y-179928700D03*
D15*
X228493700Y-179928700D03*
%TD*%
D14*
%TO.C,K16*%
X96413700Y-139288700D03*
X102763700Y-136748700D03*
D15*
X105303700Y-141828700D03*
D16*
X100223700Y-141828700D03*
D15*
X95143700Y-141828700D03*
%TD*%
D14*
%TO.C,K46*%
X115463700Y-177388700D03*
X121813700Y-174848700D03*
D15*
X124353700Y-179928700D03*
D16*
X119273700Y-179928700D03*
D15*
X114193700Y-179928700D03*
%TD*%
D14*
%TO.C,K8*%
X225001200Y-120238700D03*
X231351200Y-117698700D03*
D15*
X233891200Y-122778700D03*
D16*
X228811200Y-122778700D03*
D15*
X223731200Y-122778700D03*
%TD*%
D14*
%TO.C,K50*%
X191663700Y-177388700D03*
X198013700Y-174848700D03*
D15*
X200553700Y-179928700D03*
D16*
X195473700Y-179928700D03*
D15*
X190393700Y-179928700D03*
%TD*%
D18*
%TO.C,D69*%
X78901200Y-89708100D03*
D19*
X80171200Y-89708100D03*
X81441200Y-89708100D03*
X82711200Y-89708100D03*
%TD*%
D14*
%TO.C,K5*%
X167851200Y-120238700D03*
X174201200Y-117698700D03*
D15*
X176741200Y-122778700D03*
D16*
X171661200Y-122778700D03*
D15*
X166581200Y-122778700D03*
%TD*%
D14*
%TO.C,K45*%
X96413700Y-177388700D03*
X102763700Y-174848700D03*
D15*
X105303700Y-179928700D03*
D16*
X100223700Y-179928700D03*
D15*
X95143700Y-179928700D03*
%TD*%
D14*
%TO.C,K42*%
X310726200Y-158338700D03*
X317076200Y-155798700D03*
D15*
X319616200Y-160878700D03*
D16*
X314536200Y-160878700D03*
D15*
X309456200Y-160878700D03*
%TD*%
D14*
%TO.C,K2*%
X110701200Y-120238700D03*
X117051200Y-117698700D03*
D15*
X119591200Y-122778700D03*
D16*
X114511200Y-122778700D03*
D15*
X109431200Y-122778700D03*
%TD*%
D14*
%TO.C,K61*%
X191663700Y-196438700D03*
X198013700Y-193898700D03*
D16*
X207373700Y-207218700D03*
D20*
X207373700Y-191978700D03*
D15*
X200553700Y-198978700D03*
D16*
X195473700Y-198978700D03*
D15*
X190393700Y-198978700D03*
D16*
X183573700Y-207218700D03*
D20*
X183573700Y-191978700D03*
%TD*%
D14*
%TO.C,K37*%
X215476200Y-158338700D03*
X221826200Y-155798700D03*
D15*
X224366200Y-160878700D03*
D16*
X219286200Y-160878700D03*
D15*
X214206200Y-160878700D03*
%TD*%
D14*
%TO.C,K66*%
X353588700Y-196438700D03*
X359938700Y-193898700D03*
D15*
X362478700Y-198978700D03*
D16*
X357398700Y-198978700D03*
D15*
X352318700Y-198978700D03*
%TD*%
D14*
%TO.C,K63*%
X284532400Y-196438700D03*
X290882400Y-193898700D03*
D15*
X293422400Y-198978700D03*
D16*
X288342400Y-198978700D03*
D15*
X283262400Y-198978700D03*
%TD*%
D14*
%TO.C,K43*%
X353588700Y-158338700D03*
X359938700Y-155798700D03*
D15*
X362478700Y-160878700D03*
D16*
X357398700Y-160878700D03*
D15*
X352318700Y-160878700D03*
%TD*%
D14*
%TO.C,K24*%
X248813700Y-139288700D03*
X255163700Y-136748700D03*
D15*
X257703700Y-141828700D03*
D16*
X252623700Y-141828700D03*
D15*
X247543700Y-141828700D03*
%TD*%
D14*
%TO.C,K14*%
X353588700Y-120238700D03*
X359938700Y-117698700D03*
D15*
X362478700Y-122778700D03*
D16*
X357398700Y-122778700D03*
D15*
X352318700Y-122778700D03*
%TD*%
D14*
%TO.C,K55*%
X286913700Y-177388700D03*
X293263700Y-174848700D03*
D15*
X295803700Y-179928700D03*
D16*
X290723700Y-179928700D03*
D15*
X285643700Y-179928700D03*
%TD*%
D14*
%TO.C,K44*%
X74982400Y-177388700D03*
X81332400Y-174848700D03*
D15*
X83872400Y-179928700D03*
D16*
X78792400Y-179928700D03*
D15*
X73712400Y-179928700D03*
%TD*%
D14*
%TO.C,K26*%
X286913700Y-139288700D03*
X293263700Y-136748700D03*
D15*
X295803700Y-141828700D03*
D16*
X290723700Y-141828700D03*
D15*
X285643700Y-141828700D03*
%TD*%
D14*
%TO.C,K41*%
X291676200Y-158338700D03*
X298026200Y-155798700D03*
D15*
X300566200Y-160878700D03*
D16*
X295486200Y-160878700D03*
D15*
X290406200Y-160878700D03*
%TD*%
D14*
%TO.C,K17*%
X115463680Y-139288680D03*
X121813680Y-136748680D03*
D15*
X124353680Y-141828680D03*
D16*
X119273680Y-141828680D03*
D15*
X114193680Y-141828680D03*
%TD*%
D14*
%TO.C,K22*%
X210713680Y-139288680D03*
X217063680Y-136748680D03*
D15*
X219603680Y-141828680D03*
D16*
X214523680Y-141828680D03*
D15*
X209443680Y-141828680D03*
%TD*%
D14*
%TO.C,K47*%
X134513680Y-177388680D03*
X140863680Y-174848680D03*
D15*
X143403680Y-179928680D03*
D16*
X138323680Y-179928680D03*
D15*
X133243680Y-179928680D03*
%TD*%
D14*
%TO.C,K65*%
X332157400Y-196438700D03*
X338507400Y-193898700D03*
D15*
X341047400Y-198978700D03*
D16*
X335967400Y-198978700D03*
D15*
X330887400Y-198978700D03*
%TD*%
D14*
%TO.C,K40*%
X272626180Y-158338680D03*
X278976180Y-155798680D03*
D15*
X281516180Y-160878680D03*
D16*
X276436180Y-160878680D03*
D15*
X271356180Y-160878680D03*
%TD*%
D14*
%TO.C,K31*%
X101176180Y-158338680D03*
X107526180Y-155798680D03*
D15*
X110066180Y-160878680D03*
D16*
X104986180Y-160878680D03*
D15*
X99906180Y-160878680D03*
%TD*%
D14*
%TO.C,K27*%
X305963680Y-139288680D03*
X312313680Y-136748680D03*
D15*
X314853680Y-141828680D03*
D16*
X309773680Y-141828680D03*
D15*
X304693680Y-141828680D03*
%TD*%
D21*
%TO.C,D68*%
X79501200Y-99893500D03*
D22*
X82041200Y-99893500D03*
%TD*%
D14*
%TO.C,K54*%
X267863700Y-177388700D03*
X274213700Y-174848700D03*
D15*
X276753700Y-179928700D03*
D16*
X271673700Y-179928700D03*
D15*
X266593700Y-179928700D03*
%TD*%
D14*
%TO.C,K19*%
X153563700Y-139288700D03*
X159913700Y-136748700D03*
D15*
X162453700Y-141828700D03*
D16*
X157373700Y-141828700D03*
D15*
X152293700Y-141828700D03*
%TD*%
D14*
%TO.C,K56*%
X320251200Y-177388700D03*
X326601200Y-174848700D03*
D16*
X335961200Y-188168700D03*
D20*
X335961200Y-172928700D03*
D15*
X329141200Y-179928700D03*
D16*
X324061200Y-179928700D03*
D15*
X318981200Y-179928700D03*
D16*
X312161200Y-188168700D03*
D20*
X312161200Y-172928700D03*
%TD*%
D21*
%TO.C,D67*%
X90855000Y-155443300D03*
D22*
X93395000Y-155443300D03*
%TD*%
D10*
%TO.C,J3*%
X223020000Y-93560000D03*
D11*
X223020000Y-96100000D03*
X220480000Y-93560000D03*
X220480000Y-96100000D03*
X217940000Y-93560000D03*
X217940000Y-96100000D03*
X215400000Y-93560000D03*
X215400000Y-96100000D03*
X212860000Y-93560000D03*
X212860000Y-96100000D03*
X210320000Y-93560000D03*
X210320000Y-96100000D03*
X207780000Y-93560000D03*
X207780000Y-96100000D03*
X205240000Y-93560000D03*
X205240000Y-96100000D03*
%TD*%
D14*
%TO.C,K23*%
X229763700Y-139288700D03*
X236113700Y-136748700D03*
D15*
X238653700Y-141828700D03*
D16*
X233573700Y-141828700D03*
D15*
X228493700Y-141828700D03*
%TD*%
D14*
%TO.C,K57*%
X353588700Y-177388700D03*
X359938700Y-174848700D03*
D15*
X362478700Y-179928700D03*
D16*
X357398700Y-179928700D03*
D15*
X352318700Y-179928700D03*
%TD*%
D14*
%TO.C,K18*%
X134513700Y-139288700D03*
X140863700Y-136748700D03*
D15*
X143403700Y-141828700D03*
D16*
X138323700Y-141828700D03*
D15*
X133243700Y-141828700D03*
%TD*%
D14*
%TO.C,K10*%
X263101200Y-120238700D03*
X269451200Y-117698700D03*
D15*
X271991200Y-122778700D03*
D16*
X266911200Y-122778700D03*
D15*
X261831200Y-122778700D03*
%TD*%
D14*
%TO.C,K34*%
X158326200Y-158338700D03*
X164676200Y-155798700D03*
D15*
X167216200Y-160878700D03*
D16*
X162136200Y-160878700D03*
D15*
X157056200Y-160878700D03*
%TD*%
D14*
%TO.C,K28*%
X332157400Y-148813700D03*
X338507400Y-146273700D03*
D15*
X341047400Y-151353700D03*
D16*
X335967400Y-151353700D03*
D15*
X330887400Y-151353700D03*
%TD*%
D14*
%TO.C,K4*%
X148801200Y-120238700D03*
X155151200Y-117698700D03*
D15*
X157691200Y-122778700D03*
D16*
X152611200Y-122778700D03*
D15*
X147531200Y-122778700D03*
%TD*%
D14*
%TO.C,K12*%
X301201200Y-120238700D03*
X307551200Y-117698700D03*
D15*
X310091200Y-122778700D03*
D16*
X305011200Y-122778700D03*
D15*
X299931200Y-122778700D03*
%TD*%
D14*
%TO.C,K59*%
X98794900Y-196438700D03*
X105144900Y-193898700D03*
D15*
X107684900Y-198978700D03*
D16*
X102604900Y-198978700D03*
D15*
X97524900Y-198978700D03*
%TD*%
D14*
%TO.C,K38*%
X234526200Y-158338700D03*
X240876200Y-155798700D03*
D15*
X243416200Y-160878700D03*
D16*
X238336200Y-160878700D03*
D15*
X233256200Y-160878700D03*
%TD*%
D14*
%TO.C,K32*%
X120226200Y-158338700D03*
X126576200Y-155798700D03*
D15*
X129116200Y-160878700D03*
D16*
X124036200Y-160878700D03*
D15*
X118956200Y-160878700D03*
%TD*%
D14*
%TO.C,K9*%
X244051200Y-120238700D03*
X250401200Y-117698700D03*
D15*
X252941200Y-122778700D03*
D16*
X247861200Y-122778700D03*
D15*
X242781200Y-122778700D03*
%TD*%
D14*
%TO.C,K6*%
X186901200Y-120238700D03*
X193251200Y-117698700D03*
D15*
X195791200Y-122778700D03*
D16*
X190711200Y-122778700D03*
D15*
X185631200Y-122778700D03*
%TD*%
M02*
