M48
; DRILL file {KiCad 7.0.9} date Sunday, November 26, 2023 at 09:00:59 PM
; FORMAT={-:-/ absolute / inch / decimal}
; #@! TF.CreationDate,2023-11-26T21:00:59+00:00
; #@! TF.GenerationSoftware,Kicad,Pcbnew,7.0.9
; #@! TF.FileFunction,Plated,1,2,PTH
FMAT,2
INCH
; #@! TA.AperFunction,Plated,PTH,ViaDrill
T1C0.0157
; #@! TA.AperFunction,Plated,PTH,ComponentDrill
T2C0.0354
; #@! TA.AperFunction,Plated,PTH,ComponentDrill
T3C0.0394
; #@! TA.AperFunction,Plated,PTH,ComponentDrill
T4C0.0591
%
G90
G05
T1
X2.8839Y-3.7051
X2.8845Y-3.7649
X3.8443Y-3.4108
X4.3894Y-3.6085
X4.6454Y-3.9845
X4.8508Y-3.6437
X4.8941Y-3.6437
X4.9539Y-4.6338
X5.0312Y-3.8576
X5.0481Y-6.2745
X5.0504Y-3.7977
X5.0672Y-4.9801
X5.0682Y-4.116
X5.1366Y-4.2402
X5.1379Y-3.5608
X5.1611Y-3.8115
X5.1723Y-3.7026
X5.1735Y-3.4877
X5.1841Y-3.9199
X5.1869Y-4.0244
X5.1957Y-3.7794
X5.1989Y-3.5962
X5.2756Y-3.7402
X5.2828Y-3.934
X5.3729Y-4.0284
X5.3734Y-3.9004
X5.4154Y-3.8671
X5.4415Y-3.6238
X5.4469Y-3.9626
X5.4521Y-3.8876
X5.4847Y-3.6309
X5.4906Y-4.0149
X5.543Y-3.7186
X5.5679Y-3.8376
X5.6045Y-4.2417
X5.6115Y-3.7588
X5.6181Y-4.0945
X5.6199Y-4.2011
X5.6299Y-3.8377
X5.6573Y-3.7576
X5.6608Y-4.0863
X5.7854Y-3.7059
X5.7945Y-5.1394
X5.7986Y-3.537
X6.1889Y-4.2932
X6.2398Y-4.3831
X6.3343Y-4.1925
X6.3737Y-4.4675
X6.4403Y-3.6802
X6.4688Y-4.121
X6.7115Y-4.1183
X7.9444Y-3.6507
X7.9837Y-3.7317
X10.9673Y-3.4928
T2
X3.1063Y-3.5318
X3.13Y-3.9328
X3.1563Y-3.5318
X3.2063Y-3.5318
X3.23Y-3.9328
X3.2563Y-3.5318
X3.577Y-6.1198
X3.677Y-6.1198
T3
X3.6799Y-3.761
X3.7799Y-3.761
X3.8799Y-3.761
X3.9799Y-3.761
X4.0799Y-3.761
X4.1799Y-3.761
X6.6124Y-3.5459
X6.6124Y-3.6459
X6.6124Y-3.7459
X6.7124Y-3.5459
X6.7124Y-3.6459
X6.7124Y-3.7459
X7.2402Y-4.3022
X7.3402Y-4.3022
X7.4402Y-4.3022
X7.5402Y-4.3022
X8.0803Y-3.6835
X8.0803Y-3.7835
X8.1803Y-3.6835
X8.1803Y-3.7835
X8.2803Y-3.6835
X8.2803Y-3.7835
X8.3803Y-3.6835
X8.3803Y-3.7835
X8.4803Y-3.6835
X8.4803Y-3.7835
X8.5803Y-3.6835
X8.5803Y-3.7835
X8.6803Y-3.6835
X8.6803Y-3.7835
X8.7803Y-3.6835
X8.7803Y-3.7835
X9.0059Y-3.8976
X9.1043Y-3.8976
T4
X2.8583Y-4.7338
X2.9521Y-5.4838
X2.9521Y-6.9838
X2.9521Y-7.7338
X3.0458Y-6.2338
X3.1083Y-4.6338
X3.2021Y-5.3838
X3.2021Y-6.8838
X3.2021Y-7.6338
X3.2958Y-6.1338
X3.6083Y-4.7338
X3.7958Y-5.4838
X3.7958Y-6.9838
X3.8583Y-4.6338
X3.8896Y-7.7338
X3.9833Y-6.2338
X4.0458Y-5.3838
X4.0458Y-6.8838
X4.1396Y-7.6338
X4.2333Y-6.1338
X4.3583Y-4.7338
X4.5458Y-5.4838
X4.5458Y-6.9838
X4.6083Y-4.6338
X4.7333Y-6.2338
X4.7958Y-5.3838
X4.7958Y-6.8838
X4.8271Y-7.7338
X4.9833Y-6.1338
X5.0771Y-7.6338
X5.1083Y-4.7338
X5.2958Y-6.9838
X5.2958Y-5.4838
X5.3583Y-4.6338
X5.4833Y-6.2338
X5.5458Y-6.8838
X5.5458Y-5.3838
X5.7333Y-6.1338
X5.8583Y-4.7338
X6.0458Y-5.4838
X6.0458Y-6.9838
X6.1083Y-4.6338
X6.2333Y-6.2338
X6.2958Y-5.3838
X6.2958Y-6.8838
X6.4833Y-6.1338
X6.6083Y-4.7338
X6.7958Y-5.4838
X6.7958Y-6.9838
X6.8583Y-4.6338
X6.9833Y-6.2338
X7.0458Y-5.3838
X7.0458Y-6.8838
X7.2333Y-6.1338
X7.3583Y-4.7338
X7.5458Y-5.4838
X7.5458Y-6.9838
X7.5458Y-7.7338
X7.6083Y-4.6338
X7.7333Y-6.2338
X7.7958Y-5.3838
X7.7958Y-6.8838
X7.7958Y-7.6338
X7.9833Y-6.1338
X8.1083Y-4.7338
X8.2958Y-5.4838
X8.2958Y-6.9838
X8.3583Y-4.6338
X8.4833Y-6.2338
X8.5458Y-5.3838
X8.5458Y-6.8838
X8.7333Y-6.1338
X8.8583Y-4.7338
X9.0458Y-5.4838
X9.0458Y-6.9838
X9.1083Y-4.6338
X9.2333Y-6.2338
X9.2958Y-5.3838
X9.2958Y-6.8838
X9.4833Y-6.1338
X9.6083Y-4.7338
X9.7958Y-5.4838
X9.7958Y-6.9838
X9.8583Y-4.6338
X9.9833Y-6.2338
X10.0458Y-5.3838
X10.0458Y-6.8838
X10.2333Y-6.1338
X10.2646Y-7.7338
X10.3583Y-4.7338
X10.5146Y-7.6338
X10.5458Y-5.4838
X10.5458Y-6.9838
X10.6083Y-4.6338
X10.7333Y-6.2338
X10.7958Y-5.3838
X10.7958Y-6.8838
X10.9833Y-6.1338
X11.1083Y-4.7338
X11.2021Y-7.7338
X11.2958Y-5.4838
X11.2958Y-6.9838
X11.3583Y-4.6338
X11.4521Y-7.6338
X11.4833Y-6.2338
X11.5458Y-5.3838
X11.5458Y-6.8838
X11.7333Y-6.1338
X11.8583Y-4.7338
X12.0458Y-5.4838
X12.1083Y-4.6338
X12.1396Y-7.7338
X12.2333Y-6.2338
X12.2958Y-5.3838
X12.3896Y-7.6338
X12.4833Y-6.1338
X12.6083Y-6.9838
X12.8583Y-6.8838
X12.8896Y-4.7338
X13.0771Y-5.8588
X13.0771Y-7.7338
X13.1396Y-4.6338
X13.3271Y-5.7588
X13.3271Y-7.6338
X13.9208Y-4.7338
X13.9208Y-5.4838
X13.9208Y-6.2338
X13.9208Y-6.9838
X13.9208Y-7.7338
X14.1708Y-4.6338
X14.1708Y-5.3838
X14.1708Y-6.1338
X14.1708Y-6.8838
X14.1708Y-7.6338
T0
M30
