  0
SECTION
  2
HEADER
  9
$ACADVER
  1
AC1009
  9
$FILLMODE
 70
 0
  9
$SPLFRAME
 70
 1
  9
$EXTMIN
 10
0
 20
0
 30
0.0
  9
$EXTMAX
 10
1058.33
 20
1058.33
 30
0.0
  0
ENDSEC
  0
SECTION
  2
TABLES
  0
TABLE
  2
LAYER
 70
1
  0
LAYER
  2
0
 70
     0
 62
     7
  6
CONTINUOUS
  0
ENDTAB
  0
ENDSEC
  0
SECTION
  2
ENTITIES
  0
LINE
  8
0
 62
     0
 10
305.194
 20
134.313
 30
0.0
 11
305.587
 21
134.298
 31
0.0
  0
LINE
  8
0
 62
     0
 10
305.587
 20
134.298
 30
0.0
 11
305.977
 21
134.251
 31
0.0
  0
LINE
  8
0
 62
     0
 10
305.977
 20
134.251
 30
0.0
 11
306.361
 21
134.175
 31
0.0
  0
LINE
  8
0
 62
     0
 10
306.361
 20
134.175
 30
0.0
 11
306.739
 21
134.069
 31
0.0
  0
LINE
  8
0
 62
     0
 10
306.739
 20
134.069
 30
0.0
 11
307.107
 21
133.933
 31
0.0
  0
LINE
  8
0
 62
     0
 10
307.107
 20
133.933
 30
0.0
 11
307.464
 21
133.769
 31
0.0
  0
LINE
  8
0
 62
     0
 10
307.464
 20
133.769
 30
0.0
 11
307.807
 21
133.578
 31
0.0
  0
LINE
  8
0
 62
     0
 10
307.807
 20
133.578
 30
0.0
 11
308.132
 21
133.358
 31
0.0
  0
LINE
  8
0
 62
     0
 10
308.132
 20
133.358
 30
0.0
 11
308.442
 21
133.116
 31
0.0
  0
LINE
  8
0
 62
     0
 10
308.442
 20
133.116
 30
0.0
 11
308.73
 21
132.848
 31
0.0
  0
LINE
  8
0
 62
     0
 10
308.73
 20
132.848
 30
0.0
 11
308.996
 21
132.56
 31
0.0
  0
LINE
  8
0
 62
     0
 10
308.996
 20
132.56
 30
0.0
 11
309.24
 21
132.252
 31
0.0
  0
LINE
  8
0
 62
     0
 10
309.24
 20
132.252
 30
0.0
 11
309.458
 21
131.927
 31
0.0
  0
LINE
  8
0
 62
     0
 10
309.458
 20
131.927
 30
0.0
 11
309.649
 21
131.583
 31
0.0
  0
LINE
  8
0
 62
     0
 10
309.649
 20
131.583
 30
0.0
 11
309.813
 21
131.226
 31
0.0
  0
LINE
  8
0
 62
     0
 10
309.813
 20
131.226
 30
0.0
 11
309.95
 21
130.859
 31
0.0
  0
LINE
  8
0
 62
     0
 10
309.95
 20
130.859
 30
0.0
 11
310.056
 21
130.481
 31
0.0
  0
LINE
  8
0
 62
     0
 10
310.056
 20
130.481
 30
0.0
 11
310.133
 21
130.096
 31
0.0
  0
LINE
  8
0
 62
     0
 10
310.133
 20
130.096
 30
0.0
 11
310.178
 21
129.707
 31
0.0
  0
LINE
  8
0
 62
     0
 10
310.178
 20
129.707
 30
0.0
 11
310.194
 21
129.312
 31
0.0
  0
LINE
  8
0
 62
     0
 10
310.194
 20
129.312
 30
0.0
 11
310.195
 21
5.31372
 31
0.0
  0
LINE
  8
0
 62
     0
 10
310.195
 20
5.31372
 30
0.0
 11
310.178
 21
4.92234
 31
0.0
  0
LINE
  8
0
 62
     0
 10
310.178
 20
4.92234
 30
0.0
 11
310.133
 21
4.53238
 31
0.0
  0
LINE
  8
0
 62
     0
 10
310.133
 20
4.53238
 30
0.0
 11
310.056
 21
4.14651
 31
0.0
  0
LINE
  8
0
 62
     0
 10
310.056
 20
4.14651
 30
0.0
 11
309.95
 21
3.76894
 31
0.0
  0
LINE
  8
0
 62
     0
 10
309.95
 20
3.76894
 30
0.0
 11
309.813
 21
3.401
 31
0.0
  0
LINE
  8
0
 62
     0
 10
309.813
 20
3.401
 30
0.0
 11
309.649
 21
3.04546
 31
0.0
  0
LINE
  8
0
 62
     0
 10
309.649
 20
3.04546
 30
0.0
 11
309.458
 21
2.70233
 31
0.0
  0
LINE
  8
0
 62
     0
 10
309.458
 20
2.70233
 30
0.0
 11
309.24
 21
2.37574
 31
0.0
  0
LINE
  8
0
 62
     0
 10
309.24
 20
2.37574
 30
0.0
 11
308.996
 21
2.06706
 31
0.0
  0
LINE
  8
0
 62
     0
 10
308.996
 20
2.06706
 30
0.0
 11
308.73
 21
1.77905
 31
0.0
  0
LINE
  8
0
 62
     0
 10
308.73
 20
1.77905
 30
0.0
 11
308.442
 21
1.51171
 31
0.0
  0
LINE
  8
0
 62
     0
 10
308.442
 20
1.51171
 30
0.0
 11
308.132
 21
1.26917
 31
0.0
  0
LINE
  8
0
 62
     0
 10
308.132
 20
1.26917
 30
0.0
 11
307.807
 21
1.05144
 31
0.0
  0
LINE
  8
0
 62
     0
 10
307.807
 20
1.05144
 30
0.0
 11
307.464
 21
0.858516
 31
0.0
  0
LINE
  8
0
 62
     0
 10
307.464
 20
0.858516
 30
0.0
 11
307.107
 21
0.694531
 31
0.0
  0
LINE
  8
0
 62
     0
 10
307.107
 20
0.694531
 30
0.0
 11
306.739
 21
0.559484
 31
0.0
  0
LINE
  8
0
 62
     0
 10
306.739
 20
0.559484
 30
0.0
 11
306.361
 21
0.453376
 31
0.0
  0
LINE
  8
0
 62
     0
 10
306.361
 20
0.453376
 30
0.0
 11
305.977
 21
0.376206
 31
0.0
  0
LINE
  8
0
 62
     0
 10
305.977
 20
0.376206
 30
0.0
 11
305.587
 21
0.329351
 31
0.0
  0
LINE
  8
0
 62
     0
 10
305.587
 20
0.329351
 30
0.0
 11
305.194
 21
0.314193
 31
0.0
  0
LINE
  8
0
 62
     0
 10
305.194
 20
0.314193
 30
0.0
 11
5.09598
 21
0.314193
 31
0.0
  0
LINE
  8
0
 62
     0
 10
5.09598
 20
0.314193
 30
0.0
 11
4.70186
 21
0.329351
 31
0.0
  0
LINE
  8
0
 62
     0
 10
4.70186
 20
0.329351
 30
0.0
 11
4.3119
 21
0.376206
 31
0.0
  0
LINE
  8
0
 62
     0
 10
4.3119
 20
0.376206
 30
0.0
 11
3.9274
 21
0.453376
 31
0.0
  0
LINE
  8
0
 62
     0
 10
3.9274
 20
0.453376
 30
0.0
 11
3.54983
 21
0.559484
 31
0.0
  0
LINE
  8
0
 62
     0
 10
3.54983
 20
0.559484
 30
0.0
 11
3.18189
 21
0.694531
 31
0.0
  0
LINE
  8
0
 62
     0
 10
3.18189
 20
0.694531
 30
0.0
 11
2.82498
 21
0.858516
 31
0.0
  0
LINE
  8
0
 62
     0
 10
2.82498
 20
0.858516
 30
0.0
 11
2.48185
 21
1.05144
 31
0.0
  0
LINE
  8
0
 62
     0
 10
2.48185
 20
1.05144
 30
0.0
 11
2.15663
 21
1.26917
 31
0.0
  0
LINE
  8
0
 62
     0
 10
2.15663
 20
1.26917
 30
0.0
 11
1.84795
 21
1.51171
 31
0.0
  0
LINE
  8
0
 62
     0
 10
1.84795
 20
1.51171
 30
0.0
 11
1.55994
 21
1.77905
 31
0.0
  0
LINE
  8
0
 62
     0
 10
1.55994
 20
1.77905
 30
0.0
 11
1.2926
 21
2.06706
 31
0.0
  0
LINE
  8
0
 62
     0
 10
1.2926
 20
2.06706
 30
0.0
 11
1.05006
 21
2.37574
 31
0.0
  0
LINE
  8
0
 62
     0
 10
1.05006
 20
2.37574
 30
0.0
 11
0.830957
 21
2.70233
 31
0.0
  0
LINE
  8
0
 62
     0
 10
0.830957
 20
2.70233
 30
0.0
 11
0.63941
 21
3.04546
 31
0.0
  0
LINE
  8
0
 62
     0
 10
0.63941
 20
3.04546
 30
0.0
 11
0.475424
 21
3.401
 31
0.0
  0
LINE
  8
0
 62
     0
 10
0.475424
 20
3.401
 30
0.0
 11
0.338998
 21
3.76894
 31
0.0
  0
LINE
  8
0
 62
     0
 10
0.338998
 20
3.76894
 30
0.0
 11
0.232888
 21
4.14651
 31
0.0
  0
LINE
  8
0
 62
     0
 10
0.232888
 20
4.14651
 30
0.0
 11
0.157097
 21
4.53238
 31
0.0
  0
LINE
  8
0
 62
     0
 10
0.157097
 20
4.53238
 30
0.0
 11
0.110243
 21
4.92234
 31
0.0
  0
LINE
  8
0
 62
     0
 10
0.110243
 20
4.92234
 30
0.0
 11
0.0950846
 21
5.31509
 31
0.0
  0
LINE
  8
0
 62
     0
 10
0.0950846
 20
5.31509
 30
0.0
 11
0.0950846
 21
129.312
 31
0.0
  0
LINE
  8
0
 62
     0
 10
0.0950846
 20
129.312
 30
0.0
 11
0.110243
 21
129.707
 31
0.0
  0
LINE
  8
0
 62
     0
 10
0.110243
 20
129.707
 30
0.0
 11
0.157097
 21
130.096
 31
0.0
  0
LINE
  8
0
 62
     0
 10
0.157097
 20
130.096
 30
0.0
 11
0.232888
 21
130.481
 31
0.0
  0
LINE
  8
0
 62
     0
 10
0.232888
 20
130.481
 30
0.0
 11
0.338998
 21
130.859
 31
0.0
  0
LINE
  8
0
 62
     0
 10
0.338998
 20
130.859
 30
0.0
 11
0.475424
 21
131.226
 31
0.0
  0
LINE
  8
0
 62
     0
 10
0.475424
 20
131.226
 30
0.0
 11
0.63941
 21
131.583
 31
0.0
  0
LINE
  8
0
 62
     0
 10
0.63941
 20
131.583
 30
0.0
 11
0.830957
 21
131.927
 31
0.0
  0
LINE
  8
0
 62
     0
 10
0.830957
 20
131.927
 30
0.0
 11
1.05006
 21
132.252
 31
0.0
  0
LINE
  8
0
 62
     0
 10
1.05006
 20
132.252
 30
0.0
 11
1.2926
 21
132.56
 31
0.0
  0
LINE
  8
0
 62
     0
 10
1.2926
 20
132.56
 30
0.0
 11
1.55994
 21
132.848
 31
0.0
  0
LINE
  8
0
 62
     0
 10
1.55994
 20
132.848
 30
0.0
 11
1.84795
 21
133.116
 31
0.0
  0
LINE
  8
0
 62
     0
 10
1.84795
 20
133.116
 30
0.0
 11
2.15663
 21
133.358
 31
0.0
  0
LINE
  8
0
 62
     0
 10
2.15663
 20
133.358
 30
0.0
 11
2.48185
 21
133.578
 31
0.0
  0
LINE
  8
0
 62
     0
 10
2.48185
 20
133.578
 30
0.0
 11
2.82498
 21
133.769
 31
0.0
  0
LINE
  8
0
 62
     0
 10
2.82498
 20
133.769
 30
0.0
 11
3.18189
 21
133.933
 31
0.0
  0
LINE
  8
0
 62
     0
 10
3.18189
 20
133.933
 30
0.0
 11
3.54983
 21
134.069
 31
0.0
  0
LINE
  8
0
 62
     0
 10
3.54983
 20
134.069
 30
0.0
 11
3.9274
 21
134.175
 31
0.0
  0
LINE
  8
0
 62
     0
 10
3.9274
 20
134.175
 30
0.0
 11
4.3119
 21
134.251
 31
0.0
  0
LINE
  8
0
 62
     0
 10
4.3119
 20
134.251
 30
0.0
 11
4.70186
 21
134.298
 31
0.0
  0
LINE
  8
0
 62
     0
 10
4.70186
 20
134.298
 30
0.0
 11
5.09598
 21
134.313
 31
0.0
  0
LINE
  8
0
 62
     0
 10
5.09598
 20
134.313
 30
0.0
 11
305.194
 21
134.313
 31
0.0
  0
LINE
  8
0
 62
     0
 10
126.712
 20
21.8405
 30
0.0
 11
126.712
 21
20.8414
 31
0.0
  0
LINE
  8
0
 62
     0
 10
126.712
 20
20.8414
 30
0.0
 11
125.913
 21
20.8414
 31
0.0
  0
LINE
  8
0
 62
     0
 10
125.913
 20
20.8414
 30
0.0
 11
125.913
 21
17.7409
 31
0.0
  0
LINE
  8
0
 62
     0
 10
125.913
 20
17.7409
 30
0.0
 11
126.712
 21
17.7409
 31
0.0
  0
LINE
  8
0
 62
     0
 10
126.712
 20
17.7409
 30
0.0
 11
126.712
 21
17.1414
 31
0.0
  0
LINE
  8
0
 62
     0
 10
126.712
 20
17.1414
 30
0.0
 11
87.0878
 21
17.1414
 31
0.0
  0
LINE
  8
0
 62
     0
 10
87.0878
 20
17.1414
 30
0.0
 11
87.0878
 21
20.3702
 31
0.0
  0
LINE
  8
0
 62
     0
 10
87.0878
 20
20.3702
 30
0.0
 11
85.3627
 21
20.3702
 31
0.0
  0
LINE
  8
0
 62
     0
 10
85.3627
 20
20.3702
 30
0.0
 11
85.3627
 21
21.2907
 31
0.0
  0
LINE
  8
0
 62
     0
 10
85.3627
 20
21.2907
 30
0.0
 11
82.0621
 21
21.2907
 31
0.0
  0
LINE
  8
0
 62
     0
 10
82.0621
 20
21.2907
 30
0.0
 11
82.0621
 21
20.3702
 31
0.0
  0
LINE
  8
0
 62
     0
 10
82.0621
 20
20.3702
 30
0.0
 11
80.337
 21
20.3702
 31
0.0
  0
LINE
  8
0
 62
     0
 10
80.337
 20
20.3702
 30
0.0
 11
80.337
 21
17.1414
 31
0.0
  0
LINE
  8
0
 62
     0
 10
80.337
 20
17.1414
 30
0.0
 11
79.5129
 21
17.1414
 31
0.0
  0
LINE
  8
0
 62
     0
 10
79.5129
 20
17.1414
 30
0.0
 11
79.5129
 21
14.3412
 31
0.0
  0
LINE
  8
0
 62
     0
 10
79.5129
 20
14.3412
 30
0.0
 11
80.337
 21
14.3412
 31
0.0
  0
LINE
  8
0
 62
     0
 10
80.337
 20
14.3412
 30
0.0
 11
80.337
 21
8.06979
 31
0.0
  0
LINE
  8
0
 62
     0
 10
80.337
 20
8.06979
 30
0.0
 11
82.0621
 21
8.06979
 31
0.0
  0
LINE
  8
0
 62
     0
 10
82.0621
 20
8.06979
 30
0.0
 11
82.0621
 21
7.0914
 31
0.0
  0
LINE
  8
0
 62
     0
 10
82.0621
 20
7.0914
 30
0.0
 11
85.3627
 21
7.0914
 31
0.0
  0
LINE
  8
0
 62
     0
 10
85.3627
 20
7.0914
 30
0.0
 11
85.3627
 21
8.06979
 31
0.0
  0
LINE
  8
0
 62
     0
 10
85.3627
 20
8.06979
 30
0.0
 11
87.0878
 21
8.06979
 31
0.0
  0
LINE
  8
0
 62
     0
 10
87.0878
 20
8.06979
 30
0.0
 11
87.0878
 21
12.5415
 31
0.0
  0
LINE
  8
0
 62
     0
 10
87.0878
 20
12.5415
 30
0.0
 11
126.712
 21
12.5415
 31
0.0
  0
LINE
  8
0
 62
     0
 10
126.712
 20
12.5415
 30
0.0
 11
126.712
 21
11.9407
 31
0.0
  0
LINE
  8
0
 62
     0
 10
126.712
 20
11.9407
 30
0.0
 11
125.913
 21
11.9407
 31
0.0
  0
LINE
  8
0
 62
     0
 10
125.913
 20
11.9407
 30
0.0
 11
125.913
 21
8.84149
 31
0.0
  0
LINE
  8
0
 62
     0
 10
125.913
 20
8.84149
 30
0.0
 11
126.712
 21
8.84149
 31
0.0
  0
LINE
  8
0
 62
     0
 10
126.712
 20
8.84149
 30
0.0
 11
126.712
 21
7.84105
 31
0.0
  0
LINE
  8
0
 62
     0
 10
126.712
 20
7.84105
 30
0.0
 11
140.713
 21
7.84105
 31
0.0
  0
LINE
  8
0
 62
     0
 10
140.713
 20
7.84105
 30
0.0
 11
140.713
 21
8.84149
 31
0.0
  0
LINE
  8
0
 62
     0
 10
140.713
 20
8.84149
 30
0.0
 11
141.512
 21
8.84149
 31
0.0
  0
LINE
  8
0
 62
     0
 10
141.512
 20
8.84149
 30
0.0
 11
141.512
 21
11.9407
 31
0.0
  0
LINE
  8
0
 62
     0
 10
141.512
 20
11.9407
 30
0.0
 11
140.713
 21
11.9407
 31
0.0
  0
LINE
  8
0
 62
     0
 10
140.713
 20
11.9407
 30
0.0
 11
140.713
 21
12.5415
 31
0.0
  0
LINE
  8
0
 62
     0
 10
140.713
 20
12.5415
 30
0.0
 11
180.337
 21
12.5415
 31
0.0
  0
LINE
  8
0
 62
     0
 10
180.337
 20
12.5415
 30
0.0
 11
180.337
 21
8.06979
 31
0.0
  0
LINE
  8
0
 62
     0
 10
180.337
 20
8.06979
 30
0.0
 11
182.062
 21
8.06979
 31
0.0
  0
LINE
  8
0
 62
     0
 10
182.062
 20
8.06979
 30
0.0
 11
182.062
 21
7.0914
 31
0.0
  0
LINE
  8
0
 62
     0
 10
182.062
 20
7.0914
 30
0.0
 11
185.363
 21
7.0914
 31
0.0
  0
LINE
  8
0
 62
     0
 10
185.363
 20
7.0914
 30
0.0
 11
185.363
 21
8.06979
 31
0.0
  0
LINE
  8
0
 62
     0
 10
185.363
 20
8.06979
 30
0.0
 11
187.088
 21
8.06979
 31
0.0
  0
LINE
  8
0
 62
     0
 10
187.088
 20
8.06979
 30
0.0
 11
187.088
 21
14.3412
 31
0.0
  0
LINE
  8
0
 62
     0
 10
187.088
 20
14.3412
 30
0.0
 11
187.912
 21
14.3412
 31
0.0
  0
LINE
  8
0
 62
     0
 10
187.912
 20
14.3412
 30
0.0
 11
187.912
 21
17.1414
 31
0.0
  0
LINE
  8
0
 62
     0
 10
187.912
 20
17.1414
 30
0.0
 11
187.088
 21
17.1414
 31
0.0
  0
LINE
  8
0
 62
     0
 10
187.088
 20
17.1414
 30
0.0
 11
187.088
 21
20.3702
 31
0.0
  0
LINE
  8
0
 62
     0
 10
187.088
 20
20.3702
 30
0.0
 11
185.363
 21
20.3702
 31
0.0
  0
LINE
  8
0
 62
     0
 10
185.363
 20
20.3702
 30
0.0
 11
185.363
 21
21.2907
 31
0.0
  0
LINE
  8
0
 62
     0
 10
185.363
 20
21.2907
 30
0.0
 11
182.062
 21
21.2907
 31
0.0
  0
LINE
  8
0
 62
     0
 10
182.062
 20
21.2907
 30
0.0
 11
182.062
 21
20.3702
 31
0.0
  0
LINE
  8
0
 62
     0
 10
182.062
 20
20.3702
 30
0.0
 11
180.337
 21
20.3702
 31
0.0
  0
LINE
  8
0
 62
     0
 10
180.337
 20
20.3702
 30
0.0
 11
180.337
 21
17.1414
 31
0.0
  0
LINE
  8
0
 62
     0
 10
180.337
 20
17.1414
 30
0.0
 11
140.713
 21
17.1414
 31
0.0
  0
LINE
  8
0
 62
     0
 10
140.713
 20
17.1414
 30
0.0
 11
140.713
 21
17.7409
 31
0.0
  0
LINE
  8
0
 62
     0
 10
140.713
 20
17.7409
 30
0.0
 11
141.512
 21
17.7409
 31
0.0
  0
LINE
  8
0
 62
     0
 10
141.512
 20
17.7409
 30
0.0
 11
141.512
 21
20.8414
 31
0.0
  0
LINE
  8
0
 62
     0
 10
141.512
 20
20.8414
 30
0.0
 11
140.713
 21
20.8414
 31
0.0
  0
LINE
  8
0
 62
     0
 10
140.713
 20
20.8414
 30
0.0
 11
140.713
 21
21.8405
 31
0.0
  0
LINE
  8
0
 62
     0
 10
140.713
 20
21.8405
 30
0.0
 11
126.712
 21
21.8405
 31
0.0
  0
LINE
  8
0
 62
     0
 10
7.65087
 20
21.8405
 30
0.0
 11
7.65087
 21
20.8414
 31
0.0
  0
LINE
  8
0
 62
     0
 10
7.65087
 20
20.8414
 30
0.0
 11
6.85024
 21
20.8414
 31
0.0
  0
LINE
  8
0
 62
     0
 10
6.85024
 20
20.8414
 30
0.0
 11
6.85024
 21
17.7409
 31
0.0
  0
LINE
  8
0
 62
     0
 10
6.85024
 20
17.7409
 30
0.0
 11
7.65087
 21
17.7409
 31
0.0
  0
LINE
  8
0
 62
     0
 10
7.65087
 20
17.7409
 30
0.0
 11
7.65087
 21
11.9407
 31
0.0
  0
LINE
  8
0
 62
     0
 10
7.65087
 20
11.9407
 30
0.0
 11
6.85024
 21
11.9407
 31
0.0
  0
LINE
  8
0
 62
     0
 10
6.85024
 20
11.9407
 30
0.0
 11
6.85024
 21
8.84149
 31
0.0
  0
LINE
  8
0
 62
     0
 10
6.85024
 20
8.84149
 30
0.0
 11
7.65087
 21
8.84149
 31
0.0
  0
LINE
  8
0
 62
     0
 10
7.65087
 20
8.84149
 30
0.0
 11
7.65087
 21
7.84105
 31
0.0
  0
LINE
  8
0
 62
     0
 10
7.65087
 20
7.84105
 30
0.0
 11
21.6504
 21
7.84105
 31
0.0
  0
LINE
  8
0
 62
     0
 10
21.6504
 20
7.84105
 30
0.0
 11
21.6504
 21
8.84149
 31
0.0
  0
LINE
  8
0
 62
     0
 10
21.6504
 20
8.84149
 30
0.0
 11
22.451
 21
8.84149
 31
0.0
  0
LINE
  8
0
 62
     0
 10
22.451
 20
8.84149
 30
0.0
 11
22.451
 21
11.9407
 31
0.0
  0
LINE
  8
0
 62
     0
 10
22.451
 20
11.9407
 30
0.0
 11
21.6504
 21
11.9407
 31
0.0
  0
LINE
  8
0
 62
     0
 10
21.6504
 20
11.9407
 30
0.0
 11
21.6504
 21
17.7409
 31
0.0
  0
LINE
  8
0
 62
     0
 10
21.6504
 20
17.7409
 30
0.0
 11
22.451
 21
17.7409
 31
0.0
  0
LINE
  8
0
 62
     0
 10
22.451
 20
17.7409
 30
0.0
 11
22.451
 21
20.8414
 31
0.0
  0
LINE
  8
0
 62
     0
 10
22.451
 20
20.8414
 30
0.0
 11
21.6504
 21
20.8414
 31
0.0
  0
LINE
  8
0
 62
     0
 10
21.6504
 20
20.8414
 30
0.0
 11
21.6504
 21
21.8405
 31
0.0
  0
LINE
  8
0
 62
     0
 10
21.6504
 20
21.8405
 30
0.0
 11
7.65087
 21
21.8405
 31
0.0
  0
LINE
  8
0
 62
     0
 10
31.462
 20
21.8405
 30
0.0
 11
31.462
 21
20.8414
 31
0.0
  0
LINE
  8
0
 62
     0
 10
31.462
 20
20.8414
 30
0.0
 11
30.6627
 21
20.8414
 31
0.0
  0
LINE
  8
0
 62
     0
 10
30.6627
 20
20.8414
 30
0.0
 11
30.6627
 21
17.7409
 31
0.0
  0
LINE
  8
0
 62
     0
 10
30.6627
 20
17.7409
 30
0.0
 11
31.462
 21
17.7409
 31
0.0
  0
LINE
  8
0
 62
     0
 10
31.462
 20
17.7409
 30
0.0
 11
31.462
 21
11.9407
 31
0.0
  0
LINE
  8
0
 62
     0
 10
31.462
 20
11.9407
 30
0.0
 11
30.6627
 21
11.9407
 31
0.0
  0
LINE
  8
0
 62
     0
 10
30.6627
 20
11.9407
 30
0.0
 11
30.6627
 21
8.84149
 31
0.0
  0
LINE
  8
0
 62
     0
 10
30.6627
 20
8.84149
 30
0.0
 11
31.462
 21
8.84149
 31
0.0
  0
LINE
  8
0
 62
     0
 10
31.462
 20
8.84149
 30
0.0
 11
31.462
 21
7.84105
 31
0.0
  0
LINE
  8
0
 62
     0
 10
31.462
 20
7.84105
 30
0.0
 11
45.4628
 21
7.84105
 31
0.0
  0
LINE
  8
0
 62
     0
 10
45.4628
 20
7.84105
 30
0.0
 11
45.4628
 21
8.84149
 31
0.0
  0
LINE
  8
0
 62
     0
 10
45.4628
 20
8.84149
 30
0.0
 11
46.2622
 21
8.84149
 31
0.0
  0
LINE
  8
0
 62
     0
 10
46.2622
 20
8.84149
 30
0.0
 11
46.2622
 21
11.9407
 31
0.0
  0
LINE
  8
0
 62
     0
 10
46.2622
 20
11.9407
 30
0.0
 11
45.4628
 21
11.9407
 31
0.0
  0
LINE
  8
0
 62
     0
 10
45.4628
 20
11.9407
 30
0.0
 11
45.4628
 21
17.7409
 31
0.0
  0
LINE
  8
0
 62
     0
 10
45.4628
 20
17.7409
 30
0.0
 11
46.2622
 21
17.7409
 31
0.0
  0
LINE
  8
0
 62
     0
 10
46.2622
 20
17.7409
 30
0.0
 11
46.2622
 21
20.8414
 31
0.0
  0
LINE
  8
0
 62
     0
 10
46.2622
 20
20.8414
 30
0.0
 11
45.4628
 21
20.8414
 31
0.0
  0
LINE
  8
0
 62
     0
 10
45.4628
 20
20.8414
 30
0.0
 11
45.4628
 21
21.8405
 31
0.0
  0
LINE
  8
0
 62
     0
 10
45.4628
 20
21.8405
 30
0.0
 11
31.462
 21
21.8405
 31
0.0
  0
LINE
  8
0
 62
     0
 10
55.276
 20
21.8405
 30
0.0
 11
55.276
 21
20.8414
 31
0.0
  0
LINE
  8
0
 62
     0
 10
55.276
 20
20.8414
 30
0.0
 11
54.4752
 21
20.8414
 31
0.0
  0
LINE
  8
0
 62
     0
 10
54.4752
 20
20.8414
 30
0.0
 11
54.4752
 21
17.7409
 31
0.0
  0
LINE
  8
0
 62
     0
 10
54.4752
 20
17.7409
 30
0.0
 11
55.276
 21
17.7409
 31
0.0
  0
LINE
  8
0
 62
     0
 10
55.276
 20
17.7409
 30
0.0
 11
55.276
 21
11.9407
 31
0.0
  0
LINE
  8
0
 62
     0
 10
55.276
 20
11.9407
 30
0.0
 11
54.4752
 21
11.9407
 31
0.0
  0
LINE
  8
0
 62
     0
 10
54.4752
 20
11.9407
 30
0.0
 11
54.4752
 21
8.84149
 31
0.0
  0
LINE
  8
0
 62
     0
 10
54.4752
 20
8.84149
 30
0.0
 11
55.276
 21
8.84149
 31
0.0
  0
LINE
  8
0
 62
     0
 10
55.276
 20
8.84149
 30
0.0
 11
55.276
 21
7.84105
 31
0.0
  0
LINE
  8
0
 62
     0
 10
55.276
 20
7.84105
 30
0.0
 11
69.2753
 21
7.84105
 31
0.0
  0
LINE
  8
0
 62
     0
 10
69.2753
 20
7.84105
 30
0.0
 11
69.2753
 21
8.84149
 31
0.0
  0
LINE
  8
0
 62
     0
 10
69.2753
 20
8.84149
 30
0.0
 11
70.0761
 21
8.84149
 31
0.0
  0
LINE
  8
0
 62
     0
 10
70.0761
 20
8.84149
 30
0.0
 11
70.0761
 21
11.9407
 31
0.0
  0
LINE
  8
0
 62
     0
 10
70.0761
 20
11.9407
 30
0.0
 11
69.2753
 21
11.9407
 31
0.0
  0
LINE
  8
0
 62
     0
 10
69.2753
 20
11.9407
 30
0.0
 11
69.2753
 21
17.7409
 31
0.0
  0
LINE
  8
0
 62
     0
 10
69.2753
 20
17.7409
 30
0.0
 11
70.0761
 21
17.7409
 31
0.0
  0
LINE
  8
0
 62
     0
 10
70.0761
 20
17.7409
 30
0.0
 11
70.0761
 21
20.8414
 31
0.0
  0
LINE
  8
0
 62
     0
 10
70.0761
 20
20.8414
 30
0.0
 11
69.2753
 21
20.8414
 31
0.0
  0
LINE
  8
0
 62
     0
 10
69.2753
 20
20.8414
 30
0.0
 11
69.2753
 21
21.8405
 31
0.0
  0
LINE
  8
0
 62
     0
 10
69.2753
 20
21.8405
 30
0.0
 11
55.276
 21
21.8405
 31
0.0
  0
LINE
  8
0
 62
     0
 10
198.151
 20
21.8405
 30
0.0
 11
198.151
 21
20.8414
 31
0.0
  0
LINE
  8
0
 62
     0
 10
198.151
 20
20.8414
 30
0.0
 11
197.35
 21
20.8414
 31
0.0
  0
LINE
  8
0
 62
     0
 10
197.35
 20
20.8414
 30
0.0
 11
197.35
 21
17.7409
 31
0.0
  0
LINE
  8
0
 62
     0
 10
197.35
 20
17.7409
 30
0.0
 11
198.151
 21
17.7409
 31
0.0
  0
LINE
  8
0
 62
     0
 10
198.151
 20
17.7409
 30
0.0
 11
198.151
 21
11.9407
 31
0.0
  0
LINE
  8
0
 62
     0
 10
198.151
 20
11.9407
 30
0.0
 11
197.35
 21
11.9407
 31
0.0
  0
LINE
  8
0
 62
     0
 10
197.35
 20
11.9407
 30
0.0
 11
197.35
 21
8.84149
 31
0.0
  0
LINE
  8
0
 62
     0
 10
197.35
 20
8.84149
 30
0.0
 11
198.151
 21
8.84149
 31
0.0
  0
LINE
  8
0
 62
     0
 10
198.151
 20
8.84149
 30
0.0
 11
198.151
 21
7.84105
 31
0.0
  0
LINE
  8
0
 62
     0
 10
198.151
 20
7.84105
 30
0.0
 11
212.15
 21
7.84105
 31
0.0
  0
LINE
  8
0
 62
     0
 10
212.15
 20
7.84105
 30
0.0
 11
212.15
 21
8.84149
 31
0.0
  0
LINE
  8
0
 62
     0
 10
212.15
 20
8.84149
 30
0.0
 11
212.951
 21
8.84149
 31
0.0
  0
LINE
  8
0
 62
     0
 10
212.951
 20
8.84149
 30
0.0
 11
212.951
 21
11.9407
 31
0.0
  0
LINE
  8
0
 62
     0
 10
212.951
 20
11.9407
 30
0.0
 11
212.15
 21
11.9407
 31
0.0
  0
LINE
  8
0
 62
     0
 10
212.15
 20
11.9407
 30
0.0
 11
212.15
 21
17.7409
 31
0.0
  0
LINE
  8
0
 62
     0
 10
212.15
 20
17.7409
 30
0.0
 11
212.951
 21
17.7409
 31
0.0
  0
LINE
  8
0
 62
     0
 10
212.951
 20
17.7409
 30
0.0
 11
212.951
 21
20.8414
 31
0.0
  0
LINE
  8
0
 62
     0
 10
212.951
 20
20.8414
 30
0.0
 11
212.15
 21
20.8414
 31
0.0
  0
LINE
  8
0
 62
     0
 10
212.15
 20
20.8414
 30
0.0
 11
212.15
 21
21.8405
 31
0.0
  0
LINE
  8
0
 62
     0
 10
212.15
 20
21.8405
 30
0.0
 11
198.151
 21
21.8405
 31
0.0
  0
LINE
  8
0
 62
     0
 10
221.772
 20
21.8405
 30
0.0
 11
221.772
 21
20.8414
 31
0.0
  0
LINE
  8
0
 62
     0
 10
221.772
 20
20.8414
 30
0.0
 11
220.973
 21
20.8414
 31
0.0
  0
LINE
  8
0
 62
     0
 10
220.973
 20
20.8414
 30
0.0
 11
220.973
 21
17.7409
 31
0.0
  0
LINE
  8
0
 62
     0
 10
220.973
 20
17.7409
 30
0.0
 11
221.772
 21
17.7409
 31
0.0
  0
LINE
  8
0
 62
     0
 10
221.772
 20
17.7409
 30
0.0
 11
221.772
 21
11.9407
 31
0.0
  0
LINE
  8
0
 62
     0
 10
221.772
 20
11.9407
 30
0.0
 11
220.973
 21
11.9407
 31
0.0
  0
LINE
  8
0
 62
     0
 10
220.973
 20
11.9407
 30
0.0
 11
220.973
 21
8.84149
 31
0.0
  0
LINE
  8
0
 62
     0
 10
220.973
 20
8.84149
 30
0.0
 11
221.772
 21
8.84149
 31
0.0
  0
LINE
  8
0
 62
     0
 10
221.772
 20
8.84149
 30
0.0
 11
221.772
 21
7.84105
 31
0.0
  0
LINE
  8
0
 62
     0
 10
221.772
 20
7.84105
 30
0.0
 11
235.773
 21
7.84105
 31
0.0
  0
LINE
  8
0
 62
     0
 10
235.773
 20
7.84105
 30
0.0
 11
235.773
 21
8.84149
 31
0.0
  0
LINE
  8
0
 62
     0
 10
235.773
 20
8.84149
 30
0.0
 11
236.572
 21
8.84149
 31
0.0
  0
LINE
  8
0
 62
     0
 10
236.572
 20
8.84149
 30
0.0
 11
236.572
 21
11.9407
 31
0.0
  0
LINE
  8
0
 62
     0
 10
236.572
 20
11.9407
 30
0.0
 11
235.773
 21
11.9407
 31
0.0
  0
LINE
  8
0
 62
     0
 10
235.773
 20
11.9407
 30
0.0
 11
235.773
 21
17.7409
 31
0.0
  0
LINE
  8
0
 62
     0
 10
235.773
 20
17.7409
 30
0.0
 11
236.572
 21
17.7409
 31
0.0
  0
LINE
  8
0
 62
     0
 10
236.572
 20
17.7409
 30
0.0
 11
236.572
 21
20.8414
 31
0.0
  0
LINE
  8
0
 62
     0
 10
236.572
 20
20.8414
 30
0.0
 11
235.773
 21
20.8414
 31
0.0
  0
LINE
  8
0
 62
     0
 10
235.773
 20
20.8414
 30
0.0
 11
235.773
 21
21.8405
 31
0.0
  0
LINE
  8
0
 62
     0
 10
235.773
 20
21.8405
 30
0.0
 11
221.772
 21
21.8405
 31
0.0
  0
LINE
  8
0
 62
     0
 10
245.776
 20
21.8405
 30
0.0
 11
245.776
 21
20.8414
 31
0.0
  0
LINE
  8
0
 62
     0
 10
245.776
 20
20.8414
 30
0.0
 11
244.975
 21
20.8414
 31
0.0
  0
LINE
  8
0
 62
     0
 10
244.975
 20
20.8414
 30
0.0
 11
244.975
 21
17.7409
 31
0.0
  0
LINE
  8
0
 62
     0
 10
244.975
 20
17.7409
 30
0.0
 11
245.776
 21
17.7409
 31
0.0
  0
LINE
  8
0
 62
     0
 10
245.776
 20
17.7409
 30
0.0
 11
245.776
 21
11.9407
 31
0.0
  0
LINE
  8
0
 62
     0
 10
245.776
 20
11.9407
 30
0.0
 11
244.975
 21
11.9407
 31
0.0
  0
LINE
  8
0
 62
     0
 10
244.975
 20
11.9407
 30
0.0
 11
244.975
 21
8.84149
 31
0.0
  0
LINE
  8
0
 62
     0
 10
244.975
 20
8.84149
 30
0.0
 11
245.776
 21
8.84149
 31
0.0
  0
LINE
  8
0
 62
     0
 10
245.776
 20
8.84149
 30
0.0
 11
245.776
 21
7.84105
 31
0.0
  0
LINE
  8
0
 62
     0
 10
245.776
 20
7.84105
 30
0.0
 11
259.775
 21
7.84105
 31
0.0
  0
LINE
  8
0
 62
     0
 10
259.775
 20
7.84105
 30
0.0
 11
259.775
 21
8.84149
 31
0.0
  0
LINE
  8
0
 62
     0
 10
259.775
 20
8.84149
 30
0.0
 11
260.576
 21
8.84149
 31
0.0
  0
LINE
  8
0
 62
     0
 10
260.576
 20
8.84149
 30
0.0
 11
260.576
 21
11.9407
 31
0.0
  0
LINE
  8
0
 62
     0
 10
260.576
 20
11.9407
 30
0.0
 11
259.775
 21
11.9407
 31
0.0
  0
LINE
  8
0
 62
     0
 10
259.775
 20
11.9407
 30
0.0
 11
259.775
 21
17.7409
 31
0.0
  0
LINE
  8
0
 62
     0
 10
259.775
 20
17.7409
 30
0.0
 11
260.576
 21
17.7409
 31
0.0
  0
LINE
  8
0
 62
     0
 10
260.576
 20
17.7409
 30
0.0
 11
260.576
 21
20.8414
 31
0.0
  0
LINE
  8
0
 62
     0
 10
260.576
 20
20.8414
 30
0.0
 11
259.775
 21
20.8414
 31
0.0
  0
LINE
  8
0
 62
     0
 10
259.775
 20
20.8414
 30
0.0
 11
259.775
 21
21.8405
 31
0.0
  0
LINE
  8
0
 62
     0
 10
259.775
 20
21.8405
 30
0.0
 11
245.776
 21
21.8405
 31
0.0
  0
LINE
  8
0
 62
     0
 10
269.397
 20
21.8405
 30
0.0
 11
269.397
 21
20.8414
 31
0.0
  0
LINE
  8
0
 62
     0
 10
269.397
 20
20.8414
 30
0.0
 11
268.598
 21
20.8414
 31
0.0
  0
LINE
  8
0
 62
     0
 10
268.598
 20
20.8414
 30
0.0
 11
268.598
 21
17.7409
 31
0.0
  0
LINE
  8
0
 62
     0
 10
268.598
 20
17.7409
 30
0.0
 11
269.397
 21
17.7409
 31
0.0
  0
LINE
  8
0
 62
     0
 10
269.397
 20
17.7409
 30
0.0
 11
269.397
 21
11.9407
 31
0.0
  0
LINE
  8
0
 62
     0
 10
269.397
 20
11.9407
 30
0.0
 11
268.598
 21
11.9407
 31
0.0
  0
LINE
  8
0
 62
     0
 10
268.598
 20
11.9407
 30
0.0
 11
268.598
 21
8.84149
 31
0.0
  0
LINE
  8
0
 62
     0
 10
268.598
 20
8.84149
 30
0.0
 11
269.397
 21
8.84149
 31
0.0
  0
LINE
  8
0
 62
     0
 10
269.397
 20
8.84149
 30
0.0
 11
269.397
 21
7.84105
 31
0.0
  0
LINE
  8
0
 62
     0
 10
269.397
 20
7.84105
 30
0.0
 11
283.398
 21
7.84105
 31
0.0
  0
LINE
  8
0
 62
     0
 10
283.398
 20
7.84105
 30
0.0
 11
283.398
 21
8.84149
 31
0.0
  0
LINE
  8
0
 62
     0
 10
283.398
 20
8.84149
 30
0.0
 11
284.197
 21
8.84149
 31
0.0
  0
LINE
  8
0
 62
     0
 10
284.197
 20
8.84149
 30
0.0
 11
284.197
 21
11.9407
 31
0.0
  0
LINE
  8
0
 62
     0
 10
284.197
 20
11.9407
 30
0.0
 11
283.398
 21
11.9407
 31
0.0
  0
LINE
  8
0
 62
     0
 10
283.398
 20
11.9407
 30
0.0
 11
283.398
 21
17.7409
 31
0.0
  0
LINE
  8
0
 62
     0
 10
283.398
 20
17.7409
 30
0.0
 11
284.197
 21
17.7409
 31
0.0
  0
LINE
  8
0
 62
     0
 10
284.197
 20
17.7409
 30
0.0
 11
284.197
 21
20.8414
 31
0.0
  0
LINE
  8
0
 62
     0
 10
284.197
 20
20.8414
 30
0.0
 11
283.398
 21
20.8414
 31
0.0
  0
LINE
  8
0
 62
     0
 10
283.398
 20
20.8414
 30
0.0
 11
283.398
 21
21.8405
 31
0.0
  0
LINE
  8
0
 62
     0
 10
283.398
 20
21.8405
 30
0.0
 11
269.397
 21
21.8405
 31
0.0
  0
LINE
  8
0
 62
     0
 10
291.02
 20
21.8405
 30
0.0
 11
291.02
 21
20.8414
 31
0.0
  0
LINE
  8
0
 62
     0
 10
291.02
 20
20.8414
 30
0.0
 11
290.219
 21
20.8414
 31
0.0
  0
LINE
  8
0
 62
     0
 10
290.219
 20
20.8414
 30
0.0
 11
290.219
 21
17.7409
 31
0.0
  0
LINE
  8
0
 62
     0
 10
290.219
 20
17.7409
 30
0.0
 11
291.02
 21
17.7409
 31
0.0
  0
LINE
  8
0
 62
     0
 10
291.02
 20
17.7409
 30
0.0
 11
291.02
 21
11.9407
 31
0.0
  0
LINE
  8
0
 62
     0
 10
291.02
 20
11.9407
 30
0.0
 11
290.219
 21
11.9407
 31
0.0
  0
LINE
  8
0
 62
     0
 10
290.219
 20
11.9407
 30
0.0
 11
290.219
 21
8.84149
 31
0.0
  0
LINE
  8
0
 62
     0
 10
290.219
 20
8.84149
 30
0.0
 11
291.02
 21
8.84149
 31
0.0
  0
LINE
  8
0
 62
     0
 10
291.02
 20
8.84149
 30
0.0
 11
291.02
 21
7.84105
 31
0.0
  0
LINE
  8
0
 62
     0
 10
291.02
 20
7.84105
 30
0.0
 11
305.019
 21
7.84105
 31
0.0
  0
LINE
  8
0
 62
     0
 10
305.019
 20
7.84105
 30
0.0
 11
305.019
 21
8.84149
 31
0.0
  0
LINE
  8
0
 62
     0
 10
305.019
 20
8.84149
 30
0.0
 11
305.82
 21
8.84149
 31
0.0
  0
LINE
  8
0
 62
     0
 10
305.82
 20
8.84149
 30
0.0
 11
305.82
 21
11.9407
 31
0.0
  0
LINE
  8
0
 62
     0
 10
305.82
 20
11.9407
 30
0.0
 11
305.019
 21
11.9407
 31
0.0
  0
LINE
  8
0
 62
     0
 10
305.019
 20
11.9407
 30
0.0
 11
305.019
 21
17.7409
 31
0.0
  0
LINE
  8
0
 62
     0
 10
305.019
 20
17.7409
 30
0.0
 11
305.82
 21
17.7409
 31
0.0
  0
LINE
  8
0
 62
     0
 10
305.82
 20
17.7409
 30
0.0
 11
305.82
 21
20.8414
 31
0.0
  0
LINE
  8
0
 62
     0
 10
305.82
 20
20.8414
 30
0.0
 11
305.019
 21
20.8414
 31
0.0
  0
LINE
  8
0
 62
     0
 10
305.019
 20
20.8414
 30
0.0
 11
305.019
 21
21.8405
 31
0.0
  0
LINE
  8
0
 62
     0
 10
305.019
 20
21.8405
 30
0.0
 11
291.02
 21
21.8405
 31
0.0
  0
LINE
  8
0
 62
     0
 10
255.3
 20
40.8905
 30
0.0
 11
255.3
 21
39.8914
 31
0.0
  0
LINE
  8
0
 62
     0
 10
255.3
 20
39.8914
 30
0.0
 11
254.499
 21
39.8914
 31
0.0
  0
LINE
  8
0
 62
     0
 10
254.499
 20
39.8914
 30
0.0
 11
254.499
 21
36.7908
 31
0.0
  0
LINE
  8
0
 62
     0
 10
254.499
 20
36.7908
 30
0.0
 11
255.3
 21
36.7908
 31
0.0
  0
LINE
  8
0
 62
     0
 10
255.3
 20
36.7908
 30
0.0
 11
255.3
 21
36.1915
 31
0.0
  0
LINE
  8
0
 62
     0
 10
255.3
 20
36.1915
 30
0.0
 11
253.775
 21
36.1915
 31
0.0
  0
LINE
  8
0
 62
     0
 10
253.775
 20
36.1915
 30
0.0
 11
253.775
 21
39.4201
 31
0.0
  0
LINE
  8
0
 62
     0
 10
253.775
 20
39.4201
 30
0.0
 11
252.05
 21
39.4201
 31
0.0
  0
LINE
  8
0
 62
     0
 10
252.05
 20
39.4201
 30
0.0
 11
252.05
 21
40.3408
 31
0.0
  0
LINE
  8
0
 62
     0
 10
252.05
 20
40.3408
 30
0.0
 11
248.751
 21
40.3408
 31
0.0
  0
LINE
  8
0
 62
     0
 10
248.751
 20
40.3408
 30
0.0
 11
248.751
 21
39.4201
 31
0.0
  0
LINE
  8
0
 62
     0
 10
248.751
 20
39.4201
 30
0.0
 11
247.026
 21
39.4201
 31
0.0
  0
LINE
  8
0
 62
     0
 10
247.026
 20
39.4201
 30
0.0
 11
247.026
 21
36.1915
 31
0.0
  0
LINE
  8
0
 62
     0
 10
247.026
 20
36.1915
 30
0.0
 11
246.2
 21
36.1915
 31
0.0
  0
LINE
  8
0
 62
     0
 10
246.2
 20
36.1915
 30
0.0
 11
246.2
 21
33.3912
 31
0.0
  0
LINE
  8
0
 62
     0
 10
246.2
 20
33.3912
 30
0.0
 11
247.026
 21
33.3912
 31
0.0
  0
LINE
  8
0
 62
     0
 10
247.026
 20
33.3912
 30
0.0
 11
247.026
 21
27.1212
 31
0.0
  0
LINE
  8
0
 62
     0
 10
247.026
 20
27.1212
 30
0.0
 11
248.751
 21
27.1212
 31
0.0
  0
LINE
  8
0
 62
     0
 10
248.751
 20
27.1212
 30
0.0
 11
248.751
 21
26.1414
 31
0.0
  0
LINE
  8
0
 62
     0
 10
248.751
 20
26.1414
 30
0.0
 11
252.05
 21
26.1414
 31
0.0
  0
LINE
  8
0
 62
     0
 10
252.05
 20
26.1414
 30
0.0
 11
252.05
 21
27.1212
 31
0.0
  0
LINE
  8
0
 62
     0
 10
252.05
 20
27.1212
 30
0.0
 11
253.775
 21
27.1212
 31
0.0
  0
LINE
  8
0
 62
     0
 10
253.775
 20
27.1212
 30
0.0
 11
253.775
 21
31.5915
 31
0.0
  0
LINE
  8
0
 62
     0
 10
253.775
 20
31.5915
 30
0.0
 11
255.3
 21
31.5915
 31
0.0
  0
LINE
  8
0
 62
     0
 10
255.3
 20
31.5915
 30
0.0
 11
255.3
 21
30.9893
 31
0.0
  0
LINE
  8
0
 62
     0
 10
255.3
 20
30.9893
 30
0.0
 11
254.499
 21
30.9893
 31
0.0
  0
LINE
  8
0
 62
     0
 10
254.499
 20
30.9893
 30
0.0
 11
254.499
 21
27.8915
 31
0.0
  0
LINE
  8
0
 62
     0
 10
254.499
 20
27.8915
 30
0.0
 11
255.3
 21
27.8915
 31
0.0
  0
LINE
  8
0
 62
     0
 10
255.3
 20
27.8915
 30
0.0
 11
255.3
 21
26.8911
 31
0.0
  0
LINE
  8
0
 62
     0
 10
255.3
 20
26.8911
 30
0.0
 11
269.3
 21
26.8911
 31
0.0
  0
LINE
  8
0
 62
     0
 10
269.3
 20
26.8911
 30
0.0
 11
269.3
 21
27.8915
 31
0.0
  0
LINE
  8
0
 62
     0
 10
269.3
 20
27.8915
 30
0.0
 11
270.101
 21
27.8915
 31
0.0
  0
LINE
  8
0
 62
     0
 10
270.101
 20
27.8915
 30
0.0
 11
270.101
 21
30.9893
 31
0.0
  0
LINE
  8
0
 62
     0
 10
270.101
 20
30.9893
 30
0.0
 11
269.3
 21
30.9893
 31
0.0
  0
LINE
  8
0
 62
     0
 10
269.3
 20
30.9893
 30
0.0
 11
269.3
 21
31.5915
 31
0.0
  0
LINE
  8
0
 62
     0
 10
269.3
 20
31.5915
 30
0.0
 11
270.826
 21
31.5915
 31
0.0
  0
LINE
  8
0
 62
     0
 10
270.826
 20
31.5915
 30
0.0
 11
270.826
 21
27.1212
 31
0.0
  0
LINE
  8
0
 62
     0
 10
270.826
 20
27.1212
 30
0.0
 11
272.551
 21
27.1212
 31
0.0
  0
LINE
  8
0
 62
     0
 10
272.551
 20
27.1212
 30
0.0
 11
272.551
 21
26.1414
 31
0.0
  0
LINE
  8
0
 62
     0
 10
272.551
 20
26.1414
 30
0.0
 11
275.85
 21
26.1414
 31
0.0
  0
LINE
  8
0
 62
     0
 10
275.85
 20
26.1414
 30
0.0
 11
275.85
 21
27.1212
 31
0.0
  0
LINE
  8
0
 62
     0
 10
275.85
 20
27.1212
 30
0.0
 11
277.575
 21
27.1212
 31
0.0
  0
LINE
  8
0
 62
     0
 10
277.575
 20
27.1212
 30
0.0
 11
277.575
 21
33.3912
 31
0.0
  0
LINE
  8
0
 62
     0
 10
277.575
 20
33.3912
 30
0.0
 11
278.401
 21
33.3912
 31
0.0
  0
LINE
  8
0
 62
     0
 10
278.401
 20
33.3912
 30
0.0
 11
278.401
 21
36.1915
 31
0.0
  0
LINE
  8
0
 62
     0
 10
278.401
 20
36.1915
 30
0.0
 11
277.575
 21
36.1915
 31
0.0
  0
LINE
  8
0
 62
     0
 10
277.575
 20
36.1915
 30
0.0
 11
277.575
 21
39.4201
 31
0.0
  0
LINE
  8
0
 62
     0
 10
277.575
 20
39.4201
 30
0.0
 11
275.85
 21
39.4201
 31
0.0
  0
LINE
  8
0
 62
     0
 10
275.85
 20
39.4201
 30
0.0
 11
275.85
 21
40.3408
 31
0.0
  0
LINE
  8
0
 62
     0
 10
275.85
 20
40.3408
 30
0.0
 11
272.551
 21
40.3408
 31
0.0
  0
LINE
  8
0
 62
     0
 10
272.551
 20
40.3408
 30
0.0
 11
272.551
 21
39.4201
 31
0.0
  0
LINE
  8
0
 62
     0
 10
272.551
 20
39.4201
 30
0.0
 11
270.826
 21
39.4201
 31
0.0
  0
LINE
  8
0
 62
     0
 10
270.826
 20
39.4201
 30
0.0
 11
270.826
 21
36.1915
 31
0.0
  0
LINE
  8
0
 62
     0
 10
270.826
 20
36.1915
 30
0.0
 11
269.3
 21
36.1915
 31
0.0
  0
LINE
  8
0
 62
     0
 10
269.3
 20
36.1915
 30
0.0
 11
269.3
 21
36.7908
 31
0.0
  0
LINE
  8
0
 62
     0
 10
269.3
 20
36.7908
 30
0.0
 11
270.101
 21
36.7908
 31
0.0
  0
LINE
  8
0
 62
     0
 10
270.101
 20
36.7908
 30
0.0
 11
270.101
 21
39.8914
 31
0.0
  0
LINE
  8
0
 62
     0
 10
270.101
 20
39.8914
 30
0.0
 11
269.3
 21
39.8914
 31
0.0
  0
LINE
  8
0
 62
     0
 10
269.3
 20
39.8914
 30
0.0
 11
269.3
 21
40.8905
 31
0.0
  0
LINE
  8
0
 62
     0
 10
269.3
 20
40.8905
 30
0.0
 11
255.3
 21
40.8905
 31
0.0
  0
LINE
  8
0
 62
     0
 10
7.65087
 20
40.8905
 30
0.0
 11
7.65087
 21
39.8914
 31
0.0
  0
LINE
  8
0
 62
     0
 10
7.65087
 20
39.8914
 30
0.0
 11
6.85024
 21
39.8914
 31
0.0
  0
LINE
  8
0
 62
     0
 10
6.85024
 20
39.8914
 30
0.0
 11
6.85024
 21
36.7908
 31
0.0
  0
LINE
  8
0
 62
     0
 10
6.85024
 20
36.7908
 30
0.0
 11
7.65087
 21
36.7908
 31
0.0
  0
LINE
  8
0
 62
     0
 10
7.65087
 20
36.7908
 30
0.0
 11
7.65087
 21
30.9893
 31
0.0
  0
LINE
  8
0
 62
     0
 10
7.65087
 20
30.9893
 30
0.0
 11
6.85024
 21
30.9893
 31
0.0
  0
LINE
  8
0
 62
     0
 10
6.85024
 20
30.9893
 30
0.0
 11
6.85024
 21
27.8915
 31
0.0
  0
LINE
  8
0
 62
     0
 10
6.85024
 20
27.8915
 30
0.0
 11
7.65087
 21
27.8915
 31
0.0
  0
LINE
  8
0
 62
     0
 10
7.65087
 20
27.8915
 30
0.0
 11
7.65087
 21
26.8911
 31
0.0
  0
LINE
  8
0
 62
     0
 10
7.65087
 20
26.8911
 30
0.0
 11
21.6504
 21
26.8911
 31
0.0
  0
LINE
  8
0
 62
     0
 10
21.6504
 20
26.8911
 30
0.0
 11
21.6504
 21
27.8915
 31
0.0
  0
LINE
  8
0
 62
     0
 10
21.6504
 20
27.8915
 30
0.0
 11
22.451
 21
27.8915
 31
0.0
  0
LINE
  8
0
 62
     0
 10
22.451
 20
27.8915
 30
0.0
 11
22.451
 21
30.9893
 31
0.0
  0
LINE
  8
0
 62
     0
 10
22.451
 20
30.9893
 30
0.0
 11
21.6504
 21
30.9893
 31
0.0
  0
LINE
  8
0
 62
     0
 10
21.6504
 20
30.9893
 30
0.0
 11
21.6504
 21
36.7908
 31
0.0
  0
LINE
  8
0
 62
     0
 10
21.6504
 20
36.7908
 30
0.0
 11
22.451
 21
36.7908
 31
0.0
  0
LINE
  8
0
 62
     0
 10
22.451
 20
36.7908
 30
0.0
 11
22.451
 21
39.8914
 31
0.0
  0
LINE
  8
0
 62
     0
 10
22.451
 20
39.8914
 30
0.0
 11
21.6504
 21
39.8914
 31
0.0
  0
LINE
  8
0
 62
     0
 10
21.6504
 20
39.8914
 30
0.0
 11
21.6504
 21
40.8905
 31
0.0
  0
LINE
  8
0
 62
     0
 10
21.6504
 20
40.8905
 30
0.0
 11
7.65087
 21
40.8905
 31
0.0
  0
LINE
  8
0
 62
     0
 10
29.0821
 20
40.8905
 30
0.0
 11
29.0821
 21
39.8914
 31
0.0
  0
LINE
  8
0
 62
     0
 10
29.0821
 20
39.8914
 30
0.0
 11
28.2815
 21
39.8914
 31
0.0
  0
LINE
  8
0
 62
     0
 10
28.2815
 20
39.8914
 30
0.0
 11
28.2815
 21
36.7908
 31
0.0
  0
LINE
  8
0
 62
     0
 10
28.2815
 20
36.7908
 30
0.0
 11
29.0821
 21
36.7908
 31
0.0
  0
LINE
  8
0
 62
     0
 10
29.0821
 20
36.7908
 30
0.0
 11
29.0821
 21
30.9893
 31
0.0
  0
LINE
  8
0
 62
     0
 10
29.0821
 20
30.9893
 30
0.0
 11
28.2815
 21
30.9893
 31
0.0
  0
LINE
  8
0
 62
     0
 10
28.2815
 20
30.9893
 30
0.0
 11
28.2815
 21
27.8915
 31
0.0
  0
LINE
  8
0
 62
     0
 10
28.2815
 20
27.8915
 30
0.0
 11
29.0821
 21
27.8915
 31
0.0
  0
LINE
  8
0
 62
     0
 10
29.0821
 20
27.8915
 30
0.0
 11
29.0821
 21
26.8911
 31
0.0
  0
LINE
  8
0
 62
     0
 10
29.0821
 20
26.8911
 30
0.0
 11
43.0816
 21
26.8911
 31
0.0
  0
LINE
  8
0
 62
     0
 10
43.0816
 20
26.8911
 30
0.0
 11
43.0816
 21
27.8915
 31
0.0
  0
LINE
  8
0
 62
     0
 10
43.0816
 20
27.8915
 30
0.0
 11
43.881
 21
27.8915
 31
0.0
  0
LINE
  8
0
 62
     0
 10
43.881
 20
27.8915
 30
0.0
 11
43.881
 21
30.9893
 31
0.0
  0
LINE
  8
0
 62
     0
 10
43.881
 20
30.9893
 30
0.0
 11
43.0816
 21
30.9893
 31
0.0
  0
LINE
  8
0
 62
     0
 10
43.0816
 20
30.9893
 30
0.0
 11
43.0816
 21
36.7908
 31
0.0
  0
LINE
  8
0
 62
     0
 10
43.0816
 20
36.7908
 30
0.0
 11
43.881
 21
36.7908
 31
0.0
  0
LINE
  8
0
 62
     0
 10
43.881
 20
36.7908
 30
0.0
 11
43.881
 21
39.8914
 31
0.0
  0
LINE
  8
0
 62
     0
 10
43.881
 20
39.8914
 30
0.0
 11
43.0816
 21
39.8914
 31
0.0
  0
LINE
  8
0
 62
     0
 10
43.0816
 20
39.8914
 30
0.0
 11
43.0816
 21
40.8905
 31
0.0
  0
LINE
  8
0
 62
     0
 10
43.0816
 20
40.8905
 30
0.0
 11
29.0821
 21
40.8905
 31
0.0
  0
LINE
  8
0
 62
     0
 10
48.1323
 20
40.8905
 30
0.0
 11
48.1323
 21
39.8914
 31
0.0
  0
LINE
  8
0
 62
     0
 10
48.1323
 20
39.8914
 30
0.0
 11
47.3315
 21
39.8914
 31
0.0
  0
LINE
  8
0
 62
     0
 10
47.3315
 20
39.8914
 30
0.0
 11
47.3315
 21
36.7908
 31
0.0
  0
LINE
  8
0
 62
     0
 10
47.3315
 20
36.7908
 30
0.0
 11
48.1323
 21
36.7908
 31
0.0
  0
LINE
  8
0
 62
     0
 10
48.1323
 20
36.7908
 30
0.0
 11
48.1323
 21
30.9893
 31
0.0
  0
LINE
  8
0
 62
     0
 10
48.1323
 20
30.9893
 30
0.0
 11
47.3315
 21
30.9893
 31
0.0
  0
LINE
  8
0
 62
     0
 10
47.3315
 20
30.9893
 30
0.0
 11
47.3315
 21
27.8915
 31
0.0
  0
LINE
  8
0
 62
     0
 10
47.3315
 20
27.8915
 30
0.0
 11
48.1323
 21
27.8915
 31
0.0
  0
LINE
  8
0
 62
     0
 10
48.1323
 20
27.8915
 30
0.0
 11
48.1323
 21
26.8911
 31
0.0
  0
LINE
  8
0
 62
     0
 10
48.1323
 20
26.8911
 30
0.0
 11
62.1316
 21
26.8911
 31
0.0
  0
LINE
  8
0
 62
     0
 10
62.1316
 20
26.8911
 30
0.0
 11
62.1316
 21
27.8915
 31
0.0
  0
LINE
  8
0
 62
     0
 10
62.1316
 20
27.8915
 30
0.0
 11
62.931
 21
27.8915
 31
0.0
  0
LINE
  8
0
 62
     0
 10
62.931
 20
27.8915
 30
0.0
 11
62.931
 21
30.9893
 31
0.0
  0
LINE
  8
0
 62
     0
 10
62.931
 20
30.9893
 30
0.0
 11
62.1316
 21
30.9893
 31
0.0
  0
LINE
  8
0
 62
     0
 10
62.1316
 20
30.9893
 30
0.0
 11
62.1316
 21
36.7908
 31
0.0
  0
LINE
  8
0
 62
     0
 10
62.1316
 20
36.7908
 30
0.0
 11
62.931
 21
36.7908
 31
0.0
  0
LINE
  8
0
 62
     0
 10
62.931
 20
36.7908
 30
0.0
 11
62.931
 21
39.8914
 31
0.0
  0
LINE
  8
0
 62
     0
 10
62.931
 20
39.8914
 30
0.0
 11
62.1316
 21
39.8914
 31
0.0
  0
LINE
  8
0
 62
     0
 10
62.1316
 20
39.8914
 30
0.0
 11
62.1316
 21
40.8905
 31
0.0
  0
LINE
  8
0
 62
     0
 10
62.1316
 20
40.8905
 30
0.0
 11
48.1323
 21
40.8905
 31
0.0
  0
LINE
  8
0
 62
     0
 10
67.1823
 20
40.8905
 30
0.0
 11
67.1823
 21
39.8914
 31
0.0
  0
LINE
  8
0
 62
     0
 10
67.1823
 20
39.8914
 30
0.0
 11
66.3815
 21
39.8914
 31
0.0
  0
LINE
  8
0
 62
     0
 10
66.3815
 20
39.8914
 30
0.0
 11
66.3815
 21
36.7908
 31
0.0
  0
LINE
  8
0
 62
     0
 10
66.3815
 20
36.7908
 30
0.0
 11
67.1823
 21
36.7908
 31
0.0
  0
LINE
  8
0
 62
     0
 10
67.1823
 20
36.7908
 30
0.0
 11
67.1823
 21
30.9893
 31
0.0
  0
LINE
  8
0
 62
     0
 10
67.1823
 20
30.9893
 30
0.0
 11
66.3815
 21
30.9893
 31
0.0
  0
LINE
  8
0
 62
     0
 10
66.3815
 20
30.9893
 30
0.0
 11
66.3815
 21
27.8915
 31
0.0
  0
LINE
  8
0
 62
     0
 10
66.3815
 20
27.8915
 30
0.0
 11
67.1823
 21
27.8915
 31
0.0
  0
LINE
  8
0
 62
     0
 10
67.1823
 20
27.8915
 30
0.0
 11
67.1823
 21
26.8911
 31
0.0
  0
LINE
  8
0
 62
     0
 10
67.1823
 20
26.8911
 30
0.0
 11
81.1816
 21
26.8911
 31
0.0
  0
LINE
  8
0
 62
     0
 10
81.1816
 20
26.8911
 30
0.0
 11
81.1816
 21
27.8915
 31
0.0
  0
LINE
  8
0
 62
     0
 10
81.1816
 20
27.8915
 30
0.0
 11
81.981
 21
27.8915
 31
0.0
  0
LINE
  8
0
 62
     0
 10
81.981
 20
27.8915
 30
0.0
 11
81.981
 21
30.9893
 31
0.0
  0
LINE
  8
0
 62
     0
 10
81.981
 20
30.9893
 30
0.0
 11
81.1816
 21
30.9893
 31
0.0
  0
LINE
  8
0
 62
     0
 10
81.1816
 20
30.9893
 30
0.0
 11
81.1816
 21
36.7908
 31
0.0
  0
LINE
  8
0
 62
     0
 10
81.1816
 20
36.7908
 30
0.0
 11
81.981
 21
36.7908
 31
0.0
  0
LINE
  8
0
 62
     0
 10
81.981
 20
36.7908
 30
0.0
 11
81.981
 21
39.8914
 31
0.0
  0
LINE
  8
0
 62
     0
 10
81.981
 20
39.8914
 30
0.0
 11
81.1816
 21
39.8914
 31
0.0
  0
LINE
  8
0
 62
     0
 10
81.1816
 20
39.8914
 30
0.0
 11
81.1816
 21
40.8905
 31
0.0
  0
LINE
  8
0
 62
     0
 10
81.1816
 20
40.8905
 30
0.0
 11
67.1823
 21
40.8905
 31
0.0
  0
LINE
  8
0
 62
     0
 10
86.2323
 20
40.8905
 30
0.0
 11
86.2323
 21
39.8914
 31
0.0
  0
LINE
  8
0
 62
     0
 10
86.2323
 20
39.8914
 30
0.0
 11
85.4315
 21
39.8914
 31
0.0
  0
LINE
  8
0
 62
     0
 10
85.4315
 20
39.8914
 30
0.0
 11
85.4315
 21
36.7908
 31
0.0
  0
LINE
  8
0
 62
     0
 10
85.4315
 20
36.7908
 30
0.0
 11
86.2323
 21
36.7908
 31
0.0
  0
LINE
  8
0
 62
     0
 10
86.2323
 20
36.7908
 30
0.0
 11
86.2323
 21
30.9893
 31
0.0
  0
LINE
  8
0
 62
     0
 10
86.2323
 20
30.9893
 30
0.0
 11
85.4315
 21
30.9893
 31
0.0
  0
LINE
  8
0
 62
     0
 10
85.4315
 20
30.9893
 30
0.0
 11
85.4315
 21
27.8915
 31
0.0
  0
LINE
  8
0
 62
     0
 10
85.4315
 20
27.8915
 30
0.0
 11
86.2323
 21
27.8915
 31
0.0
  0
LINE
  8
0
 62
     0
 10
86.2323
 20
27.8915
 30
0.0
 11
86.2323
 21
26.8911
 31
0.0
  0
LINE
  8
0
 62
     0
 10
86.2323
 20
26.8911
 30
0.0
 11
100.232
 21
26.8911
 31
0.0
  0
LINE
  8
0
 62
     0
 10
100.232
 20
26.8911
 30
0.0
 11
100.232
 21
27.8915
 31
0.0
  0
LINE
  8
0
 62
     0
 10
100.232
 20
27.8915
 30
0.0
 11
101.031
 21
27.8915
 31
0.0
  0
LINE
  8
0
 62
     0
 10
101.031
 20
27.8915
 30
0.0
 11
101.031
 21
30.9893
 31
0.0
  0
LINE
  8
0
 62
     0
 10
101.031
 20
30.9893
 30
0.0
 11
100.232
 21
30.9893
 31
0.0
  0
LINE
  8
0
 62
     0
 10
100.232
 20
30.9893
 30
0.0
 11
100.232
 21
36.7908
 31
0.0
  0
LINE
  8
0
 62
     0
 10
100.232
 20
36.7908
 30
0.0
 11
101.031
 21
36.7908
 31
0.0
  0
LINE
  8
0
 62
     0
 10
101.031
 20
36.7908
 30
0.0
 11
101.031
 21
39.8914
 31
0.0
  0
LINE
  8
0
 62
     0
 10
101.031
 20
39.8914
 30
0.0
 11
100.232
 21
39.8914
 31
0.0
  0
LINE
  8
0
 62
     0
 10
100.232
 20
39.8914
 30
0.0
 11
100.232
 21
40.8905
 31
0.0
  0
LINE
  8
0
 62
     0
 10
100.232
 20
40.8905
 30
0.0
 11
86.2323
 21
40.8905
 31
0.0
  0
LINE
  8
0
 62
     0
 10
105.282
 20
40.8905
 30
0.0
 11
105.282
 21
39.8914
 31
0.0
  0
LINE
  8
0
 62
     0
 10
105.282
 20
39.8914
 30
0.0
 11
104.481
 21
39.8914
 31
0.0
  0
LINE
  8
0
 62
     0
 10
104.481
 20
39.8914
 30
0.0
 11
104.481
 21
36.7908
 31
0.0
  0
LINE
  8
0
 62
     0
 10
104.481
 20
36.7908
 30
0.0
 11
105.282
 21
36.7908
 31
0.0
  0
LINE
  8
0
 62
     0
 10
105.282
 20
36.7908
 30
0.0
 11
105.282
 21
30.9893
 31
0.0
  0
LINE
  8
0
 62
     0
 10
105.282
 20
30.9893
 30
0.0
 11
104.481
 21
30.9893
 31
0.0
  0
LINE
  8
0
 62
     0
 10
104.481
 20
30.9893
 30
0.0
 11
104.481
 21
27.8915
 31
0.0
  0
LINE
  8
0
 62
     0
 10
104.481
 20
27.8915
 30
0.0
 11
105.282
 21
27.8915
 31
0.0
  0
LINE
  8
0
 62
     0
 10
105.282
 20
27.8915
 30
0.0
 11
105.282
 21
26.8911
 31
0.0
  0
LINE
  8
0
 62
     0
 10
105.282
 20
26.8911
 30
0.0
 11
119.282
 21
26.8911
 31
0.0
  0
LINE
  8
0
 62
     0
 10
119.282
 20
26.8911
 30
0.0
 11
119.282
 21
27.8915
 31
0.0
  0
LINE
  8
0
 62
     0
 10
119.282
 20
27.8915
 30
0.0
 11
120.081
 21
27.8915
 31
0.0
  0
LINE
  8
0
 62
     0
 10
120.081
 20
27.8915
 30
0.0
 11
120.081
 21
30.9893
 31
0.0
  0
LINE
  8
0
 62
     0
 10
120.081
 20
30.9893
 30
0.0
 11
119.282
 21
30.9893
 31
0.0
  0
LINE
  8
0
 62
     0
 10
119.282
 20
30.9893
 30
0.0
 11
119.282
 21
36.7908
 31
0.0
  0
LINE
  8
0
 62
     0
 10
119.282
 20
36.7908
 30
0.0
 11
120.081
 21
36.7908
 31
0.0
  0
LINE
  8
0
 62
     0
 10
120.081
 20
36.7908
 30
0.0
 11
120.081
 21
39.8914
 31
0.0
  0
LINE
  8
0
 62
     0
 10
120.081
 20
39.8914
 30
0.0
 11
119.282
 21
39.8914
 31
0.0
  0
LINE
  8
0
 62
     0
 10
119.282
 20
39.8914
 30
0.0
 11
119.282
 21
40.8905
 31
0.0
  0
LINE
  8
0
 62
     0
 10
119.282
 20
40.8905
 30
0.0
 11
105.282
 21
40.8905
 31
0.0
  0
LINE
  8
0
 62
     0
 10
124.331
 20
40.8905
 30
0.0
 11
124.331
 21
39.8914
 31
0.0
  0
LINE
  8
0
 62
     0
 10
124.331
 20
39.8914
 30
0.0
 11
123.531
 21
39.8914
 31
0.0
  0
LINE
  8
0
 62
     0
 10
123.531
 20
39.8914
 30
0.0
 11
123.531
 21
36.7908
 31
0.0
  0
LINE
  8
0
 62
     0
 10
123.531
 20
36.7908
 30
0.0
 11
124.331
 21
36.7908
 31
0.0
  0
LINE
  8
0
 62
     0
 10
124.331
 20
36.7908
 30
0.0
 11
124.331
 21
30.9893
 31
0.0
  0
LINE
  8
0
 62
     0
 10
124.331
 20
30.9893
 30
0.0
 11
123.531
 21
30.9893
 31
0.0
  0
LINE
  8
0
 62
     0
 10
123.531
 20
30.9893
 30
0.0
 11
123.531
 21
27.8915
 31
0.0
  0
LINE
  8
0
 62
     0
 10
123.531
 20
27.8915
 30
0.0
 11
124.331
 21
27.8915
 31
0.0
  0
LINE
  8
0
 62
     0
 10
124.331
 20
27.8915
 30
0.0
 11
124.331
 21
26.8911
 31
0.0
  0
LINE
  8
0
 62
     0
 10
124.331
 20
26.8911
 30
0.0
 11
138.332
 21
26.8911
 31
0.0
  0
LINE
  8
0
 62
     0
 10
138.332
 20
26.8911
 30
0.0
 11
138.332
 21
27.8915
 31
0.0
  0
LINE
  8
0
 62
     0
 10
138.332
 20
27.8915
 30
0.0
 11
139.131
 21
27.8915
 31
0.0
  0
LINE
  8
0
 62
     0
 10
139.131
 20
27.8915
 30
0.0
 11
139.131
 21
30.9893
 31
0.0
  0
LINE
  8
0
 62
     0
 10
139.131
 20
30.9893
 30
0.0
 11
138.332
 21
30.9893
 31
0.0
  0
LINE
  8
0
 62
     0
 10
138.332
 20
30.9893
 30
0.0
 11
138.332
 21
36.7908
 31
0.0
  0
LINE
  8
0
 62
     0
 10
138.332
 20
36.7908
 30
0.0
 11
139.131
 21
36.7908
 31
0.0
  0
LINE
  8
0
 62
     0
 10
139.131
 20
36.7908
 30
0.0
 11
139.131
 21
39.8914
 31
0.0
  0
LINE
  8
0
 62
     0
 10
139.131
 20
39.8914
 30
0.0
 11
138.332
 21
39.8914
 31
0.0
  0
LINE
  8
0
 62
     0
 10
138.332
 20
39.8914
 30
0.0
 11
138.332
 21
40.8905
 31
0.0
  0
LINE
  8
0
 62
     0
 10
138.332
 20
40.8905
 30
0.0
 11
124.331
 21
40.8905
 31
0.0
  0
LINE
  8
0
 62
     0
 10
143.382
 20
40.8905
 30
0.0
 11
143.382
 21
39.8914
 31
0.0
  0
LINE
  8
0
 62
     0
 10
143.382
 20
39.8914
 30
0.0
 11
142.581
 21
39.8914
 31
0.0
  0
LINE
  8
0
 62
     0
 10
142.581
 20
39.8914
 30
0.0
 11
142.581
 21
36.7908
 31
0.0
  0
LINE
  8
0
 62
     0
 10
142.581
 20
36.7908
 30
0.0
 11
143.382
 21
36.7908
 31
0.0
  0
LINE
  8
0
 62
     0
 10
143.382
 20
36.7908
 30
0.0
 11
143.382
 21
30.9893
 31
0.0
  0
LINE
  8
0
 62
     0
 10
143.382
 20
30.9893
 30
0.0
 11
142.581
 21
30.9893
 31
0.0
  0
LINE
  8
0
 62
     0
 10
142.581
 20
30.9893
 30
0.0
 11
142.581
 21
27.8915
 31
0.0
  0
LINE
  8
0
 62
     0
 10
142.581
 20
27.8915
 30
0.0
 11
143.382
 21
27.8915
 31
0.0
  0
LINE
  8
0
 62
     0
 10
143.382
 20
27.8915
 30
0.0
 11
143.382
 21
26.8911
 31
0.0
  0
LINE
  8
0
 62
     0
 10
143.382
 20
26.8911
 30
0.0
 11
157.382
 21
26.8911
 31
0.0
  0
LINE
  8
0
 62
     0
 10
157.382
 20
26.8911
 30
0.0
 11
157.382
 21
27.8915
 31
0.0
  0
LINE
  8
0
 62
     0
 10
157.382
 20
27.8915
 30
0.0
 11
158.181
 21
27.8915
 31
0.0
  0
LINE
  8
0
 62
     0
 10
158.181
 20
27.8915
 30
0.0
 11
158.181
 21
30.9893
 31
0.0
  0
LINE
  8
0
 62
     0
 10
158.181
 20
30.9893
 30
0.0
 11
157.382
 21
30.9893
 31
0.0
  0
LINE
  8
0
 62
     0
 10
157.382
 20
30.9893
 30
0.0
 11
157.382
 21
36.7908
 31
0.0
  0
LINE
  8
0
 62
     0
 10
157.382
 20
36.7908
 30
0.0
 11
158.181
 21
36.7908
 31
0.0
  0
LINE
  8
0
 62
     0
 10
158.181
 20
36.7908
 30
0.0
 11
158.181
 21
39.8914
 31
0.0
  0
LINE
  8
0
 62
     0
 10
158.181
 20
39.8914
 30
0.0
 11
157.382
 21
39.8914
 31
0.0
  0
LINE
  8
0
 62
     0
 10
157.382
 20
39.8914
 30
0.0
 11
157.382
 21
40.8905
 31
0.0
  0
LINE
  8
0
 62
     0
 10
157.382
 20
40.8905
 30
0.0
 11
143.382
 21
40.8905
 31
0.0
  0
LINE
  8
0
 62
     0
 10
162.432
 20
40.8905
 30
0.0
 11
162.432
 21
39.8914
 31
0.0
  0
LINE
  8
0
 62
     0
 10
162.432
 20
39.8914
 30
0.0
 11
161.631
 21
39.8914
 31
0.0
  0
LINE
  8
0
 62
     0
 10
161.631
 20
39.8914
 30
0.0
 11
161.631
 21
36.7908
 31
0.0
  0
LINE
  8
0
 62
     0
 10
161.631
 20
36.7908
 30
0.0
 11
162.432
 21
36.7908
 31
0.0
  0
LINE
  8
0
 62
     0
 10
162.432
 20
36.7908
 30
0.0
 11
162.432
 21
30.9893
 31
0.0
  0
LINE
  8
0
 62
     0
 10
162.432
 20
30.9893
 30
0.0
 11
161.631
 21
30.9893
 31
0.0
  0
LINE
  8
0
 62
     0
 10
161.631
 20
30.9893
 30
0.0
 11
161.631
 21
27.8915
 31
0.0
  0
LINE
  8
0
 62
     0
 10
161.631
 20
27.8915
 30
0.0
 11
162.432
 21
27.8915
 31
0.0
  0
LINE
  8
0
 62
     0
 10
162.432
 20
27.8915
 30
0.0
 11
162.432
 21
26.8911
 31
0.0
  0
LINE
  8
0
 62
     0
 10
162.432
 20
26.8911
 30
0.0
 11
176.432
 21
26.8911
 31
0.0
  0
LINE
  8
0
 62
     0
 10
176.432
 20
26.8911
 30
0.0
 11
176.432
 21
27.8915
 31
0.0
  0
LINE
  8
0
 62
     0
 10
176.432
 20
27.8915
 30
0.0
 11
177.231
 21
27.8915
 31
0.0
  0
LINE
  8
0
 62
     0
 10
177.231
 20
27.8915
 30
0.0
 11
177.231
 21
30.9893
 31
0.0
  0
LINE
  8
0
 62
     0
 10
177.231
 20
30.9893
 30
0.0
 11
176.432
 21
30.9893
 31
0.0
  0
LINE
  8
0
 62
     0
 10
176.432
 20
30.9893
 30
0.0
 11
176.432
 21
36.7908
 31
0.0
  0
LINE
  8
0
 62
     0
 10
176.432
 20
36.7908
 30
0.0
 11
177.231
 21
36.7908
 31
0.0
  0
LINE
  8
0
 62
     0
 10
177.231
 20
36.7908
 30
0.0
 11
177.231
 21
39.8914
 31
0.0
  0
LINE
  8
0
 62
     0
 10
177.231
 20
39.8914
 30
0.0
 11
176.432
 21
39.8914
 31
0.0
  0
LINE
  8
0
 62
     0
 10
176.432
 20
39.8914
 30
0.0
 11
176.432
 21
40.8905
 31
0.0
  0
LINE
  8
0
 62
     0
 10
176.432
 20
40.8905
 30
0.0
 11
162.432
 21
40.8905
 31
0.0
  0
LINE
  8
0
 62
     0
 10
181.482
 20
40.8905
 30
0.0
 11
181.482
 21
39.8914
 31
0.0
  0
LINE
  8
0
 62
     0
 10
181.482
 20
39.8914
 30
0.0
 11
180.682
 21
39.8914
 31
0.0
  0
LINE
  8
0
 62
     0
 10
180.682
 20
39.8914
 30
0.0
 11
180.682
 21
36.7908
 31
0.0
  0
LINE
  8
0
 62
     0
 10
180.682
 20
36.7908
 30
0.0
 11
181.482
 21
36.7908
 31
0.0
  0
LINE
  8
0
 62
     0
 10
181.482
 20
36.7908
 30
0.0
 11
181.482
 21
30.9893
 31
0.0
  0
LINE
  8
0
 62
     0
 10
181.482
 20
30.9893
 30
0.0
 11
180.682
 21
30.9893
 31
0.0
  0
LINE
  8
0
 62
     0
 10
180.682
 20
30.9893
 30
0.0
 11
180.682
 21
27.8915
 31
0.0
  0
LINE
  8
0
 62
     0
 10
180.682
 20
27.8915
 30
0.0
 11
181.482
 21
27.8915
 31
0.0
  0
LINE
  8
0
 62
     0
 10
181.482
 20
27.8915
 30
0.0
 11
181.482
 21
26.8911
 31
0.0
  0
LINE
  8
0
 62
     0
 10
181.482
 20
26.8911
 30
0.0
 11
195.482
 21
26.8911
 31
0.0
  0
LINE
  8
0
 62
     0
 10
195.482
 20
26.8911
 30
0.0
 11
195.482
 21
27.8915
 31
0.0
  0
LINE
  8
0
 62
     0
 10
195.482
 20
27.8915
 30
0.0
 11
196.281
 21
27.8915
 31
0.0
  0
LINE
  8
0
 62
     0
 10
196.281
 20
27.8915
 30
0.0
 11
196.281
 21
30.9893
 31
0.0
  0
LINE
  8
0
 62
     0
 10
196.281
 20
30.9893
 30
0.0
 11
195.482
 21
30.9893
 31
0.0
  0
LINE
  8
0
 62
     0
 10
195.482
 20
30.9893
 30
0.0
 11
195.482
 21
36.7908
 31
0.0
  0
LINE
  8
0
 62
     0
 10
195.482
 20
36.7908
 30
0.0
 11
196.281
 21
36.7908
 31
0.0
  0
LINE
  8
0
 62
     0
 10
196.281
 20
36.7908
 30
0.0
 11
196.281
 21
39.8914
 31
0.0
  0
LINE
  8
0
 62
     0
 10
196.281
 20
39.8914
 30
0.0
 11
195.482
 21
39.8914
 31
0.0
  0
LINE
  8
0
 62
     0
 10
195.482
 20
39.8914
 30
0.0
 11
195.482
 21
40.8905
 31
0.0
  0
LINE
  8
0
 62
     0
 10
195.482
 20
40.8905
 30
0.0
 11
181.482
 21
40.8905
 31
0.0
  0
LINE
  8
0
 62
     0
 10
200.532
 20
40.8905
 30
0.0
 11
200.532
 21
39.8914
 31
0.0
  0
LINE
  8
0
 62
     0
 10
200.532
 20
39.8914
 30
0.0
 11
199.732
 21
39.8914
 31
0.0
  0
LINE
  8
0
 62
     0
 10
199.732
 20
39.8914
 30
0.0
 11
199.732
 21
36.7908
 31
0.0
  0
LINE
  8
0
 62
     0
 10
199.732
 20
36.7908
 30
0.0
 11
200.532
 21
36.7908
 31
0.0
  0
LINE
  8
0
 62
     0
 10
200.532
 20
36.7908
 30
0.0
 11
200.532
 21
30.9893
 31
0.0
  0
LINE
  8
0
 62
     0
 10
200.532
 20
30.9893
 30
0.0
 11
199.732
 21
30.9893
 31
0.0
  0
LINE
  8
0
 62
     0
 10
199.732
 20
30.9893
 30
0.0
 11
199.732
 21
27.8915
 31
0.0
  0
LINE
  8
0
 62
     0
 10
199.732
 20
27.8915
 30
0.0
 11
200.532
 21
27.8915
 31
0.0
  0
LINE
  8
0
 62
     0
 10
200.532
 20
27.8915
 30
0.0
 11
200.532
 21
26.8911
 31
0.0
  0
LINE
  8
0
 62
     0
 10
200.532
 20
26.8911
 30
0.0
 11
214.532
 21
26.8911
 31
0.0
  0
LINE
  8
0
 62
     0
 10
214.532
 20
26.8911
 30
0.0
 11
214.532
 21
27.8915
 31
0.0
  0
LINE
  8
0
 62
     0
 10
214.532
 20
27.8915
 30
0.0
 11
215.331
 21
27.8915
 31
0.0
  0
LINE
  8
0
 62
     0
 10
215.331
 20
27.8915
 30
0.0
 11
215.331
 21
30.9893
 31
0.0
  0
LINE
  8
0
 62
     0
 10
215.331
 20
30.9893
 30
0.0
 11
214.532
 21
30.9893
 31
0.0
  0
LINE
  8
0
 62
     0
 10
214.532
 20
30.9893
 30
0.0
 11
214.532
 21
36.7908
 31
0.0
  0
LINE
  8
0
 62
     0
 10
214.532
 20
36.7908
 30
0.0
 11
215.331
 21
36.7908
 31
0.0
  0
LINE
  8
0
 62
     0
 10
215.331
 20
36.7908
 30
0.0
 11
215.331
 21
39.8914
 31
0.0
  0
LINE
  8
0
 62
     0
 10
215.331
 20
39.8914
 30
0.0
 11
214.532
 21
39.8914
 31
0.0
  0
LINE
  8
0
 62
     0
 10
214.532
 20
39.8914
 30
0.0
 11
214.532
 21
40.8905
 31
0.0
  0
LINE
  8
0
 62
     0
 10
214.532
 20
40.8905
 30
0.0
 11
200.532
 21
40.8905
 31
0.0
  0
LINE
  8
0
 62
     0
 10
219.582
 20
40.8905
 30
0.0
 11
219.582
 21
39.8914
 31
0.0
  0
LINE
  8
0
 62
     0
 10
219.582
 20
39.8914
 30
0.0
 11
218.782
 21
39.8914
 31
0.0
  0
LINE
  8
0
 62
     0
 10
218.782
 20
39.8914
 30
0.0
 11
218.782
 21
36.7908
 31
0.0
  0
LINE
  8
0
 62
     0
 10
218.782
 20
36.7908
 30
0.0
 11
219.582
 21
36.7908
 31
0.0
  0
LINE
  8
0
 62
     0
 10
219.582
 20
36.7908
 30
0.0
 11
219.582
 21
30.9893
 31
0.0
  0
LINE
  8
0
 62
     0
 10
219.582
 20
30.9893
 30
0.0
 11
218.782
 21
30.9893
 31
0.0
  0
LINE
  8
0
 62
     0
 10
218.782
 20
30.9893
 30
0.0
 11
218.782
 21
27.8915
 31
0.0
  0
LINE
  8
0
 62
     0
 10
218.782
 20
27.8915
 30
0.0
 11
219.582
 21
27.8915
 31
0.0
  0
LINE
  8
0
 62
     0
 10
219.582
 20
27.8915
 30
0.0
 11
219.582
 21
26.8911
 31
0.0
  0
LINE
  8
0
 62
     0
 10
219.582
 20
26.8911
 30
0.0
 11
233.582
 21
26.8911
 31
0.0
  0
LINE
  8
0
 62
     0
 10
233.582
 20
26.8911
 30
0.0
 11
233.582
 21
27.8915
 31
0.0
  0
LINE
  8
0
 62
     0
 10
233.582
 20
27.8915
 30
0.0
 11
234.381
 21
27.8915
 31
0.0
  0
LINE
  8
0
 62
     0
 10
234.381
 20
27.8915
 30
0.0
 11
234.381
 21
30.9893
 31
0.0
  0
LINE
  8
0
 62
     0
 10
234.381
 20
30.9893
 30
0.0
 11
233.582
 21
30.9893
 31
0.0
  0
LINE
  8
0
 62
     0
 10
233.582
 20
30.9893
 30
0.0
 11
233.582
 21
36.7908
 31
0.0
  0
LINE
  8
0
 62
     0
 10
233.582
 20
36.7908
 30
0.0
 11
234.381
 21
36.7908
 31
0.0
  0
LINE
  8
0
 62
     0
 10
234.381
 20
36.7908
 30
0.0
 11
234.381
 21
39.8914
 31
0.0
  0
LINE
  8
0
 62
     0
 10
234.381
 20
39.8914
 30
0.0
 11
233.582
 21
39.8914
 31
0.0
  0
LINE
  8
0
 62
     0
 10
233.582
 20
39.8914
 30
0.0
 11
233.582
 21
40.8905
 31
0.0
  0
LINE
  8
0
 62
     0
 10
233.582
 20
40.8905
 30
0.0
 11
219.582
 21
40.8905
 31
0.0
  0
LINE
  8
0
 62
     0
 10
291.02
 20
40.8905
 30
0.0
 11
291.02
 21
39.8914
 31
0.0
  0
LINE
  8
0
 62
     0
 10
291.02
 20
39.8914
 30
0.0
 11
290.219
 21
39.8914
 31
0.0
  0
LINE
  8
0
 62
     0
 10
290.219
 20
39.8914
 30
0.0
 11
290.219
 21
36.7908
 31
0.0
  0
LINE
  8
0
 62
     0
 10
290.219
 20
36.7908
 30
0.0
 11
291.02
 21
36.7908
 31
0.0
  0
LINE
  8
0
 62
     0
 10
291.02
 20
36.7908
 30
0.0
 11
291.02
 21
30.9893
 31
0.0
  0
LINE
  8
0
 62
     0
 10
291.02
 20
30.9893
 30
0.0
 11
290.219
 21
30.9893
 31
0.0
  0
LINE
  8
0
 62
     0
 10
290.219
 20
30.9893
 30
0.0
 11
290.219
 21
27.8915
 31
0.0
  0
LINE
  8
0
 62
     0
 10
290.219
 20
27.8915
 30
0.0
 11
291.02
 21
27.8915
 31
0.0
  0
LINE
  8
0
 62
     0
 10
291.02
 20
27.8915
 30
0.0
 11
291.02
 21
26.8911
 31
0.0
  0
LINE
  8
0
 62
     0
 10
291.02
 20
26.8911
 30
0.0
 11
305.019
 21
26.8911
 31
0.0
  0
LINE
  8
0
 62
     0
 10
305.019
 20
26.8911
 30
0.0
 11
305.019
 21
27.8915
 31
0.0
  0
LINE
  8
0
 62
     0
 10
305.019
 20
27.8915
 30
0.0
 11
305.82
 21
27.8915
 31
0.0
  0
LINE
  8
0
 62
     0
 10
305.82
 20
27.8915
 30
0.0
 11
305.82
 21
30.9893
 31
0.0
  0
LINE
  8
0
 62
     0
 10
305.82
 20
30.9893
 30
0.0
 11
305.019
 21
30.9893
 31
0.0
  0
LINE
  8
0
 62
     0
 10
305.019
 20
30.9893
 30
0.0
 11
305.019
 21
36.7908
 31
0.0
  0
LINE
  8
0
 62
     0
 10
305.019
 20
36.7908
 30
0.0
 11
305.82
 21
36.7908
 31
0.0
  0
LINE
  8
0
 62
     0
 10
305.82
 20
36.7908
 30
0.0
 11
305.82
 21
39.8914
 31
0.0
  0
LINE
  8
0
 62
     0
 10
305.82
 20
39.8914
 30
0.0
 11
305.019
 21
39.8914
 31
0.0
  0
LINE
  8
0
 62
     0
 10
305.019
 20
39.8914
 30
0.0
 11
305.019
 21
40.8905
 31
0.0
  0
LINE
  8
0
 62
     0
 10
305.019
 20
40.8905
 30
0.0
 11
291.02
 21
40.8905
 31
0.0
  0
LINE
  8
0
 62
     0
 10
260.062
 20
59.9405
 30
0.0
 11
260.062
 21
58.9414
 31
0.0
  0
LINE
  8
0
 62
     0
 10
260.062
 20
58.9414
 30
0.0
 11
259.263
 21
58.9414
 31
0.0
  0
LINE
  8
0
 62
     0
 10
259.263
 20
58.9414
 30
0.0
 11
259.263
 21
55.8408
 31
0.0
  0
LINE
  8
0
 62
     0
 10
259.263
 20
55.8408
 30
0.0
 11
260.062
 21
55.8408
 31
0.0
  0
LINE
  8
0
 62
     0
 10
260.062
 20
55.8408
 30
0.0
 11
260.062
 21
55.2401
 31
0.0
  0
LINE
  8
0
 62
     0
 10
260.062
 20
55.2401
 30
0.0
 11
258.538
 21
55.2401
 31
0.0
  0
LINE
  8
0
 62
     0
 10
258.538
 20
55.2401
 30
0.0
 11
258.538
 21
58.4701
 31
0.0
  0
LINE
  8
0
 62
     0
 10
258.538
 20
58.4701
 30
0.0
 11
256.811
 21
58.4701
 31
0.0
  0
LINE
  8
0
 62
     0
 10
256.811
 20
58.4701
 30
0.0
 11
256.811
 21
59.3908
 31
0.0
  0
LINE
  8
0
 62
     0
 10
256.811
 20
59.3908
 30
0.0
 11
253.512
 21
59.3908
 31
0.0
  0
LINE
  8
0
 62
     0
 10
253.512
 20
59.3908
 30
0.0
 11
253.512
 21
58.4701
 31
0.0
  0
LINE
  8
0
 62
     0
 10
253.512
 20
58.4701
 30
0.0
 11
251.787
 21
58.4701
 31
0.0
  0
LINE
  8
0
 62
     0
 10
251.787
 20
58.4701
 30
0.0
 11
251.787
 21
55.2401
 31
0.0
  0
LINE
  8
0
 62
     0
 10
251.787
 20
55.2401
 30
0.0
 11
250.963
 21
55.2401
 31
0.0
  0
LINE
  8
0
 62
     0
 10
250.963
 20
55.2401
 30
0.0
 11
250.963
 21
52.4411
 31
0.0
  0
LINE
  8
0
 62
     0
 10
250.963
 20
52.4411
 30
0.0
 11
251.787
 21
52.4411
 31
0.0
  0
LINE
  8
0
 62
     0
 10
251.787
 20
52.4411
 30
0.0
 11
251.787
 21
46.1712
 31
0.0
  0
LINE
  8
0
 62
     0
 10
251.787
 20
46.1712
 30
0.0
 11
253.512
 21
46.1712
 31
0.0
  0
LINE
  8
0
 62
     0
 10
253.512
 20
46.1712
 30
0.0
 11
253.512
 21
45.1915
 31
0.0
  0
LINE
  8
0
 62
     0
 10
253.512
 20
45.1915
 30
0.0
 11
256.811
 21
45.1915
 31
0.0
  0
LINE
  8
0
 62
     0
 10
256.811
 20
45.1915
 30
0.0
 11
256.811
 21
46.1712
 31
0.0
  0
LINE
  8
0
 62
     0
 10
256.811
 20
46.1712
 30
0.0
 11
258.538
 21
46.1712
 31
0.0
  0
LINE
  8
0
 62
     0
 10
258.538
 20
46.1712
 30
0.0
 11
258.538
 21
50.6416
 31
0.0
  0
LINE
  8
0
 62
     0
 10
258.538
 20
50.6416
 30
0.0
 11
260.062
 21
50.6416
 31
0.0
  0
LINE
  8
0
 62
     0
 10
260.062
 20
50.6416
 30
0.0
 11
260.062
 21
50.0394
 31
0.0
  0
LINE
  8
0
 62
     0
 10
260.062
 20
50.0394
 30
0.0
 11
259.263
 21
50.0394
 31
0.0
  0
LINE
  8
0
 62
     0
 10
259.263
 20
50.0394
 30
0.0
 11
259.263
 21
46.9417
 31
0.0
  0
LINE
  8
0
 62
     0
 10
259.263
 20
46.9417
 30
0.0
 11
260.062
 21
46.9417
 31
0.0
  0
LINE
  8
0
 62
     0
 10
260.062
 20
46.9417
 30
0.0
 11
260.062
 21
45.9412
 31
0.0
  0
LINE
  8
0
 62
     0
 10
260.062
 20
45.9412
 30
0.0
 11
274.063
 21
45.9412
 31
0.0
  0
LINE
  8
0
 62
     0
 10
274.063
 20
45.9412
 30
0.0
 11
274.063
 21
46.9417
 31
0.0
  0
LINE
  8
0
 62
     0
 10
274.063
 20
46.9417
 30
0.0
 11
274.862
 21
46.9417
 31
0.0
  0
LINE
  8
0
 62
     0
 10
274.862
 20
46.9417
 30
0.0
 11
274.862
 21
50.0394
 31
0.0
  0
LINE
  8
0
 62
     0
 10
274.862
 20
50.0394
 30
0.0
 11
274.063
 21
50.0394
 31
0.0
  0
LINE
  8
0
 62
     0
 10
274.063
 20
50.0394
 30
0.0
 11
274.063
 21
50.6416
 31
0.0
  0
LINE
  8
0
 62
     0
 10
274.063
 20
50.6416
 30
0.0
 11
275.587
 21
50.6416
 31
0.0
  0
LINE
  8
0
 62
     0
 10
275.587
 20
50.6416
 30
0.0
 11
275.587
 21
46.1712
 31
0.0
  0
LINE
  8
0
 62
     0
 10
275.587
 20
46.1712
 30
0.0
 11
277.312
 21
46.1712
 31
0.0
  0
LINE
  8
0
 62
     0
 10
277.312
 20
46.1712
 30
0.0
 11
277.312
 21
45.1915
 31
0.0
  0
LINE
  8
0
 62
     0
 10
277.312
 20
45.1915
 30
0.0
 11
280.613
 21
45.1915
 31
0.0
  0
LINE
  8
0
 62
     0
 10
280.613
 20
45.1915
 30
0.0
 11
280.613
 21
46.1712
 31
0.0
  0
LINE
  8
0
 62
     0
 10
280.613
 20
46.1712
 30
0.0
 11
282.338
 21
46.1712
 31
0.0
  0
LINE
  8
0
 62
     0
 10
282.338
 20
46.1712
 30
0.0
 11
282.338
 21
52.4411
 31
0.0
  0
LINE
  8
0
 62
     0
 10
282.338
 20
52.4411
 30
0.0
 11
283.162
 21
52.4411
 31
0.0
  0
LINE
  8
0
 62
     0
 10
283.162
 20
52.4411
 30
0.0
 11
283.162
 21
55.2401
 31
0.0
  0
LINE
  8
0
 62
     0
 10
283.162
 20
55.2401
 30
0.0
 11
282.338
 21
55.2401
 31
0.0
  0
LINE
  8
0
 62
     0
 10
282.338
 20
55.2401
 30
0.0
 11
282.338
 21
58.4701
 31
0.0
  0
LINE
  8
0
 62
     0
 10
282.338
 20
58.4701
 30
0.0
 11
280.613
 21
58.4701
 31
0.0
  0
LINE
  8
0
 62
     0
 10
280.613
 20
58.4701
 30
0.0
 11
280.613
 21
59.3908
 31
0.0
  0
LINE
  8
0
 62
     0
 10
280.613
 20
59.3908
 30
0.0
 11
277.312
 21
59.3908
 31
0.0
  0
LINE
  8
0
 62
     0
 10
277.312
 20
59.3908
 30
0.0
 11
277.312
 21
58.4701
 31
0.0
  0
LINE
  8
0
 62
     0
 10
277.312
 20
58.4701
 30
0.0
 11
275.587
 21
58.4701
 31
0.0
  0
LINE
  8
0
 62
     0
 10
275.587
 20
58.4701
 30
0.0
 11
275.587
 21
55.2401
 31
0.0
  0
LINE
  8
0
 62
     0
 10
275.587
 20
55.2401
 30
0.0
 11
274.063
 21
55.2401
 31
0.0
  0
LINE
  8
0
 62
     0
 10
274.063
 20
55.2401
 30
0.0
 11
274.063
 21
55.8408
 31
0.0
  0
LINE
  8
0
 62
     0
 10
274.063
 20
55.8408
 30
0.0
 11
274.862
 21
55.8408
 31
0.0
  0
LINE
  8
0
 62
     0
 10
274.862
 20
55.8408
 30
0.0
 11
274.862
 21
58.9414
 31
0.0
  0
LINE
  8
0
 62
     0
 10
274.862
 20
58.9414
 30
0.0
 11
274.063
 21
58.9414
 31
0.0
  0
LINE
  8
0
 62
     0
 10
274.063
 20
58.9414
 30
0.0
 11
274.063
 21
59.9405
 31
0.0
  0
LINE
  8
0
 62
     0
 10
274.063
 20
59.9405
 30
0.0
 11
260.062
 21
59.9405
 31
0.0
  0
LINE
  8
0
 62
     0
 10
12.412
 20
59.9405
 30
0.0
 11
12.412
 21
58.9414
 31
0.0
  0
LINE
  8
0
 62
     0
 10
12.412
 20
58.9414
 30
0.0
 11
11.6127
 21
58.9414
 31
0.0
  0
LINE
  8
0
 62
     0
 10
11.6127
 20
58.9414
 30
0.0
 11
11.6127
 21
55.8408
 31
0.0
  0
LINE
  8
0
 62
     0
 10
11.6127
 20
55.8408
 30
0.0
 11
12.412
 21
55.8408
 31
0.0
  0
LINE
  8
0
 62
     0
 10
12.412
 20
55.8408
 30
0.0
 11
12.412
 21
50.0394
 31
0.0
  0
LINE
  8
0
 62
     0
 10
12.412
 20
50.0394
 30
0.0
 11
11.6127
 21
50.0394
 31
0.0
  0
LINE
  8
0
 62
     0
 10
11.6127
 20
50.0394
 30
0.0
 11
11.6127
 21
46.9417
 31
0.0
  0
LINE
  8
0
 62
     0
 10
11.6127
 20
46.9417
 30
0.0
 11
12.412
 21
46.9417
 31
0.0
  0
LINE
  8
0
 62
     0
 10
12.412
 20
46.9417
 30
0.0
 11
12.412
 21
45.9412
 31
0.0
  0
LINE
  8
0
 62
     0
 10
12.412
 20
45.9412
 30
0.0
 11
26.4129
 21
45.9412
 31
0.0
  0
LINE
  8
0
 62
     0
 10
26.4129
 20
45.9412
 30
0.0
 11
26.4129
 21
46.9417
 31
0.0
  0
LINE
  8
0
 62
     0
 10
26.4129
 20
46.9417
 30
0.0
 11
27.2121
 21
46.9417
 31
0.0
  0
LINE
  8
0
 62
     0
 10
27.2121
 20
46.9417
 30
0.0
 11
27.2121
 21
50.0394
 31
0.0
  0
LINE
  8
0
 62
     0
 10
27.2121
 20
50.0394
 30
0.0
 11
26.4129
 21
50.0394
 31
0.0
  0
LINE
  8
0
 62
     0
 10
26.4129
 20
50.0394
 30
0.0
 11
26.4129
 21
55.8408
 31
0.0
  0
LINE
  8
0
 62
     0
 10
26.4129
 20
55.8408
 30
0.0
 11
27.2121
 21
55.8408
 31
0.0
  0
LINE
  8
0
 62
     0
 10
27.2121
 20
55.8408
 30
0.0
 11
27.2121
 21
58.9414
 31
0.0
  0
LINE
  8
0
 62
     0
 10
27.2121
 20
58.9414
 30
0.0
 11
26.4129
 21
58.9414
 31
0.0
  0
LINE
  8
0
 62
     0
 10
26.4129
 20
58.9414
 30
0.0
 11
26.4129
 21
59.9405
 31
0.0
  0
LINE
  8
0
 62
     0
 10
26.4129
 20
59.9405
 30
0.0
 11
12.412
 21
59.9405
 31
0.0
  0
LINE
  8
0
 62
     0
 10
38.6073
 20
59.9405
 30
0.0
 11
38.6073
 21
58.9414
 31
0.0
  0
LINE
  8
0
 62
     0
 10
38.6073
 20
58.9414
 30
0.0
 11
37.8065
 21
58.9414
 31
0.0
  0
LINE
  8
0
 62
     0
 10
37.8065
 20
58.9414
 30
0.0
 11
37.8065
 21
55.8408
 31
0.0
  0
LINE
  8
0
 62
     0
 10
37.8065
 20
55.8408
 30
0.0
 11
38.6073
 21
55.8408
 31
0.0
  0
LINE
  8
0
 62
     0
 10
38.6073
 20
55.8408
 30
0.0
 11
38.6073
 21
50.0394
 31
0.0
  0
LINE
  8
0
 62
     0
 10
38.6073
 20
50.0394
 30
0.0
 11
37.8065
 21
50.0394
 31
0.0
  0
LINE
  8
0
 62
     0
 10
37.8065
 20
50.0394
 30
0.0
 11
37.8065
 21
46.9417
 31
0.0
  0
LINE
  8
0
 62
     0
 10
37.8065
 20
46.9417
 30
0.0
 11
38.6073
 21
46.9417
 31
0.0
  0
LINE
  8
0
 62
     0
 10
38.6073
 20
46.9417
 30
0.0
 11
38.6073
 21
45.9412
 31
0.0
  0
LINE
  8
0
 62
     0
 10
38.6073
 20
45.9412
 30
0.0
 11
52.6066
 21
45.9412
 31
0.0
  0
LINE
  8
0
 62
     0
 10
52.6066
 20
45.9412
 30
0.0
 11
52.6066
 21
46.9417
 31
0.0
  0
LINE
  8
0
 62
     0
 10
52.6066
 20
46.9417
 30
0.0
 11
53.406
 21
46.9417
 31
0.0
  0
LINE
  8
0
 62
     0
 10
53.406
 20
46.9417
 30
0.0
 11
53.406
 21
50.0394
 31
0.0
  0
LINE
  8
0
 62
     0
 10
53.406
 20
50.0394
 30
0.0
 11
52.6066
 21
50.0394
 31
0.0
  0
LINE
  8
0
 62
     0
 10
52.6066
 20
50.0394
 30
0.0
 11
52.6066
 21
55.8408
 31
0.0
  0
LINE
  8
0
 62
     0
 10
52.6066
 20
55.8408
 30
0.0
 11
53.406
 21
55.8408
 31
0.0
  0
LINE
  8
0
 62
     0
 10
53.406
 20
55.8408
 30
0.0
 11
53.406
 21
58.9414
 31
0.0
  0
LINE
  8
0
 62
     0
 10
53.406
 20
58.9414
 30
0.0
 11
52.6066
 21
58.9414
 31
0.0
  0
LINE
  8
0
 62
     0
 10
52.6066
 20
58.9414
 30
0.0
 11
52.6066
 21
59.9405
 31
0.0
  0
LINE
  8
0
 62
     0
 10
52.6066
 20
59.9405
 30
0.0
 11
38.6073
 21
59.9405
 31
0.0
  0
LINE
  8
0
 62
     0
 10
57.6573
 20
59.9405
 30
0.0
 11
57.6573
 21
58.9414
 31
0.0
  0
LINE
  8
0
 62
     0
 10
57.6573
 20
58.9414
 30
0.0
 11
56.8565
 21
58.9414
 31
0.0
  0
LINE
  8
0
 62
     0
 10
56.8565
 20
58.9414
 30
0.0
 11
56.8565
 21
55.8408
 31
0.0
  0
LINE
  8
0
 62
     0
 10
56.8565
 20
55.8408
 30
0.0
 11
57.6573
 21
55.8408
 31
0.0
  0
LINE
  8
0
 62
     0
 10
57.6573
 20
55.8408
 30
0.0
 11
57.6573
 21
50.0394
 31
0.0
  0
LINE
  8
0
 62
     0
 10
57.6573
 20
50.0394
 30
0.0
 11
56.8565
 21
50.0394
 31
0.0
  0
LINE
  8
0
 62
     0
 10
56.8565
 20
50.0394
 30
0.0
 11
56.8565
 21
46.9417
 31
0.0
  0
LINE
  8
0
 62
     0
 10
56.8565
 20
46.9417
 30
0.0
 11
57.6573
 21
46.9417
 31
0.0
  0
LINE
  8
0
 62
     0
 10
57.6573
 20
46.9417
 30
0.0
 11
57.6573
 21
45.9412
 31
0.0
  0
LINE
  8
0
 62
     0
 10
57.6573
 20
45.9412
 30
0.0
 11
71.6566
 21
45.9412
 31
0.0
  0
LINE
  8
0
 62
     0
 10
71.6566
 20
45.9412
 30
0.0
 11
71.6566
 21
46.9417
 31
0.0
  0
LINE
  8
0
 62
     0
 10
71.6566
 20
46.9417
 30
0.0
 11
72.456
 21
46.9417
 31
0.0
  0
LINE
  8
0
 62
     0
 10
72.456
 20
46.9417
 30
0.0
 11
72.456
 21
50.0394
 31
0.0
  0
LINE
  8
0
 62
     0
 10
72.456
 20
50.0394
 30
0.0
 11
71.6566
 21
50.0394
 31
0.0
  0
LINE
  8
0
 62
     0
 10
71.6566
 20
50.0394
 30
0.0
 11
71.6566
 21
55.8408
 31
0.0
  0
LINE
  8
0
 62
     0
 10
71.6566
 20
55.8408
 30
0.0
 11
72.456
 21
55.8408
 31
0.0
  0
LINE
  8
0
 62
     0
 10
72.456
 20
55.8408
 30
0.0
 11
72.456
 21
58.9414
 31
0.0
  0
LINE
  8
0
 62
     0
 10
72.456
 20
58.9414
 30
0.0
 11
71.6566
 21
58.9414
 31
0.0
  0
LINE
  8
0
 62
     0
 10
71.6566
 20
58.9414
 30
0.0
 11
71.6566
 21
59.9405
 31
0.0
  0
LINE
  8
0
 62
     0
 10
71.6566
 20
59.9405
 30
0.0
 11
57.6573
 21
59.9405
 31
0.0
  0
LINE
  8
0
 62
     0
 10
76.7073
 20
59.9405
 30
0.0
 11
76.7073
 21
58.9414
 31
0.0
  0
LINE
  8
0
 62
     0
 10
76.7073
 20
58.9414
 30
0.0
 11
75.9065
 21
58.9414
 31
0.0
  0
LINE
  8
0
 62
     0
 10
75.9065
 20
58.9414
 30
0.0
 11
75.9065
 21
55.8408
 31
0.0
  0
LINE
  8
0
 62
     0
 10
75.9065
 20
55.8408
 30
0.0
 11
76.7073
 21
55.8408
 31
0.0
  0
LINE
  8
0
 62
     0
 10
76.7073
 20
55.8408
 30
0.0
 11
76.7073
 21
50.0394
 31
0.0
  0
LINE
  8
0
 62
     0
 10
76.7073
 20
50.0394
 30
0.0
 11
75.9065
 21
50.0394
 31
0.0
  0
LINE
  8
0
 62
     0
 10
75.9065
 20
50.0394
 30
0.0
 11
75.9065
 21
46.9417
 31
0.0
  0
LINE
  8
0
 62
     0
 10
75.9065
 20
46.9417
 30
0.0
 11
76.7073
 21
46.9417
 31
0.0
  0
LINE
  8
0
 62
     0
 10
76.7073
 20
46.9417
 30
0.0
 11
76.7073
 21
45.9412
 31
0.0
  0
LINE
  8
0
 62
     0
 10
76.7073
 20
45.9412
 30
0.0
 11
90.7066
 21
45.9412
 31
0.0
  0
LINE
  8
0
 62
     0
 10
90.7066
 20
45.9412
 30
0.0
 11
90.7066
 21
46.9417
 31
0.0
  0
LINE
  8
0
 62
     0
 10
90.7066
 20
46.9417
 30
0.0
 11
91.506
 21
46.9417
 31
0.0
  0
LINE
  8
0
 62
     0
 10
91.506
 20
46.9417
 30
0.0
 11
91.506
 21
50.0394
 31
0.0
  0
LINE
  8
0
 62
     0
 10
91.506
 20
50.0394
 30
0.0
 11
90.7066
 21
50.0394
 31
0.0
  0
LINE
  8
0
 62
     0
 10
90.7066
 20
50.0394
 30
0.0
 11
90.7066
 21
55.8408
 31
0.0
  0
LINE
  8
0
 62
     0
 10
90.7066
 20
55.8408
 30
0.0
 11
91.506
 21
55.8408
 31
0.0
  0
LINE
  8
0
 62
     0
 10
91.506
 20
55.8408
 30
0.0
 11
91.506
 21
58.9414
 31
0.0
  0
LINE
  8
0
 62
     0
 10
91.506
 20
58.9414
 30
0.0
 11
90.7066
 21
58.9414
 31
0.0
  0
LINE
  8
0
 62
     0
 10
90.7066
 20
58.9414
 30
0.0
 11
90.7066
 21
59.9405
 31
0.0
  0
LINE
  8
0
 62
     0
 10
90.7066
 20
59.9405
 30
0.0
 11
76.7073
 21
59.9405
 31
0.0
  0
LINE
  8
0
 62
     0
 10
95.7573
 20
59.9405
 30
0.0
 11
95.7573
 21
58.9414
 31
0.0
  0
LINE
  8
0
 62
     0
 10
95.7573
 20
58.9414
 30
0.0
 11
94.9565
 21
58.9414
 31
0.0
  0
LINE
  8
0
 62
     0
 10
94.9565
 20
58.9414
 30
0.0
 11
94.9565
 21
55.8408
 31
0.0
  0
LINE
  8
0
 62
     0
 10
94.9565
 20
55.8408
 30
0.0
 11
95.7573
 21
55.8408
 31
0.0
  0
LINE
  8
0
 62
     0
 10
95.7573
 20
55.8408
 30
0.0
 11
95.7573
 21
50.0394
 31
0.0
  0
LINE
  8
0
 62
     0
 10
95.7573
 20
50.0394
 30
0.0
 11
94.9565
 21
50.0394
 31
0.0
  0
LINE
  8
0
 62
     0
 10
94.9565
 20
50.0394
 30
0.0
 11
94.9565
 21
46.9417
 31
0.0
  0
LINE
  8
0
 62
     0
 10
94.9565
 20
46.9417
 30
0.0
 11
95.7573
 21
46.9417
 31
0.0
  0
LINE
  8
0
 62
     0
 10
95.7573
 20
46.9417
 30
0.0
 11
95.7573
 21
45.9412
 31
0.0
  0
LINE
  8
0
 62
     0
 10
95.7573
 20
45.9412
 30
0.0
 11
109.757
 21
45.9412
 31
0.0
  0
LINE
  8
0
 62
     0
 10
109.757
 20
45.9412
 30
0.0
 11
109.757
 21
46.9417
 31
0.0
  0
LINE
  8
0
 62
     0
 10
109.757
 20
46.9417
 30
0.0
 11
110.556
 21
46.9417
 31
0.0
  0
LINE
  8
0
 62
     0
 10
110.556
 20
46.9417
 30
0.0
 11
110.556
 21
50.0394
 31
0.0
  0
LINE
  8
0
 62
     0
 10
110.556
 20
50.0394
 30
0.0
 11
109.757
 21
50.0394
 31
0.0
  0
LINE
  8
0
 62
     0
 10
109.757
 20
50.0394
 30
0.0
 11
109.757
 21
55.8408
 31
0.0
  0
LINE
  8
0
 62
     0
 10
109.757
 20
55.8408
 30
0.0
 11
110.556
 21
55.8408
 31
0.0
  0
LINE
  8
0
 62
     0
 10
110.556
 20
55.8408
 30
0.0
 11
110.556
 21
58.9414
 31
0.0
  0
LINE
  8
0
 62
     0
 10
110.556
 20
58.9414
 30
0.0
 11
109.757
 21
58.9414
 31
0.0
  0
LINE
  8
0
 62
     0
 10
109.757
 20
58.9414
 30
0.0
 11
109.757
 21
59.9405
 31
0.0
  0
LINE
  8
0
 62
     0
 10
109.757
 20
59.9405
 30
0.0
 11
95.7573
 21
59.9405
 31
0.0
  0
LINE
  8
0
 62
     0
 10
114.807
 20
59.9405
 30
0.0
 11
114.807
 21
58.9414
 31
0.0
  0
LINE
  8
0
 62
     0
 10
114.807
 20
58.9414
 30
0.0
 11
114.006
 21
58.9414
 31
0.0
  0
LINE
  8
0
 62
     0
 10
114.006
 20
58.9414
 30
0.0
 11
114.006
 21
55.8408
 31
0.0
  0
LINE
  8
0
 62
     0
 10
114.006
 20
55.8408
 30
0.0
 11
114.807
 21
55.8408
 31
0.0
  0
LINE
  8
0
 62
     0
 10
114.807
 20
55.8408
 30
0.0
 11
114.807
 21
50.0394
 31
0.0
  0
LINE
  8
0
 62
     0
 10
114.807
 20
50.0394
 30
0.0
 11
114.006
 21
50.0394
 31
0.0
  0
LINE
  8
0
 62
     0
 10
114.006
 20
50.0394
 30
0.0
 11
114.006
 21
46.9417
 31
0.0
  0
LINE
  8
0
 62
     0
 10
114.006
 20
46.9417
 30
0.0
 11
114.807
 21
46.9417
 31
0.0
  0
LINE
  8
0
 62
     0
 10
114.807
 20
46.9417
 30
0.0
 11
114.807
 21
45.9412
 31
0.0
  0
LINE
  8
0
 62
     0
 10
114.807
 20
45.9412
 30
0.0
 11
128.807
 21
45.9412
 31
0.0
  0
LINE
  8
0
 62
     0
 10
128.807
 20
45.9412
 30
0.0
 11
128.807
 21
46.9417
 31
0.0
  0
LINE
  8
0
 62
     0
 10
128.807
 20
46.9417
 30
0.0
 11
129.606
 21
46.9417
 31
0.0
  0
LINE
  8
0
 62
     0
 10
129.606
 20
46.9417
 30
0.0
 11
129.606
 21
50.0394
 31
0.0
  0
LINE
  8
0
 62
     0
 10
129.606
 20
50.0394
 30
0.0
 11
128.807
 21
50.0394
 31
0.0
  0
LINE
  8
0
 62
     0
 10
128.807
 20
50.0394
 30
0.0
 11
128.807
 21
55.8408
 31
0.0
  0
LINE
  8
0
 62
     0
 10
128.807
 20
55.8408
 30
0.0
 11
129.606
 21
55.8408
 31
0.0
  0
LINE
  8
0
 62
     0
 10
129.606
 20
55.8408
 30
0.0
 11
129.606
 21
58.9414
 31
0.0
  0
LINE
  8
0
 62
     0
 10
129.606
 20
58.9414
 30
0.0
 11
128.807
 21
58.9414
 31
0.0
  0
LINE
  8
0
 62
     0
 10
128.807
 20
58.9414
 30
0.0
 11
128.807
 21
59.9405
 31
0.0
  0
LINE
  8
0
 62
     0
 10
128.807
 20
59.9405
 30
0.0
 11
114.807
 21
59.9405
 31
0.0
  0
LINE
  8
0
 62
     0
 10
133.857
 20
59.9405
 30
0.0
 11
133.857
 21
58.9414
 31
0.0
  0
LINE
  8
0
 62
     0
 10
133.857
 20
58.9414
 30
0.0
 11
133.056
 21
58.9414
 31
0.0
  0
LINE
  8
0
 62
     0
 10
133.056
 20
58.9414
 30
0.0
 11
133.056
 21
55.8408
 31
0.0
  0
LINE
  8
0
 62
     0
 10
133.056
 20
55.8408
 30
0.0
 11
133.857
 21
55.8408
 31
0.0
  0
LINE
  8
0
 62
     0
 10
133.857
 20
55.8408
 30
0.0
 11
133.857
 21
50.0394
 31
0.0
  0
LINE
  8
0
 62
     0
 10
133.857
 20
50.0394
 30
0.0
 11
133.056
 21
50.0394
 31
0.0
  0
LINE
  8
0
 62
     0
 10
133.056
 20
50.0394
 30
0.0
 11
133.056
 21
46.9417
 31
0.0
  0
LINE
  8
0
 62
     0
 10
133.056
 20
46.9417
 30
0.0
 11
133.857
 21
46.9417
 31
0.0
  0
LINE
  8
0
 62
     0
 10
133.857
 20
46.9417
 30
0.0
 11
133.857
 21
45.9412
 31
0.0
  0
LINE
  8
0
 62
     0
 10
133.857
 20
45.9412
 30
0.0
 11
147.857
 21
45.9412
 31
0.0
  0
LINE
  8
0
 62
     0
 10
147.857
 20
45.9412
 30
0.0
 11
147.857
 21
46.9417
 31
0.0
  0
LINE
  8
0
 62
     0
 10
147.857
 20
46.9417
 30
0.0
 11
148.656
 21
46.9417
 31
0.0
  0
LINE
  8
0
 62
     0
 10
148.656
 20
46.9417
 30
0.0
 11
148.656
 21
50.0394
 31
0.0
  0
LINE
  8
0
 62
     0
 10
148.656
 20
50.0394
 30
0.0
 11
147.857
 21
50.0394
 31
0.0
  0
LINE
  8
0
 62
     0
 10
147.857
 20
50.0394
 30
0.0
 11
147.857
 21
55.8408
 31
0.0
  0
LINE
  8
0
 62
     0
 10
147.857
 20
55.8408
 30
0.0
 11
148.656
 21
55.8408
 31
0.0
  0
LINE
  8
0
 62
     0
 10
148.656
 20
55.8408
 30
0.0
 11
148.656
 21
58.9414
 31
0.0
  0
LINE
  8
0
 62
     0
 10
148.656
 20
58.9414
 30
0.0
 11
147.857
 21
58.9414
 31
0.0
  0
LINE
  8
0
 62
     0
 10
147.857
 20
58.9414
 30
0.0
 11
147.857
 21
59.9405
 31
0.0
  0
LINE
  8
0
 62
     0
 10
147.857
 20
59.9405
 30
0.0
 11
133.857
 21
59.9405
 31
0.0
  0
LINE
  8
0
 62
     0
 10
152.907
 20
59.9405
 30
0.0
 11
152.907
 21
58.9414
 31
0.0
  0
LINE
  8
0
 62
     0
 10
152.907
 20
58.9414
 30
0.0
 11
152.106
 21
58.9414
 31
0.0
  0
LINE
  8
0
 62
     0
 10
152.106
 20
58.9414
 30
0.0
 11
152.106
 21
55.8408
 31
0.0
  0
LINE
  8
0
 62
     0
 10
152.106
 20
55.8408
 30
0.0
 11
152.907
 21
55.8408
 31
0.0
  0
LINE
  8
0
 62
     0
 10
152.907
 20
55.8408
 30
0.0
 11
152.907
 21
50.0394
 31
0.0
  0
LINE
  8
0
 62
     0
 10
152.907
 20
50.0394
 30
0.0
 11
152.106
 21
50.0394
 31
0.0
  0
LINE
  8
0
 62
     0
 10
152.106
 20
50.0394
 30
0.0
 11
152.106
 21
46.9417
 31
0.0
  0
LINE
  8
0
 62
     0
 10
152.106
 20
46.9417
 30
0.0
 11
152.907
 21
46.9417
 31
0.0
  0
LINE
  8
0
 62
     0
 10
152.907
 20
46.9417
 30
0.0
 11
152.907
 21
45.9412
 31
0.0
  0
LINE
  8
0
 62
     0
 10
152.907
 20
45.9412
 30
0.0
 11
166.907
 21
45.9412
 31
0.0
  0
LINE
  8
0
 62
     0
 10
166.907
 20
45.9412
 30
0.0
 11
166.907
 21
46.9417
 31
0.0
  0
LINE
  8
0
 62
     0
 10
166.907
 20
46.9417
 30
0.0
 11
167.706
 21
46.9417
 31
0.0
  0
LINE
  8
0
 62
     0
 10
167.706
 20
46.9417
 30
0.0
 11
167.706
 21
50.0394
 31
0.0
  0
LINE
  8
0
 62
     0
 10
167.706
 20
50.0394
 30
0.0
 11
166.907
 21
50.0394
 31
0.0
  0
LINE
  8
0
 62
     0
 10
166.907
 20
50.0394
 30
0.0
 11
166.907
 21
55.8408
 31
0.0
  0
LINE
  8
0
 62
     0
 10
166.907
 20
55.8408
 30
0.0
 11
167.706
 21
55.8408
 31
0.0
  0
LINE
  8
0
 62
     0
 10
167.706
 20
55.8408
 30
0.0
 11
167.706
 21
58.9414
 31
0.0
  0
LINE
  8
0
 62
     0
 10
167.706
 20
58.9414
 30
0.0
 11
166.907
 21
58.9414
 31
0.0
  0
LINE
  8
0
 62
     0
 10
166.907
 20
58.9414
 30
0.0
 11
166.907
 21
59.9405
 31
0.0
  0
LINE
  8
0
 62
     0
 10
166.907
 20
59.9405
 30
0.0
 11
152.907
 21
59.9405
 31
0.0
  0
LINE
  8
0
 62
     0
 10
171.957
 20
59.9405
 30
0.0
 11
171.957
 21
58.9414
 31
0.0
  0
LINE
  8
0
 62
     0
 10
171.957
 20
58.9414
 30
0.0
 11
171.156
 21
58.9414
 31
0.0
  0
LINE
  8
0
 62
     0
 10
171.156
 20
58.9414
 30
0.0
 11
171.156
 21
55.8408
 31
0.0
  0
LINE
  8
0
 62
     0
 10
171.156
 20
55.8408
 30
0.0
 11
171.957
 21
55.8408
 31
0.0
  0
LINE
  8
0
 62
     0
 10
171.957
 20
55.8408
 30
0.0
 11
171.957
 21
50.0394
 31
0.0
  0
LINE
  8
0
 62
     0
 10
171.957
 20
50.0394
 30
0.0
 11
171.156
 21
50.0394
 31
0.0
  0
LINE
  8
0
 62
     0
 10
171.156
 20
50.0394
 30
0.0
 11
171.156
 21
46.9417
 31
0.0
  0
LINE
  8
0
 62
     0
 10
171.156
 20
46.9417
 30
0.0
 11
171.957
 21
46.9417
 31
0.0
  0
LINE
  8
0
 62
     0
 10
171.957
 20
46.9417
 30
0.0
 11
171.957
 21
45.9412
 31
0.0
  0
LINE
  8
0
 62
     0
 10
171.957
 20
45.9412
 30
0.0
 11
185.957
 21
45.9412
 31
0.0
  0
LINE
  8
0
 62
     0
 10
185.957
 20
45.9412
 30
0.0
 11
185.957
 21
46.9417
 31
0.0
  0
LINE
  8
0
 62
     0
 10
185.957
 20
46.9417
 30
0.0
 11
186.756
 21
46.9417
 31
0.0
  0
LINE
  8
0
 62
     0
 10
186.756
 20
46.9417
 30
0.0
 11
186.756
 21
50.0394
 31
0.0
  0
LINE
  8
0
 62
     0
 10
186.756
 20
50.0394
 30
0.0
 11
185.957
 21
50.0394
 31
0.0
  0
LINE
  8
0
 62
     0
 10
185.957
 20
50.0394
 30
0.0
 11
185.957
 21
55.8408
 31
0.0
  0
LINE
  8
0
 62
     0
 10
185.957
 20
55.8408
 30
0.0
 11
186.756
 21
55.8408
 31
0.0
  0
LINE
  8
0
 62
     0
 10
186.756
 20
55.8408
 30
0.0
 11
186.756
 21
58.9414
 31
0.0
  0
LINE
  8
0
 62
     0
 10
186.756
 20
58.9414
 30
0.0
 11
185.957
 21
58.9414
 31
0.0
  0
LINE
  8
0
 62
     0
 10
185.957
 20
58.9414
 30
0.0
 11
185.957
 21
59.9405
 31
0.0
  0
LINE
  8
0
 62
     0
 10
185.957
 20
59.9405
 30
0.0
 11
171.957
 21
59.9405
 31
0.0
  0
LINE
  8
0
 62
     0
 10
191.007
 20
59.9405
 30
0.0
 11
191.007
 21
58.9414
 31
0.0
  0
LINE
  8
0
 62
     0
 10
191.007
 20
58.9414
 30
0.0
 11
190.207
 21
58.9414
 31
0.0
  0
LINE
  8
0
 62
     0
 10
190.207
 20
58.9414
 30
0.0
 11
190.207
 21
55.8408
 31
0.0
  0
LINE
  8
0
 62
     0
 10
190.207
 20
55.8408
 30
0.0
 11
191.007
 21
55.8408
 31
0.0
  0
LINE
  8
0
 62
     0
 10
191.007
 20
55.8408
 30
0.0
 11
191.007
 21
50.0394
 31
0.0
  0
LINE
  8
0
 62
     0
 10
191.007
 20
50.0394
 30
0.0
 11
190.207
 21
50.0394
 31
0.0
  0
LINE
  8
0
 62
     0
 10
190.207
 20
50.0394
 30
0.0
 11
190.207
 21
46.9417
 31
0.0
  0
LINE
  8
0
 62
     0
 10
190.207
 20
46.9417
 30
0.0
 11
191.007
 21
46.9417
 31
0.0
  0
LINE
  8
0
 62
     0
 10
191.007
 20
46.9417
 30
0.0
 11
191.007
 21
45.9412
 31
0.0
  0
LINE
  8
0
 62
     0
 10
191.007
 20
45.9412
 30
0.0
 11
205.007
 21
45.9412
 31
0.0
  0
LINE
  8
0
 62
     0
 10
205.007
 20
45.9412
 30
0.0
 11
205.007
 21
46.9417
 31
0.0
  0
LINE
  8
0
 62
     0
 10
205.007
 20
46.9417
 30
0.0
 11
205.806
 21
46.9417
 31
0.0
  0
LINE
  8
0
 62
     0
 10
205.806
 20
46.9417
 30
0.0
 11
205.806
 21
50.0394
 31
0.0
  0
LINE
  8
0
 62
     0
 10
205.806
 20
50.0394
 30
0.0
 11
205.007
 21
50.0394
 31
0.0
  0
LINE
  8
0
 62
     0
 10
205.007
 20
50.0394
 30
0.0
 11
205.007
 21
55.8408
 31
0.0
  0
LINE
  8
0
 62
     0
 10
205.007
 20
55.8408
 30
0.0
 11
205.806
 21
55.8408
 31
0.0
  0
LINE
  8
0
 62
     0
 10
205.806
 20
55.8408
 30
0.0
 11
205.806
 21
58.9414
 31
0.0
  0
LINE
  8
0
 62
     0
 10
205.806
 20
58.9414
 30
0.0
 11
205.007
 21
58.9414
 31
0.0
  0
LINE
  8
0
 62
     0
 10
205.007
 20
58.9414
 30
0.0
 11
205.007
 21
59.9405
 31
0.0
  0
LINE
  8
0
 62
     0
 10
205.007
 20
59.9405
 30
0.0
 11
191.007
 21
59.9405
 31
0.0
  0
LINE
  8
0
 62
     0
 10
210.057
 20
59.9405
 30
0.0
 11
210.057
 21
58.9414
 31
0.0
  0
LINE
  8
0
 62
     0
 10
210.057
 20
58.9414
 30
0.0
 11
209.257
 21
58.9414
 31
0.0
  0
LINE
  8
0
 62
     0
 10
209.257
 20
58.9414
 30
0.0
 11
209.257
 21
55.8408
 31
0.0
  0
LINE
  8
0
 62
     0
 10
209.257
 20
55.8408
 30
0.0
 11
210.057
 21
55.8408
 31
0.0
  0
LINE
  8
0
 62
     0
 10
210.057
 20
55.8408
 30
0.0
 11
210.057
 21
50.0394
 31
0.0
  0
LINE
  8
0
 62
     0
 10
210.057
 20
50.0394
 30
0.0
 11
209.257
 21
50.0394
 31
0.0
  0
LINE
  8
0
 62
     0
 10
209.257
 20
50.0394
 30
0.0
 11
209.257
 21
46.9417
 31
0.0
  0
LINE
  8
0
 62
     0
 10
209.257
 20
46.9417
 30
0.0
 11
210.057
 21
46.9417
 31
0.0
  0
LINE
  8
0
 62
     0
 10
210.057
 20
46.9417
 30
0.0
 11
210.057
 21
45.9412
 31
0.0
  0
LINE
  8
0
 62
     0
 10
210.057
 20
45.9412
 30
0.0
 11
224.057
 21
45.9412
 31
0.0
  0
LINE
  8
0
 62
     0
 10
224.057
 20
45.9412
 30
0.0
 11
224.057
 21
46.9417
 31
0.0
  0
LINE
  8
0
 62
     0
 10
224.057
 20
46.9417
 30
0.0
 11
224.856
 21
46.9417
 31
0.0
  0
LINE
  8
0
 62
     0
 10
224.856
 20
46.9417
 30
0.0
 11
224.856
 21
50.0394
 31
0.0
  0
LINE
  8
0
 62
     0
 10
224.856
 20
50.0394
 30
0.0
 11
224.057
 21
50.0394
 31
0.0
  0
LINE
  8
0
 62
     0
 10
224.057
 20
50.0394
 30
0.0
 11
224.057
 21
55.8408
 31
0.0
  0
LINE
  8
0
 62
     0
 10
224.057
 20
55.8408
 30
0.0
 11
224.856
 21
55.8408
 31
0.0
  0
LINE
  8
0
 62
     0
 10
224.856
 20
55.8408
 30
0.0
 11
224.856
 21
58.9414
 31
0.0
  0
LINE
  8
0
 62
     0
 10
224.856
 20
58.9414
 30
0.0
 11
224.057
 21
58.9414
 31
0.0
  0
LINE
  8
0
 62
     0
 10
224.057
 20
58.9414
 30
0.0
 11
224.057
 21
59.9405
 31
0.0
  0
LINE
  8
0
 62
     0
 10
224.057
 20
59.9405
 30
0.0
 11
210.057
 21
59.9405
 31
0.0
  0
LINE
  8
0
 62
     0
 10
229.107
 20
59.9405
 30
0.0
 11
229.107
 21
58.9414
 31
0.0
  0
LINE
  8
0
 62
     0
 10
229.107
 20
58.9414
 30
0.0
 11
228.307
 21
58.9414
 31
0.0
  0
LINE
  8
0
 62
     0
 10
228.307
 20
58.9414
 30
0.0
 11
228.307
 21
55.8408
 31
0.0
  0
LINE
  8
0
 62
     0
 10
228.307
 20
55.8408
 30
0.0
 11
229.107
 21
55.8408
 31
0.0
  0
LINE
  8
0
 62
     0
 10
229.107
 20
55.8408
 30
0.0
 11
229.107
 21
50.0394
 31
0.0
  0
LINE
  8
0
 62
     0
 10
229.107
 20
50.0394
 30
0.0
 11
228.307
 21
50.0394
 31
0.0
  0
LINE
  8
0
 62
     0
 10
228.307
 20
50.0394
 30
0.0
 11
228.307
 21
46.9417
 31
0.0
  0
LINE
  8
0
 62
     0
 10
228.307
 20
46.9417
 30
0.0
 11
229.107
 21
46.9417
 31
0.0
  0
LINE
  8
0
 62
     0
 10
229.107
 20
46.9417
 30
0.0
 11
229.107
 21
45.9412
 31
0.0
  0
LINE
  8
0
 62
     0
 10
229.107
 20
45.9412
 30
0.0
 11
243.107
 21
45.9412
 31
0.0
  0
LINE
  8
0
 62
     0
 10
243.107
 20
45.9412
 30
0.0
 11
243.107
 21
46.9417
 31
0.0
  0
LINE
  8
0
 62
     0
 10
243.107
 20
46.9417
 30
0.0
 11
243.906
 21
46.9417
 31
0.0
  0
LINE
  8
0
 62
     0
 10
243.906
 20
46.9417
 30
0.0
 11
243.906
 21
50.0394
 31
0.0
  0
LINE
  8
0
 62
     0
 10
243.906
 20
50.0394
 30
0.0
 11
243.107
 21
50.0394
 31
0.0
  0
LINE
  8
0
 62
     0
 10
243.107
 20
50.0394
 30
0.0
 11
243.107
 21
55.8408
 31
0.0
  0
LINE
  8
0
 62
     0
 10
243.107
 20
55.8408
 30
0.0
 11
243.906
 21
55.8408
 31
0.0
  0
LINE
  8
0
 62
     0
 10
243.906
 20
55.8408
 30
0.0
 11
243.906
 21
58.9414
 31
0.0
  0
LINE
  8
0
 62
     0
 10
243.906
 20
58.9414
 30
0.0
 11
243.107
 21
58.9414
 31
0.0
  0
LINE
  8
0
 62
     0
 10
243.107
 20
58.9414
 30
0.0
 11
243.107
 21
59.9405
 31
0.0
  0
LINE
  8
0
 62
     0
 10
243.107
 20
59.9405
 30
0.0
 11
229.107
 21
59.9405
 31
0.0
  0
LINE
  8
0
 62
     0
 10
291.02
 20
59.9405
 30
0.0
 11
291.02
 21
58.9414
 31
0.0
  0
LINE
  8
0
 62
     0
 10
291.02
 20
58.9414
 30
0.0
 11
290.219
 21
58.9414
 31
0.0
  0
LINE
  8
0
 62
     0
 10
290.219
 20
58.9414
 30
0.0
 11
290.219
 21
55.8408
 31
0.0
  0
LINE
  8
0
 62
     0
 10
290.219
 20
55.8408
 30
0.0
 11
291.02
 21
55.8408
 31
0.0
  0
LINE
  8
0
 62
     0
 10
291.02
 20
55.8408
 30
0.0
 11
291.02
 21
50.0394
 31
0.0
  0
LINE
  8
0
 62
     0
 10
291.02
 20
50.0394
 30
0.0
 11
290.219
 21
50.0394
 31
0.0
  0
LINE
  8
0
 62
     0
 10
290.219
 20
50.0394
 30
0.0
 11
290.219
 21
46.9417
 31
0.0
  0
LINE
  8
0
 62
     0
 10
290.219
 20
46.9417
 30
0.0
 11
291.02
 21
46.9417
 31
0.0
  0
LINE
  8
0
 62
     0
 10
291.02
 20
46.9417
 30
0.0
 11
291.02
 21
45.9412
 31
0.0
  0
LINE
  8
0
 62
     0
 10
291.02
 20
45.9412
 30
0.0
 11
305.019
 21
45.9412
 31
0.0
  0
LINE
  8
0
 62
     0
 10
305.019
 20
45.9412
 30
0.0
 11
305.019
 21
46.9417
 31
0.0
  0
LINE
  8
0
 62
     0
 10
305.019
 20
46.9417
 30
0.0
 11
305.82
 21
46.9417
 31
0.0
  0
LINE
  8
0
 62
     0
 10
305.82
 20
46.9417
 30
0.0
 11
305.82
 21
50.0394
 31
0.0
  0
LINE
  8
0
 62
     0
 10
305.82
 20
50.0394
 30
0.0
 11
305.019
 21
50.0394
 31
0.0
  0
LINE
  8
0
 62
     0
 10
305.019
 20
50.0394
 30
0.0
 11
305.019
 21
55.8408
 31
0.0
  0
LINE
  8
0
 62
     0
 10
305.019
 20
55.8408
 30
0.0
 11
305.82
 21
55.8408
 31
0.0
  0
LINE
  8
0
 62
     0
 10
305.82
 20
55.8408
 30
0.0
 11
305.82
 21
58.9414
 31
0.0
  0
LINE
  8
0
 62
     0
 10
305.82
 20
58.9414
 30
0.0
 11
305.019
 21
58.9414
 31
0.0
  0
LINE
  8
0
 62
     0
 10
305.019
 20
58.9414
 30
0.0
 11
305.019
 21
59.9405
 31
0.0
  0
LINE
  8
0
 62
     0
 10
305.019
 20
59.9405
 30
0.0
 11
291.02
 21
59.9405
 31
0.0
  0
LINE
  8
0
 62
     0
 10
10.0321
 20
78.9905
 30
0.0
 11
10.0321
 21
77.9914
 31
0.0
  0
LINE
  8
0
 62
     0
 10
10.0321
 20
77.9914
 30
0.0
 11
9.23149
 21
77.9914
 31
0.0
  0
LINE
  8
0
 62
     0
 10
9.23149
 20
77.9914
 30
0.0
 11
9.23149
 21
74.8908
 31
0.0
  0
LINE
  8
0
 62
     0
 10
9.23149
 20
74.8908
 30
0.0
 11
10.0321
 21
74.8908
 31
0.0
  0
LINE
  8
0
 62
     0
 10
10.0321
 20
74.8908
 30
0.0
 11
10.0321
 21
69.0894
 31
0.0
  0
LINE
  8
0
 62
     0
 10
10.0321
 20
69.0894
 30
0.0
 11
9.23149
 21
69.0894
 31
0.0
  0
LINE
  8
0
 62
     0
 10
9.23149
 20
69.0894
 30
0.0
 11
9.23149
 21
65.9903
 31
0.0
  0
LINE
  8
0
 62
     0
 10
9.23149
 20
65.9903
 30
0.0
 11
10.0321
 21
65.9903
 31
0.0
  0
LINE
  8
0
 62
     0
 10
10.0321
 20
65.9903
 30
0.0
 11
10.0321
 21
64.9898
 31
0.0
  0
LINE
  8
0
 62
     0
 10
10.0321
 20
64.9898
 30
0.0
 11
24.0316
 21
64.9898
 31
0.0
  0
LINE
  8
0
 62
     0
 10
24.0316
 20
64.9898
 30
0.0
 11
24.0316
 21
65.9903
 31
0.0
  0
LINE
  8
0
 62
     0
 10
24.0316
 20
65.9903
 30
0.0
 11
24.8309
 21
65.9903
 31
0.0
  0
LINE
  8
0
 62
     0
 10
24.8309
 20
65.9903
 30
0.0
 11
24.8309
 21
69.0894
 31
0.0
  0
LINE
  8
0
 62
     0
 10
24.8309
 20
69.0894
 30
0.0
 11
24.0316
 21
69.0894
 31
0.0
  0
LINE
  8
0
 62
     0
 10
24.0316
 20
69.0894
 30
0.0
 11
24.0316
 21
74.8908
 31
0.0
  0
LINE
  8
0
 62
     0
 10
24.0316
 20
74.8908
 30
0.0
 11
24.8309
 21
74.8908
 31
0.0
  0
LINE
  8
0
 62
     0
 10
24.8309
 20
74.8908
 30
0.0
 11
24.8309
 21
77.9914
 31
0.0
  0
LINE
  8
0
 62
     0
 10
24.8309
 20
77.9914
 30
0.0
 11
24.0316
 21
77.9914
 31
0.0
  0
LINE
  8
0
 62
     0
 10
24.0316
 20
77.9914
 30
0.0
 11
24.0316
 21
78.9905
 31
0.0
  0
LINE
  8
0
 62
     0
 10
24.0316
 20
78.9905
 30
0.0
 11
10.0321
 21
78.9905
 31
0.0
  0
LINE
  8
0
 62
     0
 10
33.8446
 20
78.9905
 30
0.0
 11
33.8446
 21
77.9914
 31
0.0
  0
LINE
  8
0
 62
     0
 10
33.8446
 20
77.9914
 30
0.0
 11
33.044
 21
77.9914
 31
0.0
  0
LINE
  8
0
 62
     0
 10
33.044
 20
77.9914
 30
0.0
 11
33.044
 21
74.8908
 31
0.0
  0
LINE
  8
0
 62
     0
 10
33.044
 20
74.8908
 30
0.0
 11
33.8446
 21
74.8908
 31
0.0
  0
LINE
  8
0
 62
     0
 10
33.8446
 20
74.8908
 30
0.0
 11
33.8446
 21
69.0894
 31
0.0
  0
LINE
  8
0
 62
     0
 10
33.8446
 20
69.0894
 30
0.0
 11
33.044
 21
69.0894
 31
0.0
  0
LINE
  8
0
 62
     0
 10
33.044
 20
69.0894
 30
0.0
 11
33.044
 21
65.9903
 31
0.0
  0
LINE
  8
0
 62
     0
 10
33.044
 20
65.9903
 30
0.0
 11
33.8446
 21
65.9903
 31
0.0
  0
LINE
  8
0
 62
     0
 10
33.8446
 20
65.9903
 30
0.0
 11
33.8446
 21
64.9898
 31
0.0
  0
LINE
  8
0
 62
     0
 10
33.8446
 20
64.9898
 30
0.0
 11
47.8441
 21
64.9898
 31
0.0
  0
LINE
  8
0
 62
     0
 10
47.8441
 20
64.9898
 30
0.0
 11
47.8441
 21
65.9903
 31
0.0
  0
LINE
  8
0
 62
     0
 10
47.8441
 20
65.9903
 30
0.0
 11
48.6449
 21
65.9903
 31
0.0
  0
LINE
  8
0
 62
     0
 10
48.6449
 20
65.9903
 30
0.0
 11
48.6449
 21
69.0894
 31
0.0
  0
LINE
  8
0
 62
     0
 10
48.6449
 20
69.0894
 30
0.0
 11
47.8441
 21
69.0894
 31
0.0
  0
LINE
  8
0
 62
     0
 10
47.8441
 20
69.0894
 30
0.0
 11
47.8441
 21
74.8908
 31
0.0
  0
LINE
  8
0
 62
     0
 10
47.8441
 20
74.8908
 30
0.0
 11
48.6449
 21
74.8908
 31
0.0
  0
LINE
  8
0
 62
     0
 10
48.6449
 20
74.8908
 30
0.0
 11
48.6449
 21
77.9914
 31
0.0
  0
LINE
  8
0
 62
     0
 10
48.6449
 20
77.9914
 30
0.0
 11
47.8441
 21
77.9914
 31
0.0
  0
LINE
  8
0
 62
     0
 10
47.8441
 20
77.9914
 30
0.0
 11
47.8441
 21
78.9905
 31
0.0
  0
LINE
  8
0
 62
     0
 10
47.8441
 20
78.9905
 30
0.0
 11
33.8446
 21
78.9905
 31
0.0
  0
LINE
  8
0
 62
     0
 10
52.8948
 20
78.9905
 30
0.0
 11
52.8948
 21
77.9914
 31
0.0
  0
LINE
  8
0
 62
     0
 10
52.8948
 20
77.9914
 30
0.0
 11
52.094
 21
77.9914
 31
0.0
  0
LINE
  8
0
 62
     0
 10
52.094
 20
77.9914
 30
0.0
 11
52.094
 21
74.8908
 31
0.0
  0
LINE
  8
0
 62
     0
 10
52.094
 20
74.8908
 30
0.0
 11
52.8948
 21
74.8908
 31
0.0
  0
LINE
  8
0
 62
     0
 10
52.8948
 20
74.8908
 30
0.0
 11
52.8948
 21
69.0894
 31
0.0
  0
LINE
  8
0
 62
     0
 10
52.8948
 20
69.0894
 30
0.0
 11
52.094
 21
69.0894
 31
0.0
  0
LINE
  8
0
 62
     0
 10
52.094
 20
69.0894
 30
0.0
 11
52.094
 21
65.9903
 31
0.0
  0
LINE
  8
0
 62
     0
 10
52.094
 20
65.9903
 30
0.0
 11
52.8948
 21
65.9903
 31
0.0
  0
LINE
  8
0
 62
     0
 10
52.8948
 20
65.9903
 30
0.0
 11
52.8948
 21
64.9898
 31
0.0
  0
LINE
  8
0
 62
     0
 10
52.8948
 20
64.9898
 30
0.0
 11
66.8941
 21
64.9898
 31
0.0
  0
LINE
  8
0
 62
     0
 10
66.8941
 20
64.9898
 30
0.0
 11
66.8941
 21
65.9903
 31
0.0
  0
LINE
  8
0
 62
     0
 10
66.8941
 20
65.9903
 30
0.0
 11
67.6949
 21
65.9903
 31
0.0
  0
LINE
  8
0
 62
     0
 10
67.6949
 20
65.9903
 30
0.0
 11
67.6949
 21
69.0894
 31
0.0
  0
LINE
  8
0
 62
     0
 10
67.6949
 20
69.0894
 30
0.0
 11
66.8941
 21
69.0894
 31
0.0
  0
LINE
  8
0
 62
     0
 10
66.8941
 20
69.0894
 30
0.0
 11
66.8941
 21
74.8908
 31
0.0
  0
LINE
  8
0
 62
     0
 10
66.8941
 20
74.8908
 30
0.0
 11
67.6949
 21
74.8908
 31
0.0
  0
LINE
  8
0
 62
     0
 10
67.6949
 20
74.8908
 30
0.0
 11
67.6949
 21
77.9914
 31
0.0
  0
LINE
  8
0
 62
     0
 10
67.6949
 20
77.9914
 30
0.0
 11
66.8941
 21
77.9914
 31
0.0
  0
LINE
  8
0
 62
     0
 10
66.8941
 20
77.9914
 30
0.0
 11
66.8941
 21
78.9905
 31
0.0
  0
LINE
  8
0
 62
     0
 10
66.8941
 20
78.9905
 30
0.0
 11
52.8948
 21
78.9905
 31
0.0
  0
LINE
  8
0
 62
     0
 10
71.9448
 20
78.9905
 30
0.0
 11
71.9448
 21
77.9914
 31
0.0
  0
LINE
  8
0
 62
     0
 10
71.9448
 20
77.9914
 30
0.0
 11
71.144
 21
77.9914
 31
0.0
  0
LINE
  8
0
 62
     0
 10
71.144
 20
77.9914
 30
0.0
 11
71.144
 21
74.8908
 31
0.0
  0
LINE
  8
0
 62
     0
 10
71.144
 20
74.8908
 30
0.0
 11
71.9448
 21
74.8908
 31
0.0
  0
LINE
  8
0
 62
     0
 10
71.9448
 20
74.8908
 30
0.0
 11
71.9448
 21
69.0894
 31
0.0
  0
LINE
  8
0
 62
     0
 10
71.9448
 20
69.0894
 30
0.0
 11
71.144
 21
69.0894
 31
0.0
  0
LINE
  8
0
 62
     0
 10
71.144
 20
69.0894
 30
0.0
 11
71.144
 21
65.9903
 31
0.0
  0
LINE
  8
0
 62
     0
 10
71.144
 20
65.9903
 30
0.0
 11
71.9448
 21
65.9903
 31
0.0
  0
LINE
  8
0
 62
     0
 10
71.9448
 20
65.9903
 30
0.0
 11
71.9448
 21
64.9898
 31
0.0
  0
LINE
  8
0
 62
     0
 10
71.9448
 20
64.9898
 30
0.0
 11
85.9441
 21
64.9898
 31
0.0
  0
LINE
  8
0
 62
     0
 10
85.9441
 20
64.9898
 30
0.0
 11
85.9441
 21
65.9903
 31
0.0
  0
LINE
  8
0
 62
     0
 10
85.9441
 20
65.9903
 30
0.0
 11
86.7449
 21
65.9903
 31
0.0
  0
LINE
  8
0
 62
     0
 10
86.7449
 20
65.9903
 30
0.0
 11
86.7449
 21
69.0894
 31
0.0
  0
LINE
  8
0
 62
     0
 10
86.7449
 20
69.0894
 30
0.0
 11
85.9441
 21
69.0894
 31
0.0
  0
LINE
  8
0
 62
     0
 10
85.9441
 20
69.0894
 30
0.0
 11
85.9441
 21
74.8908
 31
0.0
  0
LINE
  8
0
 62
     0
 10
85.9441
 20
74.8908
 30
0.0
 11
86.7449
 21
74.8908
 31
0.0
  0
LINE
  8
0
 62
     0
 10
86.7449
 20
74.8908
 30
0.0
 11
86.7449
 21
77.9914
 31
0.0
  0
LINE
  8
0
 62
     0
 10
86.7449
 20
77.9914
 30
0.0
 11
85.9441
 21
77.9914
 31
0.0
  0
LINE
  8
0
 62
     0
 10
85.9441
 20
77.9914
 30
0.0
 11
85.9441
 21
78.9905
 31
0.0
  0
LINE
  8
0
 62
     0
 10
85.9441
 20
78.9905
 30
0.0
 11
71.9448
 21
78.9905
 31
0.0
  0
LINE
  8
0
 62
     0
 10
90.9948
 20
78.9905
 30
0.0
 11
90.9948
 21
77.9914
 31
0.0
  0
LINE
  8
0
 62
     0
 10
90.9948
 20
77.9914
 30
0.0
 11
90.194
 21
77.9914
 31
0.0
  0
LINE
  8
0
 62
     0
 10
90.194
 20
77.9914
 30
0.0
 11
90.194
 21
74.8908
 31
0.0
  0
LINE
  8
0
 62
     0
 10
90.194
 20
74.8908
 30
0.0
 11
90.9948
 21
74.8908
 31
0.0
  0
LINE
  8
0
 62
     0
 10
90.9948
 20
74.8908
 30
0.0
 11
90.9948
 21
69.0894
 31
0.0
  0
LINE
  8
0
 62
     0
 10
90.9948
 20
69.0894
 30
0.0
 11
90.194
 21
69.0894
 31
0.0
  0
LINE
  8
0
 62
     0
 10
90.194
 20
69.0894
 30
0.0
 11
90.194
 21
65.9903
 31
0.0
  0
LINE
  8
0
 62
     0
 10
90.194
 20
65.9903
 30
0.0
 11
90.9948
 21
65.9903
 31
0.0
  0
LINE
  8
0
 62
     0
 10
90.9948
 20
65.9903
 30
0.0
 11
90.9948
 21
64.9898
 31
0.0
  0
LINE
  8
0
 62
     0
 10
90.9948
 20
64.9898
 30
0.0
 11
104.994
 21
64.9898
 31
0.0
  0
LINE
  8
0
 62
     0
 10
104.994
 20
64.9898
 30
0.0
 11
104.994
 21
65.9903
 31
0.0
  0
LINE
  8
0
 62
     0
 10
104.994
 20
65.9903
 30
0.0
 11
105.795
 21
65.9903
 31
0.0
  0
LINE
  8
0
 62
     0
 10
105.795
 20
65.9903
 30
0.0
 11
105.795
 21
69.0894
 31
0.0
  0
LINE
  8
0
 62
     0
 10
105.795
 20
69.0894
 30
0.0
 11
104.994
 21
69.0894
 31
0.0
  0
LINE
  8
0
 62
     0
 10
104.994
 20
69.0894
 30
0.0
 11
104.994
 21
74.8908
 31
0.0
  0
LINE
  8
0
 62
     0
 10
104.994
 20
74.8908
 30
0.0
 11
105.795
 21
74.8908
 31
0.0
  0
LINE
  8
0
 62
     0
 10
105.795
 20
74.8908
 30
0.0
 11
105.795
 21
77.9914
 31
0.0
  0
LINE
  8
0
 62
     0
 10
105.795
 20
77.9914
 30
0.0
 11
104.994
 21
77.9914
 31
0.0
  0
LINE
  8
0
 62
     0
 10
104.994
 20
77.9914
 30
0.0
 11
104.994
 21
78.9905
 31
0.0
  0
LINE
  8
0
 62
     0
 10
104.994
 20
78.9905
 30
0.0
 11
90.9948
 21
78.9905
 31
0.0
  0
LINE
  8
0
 62
     0
 10
110.045
 20
78.9905
 30
0.0
 11
110.045
 21
77.9914
 31
0.0
  0
LINE
  8
0
 62
     0
 10
110.045
 20
77.9914
 30
0.0
 11
109.244
 21
77.9914
 31
0.0
  0
LINE
  8
0
 62
     0
 10
109.244
 20
77.9914
 30
0.0
 11
109.244
 21
74.8908
 31
0.0
  0
LINE
  8
0
 62
     0
 10
109.244
 20
74.8908
 30
0.0
 11
110.045
 21
74.8908
 31
0.0
  0
LINE
  8
0
 62
     0
 10
110.045
 20
74.8908
 30
0.0
 11
110.045
 21
69.0894
 31
0.0
  0
LINE
  8
0
 62
     0
 10
110.045
 20
69.0894
 30
0.0
 11
109.244
 21
69.0894
 31
0.0
  0
LINE
  8
0
 62
     0
 10
109.244
 20
69.0894
 30
0.0
 11
109.244
 21
65.9903
 31
0.0
  0
LINE
  8
0
 62
     0
 10
109.244
 20
65.9903
 30
0.0
 11
110.045
 21
65.9903
 31
0.0
  0
LINE
  8
0
 62
     0
 10
110.045
 20
65.9903
 30
0.0
 11
110.045
 21
64.9898
 31
0.0
  0
LINE
  8
0
 62
     0
 10
110.045
 20
64.9898
 30
0.0
 11
124.044
 21
64.9898
 31
0.0
  0
LINE
  8
0
 62
     0
 10
124.044
 20
64.9898
 30
0.0
 11
124.044
 21
65.9903
 31
0.0
  0
LINE
  8
0
 62
     0
 10
124.044
 20
65.9903
 30
0.0
 11
124.845
 21
65.9903
 31
0.0
  0
LINE
  8
0
 62
     0
 10
124.845
 20
65.9903
 30
0.0
 11
124.845
 21
69.0894
 31
0.0
  0
LINE
  8
0
 62
     0
 10
124.845
 20
69.0894
 30
0.0
 11
124.044
 21
69.0894
 31
0.0
  0
LINE
  8
0
 62
     0
 10
124.044
 20
69.0894
 30
0.0
 11
124.044
 21
74.8908
 31
0.0
  0
LINE
  8
0
 62
     0
 10
124.044
 20
74.8908
 30
0.0
 11
124.845
 21
74.8908
 31
0.0
  0
LINE
  8
0
 62
     0
 10
124.845
 20
74.8908
 30
0.0
 11
124.845
 21
77.9914
 31
0.0
  0
LINE
  8
0
 62
     0
 10
124.845
 20
77.9914
 30
0.0
 11
124.044
 21
77.9914
 31
0.0
  0
LINE
  8
0
 62
     0
 10
124.044
 20
77.9914
 30
0.0
 11
124.044
 21
78.9905
 31
0.0
  0
LINE
  8
0
 62
     0
 10
124.044
 20
78.9905
 30
0.0
 11
110.045
 21
78.9905
 31
0.0
  0
LINE
  8
0
 62
     0
 10
129.095
 20
78.9905
 30
0.0
 11
129.095
 21
77.9914
 31
0.0
  0
LINE
  8
0
 62
     0
 10
129.095
 20
77.9914
 30
0.0
 11
128.294
 21
77.9914
 31
0.0
  0
LINE
  8
0
 62
     0
 10
128.294
 20
77.9914
 30
0.0
 11
128.294
 21
74.8908
 31
0.0
  0
LINE
  8
0
 62
     0
 10
128.294
 20
74.8908
 30
0.0
 11
129.095
 21
74.8908
 31
0.0
  0
LINE
  8
0
 62
     0
 10
129.095
 20
74.8908
 30
0.0
 11
129.095
 21
69.0894
 31
0.0
  0
LINE
  8
0
 62
     0
 10
129.095
 20
69.0894
 30
0.0
 11
128.294
 21
69.0894
 31
0.0
  0
LINE
  8
0
 62
     0
 10
128.294
 20
69.0894
 30
0.0
 11
128.294
 21
65.9903
 31
0.0
  0
LINE
  8
0
 62
     0
 10
128.294
 20
65.9903
 30
0.0
 11
129.095
 21
65.9903
 31
0.0
  0
LINE
  8
0
 62
     0
 10
129.095
 20
65.9903
 30
0.0
 11
129.095
 21
64.9898
 31
0.0
  0
LINE
  8
0
 62
     0
 10
129.095
 20
64.9898
 30
0.0
 11
143.094
 21
64.9898
 31
0.0
  0
LINE
  8
0
 62
     0
 10
143.094
 20
64.9898
 30
0.0
 11
143.094
 21
65.9903
 31
0.0
  0
LINE
  8
0
 62
     0
 10
143.094
 20
65.9903
 30
0.0
 11
143.895
 21
65.9903
 31
0.0
  0
LINE
  8
0
 62
     0
 10
143.895
 20
65.9903
 30
0.0
 11
143.895
 21
69.0894
 31
0.0
  0
LINE
  8
0
 62
     0
 10
143.895
 20
69.0894
 30
0.0
 11
143.094
 21
69.0894
 31
0.0
  0
LINE
  8
0
 62
     0
 10
143.094
 20
69.0894
 30
0.0
 11
143.094
 21
74.8908
 31
0.0
  0
LINE
  8
0
 62
     0
 10
143.094
 20
74.8908
 30
0.0
 11
143.895
 21
74.8908
 31
0.0
  0
LINE
  8
0
 62
     0
 10
143.895
 20
74.8908
 30
0.0
 11
143.895
 21
77.9914
 31
0.0
  0
LINE
  8
0
 62
     0
 10
143.895
 20
77.9914
 30
0.0
 11
143.094
 21
77.9914
 31
0.0
  0
LINE
  8
0
 62
     0
 10
143.094
 20
77.9914
 30
0.0
 11
143.094
 21
78.9905
 31
0.0
  0
LINE
  8
0
 62
     0
 10
143.094
 20
78.9905
 30
0.0
 11
129.095
 21
78.9905
 31
0.0
  0
LINE
  8
0
 62
     0
 10
148.145
 20
78.9905
 30
0.0
 11
148.145
 21
77.9914
 31
0.0
  0
LINE
  8
0
 62
     0
 10
148.145
 20
77.9914
 30
0.0
 11
147.344
 21
77.9914
 31
0.0
  0
LINE
  8
0
 62
     0
 10
147.344
 20
77.9914
 30
0.0
 11
147.344
 21
74.8908
 31
0.0
  0
LINE
  8
0
 62
     0
 10
147.344
 20
74.8908
 30
0.0
 11
148.145
 21
74.8908
 31
0.0
  0
LINE
  8
0
 62
     0
 10
148.145
 20
74.8908
 30
0.0
 11
148.145
 21
69.0894
 31
0.0
  0
LINE
  8
0
 62
     0
 10
148.145
 20
69.0894
 30
0.0
 11
147.344
 21
69.0894
 31
0.0
  0
LINE
  8
0
 62
     0
 10
147.344
 20
69.0894
 30
0.0
 11
147.344
 21
65.9903
 31
0.0
  0
LINE
  8
0
 62
     0
 10
147.344
 20
65.9903
 30
0.0
 11
148.145
 21
65.9903
 31
0.0
  0
LINE
  8
0
 62
     0
 10
148.145
 20
65.9903
 30
0.0
 11
148.145
 21
64.9898
 31
0.0
  0
LINE
  8
0
 62
     0
 10
148.145
 20
64.9898
 30
0.0
 11
162.144
 21
64.9898
 31
0.0
  0
LINE
  8
0
 62
     0
 10
162.144
 20
64.9898
 30
0.0
 11
162.144
 21
65.9903
 31
0.0
  0
LINE
  8
0
 62
     0
 10
162.144
 20
65.9903
 30
0.0
 11
162.945
 21
65.9903
 31
0.0
  0
LINE
  8
0
 62
     0
 10
162.945
 20
65.9903
 30
0.0
 11
162.945
 21
69.0894
 31
0.0
  0
LINE
  8
0
 62
     0
 10
162.945
 20
69.0894
 30
0.0
 11
162.144
 21
69.0894
 31
0.0
  0
LINE
  8
0
 62
     0
 10
162.144
 20
69.0894
 30
0.0
 11
162.144
 21
74.8908
 31
0.0
  0
LINE
  8
0
 62
     0
 10
162.144
 20
74.8908
 30
0.0
 11
162.945
 21
74.8908
 31
0.0
  0
LINE
  8
0
 62
     0
 10
162.945
 20
74.8908
 30
0.0
 11
162.945
 21
77.9914
 31
0.0
  0
LINE
  8
0
 62
     0
 10
162.945
 20
77.9914
 30
0.0
 11
162.144
 21
77.9914
 31
0.0
  0
LINE
  8
0
 62
     0
 10
162.144
 20
77.9914
 30
0.0
 11
162.144
 21
78.9905
 31
0.0
  0
LINE
  8
0
 62
     0
 10
162.144
 20
78.9905
 30
0.0
 11
148.145
 21
78.9905
 31
0.0
  0
LINE
  8
0
 62
     0
 10
167.195
 20
78.9905
 30
0.0
 11
167.195
 21
77.9914
 31
0.0
  0
LINE
  8
0
 62
     0
 10
167.195
 20
77.9914
 30
0.0
 11
166.394
 21
77.9914
 31
0.0
  0
LINE
  8
0
 62
     0
 10
166.394
 20
77.9914
 30
0.0
 11
166.394
 21
74.8908
 31
0.0
  0
LINE
  8
0
 62
     0
 10
166.394
 20
74.8908
 30
0.0
 11
167.195
 21
74.8908
 31
0.0
  0
LINE
  8
0
 62
     0
 10
167.195
 20
74.8908
 30
0.0
 11
167.195
 21
69.0894
 31
0.0
  0
LINE
  8
0
 62
     0
 10
167.195
 20
69.0894
 30
0.0
 11
166.394
 21
69.0894
 31
0.0
  0
LINE
  8
0
 62
     0
 10
166.394
 20
69.0894
 30
0.0
 11
166.394
 21
65.9903
 31
0.0
  0
LINE
  8
0
 62
     0
 10
166.394
 20
65.9903
 30
0.0
 11
167.195
 21
65.9903
 31
0.0
  0
LINE
  8
0
 62
     0
 10
167.195
 20
65.9903
 30
0.0
 11
167.195
 21
64.9898
 31
0.0
  0
LINE
  8
0
 62
     0
 10
167.195
 20
64.9898
 30
0.0
 11
181.194
 21
64.9898
 31
0.0
  0
LINE
  8
0
 62
     0
 10
181.194
 20
64.9898
 30
0.0
 11
181.194
 21
65.9903
 31
0.0
  0
LINE
  8
0
 62
     0
 10
181.194
 20
65.9903
 30
0.0
 11
181.995
 21
65.9903
 31
0.0
  0
LINE
  8
0
 62
     0
 10
181.995
 20
65.9903
 30
0.0
 11
181.995
 21
69.0894
 31
0.0
  0
LINE
  8
0
 62
     0
 10
181.995
 20
69.0894
 30
0.0
 11
181.194
 21
69.0894
 31
0.0
  0
LINE
  8
0
 62
     0
 10
181.194
 20
69.0894
 30
0.0
 11
181.194
 21
74.8908
 31
0.0
  0
LINE
  8
0
 62
     0
 10
181.194
 20
74.8908
 30
0.0
 11
181.995
 21
74.8908
 31
0.0
  0
LINE
  8
0
 62
     0
 10
181.995
 20
74.8908
 30
0.0
 11
181.995
 21
77.9914
 31
0.0
  0
LINE
  8
0
 62
     0
 10
181.995
 20
77.9914
 30
0.0
 11
181.194
 21
77.9914
 31
0.0
  0
LINE
  8
0
 62
     0
 10
181.194
 20
77.9914
 30
0.0
 11
181.194
 21
78.9905
 31
0.0
  0
LINE
  8
0
 62
     0
 10
181.194
 20
78.9905
 30
0.0
 11
167.195
 21
78.9905
 31
0.0
  0
LINE
  8
0
 62
     0
 10
186.245
 20
78.9905
 30
0.0
 11
186.245
 21
77.9914
 31
0.0
  0
LINE
  8
0
 62
     0
 10
186.245
 20
77.9914
 30
0.0
 11
185.444
 21
77.9914
 31
0.0
  0
LINE
  8
0
 62
     0
 10
185.444
 20
77.9914
 30
0.0
 11
185.444
 21
74.8908
 31
0.0
  0
LINE
  8
0
 62
     0
 10
185.444
 20
74.8908
 30
0.0
 11
186.245
 21
74.8908
 31
0.0
  0
LINE
  8
0
 62
     0
 10
186.245
 20
74.8908
 30
0.0
 11
186.245
 21
69.0894
 31
0.0
  0
LINE
  8
0
 62
     0
 10
186.245
 20
69.0894
 30
0.0
 11
185.444
 21
69.0894
 31
0.0
  0
LINE
  8
0
 62
     0
 10
185.444
 20
69.0894
 30
0.0
 11
185.444
 21
65.9903
 31
0.0
  0
LINE
  8
0
 62
     0
 10
185.444
 20
65.9903
 30
0.0
 11
186.245
 21
65.9903
 31
0.0
  0
LINE
  8
0
 62
     0
 10
186.245
 20
65.9903
 30
0.0
 11
186.245
 21
64.9898
 31
0.0
  0
LINE
  8
0
 62
     0
 10
186.245
 20
64.9898
 30
0.0
 11
200.244
 21
64.9898
 31
0.0
  0
LINE
  8
0
 62
     0
 10
200.244
 20
64.9898
 30
0.0
 11
200.244
 21
65.9903
 31
0.0
  0
LINE
  8
0
 62
     0
 10
200.244
 20
65.9903
 30
0.0
 11
201.045
 21
65.9903
 31
0.0
  0
LINE
  8
0
 62
     0
 10
201.045
 20
65.9903
 30
0.0
 11
201.045
 21
69.0894
 31
0.0
  0
LINE
  8
0
 62
     0
 10
201.045
 20
69.0894
 30
0.0
 11
200.244
 21
69.0894
 31
0.0
  0
LINE
  8
0
 62
     0
 10
200.244
 20
69.0894
 30
0.0
 11
200.244
 21
74.8908
 31
0.0
  0
LINE
  8
0
 62
     0
 10
200.244
 20
74.8908
 30
0.0
 11
201.045
 21
74.8908
 31
0.0
  0
LINE
  8
0
 62
     0
 10
201.045
 20
74.8908
 30
0.0
 11
201.045
 21
77.9914
 31
0.0
  0
LINE
  8
0
 62
     0
 10
201.045
 20
77.9914
 30
0.0
 11
200.244
 21
77.9914
 31
0.0
  0
LINE
  8
0
 62
     0
 10
200.244
 20
77.9914
 30
0.0
 11
200.244
 21
78.9905
 31
0.0
  0
LINE
  8
0
 62
     0
 10
200.244
 20
78.9905
 30
0.0
 11
186.245
 21
78.9905
 31
0.0
  0
LINE
  8
0
 62
     0
 10
205.295
 20
78.9905
 30
0.0
 11
205.295
 21
77.9914
 31
0.0
  0
LINE
  8
0
 62
     0
 10
205.295
 20
77.9914
 30
0.0
 11
204.494
 21
77.9914
 31
0.0
  0
LINE
  8
0
 62
     0
 10
204.494
 20
77.9914
 30
0.0
 11
204.494
 21
74.8908
 31
0.0
  0
LINE
  8
0
 62
     0
 10
204.494
 20
74.8908
 30
0.0
 11
205.295
 21
74.8908
 31
0.0
  0
LINE
  8
0
 62
     0
 10
205.295
 20
74.8908
 30
0.0
 11
205.295
 21
69.0894
 31
0.0
  0
LINE
  8
0
 62
     0
 10
205.295
 20
69.0894
 30
0.0
 11
204.494
 21
69.0894
 31
0.0
  0
LINE
  8
0
 62
     0
 10
204.494
 20
69.0894
 30
0.0
 11
204.494
 21
65.9903
 31
0.0
  0
LINE
  8
0
 62
     0
 10
204.494
 20
65.9903
 30
0.0
 11
205.295
 21
65.9903
 31
0.0
  0
LINE
  8
0
 62
     0
 10
205.295
 20
65.9903
 30
0.0
 11
205.295
 21
64.9898
 31
0.0
  0
LINE
  8
0
 62
     0
 10
205.295
 20
64.9898
 30
0.0
 11
219.294
 21
64.9898
 31
0.0
  0
LINE
  8
0
 62
     0
 10
219.294
 20
64.9898
 30
0.0
 11
219.294
 21
65.9903
 31
0.0
  0
LINE
  8
0
 62
     0
 10
219.294
 20
65.9903
 30
0.0
 11
220.095
 21
65.9903
 31
0.0
  0
LINE
  8
0
 62
     0
 10
220.095
 20
65.9903
 30
0.0
 11
220.095
 21
69.0894
 31
0.0
  0
LINE
  8
0
 62
     0
 10
220.095
 20
69.0894
 30
0.0
 11
219.294
 21
69.0894
 31
0.0
  0
LINE
  8
0
 62
     0
 10
219.294
 20
69.0894
 30
0.0
 11
219.294
 21
74.8908
 31
0.0
  0
LINE
  8
0
 62
     0
 10
219.294
 20
74.8908
 30
0.0
 11
220.095
 21
74.8908
 31
0.0
  0
LINE
  8
0
 62
     0
 10
220.095
 20
74.8908
 30
0.0
 11
220.095
 21
77.9914
 31
0.0
  0
LINE
  8
0
 62
     0
 10
220.095
 20
77.9914
 30
0.0
 11
219.294
 21
77.9914
 31
0.0
  0
LINE
  8
0
 62
     0
 10
219.294
 20
77.9914
 30
0.0
 11
219.294
 21
78.9905
 31
0.0
  0
LINE
  8
0
 62
     0
 10
219.294
 20
78.9905
 30
0.0
 11
205.295
 21
78.9905
 31
0.0
  0
LINE
  8
0
 62
     0
 10
224.345
 20
78.9905
 30
0.0
 11
224.345
 21
77.9914
 31
0.0
  0
LINE
  8
0
 62
     0
 10
224.345
 20
77.9914
 30
0.0
 11
223.544
 21
77.9914
 31
0.0
  0
LINE
  8
0
 62
     0
 10
223.544
 20
77.9914
 30
0.0
 11
223.544
 21
74.8908
 31
0.0
  0
LINE
  8
0
 62
     0
 10
223.544
 20
74.8908
 30
0.0
 11
224.345
 21
74.8908
 31
0.0
  0
LINE
  8
0
 62
     0
 10
224.345
 20
74.8908
 30
0.0
 11
224.345
 21
69.0894
 31
0.0
  0
LINE
  8
0
 62
     0
 10
224.345
 20
69.0894
 30
0.0
 11
223.544
 21
69.0894
 31
0.0
  0
LINE
  8
0
 62
     0
 10
223.544
 20
69.0894
 30
0.0
 11
223.544
 21
65.9903
 31
0.0
  0
LINE
  8
0
 62
     0
 10
223.544
 20
65.9903
 30
0.0
 11
224.345
 21
65.9903
 31
0.0
  0
LINE
  8
0
 62
     0
 10
224.345
 20
65.9903
 30
0.0
 11
224.345
 21
64.9898
 31
0.0
  0
LINE
  8
0
 62
     0
 10
224.345
 20
64.9898
 30
0.0
 11
238.344
 21
64.9898
 31
0.0
  0
LINE
  8
0
 62
     0
 10
238.344
 20
64.9898
 30
0.0
 11
238.344
 21
65.9903
 31
0.0
  0
LINE
  8
0
 62
     0
 10
238.344
 20
65.9903
 30
0.0
 11
239.145
 21
65.9903
 31
0.0
  0
LINE
  8
0
 62
     0
 10
239.145
 20
65.9903
 30
0.0
 11
239.145
 21
69.0894
 31
0.0
  0
LINE
  8
0
 62
     0
 10
239.145
 20
69.0894
 30
0.0
 11
238.344
 21
69.0894
 31
0.0
  0
LINE
  8
0
 62
     0
 10
238.344
 20
69.0894
 30
0.0
 11
238.344
 21
74.8908
 31
0.0
  0
LINE
  8
0
 62
     0
 10
238.344
 20
74.8908
 30
0.0
 11
239.145
 21
74.8908
 31
0.0
  0
LINE
  8
0
 62
     0
 10
239.145
 20
74.8908
 30
0.0
 11
239.145
 21
77.9914
 31
0.0
  0
LINE
  8
0
 62
     0
 10
239.145
 20
77.9914
 30
0.0
 11
238.344
 21
77.9914
 31
0.0
  0
LINE
  8
0
 62
     0
 10
238.344
 20
77.9914
 30
0.0
 11
238.344
 21
78.9905
 31
0.0
  0
LINE
  8
0
 62
     0
 10
238.344
 20
78.9905
 30
0.0
 11
224.345
 21
78.9905
 31
0.0
  0
LINE
  8
0
 62
     0
 10
243.395
 20
78.9905
 30
0.0
 11
243.395
 21
77.9914
 31
0.0
  0
LINE
  8
0
 62
     0
 10
243.395
 20
77.9914
 30
0.0
 11
242.594
 21
77.9914
 31
0.0
  0
LINE
  8
0
 62
     0
 10
242.594
 20
77.9914
 30
0.0
 11
242.594
 21
74.8908
 31
0.0
  0
LINE
  8
0
 62
     0
 10
242.594
 20
74.8908
 30
0.0
 11
243.395
 21
74.8908
 31
0.0
  0
LINE
  8
0
 62
     0
 10
243.395
 20
74.8908
 30
0.0
 11
243.395
 21
69.0894
 31
0.0
  0
LINE
  8
0
 62
     0
 10
243.395
 20
69.0894
 30
0.0
 11
242.594
 21
69.0894
 31
0.0
  0
LINE
  8
0
 62
     0
 10
242.594
 20
69.0894
 30
0.0
 11
242.594
 21
65.9903
 31
0.0
  0
LINE
  8
0
 62
     0
 10
242.594
 20
65.9903
 30
0.0
 11
243.395
 21
65.9903
 31
0.0
  0
LINE
  8
0
 62
     0
 10
243.395
 20
65.9903
 30
0.0
 11
243.395
 21
64.9898
 31
0.0
  0
LINE
  8
0
 62
     0
 10
243.395
 20
64.9898
 30
0.0
 11
257.394
 21
64.9898
 31
0.0
  0
LINE
  8
0
 62
     0
 10
257.394
 20
64.9898
 30
0.0
 11
257.394
 21
65.9903
 31
0.0
  0
LINE
  8
0
 62
     0
 10
257.394
 20
65.9903
 30
0.0
 11
258.195
 21
65.9903
 31
0.0
  0
LINE
  8
0
 62
     0
 10
258.195
 20
65.9903
 30
0.0
 11
258.195
 21
69.0894
 31
0.0
  0
LINE
  8
0
 62
     0
 10
258.195
 20
69.0894
 30
0.0
 11
257.394
 21
69.0894
 31
0.0
  0
LINE
  8
0
 62
     0
 10
257.394
 20
69.0894
 30
0.0
 11
257.394
 21
74.8908
 31
0.0
  0
LINE
  8
0
 62
     0
 10
257.394
 20
74.8908
 30
0.0
 11
258.195
 21
74.8908
 31
0.0
  0
LINE
  8
0
 62
     0
 10
258.195
 20
74.8908
 30
0.0
 11
258.195
 21
77.9914
 31
0.0
  0
LINE
  8
0
 62
     0
 10
258.195
 20
77.9914
 30
0.0
 11
257.394
 21
77.9914
 31
0.0
  0
LINE
  8
0
 62
     0
 10
257.394
 20
77.9914
 30
0.0
 11
257.394
 21
78.9905
 31
0.0
  0
LINE
  8
0
 62
     0
 10
257.394
 20
78.9905
 30
0.0
 11
243.395
 21
78.9905
 31
0.0
  0
LINE
  8
0
 62
     0
 10
267.207
 20
78.9905
 30
0.0
 11
267.207
 21
77.9914
 31
0.0
  0
LINE
  8
0
 62
     0
 10
267.207
 20
77.9914
 30
0.0
 11
266.407
 21
77.9914
 31
0.0
  0
LINE
  8
0
 62
     0
 10
266.407
 20
77.9914
 30
0.0
 11
266.407
 21
74.8908
 31
0.0
  0
LINE
  8
0
 62
     0
 10
266.407
 20
74.8908
 30
0.0
 11
267.207
 21
74.8908
 31
0.0
  0
LINE
  8
0
 62
     0
 10
267.207
 20
74.8908
 30
0.0
 11
267.207
 21
69.0894
 31
0.0
  0
LINE
  8
0
 62
     0
 10
267.207
 20
69.0894
 30
0.0
 11
266.407
 21
69.0894
 31
0.0
  0
LINE
  8
0
 62
     0
 10
266.407
 20
69.0894
 30
0.0
 11
266.407
 21
65.9903
 31
0.0
  0
LINE
  8
0
 62
     0
 10
266.407
 20
65.9903
 30
0.0
 11
267.207
 21
65.9903
 31
0.0
  0
LINE
  8
0
 62
     0
 10
267.207
 20
65.9903
 30
0.0
 11
267.207
 21
64.9898
 31
0.0
  0
LINE
  8
0
 62
     0
 10
267.207
 20
64.9898
 30
0.0
 11
281.207
 21
64.9898
 31
0.0
  0
LINE
  8
0
 62
     0
 10
281.207
 20
64.9898
 30
0.0
 11
281.207
 21
65.9903
 31
0.0
  0
LINE
  8
0
 62
     0
 10
281.207
 20
65.9903
 30
0.0
 11
282.006
 21
65.9903
 31
0.0
  0
LINE
  8
0
 62
     0
 10
282.006
 20
65.9903
 30
0.0
 11
282.006
 21
69.0894
 31
0.0
  0
LINE
  8
0
 62
     0
 10
282.006
 20
69.0894
 30
0.0
 11
281.207
 21
69.0894
 31
0.0
  0
LINE
  8
0
 62
     0
 10
281.207
 20
69.0894
 30
0.0
 11
281.207
 21
74.8908
 31
0.0
  0
LINE
  8
0
 62
     0
 10
281.207
 20
74.8908
 30
0.0
 11
282.006
 21
74.8908
 31
0.0
  0
LINE
  8
0
 62
     0
 10
282.006
 20
74.8908
 30
0.0
 11
282.006
 21
77.9914
 31
0.0
  0
LINE
  8
0
 62
     0
 10
282.006
 20
77.9914
 30
0.0
 11
281.207
 21
77.9914
 31
0.0
  0
LINE
  8
0
 62
     0
 10
281.207
 20
77.9914
 30
0.0
 11
281.207
 21
78.9905
 31
0.0
  0
LINE
  8
0
 62
     0
 10
281.207
 20
78.9905
 30
0.0
 11
267.207
 21
78.9905
 31
0.0
  0
LINE
  8
0
 62
     0
 10
291.02
 20
78.9905
 30
0.0
 11
291.02
 21
77.9914
 31
0.0
  0
LINE
  8
0
 62
     0
 10
291.02
 20
77.9914
 30
0.0
 11
290.219
 21
77.9914
 31
0.0
  0
LINE
  8
0
 62
     0
 10
290.219
 20
77.9914
 30
0.0
 11
290.219
 21
74.8908
 31
0.0
  0
LINE
  8
0
 62
     0
 10
290.219
 20
74.8908
 30
0.0
 11
291.02
 21
74.8908
 31
0.0
  0
LINE
  8
0
 62
     0
 10
291.02
 20
74.8908
 30
0.0
 11
291.02
 21
69.0894
 31
0.0
  0
LINE
  8
0
 62
     0
 10
291.02
 20
69.0894
 30
0.0
 11
290.219
 21
69.0894
 31
0.0
  0
LINE
  8
0
 62
     0
 10
290.219
 20
69.0894
 30
0.0
 11
290.219
 21
65.9903
 31
0.0
  0
LINE
  8
0
 62
     0
 10
290.219
 20
65.9903
 30
0.0
 11
291.02
 21
65.9903
 31
0.0
  0
LINE
  8
0
 62
     0
 10
291.02
 20
65.9903
 30
0.0
 11
291.02
 21
64.9898
 31
0.0
  0
LINE
  8
0
 62
     0
 10
291.02
 20
64.9898
 30
0.0
 11
305.019
 21
64.9898
 31
0.0
  0
LINE
  8
0
 62
     0
 10
305.019
 20
64.9898
 30
0.0
 11
305.019
 21
65.9903
 31
0.0
  0
LINE
  8
0
 62
     0
 10
305.019
 20
65.9903
 30
0.0
 11
305.82
 21
65.9903
 31
0.0
  0
LINE
  8
0
 62
     0
 10
305.82
 20
65.9903
 30
0.0
 11
305.82
 21
69.0894
 31
0.0
  0
LINE
  8
0
 62
     0
 10
305.82
 20
69.0894
 30
0.0
 11
305.019
 21
69.0894
 31
0.0
  0
LINE
  8
0
 62
     0
 10
305.019
 20
69.0894
 30
0.0
 11
305.019
 21
74.8908
 31
0.0
  0
LINE
  8
0
 62
     0
 10
305.019
 20
74.8908
 30
0.0
 11
305.82
 21
74.8908
 31
0.0
  0
LINE
  8
0
 62
     0
 10
305.82
 20
74.8908
 30
0.0
 11
305.82
 21
77.9914
 31
0.0
  0
LINE
  8
0
 62
     0
 10
305.82
 20
77.9914
 30
0.0
 11
305.019
 21
77.9914
 31
0.0
  0
LINE
  8
0
 62
     0
 10
305.019
 20
77.9914
 30
0.0
 11
305.019
 21
78.9905
 31
0.0
  0
LINE
  8
0
 62
     0
 10
305.019
 20
78.9905
 30
0.0
 11
291.02
 21
78.9905
 31
0.0
  0
LINE
  8
0
 62
     0
 10
262.445
 20
98.0405
 30
0.0
 11
262.445
 21
97.0414
 31
0.0
  0
LINE
  8
0
 62
     0
 10
262.445
 20
97.0414
 30
0.0
 11
261.644
 21
97.0414
 31
0.0
  0
LINE
  8
0
 62
     0
 10
261.644
 20
97.0414
 30
0.0
 11
261.644
 21
93.9394
 31
0.0
  0
LINE
  8
0
 62
     0
 10
261.644
 20
93.9394
 30
0.0
 11
262.445
 21
93.9394
 31
0.0
  0
LINE
  8
0
 62
     0
 10
262.445
 20
93.9394
 30
0.0
 11
262.445
 21
93.3401
 31
0.0
  0
LINE
  8
0
 62
     0
 10
262.445
 20
93.3401
 30
0.0
 11
260.919
 21
93.3401
 31
0.0
  0
LINE
  8
0
 62
     0
 10
260.919
 20
93.3401
 30
0.0
 11
260.919
 21
96.5701
 31
0.0
  0
LINE
  8
0
 62
     0
 10
260.919
 20
96.5701
 30
0.0
 11
259.194
 21
96.5701
 31
0.0
  0
LINE
  8
0
 62
     0
 10
259.194
 20
96.5701
 30
0.0
 11
259.194
 21
97.4908
 31
0.0
  0
LINE
  8
0
 62
     0
 10
259.194
 20
97.4908
 30
0.0
 11
255.893
 21
97.4908
 31
0.0
  0
LINE
  8
0
 62
     0
 10
255.893
 20
97.4908
 30
0.0
 11
255.893
 21
96.5701
 31
0.0
  0
LINE
  8
0
 62
     0
 10
255.893
 20
96.5701
 30
0.0
 11
254.169
 21
96.5701
 31
0.0
  0
LINE
  8
0
 62
     0
 10
254.169
 20
96.5701
 30
0.0
 11
254.169
 21
93.3401
 31
0.0
  0
LINE
  8
0
 62
     0
 10
254.169
 20
93.3401
 30
0.0
 11
253.344
 21
93.3401
 31
0.0
  0
LINE
  8
0
 62
     0
 10
253.344
 20
93.3401
 30
0.0
 11
253.344
 21
90.5411
 31
0.0
  0
LINE
  8
0
 62
     0
 10
253.344
 20
90.5411
 30
0.0
 11
254.169
 21
90.5411
 31
0.0
  0
LINE
  8
0
 62
     0
 10
254.169
 20
90.5411
 30
0.0
 11
254.169
 21
84.2712
 31
0.0
  0
LINE
  8
0
 62
     0
 10
254.169
 20
84.2712
 30
0.0
 11
255.893
 21
84.2712
 31
0.0
  0
LINE
  8
0
 62
     0
 10
255.893
 20
84.2712
 30
0.0
 11
255.893
 21
83.2915
 31
0.0
  0
LINE
  8
0
 62
     0
 10
255.893
 20
83.2915
 30
0.0
 11
259.194
 21
83.2915
 31
0.0
  0
LINE
  8
0
 62
     0
 10
259.194
 20
83.2915
 30
0.0
 11
259.194
 21
84.2712
 31
0.0
  0
LINE
  8
0
 62
     0
 10
259.194
 20
84.2712
 30
0.0
 11
260.919
 21
84.2712
 31
0.0
  0
LINE
  8
0
 62
     0
 10
260.919
 20
84.2712
 30
0.0
 11
260.919
 21
88.7416
 31
0.0
  0
LINE
  8
0
 62
     0
 10
260.919
 20
88.7416
 30
0.0
 11
262.445
 21
88.7416
 31
0.0
  0
LINE
  8
0
 62
     0
 10
262.445
 20
88.7416
 30
0.0
 11
262.445
 21
88.1408
 31
0.0
  0
LINE
  8
0
 62
     0
 10
262.445
 20
88.1408
 30
0.0
 11
261.644
 21
88.1408
 31
0.0
  0
LINE
  8
0
 62
     0
 10
261.644
 20
88.1408
 30
0.0
 11
261.644
 21
85.0417
 31
0.0
  0
LINE
  8
0
 62
     0
 10
261.644
 20
85.0417
 30
0.0
 11
262.445
 21
85.0417
 31
0.0
  0
LINE
  8
0
 62
     0
 10
262.445
 20
85.0417
 30
0.0
 11
262.445
 21
84.0412
 31
0.0
  0
LINE
  8
0
 62
     0
 10
262.445
 20
84.0412
 30
0.0
 11
276.444
 21
84.0412
 31
0.0
  0
LINE
  8
0
 62
     0
 10
276.444
 20
84.0412
 30
0.0
 11
276.444
 21
85.0417
 31
0.0
  0
LINE
  8
0
 62
     0
 10
276.444
 20
85.0417
 30
0.0
 11
277.245
 21
85.0417
 31
0.0
  0
LINE
  8
0
 62
     0
 10
277.245
 20
85.0417
 30
0.0
 11
277.245
 21
88.1408
 31
0.0
  0
LINE
  8
0
 62
     0
 10
277.245
 20
88.1408
 30
0.0
 11
276.444
 21
88.1408
 31
0.0
  0
LINE
  8
0
 62
     0
 10
276.444
 20
88.1408
 30
0.0
 11
276.444
 21
88.7416
 31
0.0
  0
LINE
  8
0
 62
     0
 10
276.444
 20
88.7416
 30
0.0
 11
277.969
 21
88.7416
 31
0.0
  0
LINE
  8
0
 62
     0
 10
277.969
 20
88.7416
 30
0.0
 11
277.969
 21
84.2712
 31
0.0
  0
LINE
  8
0
 62
     0
 10
277.969
 20
84.2712
 30
0.0
 11
279.695
 21
84.2712
 31
0.0
  0
LINE
  8
0
 62
     0
 10
279.695
 20
84.2712
 30
0.0
 11
279.695
 21
83.2915
 31
0.0
  0
LINE
  8
0
 62
     0
 10
279.695
 20
83.2915
 30
0.0
 11
282.994
 21
83.2915
 31
0.0
  0
LINE
  8
0
 62
     0
 10
282.994
 20
83.2915
 30
0.0
 11
282.994
 21
84.2712
 31
0.0
  0
LINE
  8
0
 62
     0
 10
282.994
 20
84.2712
 30
0.0
 11
284.719
 21
84.2712
 31
0.0
  0
LINE
  8
0
 62
     0
 10
284.719
 20
84.2712
 30
0.0
 11
284.719
 21
90.5411
 31
0.0
  0
LINE
  8
0
 62
     0
 10
284.719
 20
90.5411
 30
0.0
 11
285.545
 21
90.5411
 31
0.0
  0
LINE
  8
0
 62
     0
 10
285.545
 20
90.5411
 30
0.0
 11
285.545
 21
93.3401
 31
0.0
  0
LINE
  8
0
 62
     0
 10
285.545
 20
93.3401
 30
0.0
 11
284.719
 21
93.3401
 31
0.0
  0
LINE
  8
0
 62
     0
 10
284.719
 20
93.3401
 30
0.0
 11
284.719
 21
96.5701
 31
0.0
  0
LINE
  8
0
 62
     0
 10
284.719
 20
96.5701
 30
0.0
 11
282.994
 21
96.5701
 31
0.0
  0
LINE
  8
0
 62
     0
 10
282.994
 20
96.5701
 30
0.0
 11
282.994
 21
97.4908
 31
0.0
  0
LINE
  8
0
 62
     0
 10
282.994
 20
97.4908
 30
0.0
 11
279.695
 21
97.4908
 31
0.0
  0
LINE
  8
0
 62
     0
 10
279.695
 20
97.4908
 30
0.0
 11
279.695
 21
96.5701
 31
0.0
  0
LINE
  8
0
 62
     0
 10
279.695
 20
96.5701
 30
0.0
 11
277.969
 21
96.5701
 31
0.0
  0
LINE
  8
0
 62
     0
 10
277.969
 20
96.5701
 30
0.0
 11
277.969
 21
93.3401
 31
0.0
  0
LINE
  8
0
 62
     0
 10
277.969
 20
93.3401
 30
0.0
 11
276.444
 21
93.3401
 31
0.0
  0
LINE
  8
0
 62
     0
 10
276.444
 20
93.3401
 30
0.0
 11
276.444
 21
93.9394
 31
0.0
  0
LINE
  8
0
 62
     0
 10
276.444
 20
93.9394
 30
0.0
 11
277.245
 21
93.9394
 31
0.0
  0
LINE
  8
0
 62
     0
 10
277.245
 20
93.9394
 30
0.0
 11
277.245
 21
97.0414
 31
0.0
  0
LINE
  8
0
 62
     0
 10
277.245
 20
97.0414
 30
0.0
 11
276.444
 21
97.0414
 31
0.0
  0
LINE
  8
0
 62
     0
 10
276.444
 20
97.0414
 30
0.0
 11
276.444
 21
98.0405
 31
0.0
  0
LINE
  8
0
 62
     0
 10
276.444
 20
98.0405
 30
0.0
 11
262.445
 21
98.0405
 31
0.0
  0
LINE
  8
0
 62
     0
 10
5.26962
 20
98.0405
 30
0.0
 11
5.26962
 21
97.0414
 31
0.0
  0
LINE
  8
0
 62
     0
 10
5.26962
 20
97.0414
 30
0.0
 11
4.46899
 21
97.0414
 31
0.0
  0
LINE
  8
0
 62
     0
 10
4.46899
 20
97.0414
 30
0.0
 11
4.46899
 21
93.9394
 31
0.0
  0
LINE
  8
0
 62
     0
 10
4.46899
 20
93.9394
 30
0.0
 11
5.26962
 21
93.9394
 31
0.0
  0
LINE
  8
0
 62
     0
 10
5.26962
 20
93.9394
 30
0.0
 11
5.26962
 21
88.1408
 31
0.0
  0
LINE
  8
0
 62
     0
 10
5.26962
 20
88.1408
 30
0.0
 11
4.46899
 21
88.1408
 31
0.0
  0
LINE
  8
0
 62
     0
 10
4.46899
 20
88.1408
 30
0.0
 11
4.46899
 21
85.0417
 31
0.0
  0
LINE
  8
0
 62
     0
 10
4.46899
 20
85.0417
 30
0.0
 11
5.26962
 21
85.0417
 31
0.0
  0
LINE
  8
0
 62
     0
 10
5.26962
 20
85.0417
 30
0.0
 11
5.26962
 21
84.0412
 31
0.0
  0
LINE
  8
0
 62
     0
 10
5.26962
 20
84.0412
 30
0.0
 11
19.2691
 21
84.0412
 31
0.0
  0
LINE
  8
0
 62
     0
 10
19.2691
 20
84.0412
 30
0.0
 11
19.2691
 21
85.0417
 31
0.0
  0
LINE
  8
0
 62
     0
 10
19.2691
 20
85.0417
 30
0.0
 11
20.0697
 21
85.0417
 31
0.0
  0
LINE
  8
0
 62
     0
 10
20.0697
 20
85.0417
 30
0.0
 11
20.0697
 21
88.1408
 31
0.0
  0
LINE
  8
0
 62
     0
 10
20.0697
 20
88.1408
 30
0.0
 11
19.2691
 21
88.1408
 31
0.0
  0
LINE
  8
0
 62
     0
 10
19.2691
 20
88.1408
 30
0.0
 11
19.2691
 21
93.9394
 31
0.0
  0
LINE
  8
0
 62
     0
 10
19.2691
 20
93.9394
 30
0.0
 11
20.0697
 21
93.9394
 31
0.0
  0
LINE
  8
0
 62
     0
 10
20.0697
 20
93.9394
 30
0.0
 11
20.0697
 21
97.0414
 31
0.0
  0
LINE
  8
0
 62
     0
 10
20.0697
 20
97.0414
 30
0.0
 11
19.2691
 21
97.0414
 31
0.0
  0
LINE
  8
0
 62
     0
 10
19.2691
 20
97.0414
 30
0.0
 11
19.2691
 21
98.0405
 31
0.0
  0
LINE
  8
0
 62
     0
 10
19.2691
 20
98.0405
 30
0.0
 11
5.26962
 21
98.0405
 31
0.0
  0
LINE
  8
0
 62
     0
 10
24.3196
 20
98.0405
 30
0.0
 11
24.3196
 21
97.0414
 31
0.0
  0
LINE
  8
0
 62
     0
 10
24.3196
 20
97.0414
 30
0.0
 11
23.519
 21
97.0414
 31
0.0
  0
LINE
  8
0
 62
     0
 10
23.519
 20
97.0414
 30
0.0
 11
23.519
 21
93.9394
 31
0.0
  0
LINE
  8
0
 62
     0
 10
23.519
 20
93.9394
 30
0.0
 11
24.3196
 21
93.9394
 31
0.0
  0
LINE
  8
0
 62
     0
 10
24.3196
 20
93.9394
 30
0.0
 11
24.3196
 21
88.1408
 31
0.0
  0
LINE
  8
0
 62
     0
 10
24.3196
 20
88.1408
 30
0.0
 11
23.519
 21
88.1408
 31
0.0
  0
LINE
  8
0
 62
     0
 10
23.519
 20
88.1408
 30
0.0
 11
23.519
 21
85.0417
 31
0.0
  0
LINE
  8
0
 62
     0
 10
23.519
 20
85.0417
 30
0.0
 11
24.3196
 21
85.0417
 31
0.0
  0
LINE
  8
0
 62
     0
 10
24.3196
 20
85.0417
 30
0.0
 11
24.3196
 21
84.0412
 31
0.0
  0
LINE
  8
0
 62
     0
 10
24.3196
 20
84.0412
 30
0.0
 11
38.3191
 21
84.0412
 31
0.0
  0
LINE
  8
0
 62
     0
 10
38.3191
 20
84.0412
 30
0.0
 11
38.3191
 21
85.0417
 31
0.0
  0
LINE
  8
0
 62
     0
 10
38.3191
 20
85.0417
 30
0.0
 11
39.1199
 21
85.0417
 31
0.0
  0
LINE
  8
0
 62
     0
 10
39.1199
 20
85.0417
 30
0.0
 11
39.1199
 21
88.1408
 31
0.0
  0
LINE
  8
0
 62
     0
 10
39.1199
 20
88.1408
 30
0.0
 11
38.3191
 21
88.1408
 31
0.0
  0
LINE
  8
0
 62
     0
 10
38.3191
 20
88.1408
 30
0.0
 11
38.3191
 21
93.9394
 31
0.0
  0
LINE
  8
0
 62
     0
 10
38.3191
 20
93.9394
 30
0.0
 11
39.1199
 21
93.9394
 31
0.0
  0
LINE
  8
0
 62
     0
 10
39.1199
 20
93.9394
 30
0.0
 11
39.1199
 21
97.0414
 31
0.0
  0
LINE
  8
0
 62
     0
 10
39.1199
 20
97.0414
 30
0.0
 11
38.3191
 21
97.0414
 31
0.0
  0
LINE
  8
0
 62
     0
 10
38.3191
 20
97.0414
 30
0.0
 11
38.3191
 21
98.0405
 31
0.0
  0
LINE
  8
0
 62
     0
 10
38.3191
 20
98.0405
 30
0.0
 11
24.3196
 21
98.0405
 31
0.0
  0
LINE
  8
0
 62
     0
 10
43.3698
 20
98.0405
 30
0.0
 11
43.3698
 21
97.0414
 31
0.0
  0
LINE
  8
0
 62
     0
 10
43.3698
 20
97.0414
 30
0.0
 11
42.569
 21
97.0414
 31
0.0
  0
LINE
  8
0
 62
     0
 10
42.569
 20
97.0414
 30
0.0
 11
42.569
 21
93.9394
 31
0.0
  0
LINE
  8
0
 62
     0
 10
42.569
 20
93.9394
 30
0.0
 11
43.3698
 21
93.9394
 31
0.0
  0
LINE
  8
0
 62
     0
 10
43.3698
 20
93.9394
 30
0.0
 11
43.3698
 21
88.1408
 31
0.0
  0
LINE
  8
0
 62
     0
 10
43.3698
 20
88.1408
 30
0.0
 11
42.569
 21
88.1408
 31
0.0
  0
LINE
  8
0
 62
     0
 10
42.569
 20
88.1408
 30
0.0
 11
42.569
 21
85.0417
 31
0.0
  0
LINE
  8
0
 62
     0
 10
42.569
 20
85.0417
 30
0.0
 11
43.3698
 21
85.0417
 31
0.0
  0
LINE
  8
0
 62
     0
 10
43.3698
 20
85.0417
 30
0.0
 11
43.3698
 21
84.0412
 31
0.0
  0
LINE
  8
0
 62
     0
 10
43.3698
 20
84.0412
 30
0.0
 11
57.3691
 21
84.0412
 31
0.0
  0
LINE
  8
0
 62
     0
 10
57.3691
 20
84.0412
 30
0.0
 11
57.3691
 21
85.0417
 31
0.0
  0
LINE
  8
0
 62
     0
 10
57.3691
 20
85.0417
 30
0.0
 11
58.1699
 21
85.0417
 31
0.0
  0
LINE
  8
0
 62
     0
 10
58.1699
 20
85.0417
 30
0.0
 11
58.1699
 21
88.1408
 31
0.0
  0
LINE
  8
0
 62
     0
 10
58.1699
 20
88.1408
 30
0.0
 11
57.3691
 21
88.1408
 31
0.0
  0
LINE
  8
0
 62
     0
 10
57.3691
 20
88.1408
 30
0.0
 11
57.3691
 21
93.9394
 31
0.0
  0
LINE
  8
0
 62
     0
 10
57.3691
 20
93.9394
 30
0.0
 11
58.1699
 21
93.9394
 31
0.0
  0
LINE
  8
0
 62
     0
 10
58.1699
 20
93.9394
 30
0.0
 11
58.1699
 21
97.0414
 31
0.0
  0
LINE
  8
0
 62
     0
 10
58.1699
 20
97.0414
 30
0.0
 11
57.3691
 21
97.0414
 31
0.0
  0
LINE
  8
0
 62
     0
 10
57.3691
 20
97.0414
 30
0.0
 11
57.3691
 21
98.0405
 31
0.0
  0
LINE
  8
0
 62
     0
 10
57.3691
 20
98.0405
 30
0.0
 11
43.3698
 21
98.0405
 31
0.0
  0
LINE
  8
0
 62
     0
 10
62.4198
 20
98.0405
 30
0.0
 11
62.4198
 21
97.0414
 31
0.0
  0
LINE
  8
0
 62
     0
 10
62.4198
 20
97.0414
 30
0.0
 11
61.619
 21
97.0414
 31
0.0
  0
LINE
  8
0
 62
     0
 10
61.619
 20
97.0414
 30
0.0
 11
61.619
 21
93.9394
 31
0.0
  0
LINE
  8
0
 62
     0
 10
61.619
 20
93.9394
 30
0.0
 11
62.4198
 21
93.9394
 31
0.0
  0
LINE
  8
0
 62
     0
 10
62.4198
 20
93.9394
 30
0.0
 11
62.4198
 21
88.1408
 31
0.0
  0
LINE
  8
0
 62
     0
 10
62.4198
 20
88.1408
 30
0.0
 11
61.619
 21
88.1408
 31
0.0
  0
LINE
  8
0
 62
     0
 10
61.619
 20
88.1408
 30
0.0
 11
61.619
 21
85.0417
 31
0.0
  0
LINE
  8
0
 62
     0
 10
61.619
 20
85.0417
 30
0.0
 11
62.4198
 21
85.0417
 31
0.0
  0
LINE
  8
0
 62
     0
 10
62.4198
 20
85.0417
 30
0.0
 11
62.4198
 21
84.0412
 31
0.0
  0
LINE
  8
0
 62
     0
 10
62.4198
 20
84.0412
 30
0.0
 11
76.4191
 21
84.0412
 31
0.0
  0
LINE
  8
0
 62
     0
 10
76.4191
 20
84.0412
 30
0.0
 11
76.4191
 21
85.0417
 31
0.0
  0
LINE
  8
0
 62
     0
 10
76.4191
 20
85.0417
 30
0.0
 11
77.2199
 21
85.0417
 31
0.0
  0
LINE
  8
0
 62
     0
 10
77.2199
 20
85.0417
 30
0.0
 11
77.2199
 21
88.1408
 31
0.0
  0
LINE
  8
0
 62
     0
 10
77.2199
 20
88.1408
 30
0.0
 11
76.4191
 21
88.1408
 31
0.0
  0
LINE
  8
0
 62
     0
 10
76.4191
 20
88.1408
 30
0.0
 11
76.4191
 21
93.9394
 31
0.0
  0
LINE
  8
0
 62
     0
 10
76.4191
 20
93.9394
 30
0.0
 11
77.2199
 21
93.9394
 31
0.0
  0
LINE
  8
0
 62
     0
 10
77.2199
 20
93.9394
 30
0.0
 11
77.2199
 21
97.0414
 31
0.0
  0
LINE
  8
0
 62
     0
 10
77.2199
 20
97.0414
 30
0.0
 11
76.4191
 21
97.0414
 31
0.0
  0
LINE
  8
0
 62
     0
 10
76.4191
 20
97.0414
 30
0.0
 11
76.4191
 21
98.0405
 31
0.0
  0
LINE
  8
0
 62
     0
 10
76.4191
 20
98.0405
 30
0.0
 11
62.4198
 21
98.0405
 31
0.0
  0
LINE
  8
0
 62
     0
 10
81.4698
 20
98.0405
 30
0.0
 11
81.4698
 21
97.0414
 31
0.0
  0
LINE
  8
0
 62
     0
 10
81.4698
 20
97.0414
 30
0.0
 11
80.669
 21
97.0414
 31
0.0
  0
LINE
  8
0
 62
     0
 10
80.669
 20
97.0414
 30
0.0
 11
80.669
 21
93.9394
 31
0.0
  0
LINE
  8
0
 62
     0
 10
80.669
 20
93.9394
 30
0.0
 11
81.4698
 21
93.9394
 31
0.0
  0
LINE
  8
0
 62
     0
 10
81.4698
 20
93.9394
 30
0.0
 11
81.4698
 21
88.1408
 31
0.0
  0
LINE
  8
0
 62
     0
 10
81.4698
 20
88.1408
 30
0.0
 11
80.669
 21
88.1408
 31
0.0
  0
LINE
  8
0
 62
     0
 10
80.669
 20
88.1408
 30
0.0
 11
80.669
 21
85.0417
 31
0.0
  0
LINE
  8
0
 62
     0
 10
80.669
 20
85.0417
 30
0.0
 11
81.4698
 21
85.0417
 31
0.0
  0
LINE
  8
0
 62
     0
 10
81.4698
 20
85.0417
 30
0.0
 11
81.4698
 21
84.0412
 31
0.0
  0
LINE
  8
0
 62
     0
 10
81.4698
 20
84.0412
 30
0.0
 11
95.4691
 21
84.0412
 31
0.0
  0
LINE
  8
0
 62
     0
 10
95.4691
 20
84.0412
 30
0.0
 11
95.4691
 21
85.0417
 31
0.0
  0
LINE
  8
0
 62
     0
 10
95.4691
 20
85.0417
 30
0.0
 11
96.2685
 21
85.0417
 31
0.0
  0
LINE
  8
0
 62
     0
 10
96.2685
 20
85.0417
 30
0.0
 11
96.2685
 21
88.1408
 31
0.0
  0
LINE
  8
0
 62
     0
 10
96.2685
 20
88.1408
 30
0.0
 11
95.4691
 21
88.1408
 31
0.0
  0
LINE
  8
0
 62
     0
 10
95.4691
 20
88.1408
 30
0.0
 11
95.4691
 21
93.9394
 31
0.0
  0
LINE
  8
0
 62
     0
 10
95.4691
 20
93.9394
 30
0.0
 11
96.2685
 21
93.9394
 31
0.0
  0
LINE
  8
0
 62
     0
 10
96.2685
 20
93.9394
 30
0.0
 11
96.2685
 21
97.0414
 31
0.0
  0
LINE
  8
0
 62
     0
 10
96.2685
 20
97.0414
 30
0.0
 11
95.4691
 21
97.0414
 31
0.0
  0
LINE
  8
0
 62
     0
 10
95.4691
 20
97.0414
 30
0.0
 11
95.4691
 21
98.0405
 31
0.0
  0
LINE
  8
0
 62
     0
 10
95.4691
 20
98.0405
 30
0.0
 11
81.4698
 21
98.0405
 31
0.0
  0
LINE
  8
0
 62
     0
 10
100.518
 20
98.0405
 30
0.0
 11
100.518
 21
97.0414
 31
0.0
  0
LINE
  8
0
 62
     0
 10
100.518
 20
97.0414
 30
0.0
 11
99.719
 21
97.0414
 31
0.0
  0
LINE
  8
0
 62
     0
 10
99.719
 20
97.0414
 30
0.0
 11
99.719
 21
93.9394
 31
0.0
  0
LINE
  8
0
 62
     0
 10
99.719
 20
93.9394
 30
0.0
 11
100.518
 21
93.9394
 31
0.0
  0
LINE
  8
0
 62
     0
 10
100.518
 20
93.9394
 30
0.0
 11
100.518
 21
88.1408
 31
0.0
  0
LINE
  8
0
 62
     0
 10
100.518
 20
88.1408
 30
0.0
 11
99.719
 21
88.1408
 31
0.0
  0
LINE
  8
0
 62
     0
 10
99.719
 20
88.1408
 30
0.0
 11
99.719
 21
85.0417
 31
0.0
  0
LINE
  8
0
 62
     0
 10
99.719
 20
85.0417
 30
0.0
 11
100.518
 21
85.0417
 31
0.0
  0
LINE
  8
0
 62
     0
 10
100.518
 20
85.0417
 30
0.0
 11
100.518
 21
84.0412
 31
0.0
  0
LINE
  8
0
 62
     0
 10
100.518
 20
84.0412
 30
0.0
 11
114.519
 21
84.0412
 31
0.0
  0
LINE
  8
0
 62
     0
 10
114.519
 20
84.0412
 30
0.0
 11
114.519
 21
85.0417
 31
0.0
  0
LINE
  8
0
 62
     0
 10
114.519
 20
85.0417
 30
0.0
 11
115.318
 21
85.0417
 31
0.0
  0
LINE
  8
0
 62
     0
 10
115.318
 20
85.0417
 30
0.0
 11
115.318
 21
88.1408
 31
0.0
  0
LINE
  8
0
 62
     0
 10
115.318
 20
88.1408
 30
0.0
 11
114.519
 21
88.1408
 31
0.0
  0
LINE
  8
0
 62
     0
 10
114.519
 20
88.1408
 30
0.0
 11
114.519
 21
93.9394
 31
0.0
  0
LINE
  8
0
 62
     0
 10
114.519
 20
93.9394
 30
0.0
 11
115.318
 21
93.9394
 31
0.0
  0
LINE
  8
0
 62
     0
 10
115.318
 20
93.9394
 30
0.0
 11
115.318
 21
97.0414
 31
0.0
  0
LINE
  8
0
 62
     0
 10
115.318
 20
97.0414
 30
0.0
 11
114.519
 21
97.0414
 31
0.0
  0
LINE
  8
0
 62
     0
 10
114.519
 20
97.0414
 30
0.0
 11
114.519
 21
98.0405
 31
0.0
  0
LINE
  8
0
 62
     0
 10
114.519
 20
98.0405
 30
0.0
 11
100.518
 21
98.0405
 31
0.0
  0
LINE
  8
0
 62
     0
 10
119.568
 20
98.0405
 30
0.0
 11
119.568
 21
97.0414
 31
0.0
  0
LINE
  8
0
 62
     0
 10
119.568
 20
97.0414
 30
0.0
 11
118.769
 21
97.0414
 31
0.0
  0
LINE
  8
0
 62
     0
 10
118.769
 20
97.0414
 30
0.0
 11
118.769
 21
93.9394
 31
0.0
  0
LINE
  8
0
 62
     0
 10
118.769
 20
93.9394
 30
0.0
 11
119.568
 21
93.9394
 31
0.0
  0
LINE
  8
0
 62
     0
 10
119.568
 20
93.9394
 30
0.0
 11
119.568
 21
88.1408
 31
0.0
  0
LINE
  8
0
 62
     0
 10
119.568
 20
88.1408
 30
0.0
 11
118.769
 21
88.1408
 31
0.0
  0
LINE
  8
0
 62
     0
 10
118.769
 20
88.1408
 30
0.0
 11
118.769
 21
85.0417
 31
0.0
  0
LINE
  8
0
 62
     0
 10
118.769
 20
85.0417
 30
0.0
 11
119.568
 21
85.0417
 31
0.0
  0
LINE
  8
0
 62
     0
 10
119.568
 20
85.0417
 30
0.0
 11
119.568
 21
84.0412
 31
0.0
  0
LINE
  8
0
 62
     0
 10
119.568
 20
84.0412
 30
0.0
 11
133.569
 21
84.0412
 31
0.0
  0
LINE
  8
0
 62
     0
 10
133.569
 20
84.0412
 30
0.0
 11
133.569
 21
85.0417
 31
0.0
  0
LINE
  8
0
 62
     0
 10
133.569
 20
85.0417
 30
0.0
 11
134.37
 21
85.0417
 31
0.0
  0
LINE
  8
0
 62
     0
 10
134.37
 20
85.0417
 30
0.0
 11
134.37
 21
88.1408
 31
0.0
  0
LINE
  8
0
 62
     0
 10
134.37
 20
88.1408
 30
0.0
 11
133.569
 21
88.1408
 31
0.0
  0
LINE
  8
0
 62
     0
 10
133.569
 20
88.1408
 30
0.0
 11
133.569
 21
93.9394
 31
0.0
  0
LINE
  8
0
 62
     0
 10
133.569
 20
93.9394
 30
0.0
 11
134.37
 21
93.9394
 31
0.0
  0
LINE
  8
0
 62
     0
 10
134.37
 20
93.9394
 30
0.0
 11
134.37
 21
97.0414
 31
0.0
  0
LINE
  8
0
 62
     0
 10
134.37
 20
97.0414
 30
0.0
 11
133.569
 21
97.0414
 31
0.0
  0
LINE
  8
0
 62
     0
 10
133.569
 20
97.0414
 30
0.0
 11
133.569
 21
98.0405
 31
0.0
  0
LINE
  8
0
 62
     0
 10
133.569
 20
98.0405
 30
0.0
 11
119.568
 21
98.0405
 31
0.0
  0
LINE
  8
0
 62
     0
 10
138.62
 20
98.0405
 30
0.0
 11
138.62
 21
97.0414
 31
0.0
  0
LINE
  8
0
 62
     0
 10
138.62
 20
97.0414
 30
0.0
 11
137.819
 21
97.0414
 31
0.0
  0
LINE
  8
0
 62
     0
 10
137.819
 20
97.0414
 30
0.0
 11
137.819
 21
93.9394
 31
0.0
  0
LINE
  8
0
 62
     0
 10
137.819
 20
93.9394
 30
0.0
 11
138.62
 21
93.9394
 31
0.0
  0
LINE
  8
0
 62
     0
 10
138.62
 20
93.9394
 30
0.0
 11
138.62
 21
88.1408
 31
0.0
  0
LINE
  8
0
 62
     0
 10
138.62
 20
88.1408
 30
0.0
 11
137.819
 21
88.1408
 31
0.0
  0
LINE
  8
0
 62
     0
 10
137.819
 20
88.1408
 30
0.0
 11
137.819
 21
85.0417
 31
0.0
  0
LINE
  8
0
 62
     0
 10
137.819
 20
85.0417
 30
0.0
 11
138.62
 21
85.0417
 31
0.0
  0
LINE
  8
0
 62
     0
 10
138.62
 20
85.0417
 30
0.0
 11
138.62
 21
84.0412
 31
0.0
  0
LINE
  8
0
 62
     0
 10
138.62
 20
84.0412
 30
0.0
 11
152.619
 21
84.0412
 31
0.0
  0
LINE
  8
0
 62
     0
 10
152.619
 20
84.0412
 30
0.0
 11
152.619
 21
85.0417
 31
0.0
  0
LINE
  8
0
 62
     0
 10
152.619
 20
85.0417
 30
0.0
 11
153.42
 21
85.0417
 31
0.0
  0
LINE
  8
0
 62
     0
 10
153.42
 20
85.0417
 30
0.0
 11
153.42
 21
88.1408
 31
0.0
  0
LINE
  8
0
 62
     0
 10
153.42
 20
88.1408
 30
0.0
 11
152.619
 21
88.1408
 31
0.0
  0
LINE
  8
0
 62
     0
 10
152.619
 20
88.1408
 30
0.0
 11
152.619
 21
93.9394
 31
0.0
  0
LINE
  8
0
 62
     0
 10
152.619
 20
93.9394
 30
0.0
 11
153.42
 21
93.9394
 31
0.0
  0
LINE
  8
0
 62
     0
 10
153.42
 20
93.9394
 30
0.0
 11
153.42
 21
97.0414
 31
0.0
  0
LINE
  8
0
 62
     0
 10
153.42
 20
97.0414
 30
0.0
 11
152.619
 21
97.0414
 31
0.0
  0
LINE
  8
0
 62
     0
 10
152.619
 20
97.0414
 30
0.0
 11
152.619
 21
98.0405
 31
0.0
  0
LINE
  8
0
 62
     0
 10
152.619
 20
98.0405
 30
0.0
 11
138.62
 21
98.0405
 31
0.0
  0
LINE
  8
0
 62
     0
 10
157.67
 20
98.0405
 30
0.0
 11
157.67
 21
97.0414
 31
0.0
  0
LINE
  8
0
 62
     0
 10
157.67
 20
97.0414
 30
0.0
 11
156.869
 21
97.0414
 31
0.0
  0
LINE
  8
0
 62
     0
 10
156.869
 20
97.0414
 30
0.0
 11
156.869
 21
93.9394
 31
0.0
  0
LINE
  8
0
 62
     0
 10
156.869
 20
93.9394
 30
0.0
 11
157.67
 21
93.9394
 31
0.0
  0
LINE
  8
0
 62
     0
 10
157.67
 20
93.9394
 30
0.0
 11
157.67
 21
88.1408
 31
0.0
  0
LINE
  8
0
 62
     0
 10
157.67
 20
88.1408
 30
0.0
 11
156.869
 21
88.1408
 31
0.0
  0
LINE
  8
0
 62
     0
 10
156.869
 20
88.1408
 30
0.0
 11
156.869
 21
85.0417
 31
0.0
  0
LINE
  8
0
 62
     0
 10
156.869
 20
85.0417
 30
0.0
 11
157.67
 21
85.0417
 31
0.0
  0
LINE
  8
0
 62
     0
 10
157.67
 20
85.0417
 30
0.0
 11
157.67
 21
84.0412
 31
0.0
  0
LINE
  8
0
 62
     0
 10
157.67
 20
84.0412
 30
0.0
 11
171.669
 21
84.0412
 31
0.0
  0
LINE
  8
0
 62
     0
 10
171.669
 20
84.0412
 30
0.0
 11
171.669
 21
85.0417
 31
0.0
  0
LINE
  8
0
 62
     0
 10
171.669
 20
85.0417
 30
0.0
 11
172.47
 21
85.0417
 31
0.0
  0
LINE
  8
0
 62
     0
 10
172.47
 20
85.0417
 30
0.0
 11
172.47
 21
88.1408
 31
0.0
  0
LINE
  8
0
 62
     0
 10
172.47
 20
88.1408
 30
0.0
 11
171.669
 21
88.1408
 31
0.0
  0
LINE
  8
0
 62
     0
 10
171.669
 20
88.1408
 30
0.0
 11
171.669
 21
93.9394
 31
0.0
  0
LINE
  8
0
 62
     0
 10
171.669
 20
93.9394
 30
0.0
 11
172.47
 21
93.9394
 31
0.0
  0
LINE
  8
0
 62
     0
 10
172.47
 20
93.9394
 30
0.0
 11
172.47
 21
97.0414
 31
0.0
  0
LINE
  8
0
 62
     0
 10
172.47
 20
97.0414
 30
0.0
 11
171.669
 21
97.0414
 31
0.0
  0
LINE
  8
0
 62
     0
 10
171.669
 20
97.0414
 30
0.0
 11
171.669
 21
98.0405
 31
0.0
  0
LINE
  8
0
 62
     0
 10
171.669
 20
98.0405
 30
0.0
 11
157.67
 21
98.0405
 31
0.0
  0
LINE
  8
0
 62
     0
 10
176.72
 20
98.0405
 30
0.0
 11
176.72
 21
97.0414
 31
0.0
  0
LINE
  8
0
 62
     0
 10
176.72
 20
97.0414
 30
0.0
 11
175.919
 21
97.0414
 31
0.0
  0
LINE
  8
0
 62
     0
 10
175.919
 20
97.0414
 30
0.0
 11
175.919
 21
93.9394
 31
0.0
  0
LINE
  8
0
 62
     0
 10
175.919
 20
93.9394
 30
0.0
 11
176.72
 21
93.9394
 31
0.0
  0
LINE
  8
0
 62
     0
 10
176.72
 20
93.9394
 30
0.0
 11
176.72
 21
88.1408
 31
0.0
  0
LINE
  8
0
 62
     0
 10
176.72
 20
88.1408
 30
0.0
 11
175.919
 21
88.1408
 31
0.0
  0
LINE
  8
0
 62
     0
 10
175.919
 20
88.1408
 30
0.0
 11
175.919
 21
85.0417
 31
0.0
  0
LINE
  8
0
 62
     0
 10
175.919
 20
85.0417
 30
0.0
 11
176.72
 21
85.0417
 31
0.0
  0
LINE
  8
0
 62
     0
 10
176.72
 20
85.0417
 30
0.0
 11
176.72
 21
84.0412
 31
0.0
  0
LINE
  8
0
 62
     0
 10
176.72
 20
84.0412
 30
0.0
 11
190.719
 21
84.0412
 31
0.0
  0
LINE
  8
0
 62
     0
 10
190.719
 20
84.0412
 30
0.0
 11
190.719
 21
85.0417
 31
0.0
  0
LINE
  8
0
 62
     0
 10
190.719
 20
85.0417
 30
0.0
 11
191.52
 21
85.0417
 31
0.0
  0
LINE
  8
0
 62
     0
 10
191.52
 20
85.0417
 30
0.0
 11
191.52
 21
88.1408
 31
0.0
  0
LINE
  8
0
 62
     0
 10
191.52
 20
88.1408
 30
0.0
 11
190.719
 21
88.1408
 31
0.0
  0
LINE
  8
0
 62
     0
 10
190.719
 20
88.1408
 30
0.0
 11
190.719
 21
93.9394
 31
0.0
  0
LINE
  8
0
 62
     0
 10
190.719
 20
93.9394
 30
0.0
 11
191.52
 21
93.9394
 31
0.0
  0
LINE
  8
0
 62
     0
 10
191.52
 20
93.9394
 30
0.0
 11
191.52
 21
97.0414
 31
0.0
  0
LINE
  8
0
 62
     0
 10
191.52
 20
97.0414
 30
0.0
 11
190.719
 21
97.0414
 31
0.0
  0
LINE
  8
0
 62
     0
 10
190.719
 20
97.0414
 30
0.0
 11
190.719
 21
98.0405
 31
0.0
  0
LINE
  8
0
 62
     0
 10
190.719
 20
98.0405
 30
0.0
 11
176.72
 21
98.0405
 31
0.0
  0
LINE
  8
0
 62
     0
 10
195.77
 20
98.0405
 30
0.0
 11
195.77
 21
97.0414
 31
0.0
  0
LINE
  8
0
 62
     0
 10
195.77
 20
97.0414
 30
0.0
 11
194.969
 21
97.0414
 31
0.0
  0
LINE
  8
0
 62
     0
 10
194.969
 20
97.0414
 30
0.0
 11
194.969
 21
93.9394
 31
0.0
  0
LINE
  8
0
 62
     0
 10
194.969
 20
93.9394
 30
0.0
 11
195.77
 21
93.9394
 31
0.0
  0
LINE
  8
0
 62
     0
 10
195.77
 20
93.9394
 30
0.0
 11
195.77
 21
88.1408
 31
0.0
  0
LINE
  8
0
 62
     0
 10
195.77
 20
88.1408
 30
0.0
 11
194.969
 21
88.1408
 31
0.0
  0
LINE
  8
0
 62
     0
 10
194.969
 20
88.1408
 30
0.0
 11
194.969
 21
85.0417
 31
0.0
  0
LINE
  8
0
 62
     0
 10
194.969
 20
85.0417
 30
0.0
 11
195.77
 21
85.0417
 31
0.0
  0
LINE
  8
0
 62
     0
 10
195.77
 20
85.0417
 30
0.0
 11
195.77
 21
84.0412
 31
0.0
  0
LINE
  8
0
 62
     0
 10
195.77
 20
84.0412
 30
0.0
 11
209.769
 21
84.0412
 31
0.0
  0
LINE
  8
0
 62
     0
 10
209.769
 20
84.0412
 30
0.0
 11
209.769
 21
85.0417
 31
0.0
  0
LINE
  8
0
 62
     0
 10
209.769
 20
85.0417
 30
0.0
 11
210.57
 21
85.0417
 31
0.0
  0
LINE
  8
0
 62
     0
 10
210.57
 20
85.0417
 30
0.0
 11
210.57
 21
88.1408
 31
0.0
  0
LINE
  8
0
 62
     0
 10
210.57
 20
88.1408
 30
0.0
 11
209.769
 21
88.1408
 31
0.0
  0
LINE
  8
0
 62
     0
 10
209.769
 20
88.1408
 30
0.0
 11
209.769
 21
93.9394
 31
0.0
  0
LINE
  8
0
 62
     0
 10
209.769
 20
93.9394
 30
0.0
 11
210.57
 21
93.9394
 31
0.0
  0
LINE
  8
0
 62
     0
 10
210.57
 20
93.9394
 30
0.0
 11
210.57
 21
97.0414
 31
0.0
  0
LINE
  8
0
 62
     0
 10
210.57
 20
97.0414
 30
0.0
 11
209.769
 21
97.0414
 31
0.0
  0
LINE
  8
0
 62
     0
 10
209.769
 20
97.0414
 30
0.0
 11
209.769
 21
98.0405
 31
0.0
  0
LINE
  8
0
 62
     0
 10
209.769
 20
98.0405
 30
0.0
 11
195.77
 21
98.0405
 31
0.0
  0
LINE
  8
0
 62
     0
 10
214.82
 20
98.0405
 30
0.0
 11
214.82
 21
97.0414
 31
0.0
  0
LINE
  8
0
 62
     0
 10
214.82
 20
97.0414
 30
0.0
 11
214.019
 21
97.0414
 31
0.0
  0
LINE
  8
0
 62
     0
 10
214.019
 20
97.0414
 30
0.0
 11
214.019
 21
93.9394
 31
0.0
  0
LINE
  8
0
 62
     0
 10
214.019
 20
93.9394
 30
0.0
 11
214.82
 21
93.9394
 31
0.0
  0
LINE
  8
0
 62
     0
 10
214.82
 20
93.9394
 30
0.0
 11
214.82
 21
88.1408
 31
0.0
  0
LINE
  8
0
 62
     0
 10
214.82
 20
88.1408
 30
0.0
 11
214.019
 21
88.1408
 31
0.0
  0
LINE
  8
0
 62
     0
 10
214.019
 20
88.1408
 30
0.0
 11
214.019
 21
85.0417
 31
0.0
  0
LINE
  8
0
 62
     0
 10
214.019
 20
85.0417
 30
0.0
 11
214.82
 21
85.0417
 31
0.0
  0
LINE
  8
0
 62
     0
 10
214.82
 20
85.0417
 30
0.0
 11
214.82
 21
84.0412
 31
0.0
  0
LINE
  8
0
 62
     0
 10
214.82
 20
84.0412
 30
0.0
 11
228.819
 21
84.0412
 31
0.0
  0
LINE
  8
0
 62
     0
 10
228.819
 20
84.0412
 30
0.0
 11
228.819
 21
85.0417
 31
0.0
  0
LINE
  8
0
 62
     0
 10
228.819
 20
85.0417
 30
0.0
 11
229.62
 21
85.0417
 31
0.0
  0
LINE
  8
0
 62
     0
 10
229.62
 20
85.0417
 30
0.0
 11
229.62
 21
88.1408
 31
0.0
  0
LINE
  8
0
 62
     0
 10
229.62
 20
88.1408
 30
0.0
 11
228.819
 21
88.1408
 31
0.0
  0
LINE
  8
0
 62
     0
 10
228.819
 20
88.1408
 30
0.0
 11
228.819
 21
93.9394
 31
0.0
  0
LINE
  8
0
 62
     0
 10
228.819
 20
93.9394
 30
0.0
 11
229.62
 21
93.9394
 31
0.0
  0
LINE
  8
0
 62
     0
 10
229.62
 20
93.9394
 30
0.0
 11
229.62
 21
97.0414
 31
0.0
  0
LINE
  8
0
 62
     0
 10
229.62
 20
97.0414
 30
0.0
 11
228.819
 21
97.0414
 31
0.0
  0
LINE
  8
0
 62
     0
 10
228.819
 20
97.0414
 30
0.0
 11
228.819
 21
98.0405
 31
0.0
  0
LINE
  8
0
 62
     0
 10
228.819
 20
98.0405
 30
0.0
 11
214.82
 21
98.0405
 31
0.0
  0
LINE
  8
0
 62
     0
 10
233.87
 20
98.0405
 30
0.0
 11
233.87
 21
97.0414
 31
0.0
  0
LINE
  8
0
 62
     0
 10
233.87
 20
97.0414
 30
0.0
 11
233.069
 21
97.0414
 31
0.0
  0
LINE
  8
0
 62
     0
 10
233.069
 20
97.0414
 30
0.0
 11
233.069
 21
93.9394
 31
0.0
  0
LINE
  8
0
 62
     0
 10
233.069
 20
93.9394
 30
0.0
 11
233.87
 21
93.9394
 31
0.0
  0
LINE
  8
0
 62
     0
 10
233.87
 20
93.9394
 30
0.0
 11
233.87
 21
88.1408
 31
0.0
  0
LINE
  8
0
 62
     0
 10
233.87
 20
88.1408
 30
0.0
 11
233.069
 21
88.1408
 31
0.0
  0
LINE
  8
0
 62
     0
 10
233.069
 20
88.1408
 30
0.0
 11
233.069
 21
85.0417
 31
0.0
  0
LINE
  8
0
 62
     0
 10
233.069
 20
85.0417
 30
0.0
 11
233.87
 21
85.0417
 31
0.0
  0
LINE
  8
0
 62
     0
 10
233.87
 20
85.0417
 30
0.0
 11
233.87
 21
84.0412
 31
0.0
  0
LINE
  8
0
 62
     0
 10
233.87
 20
84.0412
 30
0.0
 11
247.869
 21
84.0412
 31
0.0
  0
LINE
  8
0
 62
     0
 10
247.869
 20
84.0412
 30
0.0
 11
247.869
 21
85.0417
 31
0.0
  0
LINE
  8
0
 62
     0
 10
247.869
 20
85.0417
 30
0.0
 11
248.67
 21
85.0417
 31
0.0
  0
LINE
  8
0
 62
     0
 10
248.67
 20
85.0417
 30
0.0
 11
248.67
 21
88.1408
 31
0.0
  0
LINE
  8
0
 62
     0
 10
248.67
 20
88.1408
 30
0.0
 11
247.869
 21
88.1408
 31
0.0
  0
LINE
  8
0
 62
     0
 10
247.869
 20
88.1408
 30
0.0
 11
247.869
 21
93.9394
 31
0.0
  0
LINE
  8
0
 62
     0
 10
247.869
 20
93.9394
 30
0.0
 11
248.67
 21
93.9394
 31
0.0
  0
LINE
  8
0
 62
     0
 10
248.67
 20
93.9394
 30
0.0
 11
248.67
 21
97.0414
 31
0.0
  0
LINE
  8
0
 62
     0
 10
248.67
 20
97.0414
 30
0.0
 11
247.869
 21
97.0414
 31
0.0
  0
LINE
  8
0
 62
     0
 10
247.869
 20
97.0414
 30
0.0
 11
247.869
 21
98.0405
 31
0.0
  0
LINE
  8
0
 62
     0
 10
247.869
 20
98.0405
 30
0.0
 11
233.87
 21
98.0405
 31
0.0
  0
LINE
  8
0
 62
     0
 10
291.02
 20
98.0405
 30
0.0
 11
291.02
 21
97.0414
 31
0.0
  0
LINE
  8
0
 62
     0
 10
291.02
 20
97.0414
 30
0.0
 11
290.219
 21
97.0414
 31
0.0
  0
LINE
  8
0
 62
     0
 10
290.219
 20
97.0414
 30
0.0
 11
290.219
 21
93.9394
 31
0.0
  0
LINE
  8
0
 62
     0
 10
290.219
 20
93.9394
 30
0.0
 11
291.02
 21
93.9394
 31
0.0
  0
LINE
  8
0
 62
     0
 10
291.02
 20
93.9394
 30
0.0
 11
291.02
 21
88.1408
 31
0.0
  0
LINE
  8
0
 62
     0
 10
291.02
 20
88.1408
 30
0.0
 11
290.219
 21
88.1408
 31
0.0
  0
LINE
  8
0
 62
     0
 10
290.219
 20
88.1408
 30
0.0
 11
290.219
 21
85.0417
 31
0.0
  0
LINE
  8
0
 62
     0
 10
290.219
 20
85.0417
 30
0.0
 11
291.02
 21
85.0417
 31
0.0
  0
LINE
  8
0
 62
     0
 10
291.02
 20
85.0417
 30
0.0
 11
291.02
 21
84.0412
 31
0.0
  0
LINE
  8
0
 62
     0
 10
291.02
 20
84.0412
 30
0.0
 11
305.019
 21
84.0412
 31
0.0
  0
LINE
  8
0
 62
     0
 10
305.019
 20
84.0412
 30
0.0
 11
305.019
 21
85.0417
 31
0.0
  0
LINE
  8
0
 62
     0
 10
305.019
 20
85.0417
 30
0.0
 11
305.82
 21
85.0417
 31
0.0
  0
LINE
  8
0
 62
     0
 10
305.82
 20
85.0417
 30
0.0
 11
305.82
 21
88.1408
 31
0.0
  0
LINE
  8
0
 62
     0
 10
305.82
 20
88.1408
 30
0.0
 11
305.019
 21
88.1408
 31
0.0
  0
LINE
  8
0
 62
     0
 10
305.019
 20
88.1408
 30
0.0
 11
305.019
 21
93.9394
 31
0.0
  0
LINE
  8
0
 62
     0
 10
305.019
 20
93.9394
 30
0.0
 11
305.82
 21
93.9394
 31
0.0
  0
LINE
  8
0
 62
     0
 10
305.82
 20
93.9394
 30
0.0
 11
305.82
 21
97.0414
 31
0.0
  0
LINE
  8
0
 62
     0
 10
305.82
 20
97.0414
 30
0.0
 11
305.019
 21
97.0414
 31
0.0
  0
LINE
  8
0
 62
     0
 10
305.019
 20
97.0414
 30
0.0
 11
305.019
 21
98.0405
 31
0.0
  0
LINE
  8
0
 62
     0
 10
305.019
 20
98.0405
 30
0.0
 11
291.02
 21
98.0405
 31
0.0
  0
ENDSEC
  0
EOF
