G04 #@! TF.GenerationSoftware,KiCad,Pcbnew,7.0.9*
G04 #@! TF.CreationDate,2023-11-26T15:51:42+00:00*
G04 #@! TF.ProjectId,rosco_m68k_keyboard-2,726f7363-6f5f-46d3-9638-6b5f6b657962,0*
G04 #@! TF.SameCoordinates,Original*
G04 #@! TF.FileFunction,Paste,Bot*
G04 #@! TF.FilePolarity,Positive*
%FSLAX46Y46*%
G04 Gerber Fmt 4.6, Leading zero omitted, Abs format (unit mm)*
G04 Created by KiCad (PCBNEW 7.0.9) date 2023-11-26 15:51:42*
%MOMM*%
%LPD*%
G01*
G04 APERTURE LIST*
G04 Aperture macros list*
%AMRoundRect*
0 Rectangle with rounded corners*
0 $1 Rounding radius*
0 $2 $3 $4 $5 $6 $7 $8 $9 X,Y pos of 4 corners*
0 Add a 4 corners polygon primitive as box body*
4,1,4,$2,$3,$4,$5,$6,$7,$8,$9,$2,$3,0*
0 Add four circle primitives for the rounded corners*
1,1,$1+$1,$2,$3*
1,1,$1+$1,$4,$5*
1,1,$1+$1,$6,$7*
1,1,$1+$1,$8,$9*
0 Add four rect primitives between the rounded corners*
20,1,$1+$1,$2,$3,$4,$5,0*
20,1,$1+$1,$4,$5,$6,$7,0*
20,1,$1+$1,$6,$7,$8,$9,0*
20,1,$1+$1,$8,$9,$2,$3,0*%
G04 Aperture macros list end*
%ADD10RoundRect,0.250000X0.325000X0.450000X-0.325000X0.450000X-0.325000X-0.450000X0.325000X-0.450000X0*%
%ADD11RoundRect,0.250000X0.350000X0.450000X-0.350000X0.450000X-0.350000X-0.450000X0.350000X-0.450000X0*%
%ADD12R,1.500000X0.550000*%
%ADD13R,0.550000X1.500000*%
%ADD14RoundRect,0.250000X0.450000X-0.325000X0.450000X0.325000X-0.450000X0.325000X-0.450000X-0.325000X0*%
%ADD15RoundRect,0.250000X-0.325000X-0.450000X0.325000X-0.450000X0.325000X0.450000X-0.325000X0.450000X0*%
%ADD16R,1.550000X1.300000*%
%ADD17R,3.500000X2.400000*%
G04 APERTURE END LIST*
D10*
X228975000Y-105100000D03*
X231025000Y-105100000D03*
D11*
X196132200Y-109221400D03*
X198132200Y-109221400D03*
X179337400Y-109221400D03*
X177337400Y-109221400D03*
X179261200Y-104728400D03*
X177261200Y-104728400D03*
X74583000Y-97227300D03*
X72583000Y-97227300D03*
X74583000Y-92261200D03*
X72583000Y-92261200D03*
X74583000Y-87295100D03*
X72583000Y-87295100D03*
X72583000Y-102193500D03*
X74583000Y-102193500D03*
X93369600Y-162809300D03*
X91369600Y-162809300D03*
D12*
X145139000Y-91654500D03*
X145139000Y-92454500D03*
X145139000Y-93254500D03*
X145139000Y-94054500D03*
X145139000Y-94854500D03*
X145139000Y-95654500D03*
X145139000Y-96454500D03*
X145139000Y-97254500D03*
X145139000Y-98054500D03*
X145139000Y-98854500D03*
X145139000Y-99654500D03*
X145139000Y-100454500D03*
X145139000Y-101254500D03*
X145139000Y-102054500D03*
X145139000Y-102854500D03*
X145139000Y-103654500D03*
D13*
X143439000Y-105354500D03*
X142639000Y-105354500D03*
X141839000Y-105354500D03*
X141039000Y-105354500D03*
X140239000Y-105354500D03*
X139439000Y-105354500D03*
X138639000Y-105354500D03*
X137839000Y-105354500D03*
X137039000Y-105354500D03*
X136239000Y-105354500D03*
X135439000Y-105354500D03*
X134639000Y-105354500D03*
X133839000Y-105354500D03*
X133039000Y-105354500D03*
X132239000Y-105354500D03*
X131439000Y-105354500D03*
D12*
X129739000Y-103654500D03*
X129739000Y-102854500D03*
X129739000Y-102054500D03*
X129739000Y-101254500D03*
X129739000Y-100454500D03*
X129739000Y-99654500D03*
X129739000Y-98854500D03*
X129739000Y-98054500D03*
X129739000Y-97254500D03*
X129739000Y-96454500D03*
X129739000Y-95654500D03*
X129739000Y-94854500D03*
X129739000Y-94054500D03*
X129739000Y-93254500D03*
X129739000Y-92454500D03*
X129739000Y-91654500D03*
D13*
X131439000Y-89954500D03*
X132239000Y-89954500D03*
X133039000Y-89954500D03*
X133839000Y-89954500D03*
X134639000Y-89954500D03*
X135439000Y-89954500D03*
X136239000Y-89954500D03*
X137039000Y-89954500D03*
X137839000Y-89954500D03*
X138639000Y-89954500D03*
X139439000Y-89954500D03*
X140239000Y-89954500D03*
X141039000Y-89954500D03*
X141839000Y-89954500D03*
X142639000Y-89954500D03*
X143439000Y-89954500D03*
D14*
X73151200Y-127613700D03*
X73151200Y-125563700D03*
D10*
X213025000Y-102000000D03*
X210975000Y-102000000D03*
D15*
X217475000Y-102000000D03*
X219525000Y-102000000D03*
D14*
X125659400Y-93561500D03*
X125659400Y-91511500D03*
D15*
X133229800Y-86583700D03*
X135279800Y-86583700D03*
D14*
X131391400Y-112425100D03*
X131391400Y-110375100D03*
X144391400Y-112425100D03*
X144391400Y-110375100D03*
D10*
X176325000Y-91600000D03*
X174275000Y-91600000D03*
X176300000Y-94900000D03*
X174250000Y-94900000D03*
D16*
X165733200Y-108902000D03*
X173683200Y-108902000D03*
X165733200Y-104402000D03*
X173683200Y-104402000D03*
D17*
X135191400Y-111425100D03*
X140391400Y-111425100D03*
D14*
X354138700Y-165713700D03*
X354138700Y-163663700D03*
X292226200Y-165713700D03*
X292226200Y-163663700D03*
X123157400Y-203813700D03*
X123157400Y-201763700D03*
X75532400Y-184763700D03*
X75532400Y-182713700D03*
X177926200Y-165713700D03*
X177926200Y-163663700D03*
X211263700Y-184763700D03*
X211263700Y-182713700D03*
X320801200Y-184763700D03*
X320801200Y-182713700D03*
X268413700Y-184763700D03*
X268413700Y-182713700D03*
X135063700Y-184763700D03*
X135063700Y-182713700D03*
X332707400Y-156188700D03*
X332707400Y-154138700D03*
X308894900Y-203813700D03*
X308894900Y-201763700D03*
X187451200Y-127613700D03*
X187451200Y-125563700D03*
X96963700Y-146663700D03*
X96963700Y-144613700D03*
X287463700Y-184763700D03*
X287463700Y-182713700D03*
X287463700Y-146663700D03*
X287463700Y-144613700D03*
X75532400Y-203813700D03*
X75532400Y-201763700D03*
X354138700Y-127613700D03*
X354138700Y-125563700D03*
X168401200Y-127613700D03*
X168401200Y-125563700D03*
X173163700Y-184763700D03*
X173163700Y-182713700D03*
X96963700Y-184763700D03*
X96963700Y-182713700D03*
X306513700Y-146663700D03*
X306513700Y-144613700D03*
X354138700Y-203813700D03*
X354138700Y-201763700D03*
X311276200Y-165713700D03*
X311276200Y-163663700D03*
X116013700Y-146663700D03*
X116013700Y-144613700D03*
X230313700Y-146663700D03*
X230313700Y-144613700D03*
X192213700Y-146663700D03*
X192213700Y-144613700D03*
X211263700Y-146663700D03*
X211263700Y-144613700D03*
X154113700Y-146663700D03*
X154113700Y-144613700D03*
X120776200Y-165713700D03*
X120776200Y-163663700D03*
X332707400Y-203813700D03*
X332707400Y-201763700D03*
X75532400Y-146663700D03*
X75532400Y-144613700D03*
X244601200Y-127613700D03*
X244601200Y-125563700D03*
X263651200Y-127613700D03*
X263651200Y-125563700D03*
X77913700Y-165713700D03*
X77913700Y-163663700D03*
X192213700Y-203813700D03*
X192213700Y-201763700D03*
X206501200Y-127613700D03*
X206501200Y-125563700D03*
X354138700Y-146663700D03*
X354138700Y-144613700D03*
X254126200Y-165713700D03*
X254126200Y-163663700D03*
X327944900Y-127613700D03*
X327944900Y-125563700D03*
X249363700Y-184763700D03*
X249363700Y-182713700D03*
X192213700Y-184763700D03*
X192213700Y-182713700D03*
X282701200Y-127613700D03*
X282701200Y-125563700D03*
X101726200Y-165713700D03*
X101726200Y-163663700D03*
X268413700Y-146663700D03*
X268413700Y-144613700D03*
X273176200Y-165713700D03*
X273176200Y-163663700D03*
X285082400Y-203813700D03*
X285082400Y-201763700D03*
X216026200Y-165713700D03*
X216026200Y-163663700D03*
X261269900Y-203813700D03*
X261269900Y-201763700D03*
X99344900Y-203813700D03*
X99344900Y-201763700D03*
X354138700Y-184763700D03*
X354138700Y-182713700D03*
X92201200Y-127613700D03*
X92201200Y-125563700D03*
X196976200Y-165713700D03*
X196976200Y-163663700D03*
X135063700Y-146663700D03*
X135063700Y-144613700D03*
X149351200Y-127613700D03*
X149351200Y-125563700D03*
X139826200Y-165713700D03*
X139826200Y-163663700D03*
X116013700Y-184763700D03*
X116013700Y-182713700D03*
X158876200Y-165713700D03*
X158876200Y-163663700D03*
X301751200Y-127613700D03*
X301751200Y-125563700D03*
X249363700Y-146663700D03*
X249363700Y-144613700D03*
X154113700Y-184763700D03*
X154113700Y-182713700D03*
X235076200Y-165713700D03*
X235076200Y-163663700D03*
X230313700Y-184763700D03*
X230313700Y-182713700D03*
X111251200Y-127613700D03*
X111251200Y-125563700D03*
X173163700Y-146663700D03*
X173163700Y-144613700D03*
X225551200Y-127613700D03*
X225551200Y-125563700D03*
X130301200Y-127613700D03*
X130301200Y-125563700D03*
M02*
