%TF.GenerationSoftware,KiCad,Pcbnew,7.0.9*%
%TF.CreationDate,2023-11-26T21:00:59+00:00*%
%TF.ProjectId,rosco_m68k_keyboard-2,726f7363-6f5f-46d3-9638-6b5f6b657962,0*%
%TF.SameCoordinates,Original*%
%TF.FileFunction,Soldermask,Bot*%
%TF.FilePolarity,Negative*%
%FSLAX46Y46*%
G04 Gerber Fmt 4.6, Leading zero omitted, Abs format (unit mm)*
G04 Created by KiCad (PCBNEW 7.0.9) date 2023-11-26 21:00:59*
%MOMM*%
%LPD*%
G01*
G04 APERTURE LIST*
G04 Aperture macros list*
%AMRoundRect*
0 Rectangle with rounded corners*
0 $1 Rounding radius*
0 $2 $3 $4 $5 $6 $7 $8 $9 X,Y pos of 4 corners*
0 Add a 4 corners polygon primitive as box body*
4,1,4,$2,$3,$4,$5,$6,$7,$8,$9,$2,$3,0*
0 Add four circle primitives for the rounded corners*
1,1,$1+$1,$2,$3*
1,1,$1+$1,$4,$5*
1,1,$1+$1,$6,$7*
1,1,$1+$1,$8,$9*
0 Add four rect primitives between the rounded corners*
20,1,$1+$1,$2,$3,$4,$5,0*
20,1,$1+$1,$4,$5,$6,$7,0*
20,1,$1+$1,$6,$7,$8,$9,0*
20,1,$1+$1,$8,$9,$2,$3,0*%
G04 Aperture macros list end*
%ADD10R,1.500000X0.550000*%
%ADD11R,0.550000X1.500000*%
%ADD12R,1.700000X1.700000*%
%ADD13O,1.700000X1.700000*%
%ADD14RoundRect,0.225000X0.375000X-0.225000X0.375000X0.225000X-0.375000X0.225000X-0.375000X-0.225000X0*%
%ADD15C,3.050000*%
%ADD16C,4.000000*%
%ADD17C,1.700000*%
%ADD18C,2.200000*%
%ADD19C,3.200000*%
%ADD20RoundRect,0.250000X-0.600000X-0.750000X0.600000X-0.750000X0.600000X0.750000X-0.600000X0.750000X0*%
%ADD21O,1.700000X2.000000*%
%ADD22R,1.070000X1.800000*%
%ADD23O,1.070000X1.800000*%
%ADD24R,1.800000X1.800000*%
%ADD25C,1.800000*%
%ADD26RoundRect,0.250000X0.325000X0.450000X-0.325000X0.450000X-0.325000X-0.450000X0.325000X-0.450000X0*%
%ADD27RoundRect,0.250000X-0.325000X-0.450000X0.325000X-0.450000X0.325000X0.450000X-0.325000X0.450000X0*%
%ADD28RoundRect,0.250000X0.450000X-0.325000X0.450000X0.325000X-0.450000X0.325000X-0.450000X-0.325000X0*%
%ADD29R,1.550000X1.300000*%
%ADD30R,3.500000X2.400000*%
%ADD31RoundRect,0.250000X0.350000X0.450000X-0.350000X0.450000X-0.350000X-0.450000X0.350000X-0.450000X0*%
G04 APERTURE END LIST*
D10*
%TO.C,U1*%
X145139000Y-91654500D03*
X145139000Y-92454500D03*
X145139000Y-93254500D03*
X145139000Y-94054500D03*
X145139000Y-94854500D03*
X145139000Y-95654500D03*
X145139000Y-96454500D03*
X145139000Y-97254500D03*
X145139000Y-98054500D03*
X145139000Y-98854500D03*
X145139000Y-99654500D03*
X145139000Y-100454500D03*
X145139000Y-101254500D03*
X145139000Y-102054500D03*
X145139000Y-102854500D03*
X145139000Y-103654500D03*
D11*
X143439000Y-105354500D03*
X142639000Y-105354500D03*
X141839000Y-105354500D03*
X141039000Y-105354500D03*
X140239000Y-105354500D03*
X139439000Y-105354500D03*
X138639000Y-105354500D03*
X137839000Y-105354500D03*
X137039000Y-105354500D03*
X136239000Y-105354500D03*
X135439000Y-105354500D03*
X134639000Y-105354500D03*
X133839000Y-105354500D03*
X133039000Y-105354500D03*
X132239000Y-105354500D03*
X131439000Y-105354500D03*
D10*
X129739000Y-103654500D03*
X129739000Y-102854500D03*
X129739000Y-102054500D03*
X129739000Y-101254500D03*
X129739000Y-100454500D03*
X129739000Y-99654500D03*
X129739000Y-98854500D03*
X129739000Y-98054500D03*
X129739000Y-97254500D03*
X129739000Y-96454500D03*
X129739000Y-95654500D03*
X129739000Y-94854500D03*
X129739000Y-94054500D03*
X129739000Y-93254500D03*
X129739000Y-92454500D03*
X129739000Y-91654500D03*
D11*
X131439000Y-89954500D03*
X132239000Y-89954500D03*
X133039000Y-89954500D03*
X133839000Y-89954500D03*
X134639000Y-89954500D03*
X135439000Y-89954500D03*
X136239000Y-89954500D03*
X137039000Y-89954500D03*
X137839000Y-89954500D03*
X138639000Y-89954500D03*
X139439000Y-89954500D03*
X140239000Y-89954500D03*
X141039000Y-89954500D03*
X141839000Y-89954500D03*
X142639000Y-89954500D03*
X143439000Y-89954500D03*
%TD*%
D12*
%TO.C,J1*%
X93470000Y-95530000D03*
D13*
X96010000Y-95530000D03*
X98550000Y-95530000D03*
X101090000Y-95530000D03*
X103630000Y-95530000D03*
X106170000Y-95530000D03*
%TD*%
D14*
%TO.C,D61*%
X192213700Y-204438700D03*
X192213700Y-201138700D03*
%TD*%
D15*
%TO.C,K61*%
X183573700Y-191978700D03*
D16*
X183573700Y-207218700D03*
D17*
X190393700Y-198978700D03*
D16*
X195473700Y-198978700D03*
D17*
X200553700Y-198978700D03*
D15*
X207373700Y-191978700D03*
D16*
X207373700Y-207218700D03*
D18*
X198013700Y-193898700D03*
X191663700Y-196438700D03*
%TD*%
D17*
%TO.C,K50*%
X190393700Y-179928700D03*
D16*
X195473700Y-179928700D03*
D17*
X200553700Y-179928700D03*
D18*
X198013700Y-174848700D03*
X191663700Y-177388700D03*
%TD*%
D14*
%TO.C,D16*%
X96963700Y-147288700D03*
X96963700Y-143988700D03*
%TD*%
D17*
%TO.C,K26*%
X285643700Y-141828700D03*
D16*
X290723700Y-141828700D03*
D17*
X295803700Y-141828700D03*
D18*
X293263700Y-136748700D03*
X286913700Y-139288700D03*
%TD*%
D17*
%TO.C,K0*%
X71331200Y-122778700D03*
D16*
X76411200Y-122778700D03*
D17*
X81491200Y-122778700D03*
D18*
X78951200Y-117698700D03*
X72601200Y-120238700D03*
%TD*%
D19*
%TO.C,H2*%
X367878700Y-86878700D03*
%TD*%
%TO.C,H3*%
X367878700Y-212878700D03*
%TD*%
%TO.C,H4*%
X65878700Y-212878700D03*
%TD*%
%TO.C,H1*%
X65878700Y-86878700D03*
%TD*%
D12*
%TO.C,J2*%
X170495600Y-95145800D03*
D13*
X167955600Y-95145800D03*
X170495600Y-92605800D03*
X167955600Y-92605800D03*
X170495600Y-90065800D03*
X167955600Y-90065800D03*
%TD*%
D17*
%TO.C,K36*%
X195156200Y-160878700D03*
D16*
X200236200Y-160878700D03*
D17*
X205316200Y-160878700D03*
D18*
X202776200Y-155798700D03*
X196426200Y-158338700D03*
%TD*%
D17*
%TO.C,K60*%
X121337400Y-198978700D03*
D16*
X126417400Y-198978700D03*
D17*
X131497400Y-198978700D03*
D18*
X128957400Y-193898700D03*
X122607400Y-196438700D03*
%TD*%
D17*
%TO.C,K49*%
X171343700Y-179928700D03*
D16*
X176423700Y-179928700D03*
D17*
X181503700Y-179928700D03*
D18*
X178963700Y-174848700D03*
X172613700Y-177388700D03*
%TD*%
D17*
%TO.C,K1*%
X90381200Y-122778700D03*
D16*
X95461200Y-122778700D03*
D17*
X100541200Y-122778700D03*
D18*
X98001200Y-117698700D03*
X91651200Y-120238700D03*
%TD*%
D17*
%TO.C,K62*%
X259449900Y-198978700D03*
D16*
X264529900Y-198978700D03*
D17*
X269609900Y-198978700D03*
D18*
X267069900Y-193898700D03*
X260719900Y-196438700D03*
%TD*%
D17*
%TO.C,K39*%
X252306200Y-160878700D03*
D16*
X257386200Y-160878700D03*
D17*
X262466200Y-160878700D03*
D18*
X259926200Y-155798700D03*
X253576200Y-158338700D03*
%TD*%
D17*
%TO.C,K48*%
X152293700Y-179928700D03*
D16*
X157373700Y-179928700D03*
D17*
X162453700Y-179928700D03*
D18*
X159913700Y-174848700D03*
X153563700Y-177388700D03*
%TD*%
D17*
%TO.C,K53*%
X247543700Y-179928700D03*
D16*
X252623700Y-179928700D03*
D17*
X257703700Y-179928700D03*
D18*
X255163700Y-174848700D03*
X248813700Y-177388700D03*
%TD*%
D17*
%TO.C,K35*%
X176106200Y-160878700D03*
D16*
X181186200Y-160878700D03*
D17*
X186266200Y-160878700D03*
D18*
X183726200Y-155798700D03*
X177376200Y-158338700D03*
%TD*%
D17*
%TO.C,K33*%
X138006200Y-160878700D03*
D16*
X143086200Y-160878700D03*
D17*
X148166200Y-160878700D03*
D18*
X145626200Y-155798700D03*
X139276200Y-158338700D03*
%TD*%
D17*
%TO.C,K25*%
X266593700Y-141828700D03*
D16*
X271673700Y-141828700D03*
D17*
X276753700Y-141828700D03*
D18*
X274213700Y-136748700D03*
X267863700Y-139288700D03*
%TD*%
D17*
%TO.C,K29*%
X352318700Y-141828700D03*
D16*
X357398700Y-141828700D03*
D17*
X362478700Y-141828700D03*
D18*
X359938700Y-136748700D03*
X353588700Y-139288700D03*
%TD*%
D17*
%TO.C,K20*%
X171343700Y-141828700D03*
D16*
X176423700Y-141828700D03*
D17*
X181503700Y-141828700D03*
D18*
X178963700Y-136748700D03*
X172613700Y-139288700D03*
%TD*%
D17*
%TO.C,K11*%
X280881200Y-122778700D03*
D16*
X285961200Y-122778700D03*
D17*
X291041200Y-122778700D03*
D18*
X288501200Y-117698700D03*
X282151200Y-120238700D03*
%TD*%
D17*
%TO.C,K3*%
X128481200Y-122778700D03*
D16*
X133561200Y-122778700D03*
D17*
X138641200Y-122778700D03*
D18*
X136101200Y-117698700D03*
X129751200Y-120238700D03*
%TD*%
D17*
%TO.C,K13*%
X326124900Y-122778700D03*
D16*
X331204900Y-122778700D03*
D17*
X336284900Y-122778700D03*
D18*
X333744900Y-117698700D03*
X327394900Y-120238700D03*
%TD*%
D17*
%TO.C,K7*%
X204681200Y-122778700D03*
D16*
X209761200Y-122778700D03*
D17*
X214841200Y-122778700D03*
D18*
X212301200Y-117698700D03*
X205951200Y-120238700D03*
%TD*%
D17*
%TO.C,K58*%
X73712400Y-198978700D03*
D16*
X78792400Y-198978700D03*
D17*
X83872400Y-198978700D03*
D18*
X81332400Y-193898700D03*
X74982400Y-196438700D03*
%TD*%
D12*
%TO.C,D70*%
X183900000Y-109275000D03*
D13*
X186440000Y-109275000D03*
X188980000Y-109275000D03*
X191520000Y-109275000D03*
%TD*%
D17*
%TO.C,K64*%
X307074900Y-198978700D03*
D16*
X312154900Y-198978700D03*
D17*
X317234900Y-198978700D03*
D18*
X314694900Y-193898700D03*
X308344900Y-196438700D03*
%TD*%
D17*
%TO.C,K51*%
X209443700Y-179928700D03*
D16*
X214523700Y-179928700D03*
D17*
X219603700Y-179928700D03*
D18*
X217063700Y-174848700D03*
X210713700Y-177388700D03*
%TD*%
D17*
%TO.C,K21*%
X190393700Y-141828700D03*
D16*
X195473700Y-141828700D03*
D17*
X200553700Y-141828700D03*
D18*
X198013700Y-136748700D03*
X191663700Y-139288700D03*
%TD*%
D17*
%TO.C,K15*%
X73712400Y-141828700D03*
D16*
X78792400Y-141828700D03*
D17*
X83872400Y-141828700D03*
D18*
X81332400Y-136748700D03*
X74982400Y-139288700D03*
%TD*%
D17*
%TO.C,K30*%
X76093700Y-160878700D03*
D16*
X81173700Y-160878700D03*
D17*
X86253700Y-160878700D03*
D18*
X83713700Y-155798700D03*
X77363700Y-158338700D03*
%TD*%
D17*
%TO.C,K52*%
X228493700Y-179928700D03*
D16*
X233573700Y-179928700D03*
D17*
X238653700Y-179928700D03*
D18*
X236113700Y-174848700D03*
X229763700Y-177388700D03*
%TD*%
D20*
%TO.C,J5*%
X228750000Y-99000000D03*
D21*
X231250000Y-99000000D03*
%TD*%
D17*
%TO.C,K16*%
X95143700Y-141828700D03*
D16*
X100223700Y-141828700D03*
D17*
X105303700Y-141828700D03*
D18*
X102763700Y-136748700D03*
X96413700Y-139288700D03*
%TD*%
D17*
%TO.C,K46*%
X114193700Y-179928700D03*
D16*
X119273700Y-179928700D03*
D17*
X124353700Y-179928700D03*
D18*
X121813700Y-174848700D03*
X115463700Y-177388700D03*
%TD*%
D17*
%TO.C,K8*%
X223731200Y-122778700D03*
D16*
X228811200Y-122778700D03*
D17*
X233891200Y-122778700D03*
D18*
X231351200Y-117698700D03*
X225001200Y-120238700D03*
%TD*%
D22*
%TO.C,D69*%
X78901200Y-89708100D03*
D23*
X80171200Y-89708100D03*
X81441200Y-89708100D03*
X82711200Y-89708100D03*
%TD*%
D17*
%TO.C,K5*%
X166581200Y-122778700D03*
D16*
X171661200Y-122778700D03*
D17*
X176741200Y-122778700D03*
D18*
X174201200Y-117698700D03*
X167851200Y-120238700D03*
%TD*%
D17*
%TO.C,K45*%
X95143700Y-179928700D03*
D16*
X100223700Y-179928700D03*
D17*
X105303700Y-179928700D03*
D18*
X102763700Y-174848700D03*
X96413700Y-177388700D03*
%TD*%
D17*
%TO.C,K42*%
X309456200Y-160878700D03*
D16*
X314536200Y-160878700D03*
D17*
X319616200Y-160878700D03*
D18*
X317076200Y-155798700D03*
X310726200Y-158338700D03*
%TD*%
D17*
%TO.C,K2*%
X109431200Y-122778700D03*
D16*
X114511200Y-122778700D03*
D17*
X119591200Y-122778700D03*
D18*
X117051200Y-117698700D03*
X110701200Y-120238700D03*
%TD*%
D17*
%TO.C,K37*%
X214206200Y-160878700D03*
D16*
X219286200Y-160878700D03*
D17*
X224366200Y-160878700D03*
D18*
X221826200Y-155798700D03*
X215476200Y-158338700D03*
%TD*%
D17*
%TO.C,K66*%
X352318700Y-198978700D03*
D16*
X357398700Y-198978700D03*
D17*
X362478700Y-198978700D03*
D18*
X359938700Y-193898700D03*
X353588700Y-196438700D03*
%TD*%
D17*
%TO.C,K63*%
X283262400Y-198978700D03*
D16*
X288342400Y-198978700D03*
D17*
X293422400Y-198978700D03*
D18*
X290882400Y-193898700D03*
X284532400Y-196438700D03*
%TD*%
D17*
%TO.C,K43*%
X352318700Y-160878700D03*
D16*
X357398700Y-160878700D03*
D17*
X362478700Y-160878700D03*
D18*
X359938700Y-155798700D03*
X353588700Y-158338700D03*
%TD*%
D17*
%TO.C,K24*%
X247543700Y-141828700D03*
D16*
X252623700Y-141828700D03*
D17*
X257703700Y-141828700D03*
D18*
X255163700Y-136748700D03*
X248813700Y-139288700D03*
%TD*%
D17*
%TO.C,K14*%
X352318700Y-122778700D03*
D16*
X357398700Y-122778700D03*
D17*
X362478700Y-122778700D03*
D18*
X359938700Y-117698700D03*
X353588700Y-120238700D03*
%TD*%
D17*
%TO.C,K55*%
X285643700Y-179928700D03*
D16*
X290723700Y-179928700D03*
D17*
X295803700Y-179928700D03*
D18*
X293263700Y-174848700D03*
X286913700Y-177388700D03*
%TD*%
D17*
%TO.C,K44*%
X73712400Y-179928700D03*
D16*
X78792400Y-179928700D03*
D17*
X83872400Y-179928700D03*
D18*
X81332400Y-174848700D03*
X74982400Y-177388700D03*
%TD*%
D17*
%TO.C,K41*%
X290406200Y-160878700D03*
D16*
X295486200Y-160878700D03*
D17*
X300566200Y-160878700D03*
D18*
X298026200Y-155798700D03*
X291676200Y-158338700D03*
%TD*%
D17*
%TO.C,K17*%
X114193680Y-141828680D03*
D16*
X119273680Y-141828680D03*
D17*
X124353680Y-141828680D03*
D18*
X121813680Y-136748680D03*
X115463680Y-139288680D03*
%TD*%
D17*
%TO.C,K22*%
X209443680Y-141828680D03*
D16*
X214523680Y-141828680D03*
D17*
X219603680Y-141828680D03*
D18*
X217063680Y-136748680D03*
X210713680Y-139288680D03*
%TD*%
D17*
%TO.C,K47*%
X133243680Y-179928680D03*
D16*
X138323680Y-179928680D03*
D17*
X143403680Y-179928680D03*
D18*
X140863680Y-174848680D03*
X134513680Y-177388680D03*
%TD*%
D17*
%TO.C,K65*%
X330887400Y-198978700D03*
D16*
X335967400Y-198978700D03*
D17*
X341047400Y-198978700D03*
D18*
X338507400Y-193898700D03*
X332157400Y-196438700D03*
%TD*%
D17*
%TO.C,K40*%
X271356180Y-160878680D03*
D16*
X276436180Y-160878680D03*
D17*
X281516180Y-160878680D03*
D18*
X278976180Y-155798680D03*
X272626180Y-158338680D03*
%TD*%
D17*
%TO.C,K31*%
X99906180Y-160878680D03*
D16*
X104986180Y-160878680D03*
D17*
X110066180Y-160878680D03*
D18*
X107526180Y-155798680D03*
X101176180Y-158338680D03*
%TD*%
D17*
%TO.C,K27*%
X304693680Y-141828680D03*
D16*
X309773680Y-141828680D03*
D17*
X314853680Y-141828680D03*
D18*
X312313680Y-136748680D03*
X305963680Y-139288680D03*
%TD*%
D24*
%TO.C,D68*%
X79501200Y-99893500D03*
D25*
X82041200Y-99893500D03*
%TD*%
D17*
%TO.C,K54*%
X266593700Y-179928700D03*
D16*
X271673700Y-179928700D03*
D17*
X276753700Y-179928700D03*
D18*
X274213700Y-174848700D03*
X267863700Y-177388700D03*
%TD*%
D17*
%TO.C,K19*%
X152293700Y-141828700D03*
D16*
X157373700Y-141828700D03*
D17*
X162453700Y-141828700D03*
D18*
X159913700Y-136748700D03*
X153563700Y-139288700D03*
%TD*%
D15*
%TO.C,K56*%
X312161200Y-172928700D03*
D16*
X312161200Y-188168700D03*
D17*
X318981200Y-179928700D03*
D16*
X324061200Y-179928700D03*
D17*
X329141200Y-179928700D03*
D15*
X335961200Y-172928700D03*
D16*
X335961200Y-188168700D03*
D18*
X326601200Y-174848700D03*
X320251200Y-177388700D03*
%TD*%
D24*
%TO.C,D67*%
X90855000Y-155443300D03*
D25*
X93395000Y-155443300D03*
%TD*%
D12*
%TO.C,J3*%
X223020000Y-93560000D03*
D13*
X223020000Y-96100000D03*
X220480000Y-93560000D03*
X220480000Y-96100000D03*
X217940000Y-93560000D03*
X217940000Y-96100000D03*
X215400000Y-93560000D03*
X215400000Y-96100000D03*
X212860000Y-93560000D03*
X212860000Y-96100000D03*
X210320000Y-93560000D03*
X210320000Y-96100000D03*
X207780000Y-93560000D03*
X207780000Y-96100000D03*
X205240000Y-93560000D03*
X205240000Y-96100000D03*
%TD*%
D17*
%TO.C,K23*%
X228493700Y-141828700D03*
D16*
X233573700Y-141828700D03*
D17*
X238653700Y-141828700D03*
D18*
X236113700Y-136748700D03*
X229763700Y-139288700D03*
%TD*%
D17*
%TO.C,K57*%
X352318700Y-179928700D03*
D16*
X357398700Y-179928700D03*
D17*
X362478700Y-179928700D03*
D18*
X359938700Y-174848700D03*
X353588700Y-177388700D03*
%TD*%
D17*
%TO.C,K18*%
X133243700Y-141828700D03*
D16*
X138323700Y-141828700D03*
D17*
X143403700Y-141828700D03*
D18*
X140863700Y-136748700D03*
X134513700Y-139288700D03*
%TD*%
D17*
%TO.C,K10*%
X261831200Y-122778700D03*
D16*
X266911200Y-122778700D03*
D17*
X271991200Y-122778700D03*
D18*
X269451200Y-117698700D03*
X263101200Y-120238700D03*
%TD*%
D17*
%TO.C,K34*%
X157056200Y-160878700D03*
D16*
X162136200Y-160878700D03*
D17*
X167216200Y-160878700D03*
D18*
X164676200Y-155798700D03*
X158326200Y-158338700D03*
%TD*%
D17*
%TO.C,K28*%
X330887400Y-151353700D03*
D16*
X335967400Y-151353700D03*
D17*
X341047400Y-151353700D03*
D18*
X338507400Y-146273700D03*
X332157400Y-148813700D03*
%TD*%
D17*
%TO.C,K4*%
X147531200Y-122778700D03*
D16*
X152611200Y-122778700D03*
D17*
X157691200Y-122778700D03*
D18*
X155151200Y-117698700D03*
X148801200Y-120238700D03*
%TD*%
D17*
%TO.C,K12*%
X299931200Y-122778700D03*
D16*
X305011200Y-122778700D03*
D17*
X310091200Y-122778700D03*
D18*
X307551200Y-117698700D03*
X301201200Y-120238700D03*
%TD*%
D17*
%TO.C,K59*%
X97524900Y-198978700D03*
D16*
X102604900Y-198978700D03*
D17*
X107684900Y-198978700D03*
D18*
X105144900Y-193898700D03*
X98794900Y-196438700D03*
%TD*%
D17*
%TO.C,K38*%
X233256200Y-160878700D03*
D16*
X238336200Y-160878700D03*
D17*
X243416200Y-160878700D03*
D18*
X240876200Y-155798700D03*
X234526200Y-158338700D03*
%TD*%
D17*
%TO.C,K32*%
X118956200Y-160878700D03*
D16*
X124036200Y-160878700D03*
D17*
X129116200Y-160878700D03*
D18*
X126576200Y-155798700D03*
X120226200Y-158338700D03*
%TD*%
D17*
%TO.C,K9*%
X242781200Y-122778700D03*
D16*
X247861200Y-122778700D03*
D17*
X252941200Y-122778700D03*
D18*
X250401200Y-117698700D03*
X244051200Y-120238700D03*
%TD*%
D17*
%TO.C,K6*%
X185631200Y-122778700D03*
D16*
X190711200Y-122778700D03*
D17*
X195791200Y-122778700D03*
D18*
X193251200Y-117698700D03*
X186901200Y-120238700D03*
%TD*%
D14*
%TO.C,D0*%
X73151200Y-128238700D03*
X73151200Y-124938700D03*
%TD*%
D26*
%TO.C,C1*%
X231025000Y-105100000D03*
X228975000Y-105100000D03*
%TD*%
%TO.C,C2*%
X213025000Y-102000000D03*
X210975000Y-102000000D03*
%TD*%
D27*
%TO.C,C3*%
X217475000Y-102000000D03*
X219525000Y-102000000D03*
%TD*%
D28*
%TO.C,C4*%
X125659400Y-91511500D03*
X125659400Y-93561500D03*
%TD*%
D27*
%TO.C,C5*%
X133229800Y-86583700D03*
X135279800Y-86583700D03*
%TD*%
D28*
%TO.C,C6*%
X131391400Y-112425100D03*
X131391400Y-110375100D03*
%TD*%
%TO.C,C7*%
X144391400Y-112425100D03*
X144391400Y-110375100D03*
%TD*%
D26*
%TO.C,R1*%
X176325000Y-91600000D03*
X174275000Y-91600000D03*
%TD*%
%TO.C,R2*%
X176300000Y-94900000D03*
X174250000Y-94900000D03*
%TD*%
D29*
%TO.C,SW1*%
X173683200Y-104402000D03*
X165733200Y-104402000D03*
X173683200Y-108902000D03*
X165733200Y-108902000D03*
%TD*%
D30*
%TO.C,Y1*%
X135191400Y-111425100D03*
X140391400Y-111425100D03*
%TD*%
D14*
%TO.C,D43*%
X354138700Y-166338700D03*
X354138700Y-163038700D03*
%TD*%
%TO.C,D41*%
X292226200Y-166338700D03*
X292226200Y-163038700D03*
%TD*%
%TO.C,D60*%
X123157400Y-204438700D03*
X123157400Y-201138700D03*
%TD*%
%TO.C,D44*%
X75532400Y-185388700D03*
X75532400Y-182088700D03*
%TD*%
%TO.C,D35*%
X177926200Y-166338700D03*
X177926200Y-163038700D03*
%TD*%
%TO.C,D51*%
X211263700Y-185388700D03*
X211263700Y-182088700D03*
%TD*%
%TO.C,D56*%
X320801200Y-185388700D03*
X320801200Y-182088700D03*
%TD*%
%TO.C,D54*%
X268413700Y-185388700D03*
X268413700Y-182088700D03*
%TD*%
%TO.C,D47*%
X135063700Y-185388700D03*
X135063700Y-182088700D03*
%TD*%
%TO.C,D28*%
X332707400Y-156813700D03*
X332707400Y-153513700D03*
%TD*%
%TO.C,D64*%
X308894900Y-204438700D03*
X308894900Y-201138700D03*
%TD*%
%TO.C,D6*%
X187451200Y-128238700D03*
X187451200Y-124938700D03*
%TD*%
%TO.C,D55*%
X287463700Y-185388700D03*
X287463700Y-182088700D03*
%TD*%
D31*
%TO.C,R3*%
X93369600Y-162809300D03*
X91369600Y-162809300D03*
%TD*%
%TO.C,R5*%
X74583000Y-87295100D03*
X72583000Y-87295100D03*
%TD*%
D14*
%TO.C,D26*%
X287463700Y-147288700D03*
X287463700Y-143988700D03*
%TD*%
%TO.C,D58*%
X75532400Y-204438700D03*
X75532400Y-201138700D03*
%TD*%
D31*
%TO.C,R4*%
X74583000Y-102193500D03*
X72583000Y-102193500D03*
%TD*%
D14*
%TO.C,D14*%
X354138700Y-128238700D03*
X354138700Y-124938700D03*
%TD*%
%TO.C,D5*%
X168401200Y-128238700D03*
X168401200Y-124938700D03*
%TD*%
%TO.C,D49*%
X173163700Y-185388700D03*
X173163700Y-182088700D03*
%TD*%
%TO.C,D45*%
X96963700Y-185388700D03*
X96963700Y-182088700D03*
%TD*%
D31*
%TO.C,R9*%
X179337400Y-109221400D03*
X177337400Y-109221400D03*
%TD*%
%TO.C,R6*%
X74583000Y-92261200D03*
X72583000Y-92261200D03*
%TD*%
D14*
%TO.C,D27*%
X306513700Y-147288700D03*
X306513700Y-143988700D03*
%TD*%
%TO.C,D66*%
X354138700Y-204438700D03*
X354138700Y-201138700D03*
%TD*%
D31*
%TO.C,R7*%
X74583000Y-97227300D03*
X72583000Y-97227300D03*
%TD*%
D14*
%TO.C,D42*%
X311276200Y-166338700D03*
X311276200Y-163038700D03*
%TD*%
%TO.C,D17*%
X116013700Y-147288700D03*
X116013700Y-143988700D03*
%TD*%
%TO.C,D23*%
X230313700Y-147288700D03*
X230313700Y-143988700D03*
%TD*%
%TO.C,D21*%
X192213700Y-147288700D03*
X192213700Y-143988700D03*
%TD*%
%TO.C,D22*%
X211263700Y-147288700D03*
X211263700Y-143988700D03*
%TD*%
%TO.C,D19*%
X154113700Y-147288700D03*
X154113700Y-143988700D03*
%TD*%
%TO.C,D32*%
X120776200Y-166338700D03*
X120776200Y-163038700D03*
%TD*%
%TO.C,D65*%
X332707400Y-204438700D03*
X332707400Y-201138700D03*
%TD*%
%TO.C,D15*%
X75532400Y-147288700D03*
X75532400Y-143988700D03*
%TD*%
%TO.C,D9*%
X244601200Y-128238700D03*
X244601200Y-124938700D03*
%TD*%
%TO.C,D10*%
X263651200Y-128238700D03*
X263651200Y-124938700D03*
%TD*%
%TO.C,D30*%
X77913700Y-166338700D03*
X77913700Y-163038700D03*
%TD*%
%TO.C,D7*%
X206501200Y-128238700D03*
X206501200Y-124938700D03*
%TD*%
%TO.C,D29*%
X354138700Y-147288700D03*
X354138700Y-143988700D03*
%TD*%
%TO.C,D39*%
X254126200Y-166338700D03*
X254126200Y-163038700D03*
%TD*%
%TO.C,D13*%
X327944900Y-128238700D03*
X327944900Y-124938700D03*
%TD*%
%TO.C,D53*%
X249363700Y-185388700D03*
X249363700Y-182088700D03*
%TD*%
%TO.C,D50*%
X192213700Y-185388700D03*
X192213700Y-182088700D03*
%TD*%
%TO.C,D11*%
X282701200Y-128238700D03*
X282701200Y-124938700D03*
%TD*%
%TO.C,D31*%
X101726200Y-166338700D03*
X101726200Y-163038700D03*
%TD*%
%TO.C,D25*%
X268413700Y-147288700D03*
X268413700Y-143988700D03*
%TD*%
%TO.C,D40*%
X273176200Y-166338700D03*
X273176200Y-163038700D03*
%TD*%
%TO.C,D63*%
X285082400Y-204438700D03*
X285082400Y-201138700D03*
%TD*%
D31*
%TO.C,R8*%
X179261200Y-104728400D03*
X177261200Y-104728400D03*
%TD*%
D14*
%TO.C,D37*%
X216026200Y-166338700D03*
X216026200Y-163038700D03*
%TD*%
%TO.C,D62*%
X261269900Y-204438700D03*
X261269900Y-201138700D03*
%TD*%
%TO.C,D59*%
X99344900Y-204438700D03*
X99344900Y-201138700D03*
%TD*%
%TO.C,D57*%
X354138700Y-185388700D03*
X354138700Y-182088700D03*
%TD*%
%TO.C,D1*%
X92201200Y-128238700D03*
X92201200Y-124938700D03*
%TD*%
%TO.C,D36*%
X196976200Y-166338700D03*
X196976200Y-163038700D03*
%TD*%
%TO.C,D18*%
X135063700Y-147288700D03*
X135063700Y-143988700D03*
%TD*%
D31*
%TO.C,R10*%
X198132200Y-109221400D03*
X196132200Y-109221400D03*
%TD*%
D14*
%TO.C,D4*%
X149351200Y-128238700D03*
X149351200Y-124938700D03*
%TD*%
%TO.C,D33*%
X139826200Y-166338700D03*
X139826200Y-163038700D03*
%TD*%
%TO.C,D46*%
X116013700Y-185388700D03*
X116013700Y-182088700D03*
%TD*%
%TO.C,D34*%
X158876200Y-166338700D03*
X158876200Y-163038700D03*
%TD*%
%TO.C,D12*%
X301751200Y-128238700D03*
X301751200Y-124938700D03*
%TD*%
%TO.C,D24*%
X249363700Y-147288700D03*
X249363700Y-143988700D03*
%TD*%
%TO.C,D48*%
X154113700Y-185388700D03*
X154113700Y-182088700D03*
%TD*%
%TO.C,D38*%
X235076200Y-166338700D03*
X235076200Y-163038700D03*
%TD*%
%TO.C,D52*%
X230313700Y-185388700D03*
X230313700Y-182088700D03*
%TD*%
%TO.C,D2*%
X111251200Y-128238700D03*
X111251200Y-124938700D03*
%TD*%
%TO.C,D20*%
X173163700Y-147288700D03*
X173163700Y-143988700D03*
%TD*%
%TO.C,D8*%
X225551200Y-128238700D03*
X225551200Y-124938700D03*
%TD*%
%TO.C,D3*%
X130301200Y-128238700D03*
X130301200Y-124938700D03*
%TD*%
M02*
